; NON-PLATED HOLES START AT T1
; THROUGH (PLATED) HOLES START AT T100
M48
INCH
T1C0.125984
T100C0.030000
T101C0.042000
T102C0.038000
T103C0.040000
T104C0.036000
T105C0.035000
%
T1
X030249Y017518
X001249Y001221
X001249Y017518
X030249Y001221
T100
X022249Y009518
X017249Y006518
X017249Y010518
X017249Y007518
X017249Y011518
X022249Y005518
X017249Y008518
X017249Y012518
X022249Y006518
X017249Y009518
X022249Y010518
X022249Y007518
X022249Y011518
X022249Y008518
X017249Y005518
X022249Y012518
T101
X027249Y005518
X025249Y011038
X029249Y005518
X025249Y014018
X028249Y005518
T102
X003749Y000696
X022249Y002018
X015749Y014518
X014749Y000692
X002249Y005518
X001249Y005518
X008749Y000696
X007749Y000696
X010749Y000696
X015749Y016518
X024249Y002018
X004749Y000696
X015749Y013518
X023249Y002018
X002249Y004518
X001249Y004518
X015749Y000692
X013749Y000692
X012749Y000692
X009749Y000696
X015749Y015518
X006749Y000696
X002249Y003518
X025249Y002018
X005749Y000696
X001249Y003518
T103
X003249Y012018
X003249Y010018
X028249Y014018
X003249Y008018
X028249Y012018
X003249Y014018
T104
X007249Y016518
X014249Y010518
X007249Y009518
X007249Y013518
X007249Y006518
X007249Y010518
X014249Y015518
X014249Y008518
X014249Y012518
X014249Y005518
X007249Y015518
X007249Y008518
X007249Y012518
X007249Y005518
X014249Y014518
X014249Y007518
X014249Y011518
X007249Y014518
X007249Y007518
X007249Y011518
X014249Y016518
X014249Y009518
X014249Y013518
X014249Y006518
T105
X028749Y008819
X027749Y008819
T00
M30
