G04 MADE WITH FRITZING*
G04 WWW.FRITZING.ORG*
G04 DOUBLE SIDED*
G04 HOLES PLATED*
G04 CONTOUR ON CENTER OF CONTOUR VECTOR*
%ASAXBY*%
%FSLAX23Y23*%
%MOIN*%
%OFA0B0*%
%SFA1.0B1.0*%
%ADD10R,3.149610X1.889760X3.133610X1.873760*%
%ADD11C,0.008000*%
%ADD12R,0.001000X0.001000*%
%LNSILK0*%
G90*
G70*
G54D11*
X4Y1886D02*
X3146Y1886D01*
X3146Y4D01*
X4Y4D01*
X4Y1886D01*
D02*
G54D12*
X1378Y1854D02*
X1382Y1854D01*
X498Y1853D02*
X515Y1853D01*
X536Y1853D02*
X545Y1853D01*
X561Y1853D02*
X575Y1853D01*
X591Y1853D02*
X603Y1853D01*
X618Y1853D02*
X635Y1853D01*
X656Y1853D02*
X665Y1853D01*
X682Y1853D02*
X693Y1853D01*
X712Y1853D02*
X725Y1853D01*
X770Y1853D02*
X783Y1853D01*
X802Y1853D02*
X815Y1853D01*
X834Y1853D02*
X841Y1853D01*
X864Y1853D02*
X871Y1853D01*
X924Y1853D02*
X937Y1853D01*
X959Y1853D02*
X966Y1853D01*
X1225Y1853D02*
X1238Y1853D01*
X1319Y1853D02*
X1324Y1853D01*
X1377Y1853D02*
X1382Y1853D01*
X1495Y1853D02*
X1508Y1853D01*
X1620Y1853D02*
X1625Y1853D01*
X1650Y1853D02*
X1655Y1853D01*
X1822Y1853D02*
X1829Y1853D01*
X2066Y1853D02*
X2075Y1853D01*
X2159Y1853D02*
X2168Y1853D01*
X2189Y1853D02*
X2198Y1853D01*
X2311Y1853D02*
X2316Y1853D01*
X2391Y1853D02*
X2395Y1853D01*
X2407Y1853D02*
X2410Y1853D01*
X497Y1852D02*
X516Y1852D01*
X535Y1852D02*
X546Y1852D01*
X559Y1852D02*
X577Y1852D01*
X589Y1852D02*
X605Y1852D01*
X617Y1852D02*
X637Y1852D01*
X656Y1852D02*
X667Y1852D01*
X679Y1852D02*
X696Y1852D01*
X709Y1852D02*
X727Y1852D01*
X768Y1852D02*
X783Y1852D01*
X799Y1852D02*
X817Y1852D01*
X832Y1852D02*
X843Y1852D01*
X862Y1852D02*
X873Y1852D01*
X888Y1852D02*
X891Y1852D01*
X905Y1852D02*
X907Y1852D01*
X921Y1852D02*
X938Y1852D01*
X956Y1852D02*
X967Y1852D01*
X1205Y1852D02*
X1208Y1852D01*
X1222Y1852D02*
X1238Y1852D01*
X1317Y1852D02*
X1326Y1852D01*
X1377Y1852D02*
X1382Y1852D01*
X1492Y1852D02*
X1509Y1852D01*
X1618Y1852D02*
X1627Y1852D01*
X1648Y1852D02*
X1657Y1852D01*
X1820Y1852D02*
X1832Y1852D01*
X2063Y1852D02*
X2078Y1852D01*
X2136Y1852D02*
X2139Y1852D01*
X2159Y1852D02*
X2170Y1852D01*
X2189Y1852D02*
X2200Y1852D01*
X2309Y1852D02*
X2318Y1852D01*
X2391Y1852D02*
X2396Y1852D01*
X2406Y1852D02*
X2411Y1852D01*
X2602Y1852D02*
X2604Y1852D01*
X2618Y1852D02*
X2621Y1852D01*
X497Y1851D02*
X517Y1851D01*
X535Y1851D02*
X547Y1851D01*
X558Y1851D02*
X577Y1851D01*
X588Y1851D02*
X606Y1851D01*
X617Y1851D02*
X637Y1851D01*
X656Y1851D02*
X667Y1851D01*
X678Y1851D02*
X696Y1851D01*
X708Y1851D02*
X727Y1851D01*
X768Y1851D02*
X783Y1851D01*
X798Y1851D02*
X817Y1851D01*
X832Y1851D02*
X843Y1851D01*
X862Y1851D02*
X873Y1851D01*
X888Y1851D02*
X891Y1851D01*
X904Y1851D02*
X908Y1851D01*
X920Y1851D02*
X938Y1851D01*
X954Y1851D02*
X968Y1851D01*
X1142Y1851D02*
X1143Y1851D01*
X1205Y1851D02*
X1208Y1851D01*
X1220Y1851D02*
X1238Y1851D01*
X1317Y1851D02*
X1326Y1851D01*
X1377Y1851D02*
X1382Y1851D01*
X1412Y1851D02*
X1413Y1851D01*
X1491Y1851D02*
X1509Y1851D01*
X1618Y1851D02*
X1627Y1851D01*
X1648Y1851D02*
X1657Y1851D01*
X1743Y1851D02*
X1744Y1851D01*
X1820Y1851D02*
X1833Y1851D01*
X2044Y1851D02*
X2045Y1851D01*
X2062Y1851D02*
X2079Y1851D01*
X2136Y1851D02*
X2139Y1851D01*
X2159Y1851D02*
X2170Y1851D01*
X2189Y1851D02*
X2200Y1851D01*
X2309Y1851D02*
X2318Y1851D01*
X2391Y1851D02*
X2397Y1851D01*
X2405Y1851D02*
X2411Y1851D01*
X2555Y1851D02*
X2556Y1851D01*
X2601Y1851D02*
X2605Y1851D01*
X2618Y1851D02*
X2621Y1851D01*
X497Y1850D02*
X517Y1850D01*
X535Y1850D02*
X547Y1850D01*
X557Y1850D02*
X577Y1850D01*
X587Y1850D02*
X607Y1850D01*
X617Y1850D02*
X637Y1850D01*
X656Y1850D02*
X667Y1850D01*
X678Y1850D02*
X697Y1850D01*
X708Y1850D02*
X727Y1850D01*
X768Y1850D02*
X783Y1850D01*
X798Y1850D02*
X817Y1850D01*
X832Y1850D02*
X843Y1850D01*
X862Y1850D02*
X873Y1850D01*
X888Y1850D02*
X891Y1850D01*
X904Y1850D02*
X908Y1850D01*
X919Y1850D02*
X938Y1850D01*
X954Y1850D02*
X967Y1850D01*
X1141Y1850D02*
X1144Y1850D01*
X1205Y1850D02*
X1208Y1850D01*
X1220Y1850D02*
X1238Y1850D01*
X1317Y1850D02*
X1326Y1850D01*
X1377Y1850D02*
X1382Y1850D01*
X1412Y1850D02*
X1414Y1850D01*
X1490Y1850D02*
X1509Y1850D01*
X1618Y1850D02*
X1627Y1850D01*
X1648Y1850D02*
X1657Y1850D01*
X1742Y1850D02*
X1745Y1850D01*
X1820Y1850D02*
X1834Y1850D01*
X2043Y1850D02*
X2046Y1850D01*
X2061Y1850D02*
X2080Y1850D01*
X2136Y1850D02*
X2139Y1850D01*
X2159Y1850D02*
X2170Y1850D01*
X2189Y1850D02*
X2200Y1850D01*
X2309Y1850D02*
X2318Y1850D01*
X2391Y1850D02*
X2397Y1850D01*
X2404Y1850D02*
X2411Y1850D01*
X2554Y1850D02*
X2557Y1850D01*
X2601Y1850D02*
X2605Y1850D01*
X2618Y1850D02*
X2621Y1850D01*
X497Y1849D02*
X517Y1849D01*
X535Y1849D02*
X545Y1849D01*
X557Y1849D02*
X576Y1849D01*
X587Y1849D02*
X607Y1849D01*
X617Y1849D02*
X637Y1849D01*
X656Y1849D02*
X666Y1849D01*
X677Y1849D02*
X697Y1849D01*
X708Y1849D02*
X726Y1849D01*
X769Y1849D02*
X783Y1849D01*
X798Y1849D02*
X816Y1849D01*
X832Y1849D02*
X843Y1849D01*
X862Y1849D02*
X873Y1849D01*
X888Y1849D02*
X891Y1849D01*
X904Y1849D02*
X908Y1849D01*
X918Y1849D02*
X938Y1849D01*
X953Y1849D02*
X966Y1849D01*
X1016Y1849D02*
X1024Y1849D01*
X1141Y1849D02*
X1144Y1849D01*
X1205Y1849D02*
X1208Y1849D01*
X1219Y1849D02*
X1238Y1849D01*
X1317Y1849D02*
X1325Y1849D01*
X1379Y1849D02*
X1381Y1849D01*
X1411Y1849D02*
X1414Y1849D01*
X1490Y1849D02*
X1509Y1849D01*
X1618Y1849D02*
X1626Y1849D01*
X1648Y1849D02*
X1656Y1849D01*
X1742Y1849D02*
X1745Y1849D01*
X1821Y1849D02*
X1835Y1849D01*
X2043Y1849D02*
X2046Y1849D01*
X2060Y1849D02*
X2080Y1849D01*
X2124Y1849D02*
X2126Y1849D01*
X2136Y1849D02*
X2139Y1849D01*
X2159Y1849D02*
X2169Y1849D01*
X2189Y1849D02*
X2199Y1849D01*
X2309Y1849D02*
X2317Y1849D01*
X2391Y1849D02*
X2398Y1849D01*
X2404Y1849D02*
X2411Y1849D01*
X2554Y1849D02*
X2557Y1849D01*
X2601Y1849D02*
X2605Y1849D01*
X2618Y1849D02*
X2621Y1849D01*
X497Y1848D02*
X500Y1848D01*
X514Y1848D02*
X516Y1848D01*
X535Y1848D02*
X539Y1848D01*
X557Y1848D02*
X560Y1848D01*
X587Y1848D02*
X590Y1848D01*
X604Y1848D02*
X607Y1848D01*
X617Y1848D02*
X621Y1848D01*
X634Y1848D02*
X637Y1848D01*
X656Y1848D02*
X659Y1848D01*
X677Y1848D02*
X681Y1848D01*
X694Y1848D02*
X697Y1848D01*
X707Y1848D02*
X711Y1848D01*
X780Y1848D02*
X783Y1848D01*
X798Y1848D02*
X801Y1848D01*
X832Y1848D02*
X835Y1848D01*
X840Y1848D02*
X843Y1848D01*
X862Y1848D02*
X865Y1848D01*
X870Y1848D02*
X873Y1848D01*
X888Y1848D02*
X891Y1848D01*
X904Y1848D02*
X908Y1848D01*
X918Y1848D02*
X922Y1848D01*
X934Y1848D02*
X938Y1848D01*
X952Y1848D02*
X956Y1848D01*
X960Y1848D02*
X964Y1848D01*
X1015Y1848D02*
X1025Y1848D01*
X1141Y1848D02*
X1144Y1848D01*
X1205Y1848D02*
X1208Y1848D01*
X1219Y1848D02*
X1222Y1848D01*
X1235Y1848D02*
X1238Y1848D01*
X1317Y1848D02*
X1320Y1848D01*
X1411Y1848D02*
X1415Y1848D01*
X1489Y1848D02*
X1493Y1848D01*
X1506Y1848D02*
X1509Y1848D01*
X1618Y1848D02*
X1621Y1848D01*
X1648Y1848D02*
X1651Y1848D01*
X1742Y1848D02*
X1745Y1848D01*
X1831Y1848D02*
X1835Y1848D01*
X2043Y1848D02*
X2046Y1848D01*
X2060Y1848D02*
X2064Y1848D01*
X2077Y1848D02*
X2080Y1848D01*
X2124Y1848D02*
X2127Y1848D01*
X2136Y1848D02*
X2139Y1848D01*
X2159Y1848D02*
X2162Y1848D01*
X2189Y1848D02*
X2192Y1848D01*
X2309Y1848D02*
X2312Y1848D01*
X2391Y1848D02*
X2399Y1848D01*
X2403Y1848D02*
X2411Y1848D01*
X2554Y1848D02*
X2557Y1848D01*
X2601Y1848D02*
X2605Y1848D01*
X2618Y1848D02*
X2621Y1848D01*
X497Y1847D02*
X500Y1847D01*
X535Y1847D02*
X539Y1847D01*
X557Y1847D02*
X560Y1847D01*
X587Y1847D02*
X590Y1847D01*
X604Y1847D02*
X607Y1847D01*
X617Y1847D02*
X621Y1847D01*
X656Y1847D02*
X659Y1847D01*
X677Y1847D02*
X681Y1847D01*
X694Y1847D02*
X697Y1847D01*
X707Y1847D02*
X711Y1847D01*
X780Y1847D02*
X783Y1847D01*
X798Y1847D02*
X801Y1847D01*
X832Y1847D02*
X835Y1847D01*
X840Y1847D02*
X843Y1847D01*
X862Y1847D02*
X865Y1847D01*
X870Y1847D02*
X873Y1847D01*
X888Y1847D02*
X891Y1847D01*
X904Y1847D02*
X908Y1847D01*
X918Y1847D02*
X921Y1847D01*
X934Y1847D02*
X938Y1847D01*
X952Y1847D02*
X956Y1847D01*
X960Y1847D02*
X964Y1847D01*
X1014Y1847D02*
X1026Y1847D01*
X1141Y1847D02*
X1144Y1847D01*
X1205Y1847D02*
X1208Y1847D01*
X1219Y1847D02*
X1222Y1847D01*
X1235Y1847D02*
X1238Y1847D01*
X1317Y1847D02*
X1320Y1847D01*
X1411Y1847D02*
X1415Y1847D01*
X1489Y1847D02*
X1492Y1847D01*
X1506Y1847D02*
X1509Y1847D01*
X1618Y1847D02*
X1621Y1847D01*
X1648Y1847D02*
X1651Y1847D01*
X1742Y1847D02*
X1745Y1847D01*
X1832Y1847D02*
X1836Y1847D01*
X2043Y1847D02*
X2046Y1847D01*
X2060Y1847D02*
X2063Y1847D01*
X2076Y1847D02*
X2080Y1847D01*
X2123Y1847D02*
X2127Y1847D01*
X2136Y1847D02*
X2139Y1847D01*
X2159Y1847D02*
X2162Y1847D01*
X2189Y1847D02*
X2192Y1847D01*
X2309Y1847D02*
X2312Y1847D01*
X2391Y1847D02*
X2399Y1847D01*
X2402Y1847D02*
X2411Y1847D01*
X2554Y1847D02*
X2557Y1847D01*
X2601Y1847D02*
X2605Y1847D01*
X2618Y1847D02*
X2621Y1847D01*
X497Y1846D02*
X500Y1846D01*
X535Y1846D02*
X539Y1846D01*
X557Y1846D02*
X560Y1846D01*
X587Y1846D02*
X590Y1846D01*
X604Y1846D02*
X607Y1846D01*
X617Y1846D02*
X621Y1846D01*
X656Y1846D02*
X659Y1846D01*
X677Y1846D02*
X681Y1846D01*
X694Y1846D02*
X697Y1846D01*
X707Y1846D02*
X711Y1846D01*
X780Y1846D02*
X783Y1846D01*
X798Y1846D02*
X801Y1846D01*
X832Y1846D02*
X835Y1846D01*
X840Y1846D02*
X843Y1846D01*
X862Y1846D02*
X865Y1846D01*
X870Y1846D02*
X873Y1846D01*
X888Y1846D02*
X891Y1846D01*
X904Y1846D02*
X908Y1846D01*
X918Y1846D02*
X921Y1846D01*
X934Y1846D02*
X938Y1846D01*
X951Y1846D02*
X955Y1846D01*
X960Y1846D02*
X964Y1846D01*
X1013Y1846D02*
X1027Y1846D01*
X1141Y1846D02*
X1144Y1846D01*
X1205Y1846D02*
X1208Y1846D01*
X1219Y1846D02*
X1222Y1846D01*
X1235Y1846D02*
X1238Y1846D01*
X1317Y1846D02*
X1320Y1846D01*
X1411Y1846D02*
X1415Y1846D01*
X1489Y1846D02*
X1492Y1846D01*
X1506Y1846D02*
X1509Y1846D01*
X1618Y1846D02*
X1621Y1846D01*
X1648Y1846D02*
X1651Y1846D01*
X1742Y1846D02*
X1745Y1846D01*
X1832Y1846D02*
X1836Y1846D01*
X2043Y1846D02*
X2046Y1846D01*
X2061Y1846D02*
X2063Y1846D01*
X2075Y1846D02*
X2079Y1846D01*
X2123Y1846D02*
X2127Y1846D01*
X2136Y1846D02*
X2139Y1846D01*
X2159Y1846D02*
X2162Y1846D01*
X2189Y1846D02*
X2192Y1846D01*
X2309Y1846D02*
X2312Y1846D01*
X2391Y1846D02*
X2394Y1846D01*
X2396Y1846D02*
X2411Y1846D01*
X2554Y1846D02*
X2557Y1846D01*
X2601Y1846D02*
X2605Y1846D01*
X2618Y1846D02*
X2621Y1846D01*
X497Y1845D02*
X500Y1845D01*
X535Y1845D02*
X539Y1845D01*
X557Y1845D02*
X560Y1845D01*
X587Y1845D02*
X590Y1845D01*
X604Y1845D02*
X607Y1845D01*
X617Y1845D02*
X621Y1845D01*
X656Y1845D02*
X659Y1845D01*
X677Y1845D02*
X681Y1845D01*
X694Y1845D02*
X697Y1845D01*
X707Y1845D02*
X711Y1845D01*
X780Y1845D02*
X783Y1845D01*
X798Y1845D02*
X801Y1845D01*
X832Y1845D02*
X835Y1845D01*
X840Y1845D02*
X843Y1845D01*
X862Y1845D02*
X865Y1845D01*
X870Y1845D02*
X873Y1845D01*
X888Y1845D02*
X891Y1845D01*
X904Y1845D02*
X908Y1845D01*
X918Y1845D02*
X921Y1845D01*
X934Y1845D02*
X938Y1845D01*
X951Y1845D02*
X955Y1845D01*
X960Y1845D02*
X964Y1845D01*
X1013Y1845D02*
X1017Y1845D01*
X1023Y1845D02*
X1028Y1845D01*
X1141Y1845D02*
X1144Y1845D01*
X1205Y1845D02*
X1208Y1845D01*
X1219Y1845D02*
X1222Y1845D01*
X1235Y1845D02*
X1238Y1845D01*
X1317Y1845D02*
X1320Y1845D01*
X1411Y1845D02*
X1415Y1845D01*
X1489Y1845D02*
X1492Y1845D01*
X1506Y1845D02*
X1509Y1845D01*
X1618Y1845D02*
X1621Y1845D01*
X1648Y1845D02*
X1651Y1845D01*
X1742Y1845D02*
X1745Y1845D01*
X1833Y1845D02*
X1837Y1845D01*
X1949Y1845D02*
X1951Y1845D01*
X1958Y1845D02*
X1958Y1845D01*
X1979Y1845D02*
X1981Y1845D01*
X1988Y1845D02*
X1988Y1845D01*
X2043Y1845D02*
X2046Y1845D01*
X2074Y1845D02*
X2079Y1845D01*
X2123Y1845D02*
X2127Y1845D01*
X2136Y1845D02*
X2139Y1845D01*
X2159Y1845D02*
X2162Y1845D01*
X2189Y1845D02*
X2192Y1845D01*
X2309Y1845D02*
X2312Y1845D01*
X2391Y1845D02*
X2394Y1845D01*
X2397Y1845D02*
X2405Y1845D01*
X2407Y1845D02*
X2411Y1845D01*
X2554Y1845D02*
X2557Y1845D01*
X2601Y1845D02*
X2605Y1845D01*
X2618Y1845D02*
X2621Y1845D01*
X497Y1844D02*
X500Y1844D01*
X535Y1844D02*
X539Y1844D01*
X557Y1844D02*
X560Y1844D01*
X587Y1844D02*
X590Y1844D01*
X604Y1844D02*
X607Y1844D01*
X617Y1844D02*
X621Y1844D01*
X656Y1844D02*
X659Y1844D01*
X677Y1844D02*
X681Y1844D01*
X694Y1844D02*
X697Y1844D01*
X707Y1844D02*
X711Y1844D01*
X780Y1844D02*
X783Y1844D01*
X798Y1844D02*
X801Y1844D01*
X832Y1844D02*
X835Y1844D01*
X840Y1844D02*
X843Y1844D01*
X862Y1844D02*
X865Y1844D01*
X870Y1844D02*
X873Y1844D01*
X888Y1844D02*
X891Y1844D01*
X904Y1844D02*
X908Y1844D01*
X918Y1844D02*
X921Y1844D01*
X934Y1844D02*
X938Y1844D01*
X950Y1844D02*
X954Y1844D01*
X960Y1844D02*
X964Y1844D01*
X1012Y1844D02*
X1016Y1844D01*
X1024Y1844D02*
X1028Y1844D01*
X1073Y1844D02*
X1078Y1844D01*
X1086Y1844D02*
X1087Y1844D01*
X1105Y1844D02*
X1112Y1844D01*
X1132Y1844D02*
X1147Y1844D01*
X1165Y1844D02*
X1172Y1844D01*
X1194Y1844D02*
X1198Y1844D01*
X1205Y1844D02*
X1208Y1844D01*
X1219Y1844D02*
X1222Y1844D01*
X1235Y1844D02*
X1238Y1844D01*
X1285Y1844D02*
X1292Y1844D01*
X1317Y1844D02*
X1320Y1844D01*
X1340Y1844D02*
X1350Y1844D01*
X1378Y1844D02*
X1385Y1844D01*
X1402Y1844D02*
X1417Y1844D01*
X1434Y1844D02*
X1439Y1844D01*
X1447Y1844D02*
X1447Y1844D01*
X1464Y1844D02*
X1473Y1844D01*
X1489Y1844D02*
X1492Y1844D01*
X1506Y1844D02*
X1509Y1844D01*
X1554Y1844D02*
X1559Y1844D01*
X1567Y1844D02*
X1568Y1844D01*
X1585Y1844D02*
X1593Y1844D01*
X1618Y1844D02*
X1621Y1844D01*
X1648Y1844D02*
X1651Y1844D01*
X1676Y1844D02*
X1683Y1844D01*
X1704Y1844D02*
X1710Y1844D01*
X1717Y1844D02*
X1718Y1844D01*
X1733Y1844D02*
X1748Y1844D01*
X1765Y1844D02*
X1769Y1844D01*
X1777Y1844D02*
X1778Y1844D01*
X1796Y1844D02*
X1803Y1844D01*
X1833Y1844D02*
X1837Y1844D01*
X1885Y1844D02*
X1890Y1844D01*
X1898Y1844D02*
X1898Y1844D01*
X1916Y1844D02*
X1923Y1844D01*
X1946Y1844D02*
X1953Y1844D01*
X1957Y1844D02*
X1959Y1844D01*
X1976Y1844D02*
X1983Y1844D01*
X1987Y1844D02*
X1989Y1844D01*
X2006Y1844D02*
X2013Y1844D01*
X2034Y1844D02*
X2049Y1844D01*
X2074Y1844D02*
X2078Y1844D01*
X2123Y1844D02*
X2127Y1844D01*
X2136Y1844D02*
X2139Y1844D01*
X2159Y1844D02*
X2162Y1844D01*
X2189Y1844D02*
X2192Y1844D01*
X2242Y1844D02*
X2242Y1844D01*
X2259Y1844D02*
X2259Y1844D01*
X2277Y1844D02*
X2284Y1844D01*
X2309Y1844D02*
X2312Y1844D01*
X2336Y1844D02*
X2341Y1844D01*
X2349Y1844D02*
X2349Y1844D01*
X2366Y1844D02*
X2375Y1844D01*
X2391Y1844D02*
X2394Y1844D01*
X2397Y1844D02*
X2404Y1844D01*
X2407Y1844D02*
X2411Y1844D01*
X2456Y1844D02*
X2461Y1844D01*
X2469Y1844D02*
X2469Y1844D01*
X2487Y1844D02*
X2494Y1844D01*
X2516Y1844D02*
X2526Y1844D01*
X2545Y1844D02*
X2560Y1844D01*
X2576Y1844D02*
X2586Y1844D01*
X2601Y1844D02*
X2605Y1844D01*
X2618Y1844D02*
X2621Y1844D01*
X497Y1843D02*
X500Y1843D01*
X535Y1843D02*
X539Y1843D01*
X557Y1843D02*
X560Y1843D01*
X587Y1843D02*
X590Y1843D01*
X604Y1843D02*
X607Y1843D01*
X617Y1843D02*
X621Y1843D01*
X656Y1843D02*
X659Y1843D01*
X677Y1843D02*
X681Y1843D01*
X694Y1843D02*
X697Y1843D01*
X707Y1843D02*
X711Y1843D01*
X780Y1843D02*
X783Y1843D01*
X798Y1843D02*
X801Y1843D01*
X832Y1843D02*
X835Y1843D01*
X840Y1843D02*
X843Y1843D01*
X862Y1843D02*
X865Y1843D01*
X870Y1843D02*
X873Y1843D01*
X888Y1843D02*
X892Y1843D01*
X904Y1843D02*
X907Y1843D01*
X918Y1843D02*
X922Y1843D01*
X934Y1843D02*
X938Y1843D01*
X950Y1843D02*
X954Y1843D01*
X960Y1843D02*
X964Y1843D01*
X1012Y1843D02*
X1015Y1843D01*
X1025Y1843D02*
X1028Y1843D01*
X1071Y1843D02*
X1080Y1843D01*
X1085Y1843D02*
X1088Y1843D01*
X1102Y1843D02*
X1114Y1843D01*
X1131Y1843D02*
X1148Y1843D01*
X1163Y1843D02*
X1174Y1843D01*
X1192Y1843D02*
X1200Y1843D01*
X1205Y1843D02*
X1208Y1843D01*
X1219Y1843D02*
X1222Y1843D01*
X1235Y1843D02*
X1238Y1843D01*
X1283Y1843D02*
X1294Y1843D01*
X1317Y1843D02*
X1320Y1843D01*
X1339Y1843D02*
X1352Y1843D01*
X1377Y1843D02*
X1386Y1843D01*
X1401Y1843D02*
X1418Y1843D01*
X1432Y1843D02*
X1441Y1843D01*
X1446Y1843D02*
X1448Y1843D01*
X1462Y1843D02*
X1474Y1843D01*
X1489Y1843D02*
X1492Y1843D01*
X1506Y1843D02*
X1509Y1843D01*
X1552Y1843D02*
X1561Y1843D01*
X1566Y1843D02*
X1569Y1843D01*
X1583Y1843D02*
X1595Y1843D01*
X1618Y1843D02*
X1621Y1843D01*
X1648Y1843D02*
X1651Y1843D01*
X1674Y1843D02*
X1685Y1843D01*
X1702Y1843D02*
X1711Y1843D01*
X1716Y1843D02*
X1719Y1843D01*
X1732Y1843D02*
X1749Y1843D01*
X1763Y1843D02*
X1771Y1843D01*
X1776Y1843D02*
X1779Y1843D01*
X1794Y1843D02*
X1805Y1843D01*
X1834Y1843D02*
X1838Y1843D01*
X1883Y1843D02*
X1891Y1843D01*
X1897Y1843D02*
X1899Y1843D01*
X1914Y1843D02*
X1925Y1843D01*
X1945Y1843D02*
X1954Y1843D01*
X1957Y1843D02*
X1960Y1843D01*
X1975Y1843D02*
X1984Y1843D01*
X1987Y1843D02*
X1990Y1843D01*
X2004Y1843D02*
X2016Y1843D01*
X2033Y1843D02*
X2050Y1843D01*
X2073Y1843D02*
X2077Y1843D01*
X2123Y1843D02*
X2127Y1843D01*
X2136Y1843D02*
X2139Y1843D01*
X2159Y1843D02*
X2162Y1843D01*
X2189Y1843D02*
X2192Y1843D01*
X2240Y1843D02*
X2243Y1843D01*
X2258Y1843D02*
X2261Y1843D01*
X2275Y1843D02*
X2286Y1843D01*
X2309Y1843D02*
X2312Y1843D01*
X2334Y1843D02*
X2342Y1843D01*
X2348Y1843D02*
X2350Y1843D01*
X2364Y1843D02*
X2376Y1843D01*
X2391Y1843D02*
X2394Y1843D01*
X2398Y1843D02*
X2403Y1843D01*
X2407Y1843D02*
X2411Y1843D01*
X2454Y1843D02*
X2463Y1843D01*
X2468Y1843D02*
X2470Y1843D01*
X2485Y1843D02*
X2497Y1843D01*
X2513Y1843D02*
X2528Y1843D01*
X2544Y1843D02*
X2561Y1843D01*
X2575Y1843D02*
X2587Y1843D01*
X2601Y1843D02*
X2605Y1843D01*
X2618Y1843D02*
X2621Y1843D01*
X497Y1842D02*
X500Y1842D01*
X535Y1842D02*
X539Y1842D01*
X557Y1842D02*
X560Y1842D01*
X587Y1842D02*
X590Y1842D01*
X604Y1842D02*
X607Y1842D01*
X617Y1842D02*
X621Y1842D01*
X656Y1842D02*
X659Y1842D01*
X677Y1842D02*
X681Y1842D01*
X694Y1842D02*
X697Y1842D01*
X707Y1842D02*
X711Y1842D01*
X780Y1842D02*
X783Y1842D01*
X798Y1842D02*
X801Y1842D01*
X832Y1842D02*
X835Y1842D01*
X840Y1842D02*
X843Y1842D01*
X862Y1842D02*
X865Y1842D01*
X870Y1842D02*
X873Y1842D01*
X888Y1842D02*
X892Y1842D01*
X903Y1842D02*
X907Y1842D01*
X919Y1842D02*
X938Y1842D01*
X949Y1842D02*
X953Y1842D01*
X960Y1842D02*
X964Y1842D01*
X1012Y1842D02*
X1015Y1842D01*
X1025Y1842D02*
X1028Y1842D01*
X1070Y1842D02*
X1082Y1842D01*
X1085Y1842D02*
X1088Y1842D01*
X1101Y1842D02*
X1115Y1842D01*
X1131Y1842D02*
X1148Y1842D01*
X1161Y1842D02*
X1175Y1842D01*
X1191Y1842D02*
X1202Y1842D01*
X1205Y1842D02*
X1208Y1842D01*
X1219Y1842D02*
X1222Y1842D01*
X1235Y1842D02*
X1238Y1842D01*
X1281Y1842D02*
X1296Y1842D01*
X1317Y1842D02*
X1320Y1842D01*
X1339Y1842D02*
X1354Y1842D01*
X1377Y1842D02*
X1386Y1842D01*
X1401Y1842D02*
X1419Y1842D01*
X1431Y1842D02*
X1442Y1842D01*
X1445Y1842D02*
X1449Y1842D01*
X1461Y1842D02*
X1475Y1842D01*
X1489Y1842D02*
X1492Y1842D01*
X1506Y1842D02*
X1509Y1842D01*
X1551Y1842D02*
X1562Y1842D01*
X1566Y1842D02*
X1569Y1842D01*
X1582Y1842D02*
X1596Y1842D01*
X1618Y1842D02*
X1621Y1842D01*
X1648Y1842D02*
X1651Y1842D01*
X1672Y1842D02*
X1686Y1842D01*
X1701Y1842D02*
X1712Y1842D01*
X1716Y1842D02*
X1719Y1842D01*
X1732Y1842D02*
X1749Y1842D01*
X1762Y1842D02*
X1773Y1842D01*
X1776Y1842D02*
X1779Y1842D01*
X1793Y1842D02*
X1807Y1842D01*
X1834Y1842D02*
X1838Y1842D01*
X1881Y1842D02*
X1893Y1842D01*
X1896Y1842D02*
X1900Y1842D01*
X1913Y1842D02*
X1927Y1842D01*
X1944Y1842D02*
X1960Y1842D01*
X1974Y1842D02*
X1990Y1842D01*
X2003Y1842D02*
X2017Y1842D01*
X2032Y1842D02*
X2050Y1842D01*
X2072Y1842D02*
X2076Y1842D01*
X2123Y1842D02*
X2127Y1842D01*
X2136Y1842D02*
X2139Y1842D01*
X2159Y1842D02*
X2162Y1842D01*
X2189Y1842D02*
X2192Y1842D01*
X2240Y1842D02*
X2243Y1842D01*
X2258Y1842D02*
X2261Y1842D01*
X2274Y1842D02*
X2288Y1842D01*
X2309Y1842D02*
X2312Y1842D01*
X2332Y1842D02*
X2344Y1842D01*
X2347Y1842D02*
X2350Y1842D01*
X2363Y1842D02*
X2376Y1842D01*
X2391Y1842D02*
X2394Y1842D01*
X2399Y1842D02*
X2403Y1842D01*
X2407Y1842D02*
X2411Y1842D01*
X2453Y1842D02*
X2464Y1842D01*
X2468Y1842D02*
X2471Y1842D01*
X2484Y1842D02*
X2498Y1842D01*
X2512Y1842D02*
X2529Y1842D01*
X2543Y1842D02*
X2561Y1842D01*
X2573Y1842D02*
X2587Y1842D01*
X2601Y1842D02*
X2605Y1842D01*
X2611Y1842D02*
X2612Y1842D01*
X2618Y1842D02*
X2621Y1842D01*
X497Y1841D02*
X501Y1841D01*
X535Y1841D02*
X539Y1841D01*
X557Y1841D02*
X560Y1841D01*
X587Y1841D02*
X590Y1841D01*
X604Y1841D02*
X607Y1841D01*
X617Y1841D02*
X621Y1841D01*
X656Y1841D02*
X659Y1841D01*
X677Y1841D02*
X681Y1841D01*
X694Y1841D02*
X697Y1841D01*
X707Y1841D02*
X711Y1841D01*
X780Y1841D02*
X783Y1841D01*
X798Y1841D02*
X801Y1841D01*
X832Y1841D02*
X835Y1841D01*
X840Y1841D02*
X843Y1841D01*
X862Y1841D02*
X865Y1841D01*
X870Y1841D02*
X873Y1841D01*
X889Y1841D02*
X892Y1841D01*
X903Y1841D02*
X907Y1841D01*
X919Y1841D02*
X938Y1841D01*
X949Y1841D02*
X953Y1841D01*
X960Y1841D02*
X964Y1841D01*
X1012Y1841D02*
X1016Y1841D01*
X1024Y1841D02*
X1028Y1841D01*
X1070Y1841D02*
X1088Y1841D01*
X1100Y1841D02*
X1116Y1841D01*
X1131Y1841D02*
X1148Y1841D01*
X1160Y1841D02*
X1176Y1841D01*
X1190Y1841D02*
X1208Y1841D01*
X1219Y1841D02*
X1222Y1841D01*
X1235Y1841D02*
X1238Y1841D01*
X1280Y1841D02*
X1297Y1841D01*
X1317Y1841D02*
X1320Y1841D01*
X1339Y1841D02*
X1355Y1841D01*
X1377Y1841D02*
X1386Y1841D01*
X1401Y1841D02*
X1418Y1841D01*
X1430Y1841D02*
X1443Y1841D01*
X1445Y1841D02*
X1449Y1841D01*
X1460Y1841D02*
X1474Y1841D01*
X1489Y1841D02*
X1492Y1841D01*
X1506Y1841D02*
X1509Y1841D01*
X1550Y1841D02*
X1563Y1841D01*
X1566Y1841D02*
X1569Y1841D01*
X1581Y1841D02*
X1597Y1841D01*
X1618Y1841D02*
X1621Y1841D01*
X1648Y1841D02*
X1651Y1841D01*
X1671Y1841D02*
X1687Y1841D01*
X1700Y1841D02*
X1713Y1841D01*
X1716Y1841D02*
X1719Y1841D01*
X1732Y1841D02*
X1749Y1841D01*
X1761Y1841D02*
X1779Y1841D01*
X1791Y1841D02*
X1808Y1841D01*
X1835Y1841D02*
X1838Y1841D01*
X1881Y1841D02*
X1894Y1841D01*
X1896Y1841D02*
X1900Y1841D01*
X1912Y1841D02*
X1928Y1841D01*
X1943Y1841D02*
X1960Y1841D01*
X1973Y1841D02*
X1990Y1841D01*
X2002Y1841D02*
X2018Y1841D01*
X2033Y1841D02*
X2050Y1841D01*
X2071Y1841D02*
X2076Y1841D01*
X2123Y1841D02*
X2127Y1841D01*
X2136Y1841D02*
X2139Y1841D01*
X2159Y1841D02*
X2162Y1841D01*
X2189Y1841D02*
X2192Y1841D01*
X2240Y1841D02*
X2243Y1841D01*
X2258Y1841D02*
X2261Y1841D01*
X2272Y1841D02*
X2289Y1841D01*
X2309Y1841D02*
X2312Y1841D01*
X2332Y1841D02*
X2345Y1841D01*
X2347Y1841D02*
X2351Y1841D01*
X2362Y1841D02*
X2376Y1841D01*
X2391Y1841D02*
X2394Y1841D01*
X2399Y1841D02*
X2402Y1841D01*
X2407Y1841D02*
X2411Y1841D01*
X2452Y1841D02*
X2471Y1841D01*
X2483Y1841D02*
X2499Y1841D01*
X2512Y1841D02*
X2530Y1841D01*
X2544Y1841D02*
X2561Y1841D01*
X2573Y1841D02*
X2587Y1841D01*
X2601Y1841D02*
X2605Y1841D01*
X2610Y1841D02*
X2613Y1841D01*
X2618Y1841D02*
X2621Y1841D01*
X497Y1840D02*
X502Y1840D01*
X535Y1840D02*
X539Y1840D01*
X557Y1840D02*
X561Y1840D01*
X587Y1840D02*
X590Y1840D01*
X604Y1840D02*
X607Y1840D01*
X617Y1840D02*
X622Y1840D01*
X656Y1840D02*
X659Y1840D01*
X677Y1840D02*
X681Y1840D01*
X694Y1840D02*
X697Y1840D01*
X707Y1840D02*
X711Y1840D01*
X780Y1840D02*
X783Y1840D01*
X798Y1840D02*
X801Y1840D01*
X832Y1840D02*
X835Y1840D01*
X840Y1840D02*
X843Y1840D01*
X862Y1840D02*
X865Y1840D01*
X870Y1840D02*
X873Y1840D01*
X889Y1840D02*
X893Y1840D01*
X903Y1840D02*
X906Y1840D01*
X920Y1840D02*
X938Y1840D01*
X949Y1840D02*
X952Y1840D01*
X960Y1840D02*
X964Y1840D01*
X1012Y1840D02*
X1017Y1840D01*
X1023Y1840D02*
X1028Y1840D01*
X1069Y1840D02*
X1074Y1840D01*
X1078Y1840D02*
X1088Y1840D01*
X1099Y1840D02*
X1105Y1840D01*
X1111Y1840D02*
X1117Y1840D01*
X1140Y1840D02*
X1144Y1840D01*
X1159Y1840D02*
X1165Y1840D01*
X1171Y1840D02*
X1177Y1840D01*
X1189Y1840D02*
X1194Y1840D01*
X1198Y1840D02*
X1208Y1840D01*
X1219Y1840D02*
X1222Y1840D01*
X1235Y1840D02*
X1238Y1840D01*
X1280Y1840D02*
X1286Y1840D01*
X1291Y1840D02*
X1297Y1840D01*
X1317Y1840D02*
X1320Y1840D01*
X1350Y1840D02*
X1356Y1840D01*
X1377Y1840D02*
X1381Y1840D01*
X1411Y1840D02*
X1415Y1840D01*
X1429Y1840D02*
X1434Y1840D01*
X1438Y1840D02*
X1449Y1840D01*
X1460Y1840D02*
X1465Y1840D01*
X1489Y1840D02*
X1492Y1840D01*
X1506Y1840D02*
X1509Y1840D01*
X1550Y1840D02*
X1555Y1840D01*
X1559Y1840D02*
X1569Y1840D01*
X1580Y1840D02*
X1586Y1840D01*
X1592Y1840D02*
X1598Y1840D01*
X1618Y1840D02*
X1621Y1840D01*
X1648Y1840D02*
X1651Y1840D01*
X1670Y1840D02*
X1676Y1840D01*
X1682Y1840D02*
X1688Y1840D01*
X1700Y1840D02*
X1705Y1840D01*
X1709Y1840D02*
X1719Y1840D01*
X1741Y1840D02*
X1746Y1840D01*
X1761Y1840D02*
X1765Y1840D01*
X1769Y1840D02*
X1779Y1840D01*
X1791Y1840D02*
X1797Y1840D01*
X1803Y1840D02*
X1808Y1840D01*
X1835Y1840D02*
X1839Y1840D01*
X1880Y1840D02*
X1885Y1840D01*
X1889Y1840D02*
X1900Y1840D01*
X1911Y1840D02*
X1917Y1840D01*
X1923Y1840D02*
X1929Y1840D01*
X1942Y1840D02*
X1947Y1840D01*
X1952Y1840D02*
X1960Y1840D01*
X1972Y1840D02*
X1977Y1840D01*
X1983Y1840D02*
X1990Y1840D01*
X2001Y1840D02*
X2007Y1840D01*
X2013Y1840D02*
X2019Y1840D01*
X2042Y1840D02*
X2046Y1840D01*
X2070Y1840D02*
X2075Y1840D01*
X2123Y1840D02*
X2127Y1840D01*
X2136Y1840D02*
X2139Y1840D01*
X2159Y1840D02*
X2162Y1840D01*
X2189Y1840D02*
X2192Y1840D01*
X2240Y1840D02*
X2243Y1840D01*
X2257Y1840D02*
X2261Y1840D01*
X2272Y1840D02*
X2278Y1840D01*
X2284Y1840D02*
X2289Y1840D01*
X2309Y1840D02*
X2312Y1840D01*
X2331Y1840D02*
X2336Y1840D01*
X2340Y1840D02*
X2351Y1840D01*
X2362Y1840D02*
X2367Y1840D01*
X2391Y1840D02*
X2394Y1840D01*
X2399Y1840D02*
X2402Y1840D01*
X2407Y1840D02*
X2411Y1840D01*
X2452Y1840D02*
X2457Y1840D01*
X2460Y1840D02*
X2471Y1840D01*
X2482Y1840D02*
X2488Y1840D01*
X2494Y1840D02*
X2500Y1840D01*
X2512Y1840D02*
X2516Y1840D01*
X2526Y1840D02*
X2530Y1840D01*
X2553Y1840D02*
X2557Y1840D01*
X2572Y1840D02*
X2577Y1840D01*
X2601Y1840D02*
X2605Y1840D01*
X2610Y1840D02*
X2613Y1840D01*
X2618Y1840D02*
X2621Y1840D01*
X498Y1839D02*
X503Y1839D01*
X535Y1839D02*
X539Y1839D01*
X558Y1839D02*
X562Y1839D01*
X587Y1839D02*
X590Y1839D01*
X604Y1839D02*
X607Y1839D01*
X618Y1839D02*
X623Y1839D01*
X656Y1839D02*
X659Y1839D01*
X677Y1839D02*
X681Y1839D01*
X694Y1839D02*
X697Y1839D01*
X708Y1839D02*
X711Y1839D01*
X780Y1839D02*
X783Y1839D01*
X798Y1839D02*
X801Y1839D01*
X832Y1839D02*
X835Y1839D01*
X840Y1839D02*
X844Y1839D01*
X862Y1839D02*
X866Y1839D01*
X870Y1839D02*
X874Y1839D01*
X890Y1839D02*
X893Y1839D01*
X902Y1839D02*
X906Y1839D01*
X921Y1839D02*
X938Y1839D01*
X948Y1839D02*
X952Y1839D01*
X960Y1839D02*
X964Y1839D01*
X1013Y1839D02*
X1018Y1839D01*
X1023Y1839D02*
X1027Y1839D01*
X1069Y1839D02*
X1072Y1839D01*
X1080Y1839D02*
X1088Y1839D01*
X1099Y1839D02*
X1103Y1839D01*
X1113Y1839D02*
X1117Y1839D01*
X1141Y1839D02*
X1144Y1839D01*
X1159Y1839D02*
X1163Y1839D01*
X1173Y1839D02*
X1178Y1839D01*
X1189Y1839D02*
X1193Y1839D01*
X1200Y1839D02*
X1208Y1839D01*
X1219Y1839D02*
X1222Y1839D01*
X1235Y1839D02*
X1238Y1839D01*
X1279Y1839D02*
X1283Y1839D01*
X1294Y1839D02*
X1298Y1839D01*
X1317Y1839D02*
X1320Y1839D01*
X1352Y1839D02*
X1357Y1839D01*
X1377Y1839D02*
X1380Y1839D01*
X1411Y1839D02*
X1415Y1839D01*
X1429Y1839D02*
X1432Y1839D01*
X1440Y1839D02*
X1449Y1839D01*
X1460Y1839D02*
X1463Y1839D01*
X1489Y1839D02*
X1492Y1839D01*
X1506Y1839D02*
X1509Y1839D01*
X1549Y1839D02*
X1553Y1839D01*
X1560Y1839D02*
X1569Y1839D01*
X1580Y1839D02*
X1584Y1839D01*
X1594Y1839D02*
X1598Y1839D01*
X1618Y1839D02*
X1621Y1839D01*
X1648Y1839D02*
X1651Y1839D01*
X1670Y1839D02*
X1674Y1839D01*
X1684Y1839D02*
X1689Y1839D01*
X1700Y1839D02*
X1703Y1839D01*
X1710Y1839D02*
X1719Y1839D01*
X1742Y1839D02*
X1745Y1839D01*
X1760Y1839D02*
X1764Y1839D01*
X1771Y1839D02*
X1779Y1839D01*
X1790Y1839D02*
X1794Y1839D01*
X1805Y1839D02*
X1809Y1839D01*
X1836Y1839D02*
X1839Y1839D01*
X1880Y1839D02*
X1883Y1839D01*
X1891Y1839D02*
X1900Y1839D01*
X1910Y1839D02*
X1915Y1839D01*
X1925Y1839D02*
X1929Y1839D01*
X1941Y1839D02*
X1946Y1839D01*
X1953Y1839D02*
X1960Y1839D01*
X1971Y1839D02*
X1976Y1839D01*
X1984Y1839D02*
X1990Y1839D01*
X2001Y1839D02*
X2005Y1839D01*
X2015Y1839D02*
X2019Y1839D01*
X2043Y1839D02*
X2046Y1839D01*
X2070Y1839D02*
X2074Y1839D01*
X2123Y1839D02*
X2127Y1839D01*
X2136Y1839D02*
X2139Y1839D01*
X2159Y1839D02*
X2162Y1839D01*
X2189Y1839D02*
X2192Y1839D01*
X2240Y1839D02*
X2243Y1839D01*
X2257Y1839D02*
X2261Y1839D01*
X2271Y1839D02*
X2275Y1839D01*
X2286Y1839D02*
X2290Y1839D01*
X2309Y1839D02*
X2312Y1839D01*
X2331Y1839D02*
X2334Y1839D01*
X2342Y1839D02*
X2351Y1839D01*
X2361Y1839D02*
X2365Y1839D01*
X2391Y1839D02*
X2394Y1839D01*
X2400Y1839D02*
X2402Y1839D01*
X2407Y1839D02*
X2411Y1839D01*
X2452Y1839D02*
X2455Y1839D01*
X2462Y1839D02*
X2471Y1839D01*
X2482Y1839D02*
X2486Y1839D01*
X2496Y1839D02*
X2500Y1839D01*
X2512Y1839D02*
X2514Y1839D01*
X2527Y1839D02*
X2530Y1839D01*
X2554Y1839D02*
X2557Y1839D01*
X2572Y1839D02*
X2575Y1839D01*
X2601Y1839D02*
X2605Y1839D01*
X2610Y1839D02*
X2613Y1839D01*
X2618Y1839D02*
X2621Y1839D01*
X499Y1838D02*
X504Y1838D01*
X535Y1838D02*
X539Y1838D01*
X558Y1838D02*
X572Y1838D01*
X587Y1838D02*
X590Y1838D01*
X604Y1838D02*
X607Y1838D01*
X619Y1838D02*
X624Y1838D01*
X656Y1838D02*
X659Y1838D01*
X677Y1838D02*
X681Y1838D01*
X694Y1838D02*
X697Y1838D01*
X708Y1838D02*
X725Y1838D01*
X769Y1838D02*
X783Y1838D01*
X798Y1838D02*
X816Y1838D01*
X829Y1838D02*
X846Y1838D01*
X860Y1838D02*
X876Y1838D01*
X890Y1838D02*
X894Y1838D01*
X902Y1838D02*
X905Y1838D01*
X926Y1838D02*
X931Y1838D01*
X934Y1838D02*
X938Y1838D01*
X948Y1838D02*
X951Y1838D01*
X960Y1838D02*
X964Y1838D01*
X1014Y1838D02*
X1019Y1838D01*
X1022Y1838D02*
X1026Y1838D01*
X1069Y1838D02*
X1072Y1838D01*
X1081Y1838D02*
X1088Y1838D01*
X1098Y1838D02*
X1102Y1838D01*
X1114Y1838D02*
X1118Y1838D01*
X1141Y1838D02*
X1144Y1838D01*
X1159Y1838D02*
X1162Y1838D01*
X1174Y1838D02*
X1178Y1838D01*
X1189Y1838D02*
X1192Y1838D01*
X1201Y1838D02*
X1208Y1838D01*
X1219Y1838D02*
X1222Y1838D01*
X1235Y1838D02*
X1238Y1838D01*
X1279Y1838D02*
X1282Y1838D01*
X1295Y1838D02*
X1298Y1838D01*
X1317Y1838D02*
X1320Y1838D01*
X1353Y1838D02*
X1358Y1838D01*
X1377Y1838D02*
X1380Y1838D01*
X1411Y1838D02*
X1415Y1838D01*
X1429Y1838D02*
X1432Y1838D01*
X1441Y1838D02*
X1449Y1838D01*
X1460Y1838D02*
X1463Y1838D01*
X1489Y1838D02*
X1493Y1838D01*
X1506Y1838D02*
X1509Y1838D01*
X1549Y1838D02*
X1552Y1838D01*
X1561Y1838D02*
X1569Y1838D01*
X1579Y1838D02*
X1583Y1838D01*
X1595Y1838D02*
X1599Y1838D01*
X1618Y1838D02*
X1621Y1838D01*
X1648Y1838D02*
X1651Y1838D01*
X1670Y1838D02*
X1673Y1838D01*
X1685Y1838D02*
X1689Y1838D01*
X1700Y1838D02*
X1703Y1838D01*
X1711Y1838D02*
X1719Y1838D01*
X1742Y1838D02*
X1745Y1838D01*
X1760Y1838D02*
X1763Y1838D01*
X1772Y1838D02*
X1779Y1838D01*
X1790Y1838D02*
X1793Y1838D01*
X1806Y1838D02*
X1809Y1838D01*
X1836Y1838D02*
X1839Y1838D01*
X1880Y1838D02*
X1883Y1838D01*
X1892Y1838D02*
X1900Y1838D01*
X1910Y1838D02*
X1914Y1838D01*
X1926Y1838D02*
X1929Y1838D01*
X1940Y1838D02*
X1945Y1838D01*
X1954Y1838D02*
X1960Y1838D01*
X1971Y1838D02*
X1975Y1838D01*
X1985Y1838D02*
X1990Y1838D01*
X2000Y1838D02*
X2004Y1838D01*
X2016Y1838D02*
X2020Y1838D01*
X2043Y1838D02*
X2046Y1838D01*
X2069Y1838D02*
X2073Y1838D01*
X2123Y1838D02*
X2127Y1838D01*
X2136Y1838D02*
X2139Y1838D01*
X2159Y1838D02*
X2162Y1838D01*
X2189Y1838D02*
X2192Y1838D01*
X2240Y1838D02*
X2244Y1838D01*
X2257Y1838D02*
X2261Y1838D01*
X2271Y1838D02*
X2274Y1838D01*
X2287Y1838D02*
X2290Y1838D01*
X2309Y1838D02*
X2312Y1838D01*
X2331Y1838D02*
X2334Y1838D01*
X2343Y1838D02*
X2351Y1838D01*
X2361Y1838D02*
X2365Y1838D01*
X2391Y1838D02*
X2394Y1838D01*
X2407Y1838D02*
X2411Y1838D01*
X2452Y1838D02*
X2455Y1838D01*
X2464Y1838D02*
X2471Y1838D01*
X2481Y1838D02*
X2485Y1838D01*
X2497Y1838D02*
X2501Y1838D01*
X2527Y1838D02*
X2530Y1838D01*
X2554Y1838D02*
X2557Y1838D01*
X2572Y1838D02*
X2575Y1838D01*
X2601Y1838D02*
X2605Y1838D01*
X2610Y1838D02*
X2613Y1838D01*
X2618Y1838D02*
X2621Y1838D01*
X500Y1837D02*
X505Y1837D01*
X535Y1837D02*
X539Y1837D01*
X559Y1837D02*
X573Y1837D01*
X587Y1837D02*
X590Y1837D01*
X604Y1837D02*
X607Y1837D01*
X620Y1837D02*
X626Y1837D01*
X656Y1837D02*
X659Y1837D01*
X677Y1837D02*
X681Y1837D01*
X694Y1837D02*
X697Y1837D01*
X708Y1837D02*
X726Y1837D01*
X768Y1837D02*
X783Y1837D01*
X798Y1837D02*
X817Y1837D01*
X829Y1837D02*
X847Y1837D01*
X859Y1837D02*
X877Y1837D01*
X890Y1837D02*
X894Y1837D01*
X902Y1837D02*
X905Y1837D01*
X926Y1837D02*
X930Y1837D01*
X934Y1837D02*
X938Y1837D01*
X948Y1837D02*
X951Y1837D01*
X960Y1837D02*
X964Y1837D01*
X1015Y1837D02*
X1025Y1837D01*
X1069Y1837D02*
X1072Y1837D01*
X1083Y1837D02*
X1088Y1837D01*
X1098Y1837D02*
X1102Y1837D01*
X1115Y1837D02*
X1118Y1837D01*
X1141Y1837D02*
X1144Y1837D01*
X1158Y1837D02*
X1162Y1837D01*
X1175Y1837D02*
X1178Y1837D01*
X1189Y1837D02*
X1192Y1837D01*
X1203Y1837D02*
X1208Y1837D01*
X1219Y1837D02*
X1238Y1837D01*
X1279Y1837D02*
X1282Y1837D01*
X1295Y1837D02*
X1298Y1837D01*
X1317Y1837D02*
X1320Y1837D01*
X1354Y1837D02*
X1358Y1837D01*
X1377Y1837D02*
X1380Y1837D01*
X1411Y1837D02*
X1415Y1837D01*
X1429Y1837D02*
X1432Y1837D01*
X1442Y1837D02*
X1449Y1837D01*
X1460Y1837D02*
X1463Y1837D01*
X1490Y1837D02*
X1509Y1837D01*
X1549Y1837D02*
X1552Y1837D01*
X1562Y1837D02*
X1569Y1837D01*
X1579Y1837D02*
X1583Y1837D01*
X1596Y1837D02*
X1599Y1837D01*
X1618Y1837D02*
X1621Y1837D01*
X1648Y1837D02*
X1651Y1837D01*
X1669Y1837D02*
X1673Y1837D01*
X1686Y1837D02*
X1689Y1837D01*
X1700Y1837D02*
X1703Y1837D01*
X1713Y1837D02*
X1719Y1837D01*
X1742Y1837D02*
X1745Y1837D01*
X1760Y1837D02*
X1763Y1837D01*
X1774Y1837D02*
X1779Y1837D01*
X1790Y1837D02*
X1793Y1837D01*
X1806Y1837D02*
X1809Y1837D01*
X1836Y1837D02*
X1839Y1837D01*
X1880Y1837D02*
X1883Y1837D01*
X1893Y1837D02*
X1900Y1837D01*
X1910Y1837D02*
X1913Y1837D01*
X1926Y1837D02*
X1930Y1837D01*
X1940Y1837D02*
X1944Y1837D01*
X1955Y1837D02*
X1960Y1837D01*
X1970Y1837D02*
X1974Y1837D01*
X1986Y1837D02*
X1990Y1837D01*
X2000Y1837D02*
X2003Y1837D01*
X2017Y1837D02*
X2020Y1837D01*
X2043Y1837D02*
X2046Y1837D01*
X2068Y1837D02*
X2072Y1837D01*
X2123Y1837D02*
X2127Y1837D01*
X2136Y1837D02*
X2139Y1837D01*
X2159Y1837D02*
X2162Y1837D01*
X2189Y1837D02*
X2192Y1837D01*
X2240Y1837D02*
X2244Y1837D01*
X2250Y1837D02*
X2251Y1837D01*
X2257Y1837D02*
X2261Y1837D01*
X2271Y1837D02*
X2274Y1837D01*
X2287Y1837D02*
X2290Y1837D01*
X2309Y1837D02*
X2312Y1837D01*
X2331Y1837D02*
X2334Y1837D01*
X2344Y1837D02*
X2351Y1837D01*
X2361Y1837D02*
X2365Y1837D01*
X2391Y1837D02*
X2394Y1837D01*
X2407Y1837D02*
X2411Y1837D01*
X2452Y1837D02*
X2455Y1837D01*
X2465Y1837D02*
X2471Y1837D01*
X2481Y1837D02*
X2484Y1837D01*
X2498Y1837D02*
X2501Y1837D01*
X2525Y1837D02*
X2530Y1837D01*
X2554Y1837D02*
X2557Y1837D01*
X2572Y1837D02*
X2575Y1837D01*
X2601Y1837D02*
X2605Y1837D01*
X2610Y1837D02*
X2613Y1837D01*
X2618Y1837D02*
X2621Y1837D01*
X501Y1836D02*
X507Y1836D01*
X535Y1836D02*
X539Y1836D01*
X558Y1836D02*
X573Y1836D01*
X587Y1836D02*
X590Y1836D01*
X604Y1836D02*
X607Y1836D01*
X621Y1836D02*
X627Y1836D01*
X656Y1836D02*
X659Y1836D01*
X677Y1836D02*
X681Y1836D01*
X694Y1836D02*
X697Y1836D01*
X709Y1836D02*
X727Y1836D01*
X768Y1836D02*
X783Y1836D01*
X799Y1836D02*
X817Y1836D01*
X828Y1836D02*
X847Y1836D01*
X858Y1836D02*
X877Y1836D01*
X891Y1836D02*
X894Y1836D01*
X901Y1836D02*
X905Y1836D01*
X925Y1836D02*
X929Y1836D01*
X934Y1836D02*
X938Y1836D01*
X948Y1836D02*
X951Y1836D01*
X960Y1836D02*
X964Y1836D01*
X1016Y1836D02*
X1025Y1836D01*
X1069Y1836D02*
X1072Y1836D01*
X1084Y1836D02*
X1088Y1836D01*
X1098Y1836D02*
X1101Y1836D01*
X1115Y1836D02*
X1118Y1836D01*
X1141Y1836D02*
X1144Y1836D01*
X1158Y1836D02*
X1162Y1836D01*
X1175Y1836D02*
X1178Y1836D01*
X1189Y1836D02*
X1192Y1836D01*
X1204Y1836D02*
X1208Y1836D01*
X1220Y1836D02*
X1238Y1836D01*
X1279Y1836D02*
X1282Y1836D01*
X1295Y1836D02*
X1298Y1836D01*
X1317Y1836D02*
X1320Y1836D01*
X1355Y1836D02*
X1358Y1836D01*
X1377Y1836D02*
X1380Y1836D01*
X1411Y1836D02*
X1415Y1836D01*
X1429Y1836D02*
X1432Y1836D01*
X1443Y1836D02*
X1449Y1836D01*
X1459Y1836D02*
X1463Y1836D01*
X1490Y1836D02*
X1509Y1836D01*
X1549Y1836D02*
X1552Y1836D01*
X1563Y1836D02*
X1569Y1836D01*
X1579Y1836D02*
X1582Y1836D01*
X1596Y1836D02*
X1599Y1836D01*
X1618Y1836D02*
X1621Y1836D01*
X1648Y1836D02*
X1651Y1836D01*
X1669Y1836D02*
X1673Y1836D01*
X1686Y1836D02*
X1689Y1836D01*
X1700Y1836D02*
X1702Y1836D01*
X1714Y1836D02*
X1719Y1836D01*
X1742Y1836D02*
X1745Y1836D01*
X1760Y1836D02*
X1763Y1836D01*
X1776Y1836D02*
X1779Y1836D01*
X1790Y1836D02*
X1793Y1836D01*
X1806Y1836D02*
X1809Y1836D01*
X1836Y1836D02*
X1839Y1836D01*
X1880Y1836D02*
X1883Y1836D01*
X1894Y1836D02*
X1900Y1836D01*
X1910Y1836D02*
X1913Y1836D01*
X1926Y1836D02*
X1930Y1836D01*
X1940Y1836D02*
X1943Y1836D01*
X1956Y1836D02*
X1960Y1836D01*
X1970Y1836D02*
X1973Y1836D01*
X1986Y1836D02*
X1990Y1836D01*
X2000Y1836D02*
X2003Y1836D01*
X2017Y1836D02*
X2020Y1836D01*
X2043Y1836D02*
X2046Y1836D01*
X2067Y1836D02*
X2072Y1836D01*
X2123Y1836D02*
X2127Y1836D01*
X2136Y1836D02*
X2139Y1836D01*
X2159Y1836D02*
X2162Y1836D01*
X2189Y1836D02*
X2192Y1836D01*
X2240Y1836D02*
X2244Y1836D01*
X2249Y1836D02*
X2252Y1836D01*
X2257Y1836D02*
X2261Y1836D01*
X2271Y1836D02*
X2274Y1836D01*
X2287Y1836D02*
X2290Y1836D01*
X2309Y1836D02*
X2312Y1836D01*
X2331Y1836D02*
X2334Y1836D01*
X2345Y1836D02*
X2351Y1836D01*
X2361Y1836D02*
X2365Y1836D01*
X2391Y1836D02*
X2394Y1836D01*
X2407Y1836D02*
X2411Y1836D01*
X2452Y1836D02*
X2455Y1836D01*
X2467Y1836D02*
X2471Y1836D01*
X2481Y1836D02*
X2484Y1836D01*
X2498Y1836D02*
X2501Y1836D01*
X2522Y1836D02*
X2529Y1836D01*
X2554Y1836D02*
X2557Y1836D01*
X2572Y1836D02*
X2575Y1836D01*
X2601Y1836D02*
X2605Y1836D01*
X2610Y1836D02*
X2613Y1836D01*
X2618Y1836D02*
X2621Y1836D01*
X502Y1835D02*
X508Y1835D01*
X528Y1835D02*
X529Y1835D01*
X535Y1835D02*
X539Y1835D01*
X558Y1835D02*
X572Y1835D01*
X587Y1835D02*
X590Y1835D01*
X604Y1835D02*
X607Y1835D01*
X622Y1835D02*
X628Y1835D01*
X648Y1835D02*
X650Y1835D01*
X656Y1835D02*
X659Y1835D01*
X677Y1835D02*
X681Y1835D01*
X694Y1835D02*
X697Y1835D01*
X710Y1835D02*
X727Y1835D01*
X768Y1835D02*
X783Y1835D01*
X801Y1835D02*
X817Y1835D01*
X828Y1835D02*
X847Y1835D01*
X858Y1835D02*
X877Y1835D01*
X891Y1835D02*
X895Y1835D01*
X901Y1835D02*
X904Y1835D01*
X925Y1835D02*
X929Y1835D01*
X934Y1835D02*
X938Y1835D01*
X948Y1835D02*
X952Y1835D01*
X960Y1835D02*
X964Y1835D01*
X1017Y1835D02*
X1024Y1835D01*
X1069Y1835D02*
X1072Y1835D01*
X1085Y1835D02*
X1088Y1835D01*
X1098Y1835D02*
X1101Y1835D01*
X1115Y1835D02*
X1118Y1835D01*
X1141Y1835D02*
X1144Y1835D01*
X1158Y1835D02*
X1162Y1835D01*
X1175Y1835D02*
X1178Y1835D01*
X1189Y1835D02*
X1192Y1835D01*
X1205Y1835D02*
X1208Y1835D01*
X1220Y1835D02*
X1238Y1835D01*
X1279Y1835D02*
X1282Y1835D01*
X1295Y1835D02*
X1298Y1835D01*
X1317Y1835D02*
X1320Y1835D01*
X1355Y1835D02*
X1358Y1835D01*
X1377Y1835D02*
X1380Y1835D01*
X1411Y1835D02*
X1415Y1835D01*
X1430Y1835D02*
X1431Y1835D01*
X1444Y1835D02*
X1449Y1835D01*
X1459Y1835D02*
X1475Y1835D01*
X1491Y1835D02*
X1509Y1835D01*
X1550Y1835D02*
X1551Y1835D01*
X1565Y1835D02*
X1569Y1835D01*
X1579Y1835D02*
X1582Y1835D01*
X1596Y1835D02*
X1599Y1835D01*
X1618Y1835D02*
X1621Y1835D01*
X1648Y1835D02*
X1651Y1835D01*
X1669Y1835D02*
X1673Y1835D01*
X1686Y1835D02*
X1689Y1835D01*
X1701Y1835D02*
X1702Y1835D01*
X1715Y1835D02*
X1719Y1835D01*
X1742Y1835D02*
X1745Y1835D01*
X1760Y1835D02*
X1763Y1835D01*
X1776Y1835D02*
X1779Y1835D01*
X1790Y1835D02*
X1793Y1835D01*
X1806Y1835D02*
X1809Y1835D01*
X1836Y1835D02*
X1839Y1835D01*
X1881Y1835D02*
X1882Y1835D01*
X1895Y1835D02*
X1900Y1835D01*
X1910Y1835D02*
X1913Y1835D01*
X1926Y1835D02*
X1930Y1835D01*
X1940Y1835D02*
X1943Y1835D01*
X1956Y1835D02*
X1960Y1835D01*
X1970Y1835D02*
X1973Y1835D01*
X1987Y1835D02*
X1990Y1835D01*
X2000Y1835D02*
X2003Y1835D01*
X2017Y1835D02*
X2020Y1835D01*
X2043Y1835D02*
X2046Y1835D01*
X2067Y1835D02*
X2071Y1835D01*
X2122Y1835D02*
X2139Y1835D01*
X2151Y1835D02*
X2153Y1835D01*
X2159Y1835D02*
X2162Y1835D01*
X2181Y1835D02*
X2183Y1835D01*
X2189Y1835D02*
X2192Y1835D01*
X2240Y1835D02*
X2244Y1835D01*
X2249Y1835D02*
X2252Y1835D01*
X2257Y1835D02*
X2261Y1835D01*
X2271Y1835D02*
X2274Y1835D01*
X2287Y1835D02*
X2290Y1835D01*
X2309Y1835D02*
X2312Y1835D01*
X2332Y1835D02*
X2333Y1835D01*
X2346Y1835D02*
X2351Y1835D01*
X2361Y1835D02*
X2377Y1835D01*
X2391Y1835D02*
X2394Y1835D01*
X2407Y1835D02*
X2411Y1835D01*
X2451Y1835D02*
X2455Y1835D01*
X2468Y1835D02*
X2471Y1835D01*
X2481Y1835D02*
X2484Y1835D01*
X2498Y1835D02*
X2501Y1835D01*
X2520Y1835D02*
X2529Y1835D01*
X2554Y1835D02*
X2557Y1835D01*
X2572Y1835D02*
X2587Y1835D01*
X2601Y1835D02*
X2605Y1835D01*
X2610Y1835D02*
X2613Y1835D01*
X2618Y1835D02*
X2621Y1835D01*
X503Y1834D02*
X508Y1834D01*
X527Y1834D02*
X530Y1834D01*
X535Y1834D02*
X539Y1834D01*
X557Y1834D02*
X561Y1834D01*
X587Y1834D02*
X590Y1834D01*
X604Y1834D02*
X607Y1834D01*
X624Y1834D02*
X629Y1834D01*
X648Y1834D02*
X650Y1834D01*
X656Y1834D02*
X659Y1834D01*
X677Y1834D02*
X681Y1834D01*
X694Y1834D02*
X697Y1834D01*
X724Y1834D02*
X727Y1834D01*
X768Y1834D02*
X771Y1834D01*
X814Y1834D02*
X817Y1834D01*
X828Y1834D02*
X831Y1834D01*
X844Y1834D02*
X847Y1834D01*
X858Y1834D02*
X861Y1834D01*
X874Y1834D02*
X878Y1834D01*
X892Y1834D02*
X895Y1834D01*
X900Y1834D02*
X904Y1834D01*
X924Y1834D02*
X928Y1834D01*
X934Y1834D02*
X938Y1834D01*
X948Y1834D02*
X952Y1834D01*
X960Y1834D02*
X964Y1834D01*
X1018Y1834D02*
X1024Y1834D01*
X1069Y1834D02*
X1072Y1834D01*
X1085Y1834D02*
X1088Y1834D01*
X1098Y1834D02*
X1101Y1834D01*
X1115Y1834D02*
X1118Y1834D01*
X1141Y1834D02*
X1144Y1834D01*
X1158Y1834D02*
X1162Y1834D01*
X1175Y1834D02*
X1178Y1834D01*
X1189Y1834D02*
X1192Y1834D01*
X1205Y1834D02*
X1208Y1834D01*
X1222Y1834D02*
X1238Y1834D01*
X1279Y1834D02*
X1282Y1834D01*
X1295Y1834D02*
X1298Y1834D01*
X1317Y1834D02*
X1320Y1834D01*
X1355Y1834D02*
X1358Y1834D01*
X1377Y1834D02*
X1380Y1834D01*
X1411Y1834D02*
X1415Y1834D01*
X1445Y1834D02*
X1449Y1834D01*
X1459Y1834D02*
X1476Y1834D01*
X1492Y1834D02*
X1509Y1834D01*
X1566Y1834D02*
X1569Y1834D01*
X1579Y1834D02*
X1583Y1834D01*
X1596Y1834D02*
X1599Y1834D01*
X1618Y1834D02*
X1621Y1834D01*
X1648Y1834D02*
X1651Y1834D01*
X1669Y1834D02*
X1673Y1834D01*
X1686Y1834D02*
X1689Y1834D01*
X1716Y1834D02*
X1719Y1834D01*
X1742Y1834D02*
X1745Y1834D01*
X1760Y1834D02*
X1763Y1834D01*
X1776Y1834D02*
X1779Y1834D01*
X1790Y1834D02*
X1793Y1834D01*
X1806Y1834D02*
X1809Y1834D01*
X1836Y1834D02*
X1839Y1834D01*
X1896Y1834D02*
X1900Y1834D01*
X1910Y1834D02*
X1913Y1834D01*
X1926Y1834D02*
X1930Y1834D01*
X1940Y1834D02*
X1943Y1834D01*
X1956Y1834D02*
X1960Y1834D01*
X1970Y1834D02*
X1973Y1834D01*
X1987Y1834D02*
X1990Y1834D01*
X2000Y1834D02*
X2003Y1834D01*
X2017Y1834D02*
X2020Y1834D01*
X2043Y1834D02*
X2046Y1834D01*
X2066Y1834D02*
X2070Y1834D01*
X2122Y1834D02*
X2139Y1834D01*
X2151Y1834D02*
X2153Y1834D01*
X2159Y1834D02*
X2162Y1834D01*
X2181Y1834D02*
X2184Y1834D01*
X2189Y1834D02*
X2192Y1834D01*
X2240Y1834D02*
X2244Y1834D01*
X2249Y1834D02*
X2252Y1834D01*
X2257Y1834D02*
X2261Y1834D01*
X2271Y1834D02*
X2274Y1834D01*
X2287Y1834D02*
X2290Y1834D01*
X2309Y1834D02*
X2312Y1834D01*
X2347Y1834D02*
X2351Y1834D01*
X2361Y1834D02*
X2378Y1834D01*
X2391Y1834D02*
X2394Y1834D01*
X2407Y1834D02*
X2411Y1834D01*
X2451Y1834D02*
X2455Y1834D01*
X2468Y1834D02*
X2471Y1834D01*
X2481Y1834D02*
X2484Y1834D01*
X2498Y1834D02*
X2501Y1834D01*
X2518Y1834D02*
X2527Y1834D01*
X2554Y1834D02*
X2557Y1834D01*
X2572Y1834D02*
X2589Y1834D01*
X2601Y1834D02*
X2605Y1834D01*
X2610Y1834D02*
X2613Y1834D01*
X2618Y1834D02*
X2621Y1834D01*
X505Y1833D02*
X509Y1833D01*
X527Y1833D02*
X530Y1833D01*
X535Y1833D02*
X539Y1833D01*
X557Y1833D02*
X560Y1833D01*
X587Y1833D02*
X590Y1833D01*
X604Y1833D02*
X607Y1833D01*
X625Y1833D02*
X629Y1833D01*
X647Y1833D02*
X651Y1833D01*
X656Y1833D02*
X659Y1833D01*
X677Y1833D02*
X681Y1833D01*
X694Y1833D02*
X697Y1833D01*
X724Y1833D02*
X727Y1833D01*
X768Y1833D02*
X771Y1833D01*
X814Y1833D02*
X817Y1833D01*
X828Y1833D02*
X831Y1833D01*
X844Y1833D02*
X847Y1833D01*
X858Y1833D02*
X861Y1833D01*
X874Y1833D02*
X878Y1833D01*
X892Y1833D02*
X895Y1833D01*
X900Y1833D02*
X904Y1833D01*
X924Y1833D02*
X928Y1833D01*
X934Y1833D02*
X938Y1833D01*
X949Y1833D02*
X952Y1833D01*
X960Y1833D02*
X964Y1833D01*
X1017Y1833D02*
X1025Y1833D01*
X1069Y1833D02*
X1072Y1833D01*
X1085Y1833D02*
X1088Y1833D01*
X1098Y1833D02*
X1101Y1833D01*
X1115Y1833D02*
X1118Y1833D01*
X1141Y1833D02*
X1144Y1833D01*
X1158Y1833D02*
X1162Y1833D01*
X1175Y1833D02*
X1178Y1833D01*
X1189Y1833D02*
X1192Y1833D01*
X1205Y1833D02*
X1208Y1833D01*
X1224Y1833D02*
X1238Y1833D01*
X1279Y1833D02*
X1298Y1833D01*
X1317Y1833D02*
X1320Y1833D01*
X1355Y1833D02*
X1358Y1833D01*
X1377Y1833D02*
X1380Y1833D01*
X1411Y1833D02*
X1415Y1833D01*
X1445Y1833D02*
X1449Y1833D01*
X1459Y1833D02*
X1477Y1833D01*
X1495Y1833D02*
X1509Y1833D01*
X1566Y1833D02*
X1569Y1833D01*
X1579Y1833D02*
X1599Y1833D01*
X1618Y1833D02*
X1621Y1833D01*
X1648Y1833D02*
X1651Y1833D01*
X1669Y1833D02*
X1673Y1833D01*
X1686Y1833D02*
X1689Y1833D01*
X1716Y1833D02*
X1719Y1833D01*
X1742Y1833D02*
X1745Y1833D01*
X1760Y1833D02*
X1763Y1833D01*
X1776Y1833D02*
X1779Y1833D01*
X1790Y1833D02*
X1793Y1833D01*
X1806Y1833D02*
X1809Y1833D01*
X1835Y1833D02*
X1839Y1833D01*
X1896Y1833D02*
X1900Y1833D01*
X1910Y1833D02*
X1930Y1833D01*
X1940Y1833D02*
X1943Y1833D01*
X1956Y1833D02*
X1960Y1833D01*
X1970Y1833D02*
X1973Y1833D01*
X1987Y1833D02*
X1990Y1833D01*
X2000Y1833D02*
X2020Y1833D01*
X2043Y1833D02*
X2046Y1833D01*
X2065Y1833D02*
X2069Y1833D01*
X2121Y1833D02*
X2139Y1833D01*
X2150Y1833D02*
X2154Y1833D01*
X2159Y1833D02*
X2162Y1833D01*
X2180Y1833D02*
X2184Y1833D01*
X2189Y1833D02*
X2192Y1833D01*
X2241Y1833D02*
X2244Y1833D01*
X2249Y1833D02*
X2252Y1833D01*
X2257Y1833D02*
X2260Y1833D01*
X2271Y1833D02*
X2274Y1833D01*
X2287Y1833D02*
X2290Y1833D01*
X2309Y1833D02*
X2312Y1833D01*
X2347Y1833D02*
X2351Y1833D01*
X2361Y1833D02*
X2379Y1833D01*
X2391Y1833D02*
X2394Y1833D01*
X2407Y1833D02*
X2411Y1833D01*
X2451Y1833D02*
X2455Y1833D01*
X2468Y1833D02*
X2471Y1833D01*
X2481Y1833D02*
X2484Y1833D01*
X2498Y1833D02*
X2501Y1833D01*
X2515Y1833D02*
X2525Y1833D01*
X2554Y1833D02*
X2557Y1833D01*
X2572Y1833D02*
X2590Y1833D01*
X2601Y1833D02*
X2605Y1833D01*
X2610Y1833D02*
X2613Y1833D01*
X2618Y1833D02*
X2621Y1833D01*
X505Y1832D02*
X509Y1832D01*
X527Y1832D02*
X530Y1832D01*
X535Y1832D02*
X539Y1832D01*
X557Y1832D02*
X560Y1832D01*
X587Y1832D02*
X590Y1832D01*
X604Y1832D02*
X607Y1832D01*
X626Y1832D02*
X629Y1832D01*
X647Y1832D02*
X651Y1832D01*
X656Y1832D02*
X659Y1832D01*
X677Y1832D02*
X681Y1832D01*
X694Y1832D02*
X697Y1832D01*
X724Y1832D02*
X727Y1832D01*
X768Y1832D02*
X771Y1832D01*
X814Y1832D02*
X817Y1832D01*
X828Y1832D02*
X831Y1832D01*
X844Y1832D02*
X847Y1832D01*
X858Y1832D02*
X861Y1832D01*
X874Y1832D02*
X878Y1832D01*
X892Y1832D02*
X896Y1832D01*
X900Y1832D02*
X903Y1832D01*
X923Y1832D02*
X927Y1832D01*
X934Y1832D02*
X938Y1832D01*
X949Y1832D02*
X953Y1832D01*
X960Y1832D02*
X964Y1832D01*
X1016Y1832D02*
X1026Y1832D01*
X1069Y1832D02*
X1072Y1832D01*
X1085Y1832D02*
X1088Y1832D01*
X1098Y1832D02*
X1101Y1832D01*
X1115Y1832D02*
X1118Y1832D01*
X1141Y1832D02*
X1144Y1832D01*
X1158Y1832D02*
X1162Y1832D01*
X1175Y1832D02*
X1178Y1832D01*
X1189Y1832D02*
X1192Y1832D01*
X1205Y1832D02*
X1208Y1832D01*
X1235Y1832D02*
X1238Y1832D01*
X1279Y1832D02*
X1298Y1832D01*
X1317Y1832D02*
X1320Y1832D01*
X1355Y1832D02*
X1358Y1832D01*
X1377Y1832D02*
X1380Y1832D01*
X1411Y1832D02*
X1415Y1832D01*
X1445Y1832D02*
X1449Y1832D01*
X1459Y1832D02*
X1478Y1832D01*
X1506Y1832D02*
X1509Y1832D01*
X1566Y1832D02*
X1569Y1832D01*
X1579Y1832D02*
X1599Y1832D01*
X1618Y1832D02*
X1621Y1832D01*
X1648Y1832D02*
X1651Y1832D01*
X1669Y1832D02*
X1673Y1832D01*
X1686Y1832D02*
X1689Y1832D01*
X1716Y1832D02*
X1719Y1832D01*
X1742Y1832D02*
X1745Y1832D01*
X1760Y1832D02*
X1763Y1832D01*
X1776Y1832D02*
X1779Y1832D01*
X1790Y1832D02*
X1793Y1832D01*
X1806Y1832D02*
X1809Y1832D01*
X1834Y1832D02*
X1838Y1832D01*
X1896Y1832D02*
X1900Y1832D01*
X1910Y1832D02*
X1930Y1832D01*
X1940Y1832D02*
X1943Y1832D01*
X1956Y1832D02*
X1960Y1832D01*
X1970Y1832D02*
X1973Y1832D01*
X1987Y1832D02*
X1990Y1832D01*
X2000Y1832D02*
X2020Y1832D01*
X2043Y1832D02*
X2046Y1832D01*
X2064Y1832D02*
X2069Y1832D01*
X2122Y1832D02*
X2139Y1832D01*
X2150Y1832D02*
X2154Y1832D01*
X2159Y1832D02*
X2162Y1832D01*
X2180Y1832D02*
X2184Y1832D01*
X2189Y1832D02*
X2192Y1832D01*
X2241Y1832D02*
X2244Y1832D01*
X2249Y1832D02*
X2252Y1832D01*
X2257Y1832D02*
X2260Y1832D01*
X2271Y1832D02*
X2274Y1832D01*
X2287Y1832D02*
X2290Y1832D01*
X2309Y1832D02*
X2312Y1832D01*
X2347Y1832D02*
X2351Y1832D01*
X2361Y1832D02*
X2380Y1832D01*
X2391Y1832D02*
X2394Y1832D01*
X2407Y1832D02*
X2411Y1832D01*
X2451Y1832D02*
X2455Y1832D01*
X2468Y1832D02*
X2471Y1832D01*
X2481Y1832D02*
X2484Y1832D01*
X2498Y1832D02*
X2501Y1832D01*
X2514Y1832D02*
X2523Y1832D01*
X2554Y1832D02*
X2557Y1832D01*
X2572Y1832D02*
X2590Y1832D01*
X2601Y1832D02*
X2605Y1832D01*
X2610Y1832D02*
X2613Y1832D01*
X2618Y1832D02*
X2621Y1832D01*
X505Y1831D02*
X509Y1831D01*
X527Y1831D02*
X530Y1831D01*
X535Y1831D02*
X539Y1831D01*
X557Y1831D02*
X560Y1831D01*
X587Y1831D02*
X590Y1831D01*
X604Y1831D02*
X607Y1831D01*
X626Y1831D02*
X629Y1831D01*
X647Y1831D02*
X651Y1831D01*
X656Y1831D02*
X659Y1831D01*
X677Y1831D02*
X681Y1831D01*
X694Y1831D02*
X697Y1831D01*
X724Y1831D02*
X727Y1831D01*
X768Y1831D02*
X771Y1831D01*
X814Y1831D02*
X817Y1831D01*
X828Y1831D02*
X831Y1831D01*
X844Y1831D02*
X847Y1831D01*
X858Y1831D02*
X861Y1831D01*
X874Y1831D02*
X878Y1831D01*
X893Y1831D02*
X896Y1831D01*
X899Y1831D02*
X903Y1831D01*
X922Y1831D02*
X926Y1831D01*
X934Y1831D02*
X938Y1831D01*
X950Y1831D02*
X953Y1831D01*
X960Y1831D02*
X964Y1831D01*
X1009Y1831D02*
X1011Y1831D01*
X1015Y1831D02*
X1020Y1831D01*
X1022Y1831D02*
X1027Y1831D01*
X1069Y1831D02*
X1072Y1831D01*
X1085Y1831D02*
X1088Y1831D01*
X1098Y1831D02*
X1101Y1831D01*
X1115Y1831D02*
X1118Y1831D01*
X1141Y1831D02*
X1144Y1831D01*
X1158Y1831D02*
X1162Y1831D01*
X1175Y1831D02*
X1178Y1831D01*
X1189Y1831D02*
X1192Y1831D01*
X1205Y1831D02*
X1208Y1831D01*
X1235Y1831D02*
X1238Y1831D01*
X1279Y1831D02*
X1298Y1831D01*
X1317Y1831D02*
X1320Y1831D01*
X1355Y1831D02*
X1358Y1831D01*
X1377Y1831D02*
X1380Y1831D01*
X1411Y1831D02*
X1415Y1831D01*
X1445Y1831D02*
X1449Y1831D01*
X1459Y1831D02*
X1464Y1831D01*
X1474Y1831D02*
X1478Y1831D01*
X1506Y1831D02*
X1509Y1831D01*
X1566Y1831D02*
X1569Y1831D01*
X1579Y1831D02*
X1599Y1831D01*
X1618Y1831D02*
X1621Y1831D01*
X1648Y1831D02*
X1651Y1831D01*
X1669Y1831D02*
X1673Y1831D01*
X1686Y1831D02*
X1689Y1831D01*
X1716Y1831D02*
X1719Y1831D01*
X1742Y1831D02*
X1745Y1831D01*
X1760Y1831D02*
X1763Y1831D01*
X1776Y1831D02*
X1779Y1831D01*
X1790Y1831D02*
X1793Y1831D01*
X1806Y1831D02*
X1809Y1831D01*
X1834Y1831D02*
X1838Y1831D01*
X1896Y1831D02*
X1900Y1831D01*
X1910Y1831D02*
X1930Y1831D01*
X1940Y1831D02*
X1943Y1831D01*
X1956Y1831D02*
X1960Y1831D01*
X1970Y1831D02*
X1973Y1831D01*
X1987Y1831D02*
X1990Y1831D01*
X2000Y1831D02*
X2020Y1831D01*
X2043Y1831D02*
X2046Y1831D01*
X2063Y1831D02*
X2068Y1831D01*
X2123Y1831D02*
X2127Y1831D01*
X2150Y1831D02*
X2154Y1831D01*
X2159Y1831D02*
X2162Y1831D01*
X2180Y1831D02*
X2184Y1831D01*
X2189Y1831D02*
X2192Y1831D01*
X2241Y1831D02*
X2244Y1831D01*
X2249Y1831D02*
X2252Y1831D01*
X2257Y1831D02*
X2260Y1831D01*
X2271Y1831D02*
X2274Y1831D01*
X2287Y1831D02*
X2290Y1831D01*
X2309Y1831D02*
X2312Y1831D01*
X2347Y1831D02*
X2351Y1831D01*
X2361Y1831D02*
X2366Y1831D01*
X2376Y1831D02*
X2380Y1831D01*
X2391Y1831D02*
X2394Y1831D01*
X2407Y1831D02*
X2411Y1831D01*
X2451Y1831D02*
X2455Y1831D01*
X2468Y1831D02*
X2471Y1831D01*
X2481Y1831D02*
X2484Y1831D01*
X2498Y1831D02*
X2501Y1831D01*
X2513Y1831D02*
X2520Y1831D01*
X2554Y1831D02*
X2557Y1831D01*
X2572Y1831D02*
X2576Y1831D01*
X2587Y1831D02*
X2591Y1831D01*
X2601Y1831D02*
X2605Y1831D01*
X2610Y1831D02*
X2613Y1831D01*
X2618Y1831D02*
X2621Y1831D01*
X505Y1830D02*
X509Y1830D01*
X527Y1830D02*
X530Y1830D01*
X535Y1830D02*
X539Y1830D01*
X557Y1830D02*
X560Y1830D01*
X587Y1830D02*
X590Y1830D01*
X604Y1830D02*
X607Y1830D01*
X626Y1830D02*
X629Y1830D01*
X647Y1830D02*
X651Y1830D01*
X656Y1830D02*
X659Y1830D01*
X677Y1830D02*
X681Y1830D01*
X694Y1830D02*
X697Y1830D01*
X724Y1830D02*
X727Y1830D01*
X768Y1830D02*
X771Y1830D01*
X814Y1830D02*
X817Y1830D01*
X828Y1830D02*
X831Y1830D01*
X844Y1830D02*
X847Y1830D01*
X858Y1830D02*
X861Y1830D01*
X874Y1830D02*
X878Y1830D01*
X893Y1830D02*
X897Y1830D01*
X899Y1830D02*
X902Y1830D01*
X922Y1830D02*
X926Y1830D01*
X934Y1830D02*
X938Y1830D01*
X950Y1830D02*
X954Y1830D01*
X960Y1830D02*
X964Y1830D01*
X1008Y1830D02*
X1012Y1830D01*
X1014Y1830D02*
X1019Y1830D01*
X1023Y1830D02*
X1028Y1830D01*
X1068Y1830D02*
X1072Y1830D01*
X1085Y1830D02*
X1088Y1830D01*
X1098Y1830D02*
X1101Y1830D01*
X1115Y1830D02*
X1118Y1830D01*
X1141Y1830D02*
X1144Y1830D01*
X1158Y1830D02*
X1162Y1830D01*
X1175Y1830D02*
X1178Y1830D01*
X1189Y1830D02*
X1192Y1830D01*
X1205Y1830D02*
X1208Y1830D01*
X1235Y1830D02*
X1238Y1830D01*
X1279Y1830D02*
X1298Y1830D01*
X1317Y1830D02*
X1320Y1830D01*
X1355Y1830D02*
X1358Y1830D01*
X1377Y1830D02*
X1380Y1830D01*
X1411Y1830D02*
X1415Y1830D01*
X1445Y1830D02*
X1449Y1830D01*
X1459Y1830D02*
X1463Y1830D01*
X1475Y1830D02*
X1479Y1830D01*
X1506Y1830D02*
X1509Y1830D01*
X1566Y1830D02*
X1569Y1830D01*
X1580Y1830D02*
X1599Y1830D01*
X1618Y1830D02*
X1621Y1830D01*
X1648Y1830D02*
X1651Y1830D01*
X1669Y1830D02*
X1673Y1830D01*
X1686Y1830D02*
X1689Y1830D01*
X1716Y1830D02*
X1719Y1830D01*
X1742Y1830D02*
X1745Y1830D01*
X1760Y1830D02*
X1763Y1830D01*
X1776Y1830D02*
X1779Y1830D01*
X1790Y1830D02*
X1793Y1830D01*
X1806Y1830D02*
X1809Y1830D01*
X1833Y1830D02*
X1837Y1830D01*
X1896Y1830D02*
X1900Y1830D01*
X1911Y1830D02*
X1930Y1830D01*
X1940Y1830D02*
X1943Y1830D01*
X1956Y1830D02*
X1960Y1830D01*
X1970Y1830D02*
X1973Y1830D01*
X1987Y1830D02*
X1990Y1830D01*
X2001Y1830D02*
X2020Y1830D01*
X2043Y1830D02*
X2046Y1830D01*
X2063Y1830D02*
X2067Y1830D01*
X2123Y1830D02*
X2127Y1830D01*
X2150Y1830D02*
X2154Y1830D01*
X2159Y1830D02*
X2162Y1830D01*
X2180Y1830D02*
X2184Y1830D01*
X2189Y1830D02*
X2192Y1830D01*
X2241Y1830D02*
X2244Y1830D01*
X2249Y1830D02*
X2252Y1830D01*
X2257Y1830D02*
X2260Y1830D01*
X2271Y1830D02*
X2274Y1830D01*
X2287Y1830D02*
X2290Y1830D01*
X2309Y1830D02*
X2312Y1830D01*
X2347Y1830D02*
X2351Y1830D01*
X2361Y1830D02*
X2365Y1830D01*
X2377Y1830D02*
X2380Y1830D01*
X2391Y1830D02*
X2394Y1830D01*
X2407Y1830D02*
X2411Y1830D01*
X2451Y1830D02*
X2454Y1830D01*
X2468Y1830D02*
X2471Y1830D01*
X2481Y1830D02*
X2484Y1830D01*
X2498Y1830D02*
X2501Y1830D01*
X2512Y1830D02*
X2518Y1830D01*
X2554Y1830D02*
X2557Y1830D01*
X2572Y1830D02*
X2575Y1830D01*
X2588Y1830D02*
X2591Y1830D01*
X2601Y1830D02*
X2605Y1830D01*
X2610Y1830D02*
X2613Y1830D01*
X2618Y1830D02*
X2621Y1830D01*
X505Y1829D02*
X509Y1829D01*
X527Y1829D02*
X530Y1829D01*
X535Y1829D02*
X539Y1829D01*
X557Y1829D02*
X560Y1829D01*
X587Y1829D02*
X590Y1829D01*
X604Y1829D02*
X607Y1829D01*
X626Y1829D02*
X629Y1829D01*
X647Y1829D02*
X651Y1829D01*
X656Y1829D02*
X659Y1829D01*
X677Y1829D02*
X681Y1829D01*
X694Y1829D02*
X697Y1829D01*
X724Y1829D02*
X727Y1829D01*
X768Y1829D02*
X771Y1829D01*
X814Y1829D02*
X817Y1829D01*
X828Y1829D02*
X831Y1829D01*
X844Y1829D02*
X847Y1829D01*
X858Y1829D02*
X861Y1829D01*
X874Y1829D02*
X878Y1829D01*
X894Y1829D02*
X902Y1829D01*
X921Y1829D02*
X925Y1829D01*
X934Y1829D02*
X938Y1829D01*
X951Y1829D02*
X955Y1829D01*
X960Y1829D02*
X964Y1829D01*
X1008Y1829D02*
X1018Y1829D01*
X1024Y1829D02*
X1028Y1829D01*
X1068Y1829D02*
X1072Y1829D01*
X1085Y1829D02*
X1088Y1829D01*
X1098Y1829D02*
X1101Y1829D01*
X1115Y1829D02*
X1118Y1829D01*
X1141Y1829D02*
X1144Y1829D01*
X1158Y1829D02*
X1162Y1829D01*
X1175Y1829D02*
X1178Y1829D01*
X1189Y1829D02*
X1192Y1829D01*
X1205Y1829D02*
X1208Y1829D01*
X1235Y1829D02*
X1238Y1829D01*
X1295Y1829D02*
X1298Y1829D01*
X1317Y1829D02*
X1320Y1829D01*
X1355Y1829D02*
X1358Y1829D01*
X1377Y1829D02*
X1380Y1829D01*
X1411Y1829D02*
X1415Y1829D01*
X1445Y1829D02*
X1449Y1829D01*
X1459Y1829D02*
X1462Y1829D01*
X1476Y1829D02*
X1479Y1829D01*
X1506Y1829D02*
X1509Y1829D01*
X1566Y1829D02*
X1569Y1829D01*
X1596Y1829D02*
X1599Y1829D01*
X1618Y1829D02*
X1621Y1829D01*
X1648Y1829D02*
X1651Y1829D01*
X1669Y1829D02*
X1673Y1829D01*
X1686Y1829D02*
X1689Y1829D01*
X1716Y1829D02*
X1719Y1829D01*
X1742Y1829D02*
X1745Y1829D01*
X1760Y1829D02*
X1763Y1829D01*
X1776Y1829D02*
X1779Y1829D01*
X1790Y1829D02*
X1793Y1829D01*
X1806Y1829D02*
X1809Y1829D01*
X1833Y1829D02*
X1837Y1829D01*
X1896Y1829D02*
X1900Y1829D01*
X1926Y1829D02*
X1930Y1829D01*
X1940Y1829D02*
X1943Y1829D01*
X1956Y1829D02*
X1960Y1829D01*
X1970Y1829D02*
X1973Y1829D01*
X1986Y1829D02*
X1990Y1829D01*
X2017Y1829D02*
X2020Y1829D01*
X2043Y1829D02*
X2046Y1829D01*
X2062Y1829D02*
X2066Y1829D01*
X2123Y1829D02*
X2127Y1829D01*
X2150Y1829D02*
X2154Y1829D01*
X2159Y1829D02*
X2162Y1829D01*
X2180Y1829D02*
X2184Y1829D01*
X2189Y1829D02*
X2192Y1829D01*
X2241Y1829D02*
X2244Y1829D01*
X2248Y1829D02*
X2253Y1829D01*
X2257Y1829D02*
X2260Y1829D01*
X2271Y1829D02*
X2274Y1829D01*
X2287Y1829D02*
X2290Y1829D01*
X2309Y1829D02*
X2312Y1829D01*
X2347Y1829D02*
X2351Y1829D01*
X2361Y1829D02*
X2364Y1829D01*
X2377Y1829D02*
X2381Y1829D01*
X2391Y1829D02*
X2394Y1829D01*
X2407Y1829D02*
X2411Y1829D01*
X2451Y1829D02*
X2454Y1829D01*
X2468Y1829D02*
X2471Y1829D01*
X2481Y1829D02*
X2484Y1829D01*
X2498Y1829D02*
X2501Y1829D01*
X2512Y1829D02*
X2516Y1829D01*
X2554Y1829D02*
X2557Y1829D01*
X2572Y1829D02*
X2575Y1829D01*
X2588Y1829D02*
X2591Y1829D01*
X2601Y1829D02*
X2605Y1829D01*
X2610Y1829D02*
X2613Y1829D01*
X2618Y1829D02*
X2621Y1829D01*
X505Y1828D02*
X509Y1828D01*
X527Y1828D02*
X530Y1828D01*
X535Y1828D02*
X539Y1828D01*
X557Y1828D02*
X560Y1828D01*
X587Y1828D02*
X590Y1828D01*
X604Y1828D02*
X607Y1828D01*
X626Y1828D02*
X629Y1828D01*
X647Y1828D02*
X651Y1828D01*
X656Y1828D02*
X659Y1828D01*
X677Y1828D02*
X681Y1828D01*
X694Y1828D02*
X697Y1828D01*
X724Y1828D02*
X727Y1828D01*
X768Y1828D02*
X771Y1828D01*
X814Y1828D02*
X817Y1828D01*
X828Y1828D02*
X831Y1828D01*
X844Y1828D02*
X847Y1828D01*
X858Y1828D02*
X861Y1828D01*
X874Y1828D02*
X878Y1828D01*
X894Y1828D02*
X902Y1828D01*
X921Y1828D02*
X925Y1828D01*
X934Y1828D02*
X938Y1828D01*
X951Y1828D02*
X955Y1828D01*
X960Y1828D02*
X964Y1828D01*
X1009Y1828D02*
X1017Y1828D01*
X1025Y1828D02*
X1028Y1828D01*
X1068Y1828D02*
X1072Y1828D01*
X1085Y1828D02*
X1088Y1828D01*
X1098Y1828D02*
X1102Y1828D01*
X1115Y1828D02*
X1118Y1828D01*
X1129Y1828D02*
X1130Y1828D01*
X1141Y1828D02*
X1144Y1828D01*
X1158Y1828D02*
X1162Y1828D01*
X1175Y1828D02*
X1178Y1828D01*
X1189Y1828D02*
X1192Y1828D01*
X1205Y1828D02*
X1208Y1828D01*
X1235Y1828D02*
X1238Y1828D01*
X1295Y1828D02*
X1298Y1828D01*
X1317Y1828D02*
X1320Y1828D01*
X1354Y1828D02*
X1358Y1828D01*
X1377Y1828D02*
X1380Y1828D01*
X1400Y1828D02*
X1401Y1828D01*
X1411Y1828D02*
X1415Y1828D01*
X1445Y1828D02*
X1449Y1828D01*
X1459Y1828D02*
X1462Y1828D01*
X1476Y1828D02*
X1479Y1828D01*
X1506Y1828D02*
X1509Y1828D01*
X1566Y1828D02*
X1569Y1828D01*
X1596Y1828D02*
X1599Y1828D01*
X1618Y1828D02*
X1621Y1828D01*
X1648Y1828D02*
X1651Y1828D01*
X1669Y1828D02*
X1673Y1828D01*
X1686Y1828D02*
X1689Y1828D01*
X1716Y1828D02*
X1719Y1828D01*
X1731Y1828D02*
X1732Y1828D01*
X1742Y1828D02*
X1745Y1828D01*
X1760Y1828D02*
X1763Y1828D01*
X1776Y1828D02*
X1779Y1828D01*
X1790Y1828D02*
X1793Y1828D01*
X1806Y1828D02*
X1809Y1828D01*
X1832Y1828D02*
X1836Y1828D01*
X1896Y1828D02*
X1900Y1828D01*
X1926Y1828D02*
X1930Y1828D01*
X1940Y1828D02*
X1944Y1828D01*
X1956Y1828D02*
X1960Y1828D01*
X1970Y1828D02*
X1974Y1828D01*
X1986Y1828D02*
X1990Y1828D01*
X2017Y1828D02*
X2020Y1828D01*
X2031Y1828D02*
X2032Y1828D01*
X2043Y1828D02*
X2046Y1828D01*
X2061Y1828D02*
X2065Y1828D01*
X2078Y1828D02*
X2079Y1828D01*
X2123Y1828D02*
X2127Y1828D01*
X2150Y1828D02*
X2154Y1828D01*
X2159Y1828D02*
X2162Y1828D01*
X2180Y1828D02*
X2184Y1828D01*
X2189Y1828D02*
X2192Y1828D01*
X2241Y1828D02*
X2244Y1828D01*
X2248Y1828D02*
X2253Y1828D01*
X2257Y1828D02*
X2260Y1828D01*
X2271Y1828D02*
X2274Y1828D01*
X2287Y1828D02*
X2290Y1828D01*
X2309Y1828D02*
X2312Y1828D01*
X2347Y1828D02*
X2351Y1828D01*
X2361Y1828D02*
X2364Y1828D01*
X2377Y1828D02*
X2381Y1828D01*
X2391Y1828D02*
X2394Y1828D01*
X2407Y1828D02*
X2411Y1828D01*
X2451Y1828D02*
X2454Y1828D01*
X2468Y1828D02*
X2471Y1828D01*
X2481Y1828D02*
X2484Y1828D01*
X2498Y1828D02*
X2501Y1828D01*
X2511Y1828D02*
X2515Y1828D01*
X2542Y1828D02*
X2543Y1828D01*
X2554Y1828D02*
X2557Y1828D01*
X2571Y1828D02*
X2575Y1828D01*
X2588Y1828D02*
X2591Y1828D01*
X2601Y1828D02*
X2605Y1828D01*
X2610Y1828D02*
X2613Y1828D01*
X2618Y1828D02*
X2621Y1828D01*
X505Y1827D02*
X509Y1827D01*
X527Y1827D02*
X530Y1827D01*
X535Y1827D02*
X539Y1827D01*
X557Y1827D02*
X560Y1827D01*
X587Y1827D02*
X590Y1827D01*
X604Y1827D02*
X607Y1827D01*
X626Y1827D02*
X629Y1827D01*
X647Y1827D02*
X651Y1827D01*
X656Y1827D02*
X659Y1827D01*
X677Y1827D02*
X681Y1827D01*
X694Y1827D02*
X697Y1827D01*
X724Y1827D02*
X727Y1827D01*
X768Y1827D02*
X771Y1827D01*
X814Y1827D02*
X817Y1827D01*
X828Y1827D02*
X831Y1827D01*
X844Y1827D02*
X847Y1827D01*
X858Y1827D02*
X861Y1827D01*
X874Y1827D02*
X878Y1827D01*
X894Y1827D02*
X901Y1827D01*
X920Y1827D02*
X924Y1827D01*
X934Y1827D02*
X938Y1827D01*
X952Y1827D02*
X956Y1827D01*
X960Y1827D02*
X964Y1827D01*
X1010Y1827D02*
X1016Y1827D01*
X1025Y1827D02*
X1028Y1827D01*
X1068Y1827D02*
X1072Y1827D01*
X1085Y1827D02*
X1088Y1827D01*
X1098Y1827D02*
X1102Y1827D01*
X1114Y1827D02*
X1118Y1827D01*
X1129Y1827D02*
X1131Y1827D01*
X1141Y1827D02*
X1144Y1827D01*
X1159Y1827D02*
X1162Y1827D01*
X1175Y1827D02*
X1178Y1827D01*
X1189Y1827D02*
X1192Y1827D01*
X1205Y1827D02*
X1208Y1827D01*
X1235Y1827D02*
X1238Y1827D01*
X1295Y1827D02*
X1298Y1827D01*
X1317Y1827D02*
X1320Y1827D01*
X1353Y1827D02*
X1358Y1827D01*
X1377Y1827D02*
X1380Y1827D01*
X1399Y1827D02*
X1402Y1827D01*
X1411Y1827D02*
X1414Y1827D01*
X1445Y1827D02*
X1449Y1827D01*
X1459Y1827D02*
X1463Y1827D01*
X1476Y1827D02*
X1479Y1827D01*
X1506Y1827D02*
X1509Y1827D01*
X1566Y1827D02*
X1569Y1827D01*
X1595Y1827D02*
X1599Y1827D01*
X1618Y1827D02*
X1621Y1827D01*
X1648Y1827D02*
X1651Y1827D01*
X1670Y1827D02*
X1673Y1827D01*
X1686Y1827D02*
X1689Y1827D01*
X1716Y1827D02*
X1719Y1827D01*
X1730Y1827D02*
X1732Y1827D01*
X1742Y1827D02*
X1745Y1827D01*
X1760Y1827D02*
X1763Y1827D01*
X1776Y1827D02*
X1779Y1827D01*
X1790Y1827D02*
X1793Y1827D01*
X1806Y1827D02*
X1809Y1827D01*
X1832Y1827D02*
X1836Y1827D01*
X1896Y1827D02*
X1900Y1827D01*
X1926Y1827D02*
X1930Y1827D01*
X1940Y1827D02*
X1944Y1827D01*
X1955Y1827D02*
X1960Y1827D01*
X1970Y1827D02*
X1975Y1827D01*
X1985Y1827D02*
X1990Y1827D01*
X2016Y1827D02*
X2020Y1827D01*
X2030Y1827D02*
X2033Y1827D01*
X2043Y1827D02*
X2046Y1827D01*
X2061Y1827D02*
X2065Y1827D01*
X2077Y1827D02*
X2080Y1827D01*
X2123Y1827D02*
X2127Y1827D01*
X2150Y1827D02*
X2154Y1827D01*
X2159Y1827D02*
X2162Y1827D01*
X2180Y1827D02*
X2184Y1827D01*
X2189Y1827D02*
X2192Y1827D01*
X2241Y1827D02*
X2245Y1827D01*
X2247Y1827D02*
X2254Y1827D01*
X2256Y1827D02*
X2260Y1827D01*
X2271Y1827D02*
X2274Y1827D01*
X2287Y1827D02*
X2290Y1827D01*
X2309Y1827D02*
X2312Y1827D01*
X2347Y1827D02*
X2351Y1827D01*
X2361Y1827D02*
X2365Y1827D01*
X2377Y1827D02*
X2381Y1827D01*
X2391Y1827D02*
X2394Y1827D01*
X2407Y1827D02*
X2411Y1827D01*
X2451Y1827D02*
X2454Y1827D01*
X2468Y1827D02*
X2471Y1827D01*
X2481Y1827D02*
X2485Y1827D01*
X2497Y1827D02*
X2501Y1827D01*
X2511Y1827D02*
X2515Y1827D01*
X2541Y1827D02*
X2544Y1827D01*
X2554Y1827D02*
X2557Y1827D01*
X2571Y1827D02*
X2575Y1827D01*
X2588Y1827D02*
X2591Y1827D01*
X2601Y1827D02*
X2605Y1827D01*
X2610Y1827D02*
X2613Y1827D01*
X2618Y1827D02*
X2621Y1827D01*
X505Y1826D02*
X509Y1826D01*
X527Y1826D02*
X530Y1826D01*
X535Y1826D02*
X539Y1826D01*
X557Y1826D02*
X560Y1826D01*
X587Y1826D02*
X590Y1826D01*
X604Y1826D02*
X607Y1826D01*
X626Y1826D02*
X629Y1826D01*
X647Y1826D02*
X651Y1826D01*
X656Y1826D02*
X659Y1826D01*
X677Y1826D02*
X681Y1826D01*
X694Y1826D02*
X697Y1826D01*
X724Y1826D02*
X727Y1826D01*
X768Y1826D02*
X771Y1826D01*
X784Y1826D02*
X787Y1826D01*
X814Y1826D02*
X817Y1826D01*
X828Y1826D02*
X831Y1826D01*
X844Y1826D02*
X847Y1826D01*
X858Y1826D02*
X861Y1826D01*
X874Y1826D02*
X878Y1826D01*
X895Y1826D02*
X901Y1826D01*
X920Y1826D02*
X923Y1826D01*
X934Y1826D02*
X938Y1826D01*
X952Y1826D02*
X956Y1826D01*
X960Y1826D02*
X964Y1826D01*
X1010Y1826D02*
X1017Y1826D01*
X1024Y1826D02*
X1028Y1826D01*
X1068Y1826D02*
X1072Y1826D01*
X1085Y1826D02*
X1088Y1826D01*
X1099Y1826D02*
X1103Y1826D01*
X1113Y1826D02*
X1118Y1826D01*
X1128Y1826D02*
X1132Y1826D01*
X1141Y1826D02*
X1144Y1826D01*
X1159Y1826D02*
X1163Y1826D01*
X1174Y1826D02*
X1178Y1826D01*
X1189Y1826D02*
X1192Y1826D01*
X1205Y1826D02*
X1208Y1826D01*
X1235Y1826D02*
X1238Y1826D01*
X1294Y1826D02*
X1298Y1826D01*
X1317Y1826D02*
X1320Y1826D01*
X1352Y1826D02*
X1357Y1826D01*
X1377Y1826D02*
X1380Y1826D01*
X1399Y1826D02*
X1402Y1826D01*
X1411Y1826D02*
X1414Y1826D01*
X1445Y1826D02*
X1449Y1826D01*
X1459Y1826D02*
X1465Y1826D01*
X1475Y1826D02*
X1479Y1826D01*
X1506Y1826D02*
X1509Y1826D01*
X1566Y1826D02*
X1569Y1826D01*
X1594Y1826D02*
X1599Y1826D01*
X1618Y1826D02*
X1621Y1826D01*
X1648Y1826D02*
X1651Y1826D01*
X1670Y1826D02*
X1674Y1826D01*
X1685Y1826D02*
X1689Y1826D01*
X1716Y1826D02*
X1719Y1826D01*
X1730Y1826D02*
X1733Y1826D01*
X1742Y1826D02*
X1745Y1826D01*
X1760Y1826D02*
X1763Y1826D01*
X1776Y1826D02*
X1779Y1826D01*
X1790Y1826D02*
X1794Y1826D01*
X1805Y1826D02*
X1809Y1826D01*
X1831Y1826D02*
X1835Y1826D01*
X1896Y1826D02*
X1900Y1826D01*
X1925Y1826D02*
X1929Y1826D01*
X1941Y1826D02*
X1946Y1826D01*
X1954Y1826D02*
X1960Y1826D01*
X1971Y1826D02*
X1976Y1826D01*
X1984Y1826D02*
X1990Y1826D01*
X2015Y1826D02*
X2019Y1826D01*
X2030Y1826D02*
X2034Y1826D01*
X2042Y1826D02*
X2046Y1826D01*
X2060Y1826D02*
X2064Y1826D01*
X2077Y1826D02*
X2080Y1826D01*
X2123Y1826D02*
X2127Y1826D01*
X2150Y1826D02*
X2154Y1826D01*
X2159Y1826D02*
X2162Y1826D01*
X2180Y1826D02*
X2184Y1826D01*
X2189Y1826D02*
X2192Y1826D01*
X2242Y1826D02*
X2259Y1826D01*
X2271Y1826D02*
X2275Y1826D01*
X2286Y1826D02*
X2290Y1826D01*
X2309Y1826D02*
X2312Y1826D01*
X2347Y1826D02*
X2351Y1826D01*
X2361Y1826D02*
X2367Y1826D01*
X2377Y1826D02*
X2380Y1826D01*
X2391Y1826D02*
X2394Y1826D01*
X2407Y1826D02*
X2411Y1826D01*
X2451Y1826D02*
X2454Y1826D01*
X2468Y1826D02*
X2471Y1826D01*
X2482Y1826D02*
X2486Y1826D01*
X2496Y1826D02*
X2500Y1826D01*
X2511Y1826D02*
X2515Y1826D01*
X2528Y1826D02*
X2530Y1826D01*
X2541Y1826D02*
X2545Y1826D01*
X2553Y1826D02*
X2557Y1826D01*
X2571Y1826D02*
X2577Y1826D01*
X2588Y1826D02*
X2591Y1826D01*
X2601Y1826D02*
X2605Y1826D01*
X2609Y1826D02*
X2613Y1826D01*
X2617Y1826D02*
X2621Y1826D01*
X505Y1825D02*
X509Y1825D01*
X527Y1825D02*
X531Y1825D01*
X535Y1825D02*
X539Y1825D01*
X557Y1825D02*
X561Y1825D01*
X587Y1825D02*
X591Y1825D01*
X604Y1825D02*
X607Y1825D01*
X626Y1825D02*
X629Y1825D01*
X647Y1825D02*
X651Y1825D01*
X655Y1825D02*
X659Y1825D01*
X677Y1825D02*
X681Y1825D01*
X694Y1825D02*
X697Y1825D01*
X724Y1825D02*
X727Y1825D01*
X768Y1825D02*
X771Y1825D01*
X782Y1825D02*
X787Y1825D01*
X814Y1825D02*
X817Y1825D01*
X828Y1825D02*
X831Y1825D01*
X844Y1825D02*
X847Y1825D01*
X858Y1825D02*
X861Y1825D01*
X874Y1825D02*
X878Y1825D01*
X895Y1825D02*
X900Y1825D01*
X919Y1825D02*
X923Y1825D01*
X934Y1825D02*
X938Y1825D01*
X953Y1825D02*
X957Y1825D01*
X960Y1825D02*
X964Y1825D01*
X1009Y1825D02*
X1018Y1825D01*
X1023Y1825D02*
X1028Y1825D01*
X1068Y1825D02*
X1072Y1825D01*
X1085Y1825D02*
X1088Y1825D01*
X1099Y1825D02*
X1104Y1825D01*
X1112Y1825D02*
X1117Y1825D01*
X1129Y1825D02*
X1133Y1825D01*
X1139Y1825D02*
X1144Y1825D01*
X1159Y1825D02*
X1164Y1825D01*
X1172Y1825D02*
X1177Y1825D01*
X1189Y1825D02*
X1192Y1825D01*
X1205Y1825D02*
X1208Y1825D01*
X1235Y1825D02*
X1238Y1825D01*
X1292Y1825D02*
X1298Y1825D01*
X1317Y1825D02*
X1320Y1825D01*
X1350Y1825D02*
X1356Y1825D01*
X1377Y1825D02*
X1380Y1825D01*
X1399Y1825D02*
X1403Y1825D01*
X1410Y1825D02*
X1414Y1825D01*
X1445Y1825D02*
X1449Y1825D01*
X1459Y1825D02*
X1467Y1825D01*
X1474Y1825D02*
X1478Y1825D01*
X1506Y1825D02*
X1509Y1825D01*
X1566Y1825D02*
X1569Y1825D01*
X1593Y1825D02*
X1598Y1825D01*
X1617Y1825D02*
X1621Y1825D01*
X1647Y1825D02*
X1651Y1825D01*
X1670Y1825D02*
X1675Y1825D01*
X1683Y1825D02*
X1688Y1825D01*
X1716Y1825D02*
X1719Y1825D01*
X1730Y1825D02*
X1734Y1825D01*
X1741Y1825D02*
X1745Y1825D01*
X1760Y1825D02*
X1763Y1825D01*
X1776Y1825D02*
X1779Y1825D01*
X1791Y1825D02*
X1796Y1825D01*
X1803Y1825D02*
X1809Y1825D01*
X1830Y1825D02*
X1835Y1825D01*
X1896Y1825D02*
X1900Y1825D01*
X1924Y1825D02*
X1929Y1825D01*
X1942Y1825D02*
X1947Y1825D01*
X1953Y1825D02*
X1960Y1825D01*
X1972Y1825D02*
X1977Y1825D01*
X1983Y1825D02*
X1990Y1825D01*
X2014Y1825D02*
X2019Y1825D01*
X2031Y1825D02*
X2035Y1825D01*
X2041Y1825D02*
X2045Y1825D01*
X2060Y1825D02*
X2064Y1825D01*
X2076Y1825D02*
X2080Y1825D01*
X2123Y1825D02*
X2127Y1825D01*
X2150Y1825D02*
X2154Y1825D01*
X2158Y1825D02*
X2162Y1825D01*
X2180Y1825D02*
X2184Y1825D01*
X2189Y1825D02*
X2192Y1825D01*
X2242Y1825D02*
X2259Y1825D01*
X2272Y1825D02*
X2277Y1825D01*
X2284Y1825D02*
X2290Y1825D01*
X2309Y1825D02*
X2312Y1825D01*
X2347Y1825D02*
X2351Y1825D01*
X2361Y1825D02*
X2368Y1825D01*
X2376Y1825D02*
X2380Y1825D01*
X2391Y1825D02*
X2394Y1825D01*
X2407Y1825D02*
X2411Y1825D01*
X2451Y1825D02*
X2454Y1825D01*
X2468Y1825D02*
X2471Y1825D01*
X2482Y1825D02*
X2487Y1825D01*
X2495Y1825D02*
X2500Y1825D01*
X2512Y1825D02*
X2516Y1825D01*
X2527Y1825D02*
X2531Y1825D01*
X2542Y1825D02*
X2546Y1825D01*
X2552Y1825D02*
X2557Y1825D01*
X2571Y1825D02*
X2579Y1825D01*
X2587Y1825D02*
X2591Y1825D01*
X2602Y1825D02*
X2606Y1825D01*
X2608Y1825D02*
X2614Y1825D01*
X2617Y1825D02*
X2621Y1825D01*
X505Y1824D02*
X509Y1824D01*
X527Y1824D02*
X546Y1824D01*
X557Y1824D02*
X576Y1824D01*
X587Y1824D02*
X607Y1824D01*
X626Y1824D02*
X629Y1824D01*
X647Y1824D02*
X667Y1824D01*
X678Y1824D02*
X697Y1824D01*
X708Y1824D02*
X727Y1824D01*
X768Y1824D02*
X787Y1824D01*
X798Y1824D02*
X817Y1824D01*
X828Y1824D02*
X847Y1824D01*
X858Y1824D02*
X877Y1824D01*
X895Y1824D02*
X900Y1824D01*
X918Y1824D02*
X922Y1824D01*
X934Y1824D02*
X938Y1824D01*
X953Y1824D02*
X967Y1824D01*
X1009Y1824D02*
X1027Y1824D01*
X1068Y1824D02*
X1071Y1824D01*
X1085Y1824D02*
X1088Y1824D01*
X1100Y1824D02*
X1116Y1824D01*
X1129Y1824D02*
X1143Y1824D01*
X1160Y1824D02*
X1177Y1824D01*
X1189Y1824D02*
X1192Y1824D01*
X1205Y1824D02*
X1208Y1824D01*
X1235Y1824D02*
X1238Y1824D01*
X1279Y1824D02*
X1297Y1824D01*
X1311Y1824D02*
X1326Y1824D01*
X1339Y1824D02*
X1355Y1824D01*
X1371Y1824D02*
X1386Y1824D01*
X1400Y1824D02*
X1414Y1824D01*
X1445Y1824D02*
X1449Y1824D01*
X1459Y1824D02*
X1478Y1824D01*
X1506Y1824D02*
X1509Y1824D01*
X1566Y1824D02*
X1569Y1824D01*
X1580Y1824D02*
X1597Y1824D01*
X1612Y1824D02*
X1626Y1824D01*
X1642Y1824D02*
X1657Y1824D01*
X1671Y1824D02*
X1688Y1824D01*
X1716Y1824D02*
X1719Y1824D01*
X1730Y1824D02*
X1744Y1824D01*
X1760Y1824D02*
X1763Y1824D01*
X1776Y1824D02*
X1779Y1824D01*
X1791Y1824D02*
X1808Y1824D01*
X1820Y1824D02*
X1834Y1824D01*
X1896Y1824D02*
X1900Y1824D01*
X1910Y1824D02*
X1928Y1824D01*
X1943Y1824D02*
X1949Y1824D01*
X1951Y1824D02*
X1960Y1824D01*
X1973Y1824D02*
X1979Y1824D01*
X1981Y1824D02*
X1990Y1824D01*
X2001Y1824D02*
X2018Y1824D01*
X2031Y1824D02*
X2045Y1824D01*
X2061Y1824D02*
X2079Y1824D01*
X2123Y1824D02*
X2127Y1824D01*
X2150Y1824D02*
X2170Y1824D01*
X2180Y1824D02*
X2200Y1824D01*
X2242Y1824D02*
X2249Y1824D01*
X2252Y1824D02*
X2259Y1824D01*
X2272Y1824D02*
X2289Y1824D01*
X2303Y1824D02*
X2318Y1824D01*
X2347Y1824D02*
X2351Y1824D01*
X2361Y1824D02*
X2380Y1824D01*
X2391Y1824D02*
X2394Y1824D01*
X2407Y1824D02*
X2411Y1824D01*
X2451Y1824D02*
X2454Y1824D01*
X2468Y1824D02*
X2471Y1824D01*
X2483Y1824D02*
X2499Y1824D01*
X2512Y1824D02*
X2531Y1824D01*
X2542Y1824D02*
X2556Y1824D01*
X2571Y1824D02*
X2590Y1824D01*
X2602Y1824D02*
X2620Y1824D01*
X505Y1823D02*
X509Y1823D01*
X527Y1823D02*
X547Y1823D01*
X558Y1823D02*
X577Y1823D01*
X588Y1823D02*
X606Y1823D01*
X626Y1823D02*
X629Y1823D01*
X647Y1823D02*
X667Y1823D01*
X678Y1823D02*
X697Y1823D01*
X708Y1823D02*
X727Y1823D01*
X768Y1823D02*
X787Y1823D01*
X798Y1823D02*
X817Y1823D01*
X828Y1823D02*
X847Y1823D01*
X858Y1823D02*
X877Y1823D01*
X896Y1823D02*
X900Y1823D01*
X918Y1823D02*
X922Y1823D01*
X934Y1823D02*
X938Y1823D01*
X954Y1823D02*
X968Y1823D01*
X1008Y1823D02*
X1012Y1823D01*
X1015Y1823D02*
X1026Y1823D01*
X1068Y1823D02*
X1071Y1823D01*
X1085Y1823D02*
X1088Y1823D01*
X1101Y1823D02*
X1115Y1823D01*
X1130Y1823D02*
X1142Y1823D01*
X1161Y1823D02*
X1176Y1823D01*
X1189Y1823D02*
X1192Y1823D01*
X1205Y1823D02*
X1208Y1823D01*
X1235Y1823D02*
X1238Y1823D01*
X1279Y1823D02*
X1296Y1823D01*
X1311Y1823D02*
X1326Y1823D01*
X1339Y1823D02*
X1354Y1823D01*
X1371Y1823D02*
X1386Y1823D01*
X1400Y1823D02*
X1413Y1823D01*
X1445Y1823D02*
X1449Y1823D01*
X1459Y1823D02*
X1477Y1823D01*
X1506Y1823D02*
X1509Y1823D01*
X1566Y1823D02*
X1569Y1823D01*
X1579Y1823D02*
X1596Y1823D01*
X1611Y1823D02*
X1627Y1823D01*
X1642Y1823D02*
X1657Y1823D01*
X1672Y1823D02*
X1687Y1823D01*
X1716Y1823D02*
X1719Y1823D01*
X1731Y1823D02*
X1744Y1823D01*
X1760Y1823D02*
X1763Y1823D01*
X1776Y1823D02*
X1779Y1823D01*
X1792Y1823D02*
X1807Y1823D01*
X1820Y1823D02*
X1833Y1823D01*
X1896Y1823D02*
X1900Y1823D01*
X1910Y1823D02*
X1927Y1823D01*
X1944Y1823D02*
X1960Y1823D01*
X1974Y1823D02*
X1990Y1823D01*
X2000Y1823D02*
X2017Y1823D01*
X2032Y1823D02*
X2044Y1823D01*
X2061Y1823D02*
X2079Y1823D01*
X2123Y1823D02*
X2127Y1823D01*
X2150Y1823D02*
X2170Y1823D01*
X2180Y1823D02*
X2200Y1823D01*
X2242Y1823D02*
X2248Y1823D01*
X2252Y1823D02*
X2258Y1823D01*
X2273Y1823D02*
X2288Y1823D01*
X2303Y1823D02*
X2318Y1823D01*
X2347Y1823D02*
X2350Y1823D01*
X2361Y1823D02*
X2379Y1823D01*
X2391Y1823D02*
X2394Y1823D01*
X2407Y1823D02*
X2411Y1823D01*
X2451Y1823D02*
X2454Y1823D01*
X2468Y1823D02*
X2471Y1823D01*
X2484Y1823D02*
X2498Y1823D01*
X2513Y1823D02*
X2530Y1823D01*
X2543Y1823D02*
X2555Y1823D01*
X2571Y1823D02*
X2590Y1823D01*
X2603Y1823D02*
X2620Y1823D01*
X506Y1822D02*
X508Y1822D01*
X527Y1822D02*
X547Y1822D01*
X558Y1822D02*
X577Y1822D01*
X588Y1822D02*
X606Y1822D01*
X626Y1822D02*
X629Y1822D01*
X648Y1822D02*
X667Y1822D01*
X679Y1822D02*
X696Y1822D01*
X708Y1822D02*
X727Y1822D01*
X769Y1822D02*
X785Y1822D01*
X798Y1822D02*
X817Y1822D01*
X829Y1822D02*
X846Y1822D01*
X859Y1822D02*
X876Y1822D01*
X896Y1822D02*
X899Y1822D01*
X918Y1822D02*
X921Y1822D01*
X935Y1822D02*
X937Y1822D01*
X955Y1822D02*
X968Y1822D01*
X1008Y1822D02*
X1011Y1822D01*
X1016Y1822D02*
X1025Y1822D01*
X1068Y1822D02*
X1071Y1822D01*
X1085Y1822D02*
X1088Y1822D01*
X1102Y1822D02*
X1114Y1822D01*
X1131Y1822D02*
X1141Y1822D01*
X1162Y1822D02*
X1174Y1822D01*
X1189Y1822D02*
X1192Y1822D01*
X1205Y1822D02*
X1208Y1822D01*
X1235Y1822D02*
X1238Y1822D01*
X1279Y1822D02*
X1295Y1822D01*
X1311Y1822D02*
X1326Y1822D01*
X1339Y1822D02*
X1353Y1822D01*
X1371Y1822D02*
X1386Y1822D01*
X1401Y1822D02*
X1412Y1822D01*
X1446Y1822D02*
X1448Y1822D01*
X1459Y1822D02*
X1462Y1822D01*
X1464Y1822D02*
X1476Y1822D01*
X1506Y1822D02*
X1509Y1822D01*
X1566Y1822D02*
X1569Y1822D01*
X1579Y1822D02*
X1595Y1822D01*
X1612Y1822D02*
X1627Y1822D01*
X1642Y1822D02*
X1657Y1822D01*
X1673Y1822D02*
X1685Y1822D01*
X1716Y1822D02*
X1719Y1822D01*
X1732Y1822D02*
X1743Y1822D01*
X1760Y1822D02*
X1763Y1822D01*
X1776Y1822D02*
X1779Y1822D01*
X1794Y1822D02*
X1806Y1822D01*
X1820Y1822D02*
X1832Y1822D01*
X1897Y1822D02*
X1899Y1822D01*
X1910Y1822D02*
X1926Y1822D01*
X1945Y1822D02*
X1960Y1822D01*
X1975Y1822D02*
X1985Y1822D01*
X1987Y1822D02*
X1990Y1822D01*
X2000Y1822D02*
X2016Y1822D01*
X2033Y1822D02*
X2043Y1822D01*
X2062Y1822D02*
X2078Y1822D01*
X2124Y1822D02*
X2127Y1822D01*
X2151Y1822D02*
X2170Y1822D01*
X2181Y1822D02*
X2200Y1822D01*
X2243Y1822D02*
X2248Y1822D01*
X2253Y1822D02*
X2258Y1822D01*
X2275Y1822D02*
X2287Y1822D01*
X2303Y1822D02*
X2318Y1822D01*
X2347Y1822D02*
X2350Y1822D01*
X2361Y1822D02*
X2364Y1822D01*
X2366Y1822D02*
X2378Y1822D01*
X2391Y1822D02*
X2394Y1822D01*
X2408Y1822D02*
X2410Y1822D01*
X2451Y1822D02*
X2454Y1822D01*
X2468Y1822D02*
X2471Y1822D01*
X2485Y1822D02*
X2497Y1822D01*
X2514Y1822D02*
X2529Y1822D01*
X2544Y1822D02*
X2554Y1822D01*
X2571Y1822D02*
X2574Y1822D01*
X2577Y1822D02*
X2589Y1822D01*
X2604Y1822D02*
X2619Y1822D01*
X506Y1821D02*
X508Y1821D01*
X528Y1821D02*
X546Y1821D01*
X560Y1821D02*
X576Y1821D01*
X590Y1821D02*
X604Y1821D01*
X627Y1821D02*
X628Y1821D01*
X648Y1821D02*
X666Y1821D01*
X680Y1821D02*
X695Y1821D01*
X708Y1821D02*
X727Y1821D01*
X770Y1821D02*
X783Y1821D01*
X799Y1821D02*
X817Y1821D01*
X830Y1821D02*
X845Y1821D01*
X860Y1821D02*
X875Y1821D01*
X897Y1821D02*
X898Y1821D01*
X919Y1821D02*
X920Y1821D01*
X935Y1821D02*
X937Y1821D01*
X957Y1821D02*
X967Y1821D01*
X1009Y1821D02*
X1010Y1821D01*
X1017Y1821D02*
X1024Y1821D01*
X1069Y1821D02*
X1070Y1821D01*
X1086Y1821D02*
X1087Y1821D01*
X1104Y1821D02*
X1112Y1821D01*
X1133Y1821D02*
X1140Y1821D01*
X1164Y1821D02*
X1172Y1821D01*
X1189Y1821D02*
X1191Y1821D01*
X1206Y1821D02*
X1207Y1821D01*
X1236Y1821D02*
X1237Y1821D01*
X1280Y1821D02*
X1293Y1821D01*
X1312Y1821D02*
X1325Y1821D01*
X1340Y1821D02*
X1351Y1821D01*
X1372Y1821D02*
X1386Y1821D01*
X1403Y1821D02*
X1410Y1821D01*
X1446Y1821D02*
X1448Y1821D01*
X1460Y1821D02*
X1461Y1821D01*
X1466Y1821D02*
X1475Y1821D01*
X1507Y1821D02*
X1508Y1821D01*
X1567Y1821D02*
X1568Y1821D01*
X1580Y1821D02*
X1593Y1821D01*
X1612Y1821D02*
X1626Y1821D01*
X1642Y1821D02*
X1656Y1821D01*
X1675Y1821D02*
X1684Y1821D01*
X1717Y1821D02*
X1718Y1821D01*
X1734Y1821D02*
X1741Y1821D01*
X1761Y1821D02*
X1762Y1821D01*
X1777Y1821D02*
X1778Y1821D01*
X1795Y1821D02*
X1804Y1821D01*
X1821Y1821D02*
X1831Y1821D01*
X1897Y1821D02*
X1899Y1821D01*
X1911Y1821D02*
X1924Y1821D01*
X1946Y1821D02*
X1953Y1821D01*
X1956Y1821D02*
X1960Y1821D01*
X1976Y1821D02*
X1984Y1821D01*
X1987Y1821D02*
X1990Y1821D01*
X2001Y1821D02*
X2014Y1821D01*
X2034Y1821D02*
X2042Y1821D01*
X2063Y1821D02*
X2076Y1821D01*
X2124Y1821D02*
X2126Y1821D01*
X2151Y1821D02*
X2169Y1821D01*
X2181Y1821D02*
X2199Y1821D01*
X2244Y1821D02*
X2247Y1821D01*
X2254Y1821D02*
X2257Y1821D01*
X2276Y1821D02*
X2285Y1821D01*
X2304Y1821D02*
X2317Y1821D01*
X2348Y1821D02*
X2350Y1821D01*
X2362Y1821D02*
X2363Y1821D01*
X2368Y1821D02*
X2376Y1821D01*
X2392Y1821D02*
X2393Y1821D01*
X2408Y1821D02*
X2410Y1821D01*
X2452Y1821D02*
X2453Y1821D01*
X2469Y1821D02*
X2470Y1821D01*
X2487Y1821D02*
X2495Y1821D01*
X2515Y1821D02*
X2527Y1821D01*
X2545Y1821D02*
X2553Y1821D01*
X2572Y1821D02*
X2574Y1821D01*
X2578Y1821D02*
X2587Y1821D01*
X2604Y1821D02*
X2610Y1821D01*
X2613Y1821D02*
X2618Y1821D01*
X1948Y1820D02*
X1951Y1820D01*
X1956Y1820D02*
X1960Y1820D01*
X1978Y1820D02*
X1981Y1820D01*
X1987Y1820D02*
X1990Y1820D01*
X1956Y1819D02*
X1960Y1819D01*
X1987Y1819D02*
X1990Y1819D01*
X1956Y1818D02*
X1960Y1818D01*
X1987Y1818D02*
X1990Y1818D01*
X1956Y1817D02*
X1960Y1817D01*
X1987Y1817D02*
X1990Y1817D01*
X1956Y1816D02*
X1960Y1816D01*
X1987Y1816D02*
X1990Y1816D01*
X1956Y1815D02*
X1960Y1815D01*
X1987Y1815D02*
X1990Y1815D01*
X1957Y1814D02*
X1960Y1814D01*
X1987Y1814D02*
X1990Y1814D01*
X1957Y1813D02*
X1959Y1813D01*
X1987Y1813D02*
X1990Y1813D01*
X1958Y1812D02*
X1958Y1812D01*
X1988Y1812D02*
X1988Y1812D01*
X3074Y1570D02*
X3108Y1570D01*
X3073Y1569D02*
X3109Y1569D01*
X3072Y1568D02*
X3109Y1568D01*
X3072Y1567D02*
X3109Y1567D01*
X3072Y1566D02*
X3109Y1566D01*
X3073Y1565D02*
X3108Y1565D01*
X3075Y1564D02*
X3106Y1564D01*
X3077Y1563D02*
X3084Y1563D01*
X3077Y1562D02*
X3084Y1562D01*
X3076Y1561D02*
X3083Y1561D01*
X3075Y1560D02*
X3082Y1560D01*
X3075Y1559D02*
X3082Y1559D01*
X3074Y1558D02*
X3081Y1558D01*
X3074Y1557D02*
X3080Y1557D01*
X3073Y1556D02*
X3080Y1556D01*
X3073Y1555D02*
X3079Y1555D01*
X3072Y1554D02*
X3079Y1554D01*
X3072Y1553D02*
X3078Y1553D01*
X3072Y1552D02*
X3078Y1552D01*
X3072Y1551D02*
X3078Y1551D01*
X3072Y1550D02*
X3078Y1550D01*
X3072Y1549D02*
X3078Y1549D01*
X3072Y1548D02*
X3078Y1548D01*
X3072Y1547D02*
X3078Y1547D01*
X3072Y1546D02*
X3079Y1546D01*
X3073Y1545D02*
X3081Y1545D01*
X3073Y1544D02*
X3106Y1544D01*
X3074Y1543D02*
X3108Y1543D01*
X3074Y1542D02*
X3109Y1542D01*
X3075Y1541D02*
X3109Y1541D01*
X3077Y1540D02*
X3109Y1540D01*
X3078Y1539D02*
X3109Y1539D01*
X3088Y1538D02*
X3108Y1538D01*
X3074Y1522D02*
X3121Y1522D01*
X3073Y1521D02*
X3123Y1521D01*
X3072Y1520D02*
X3123Y1520D01*
X3072Y1519D02*
X3123Y1519D01*
X3072Y1518D02*
X3123Y1518D01*
X3073Y1517D02*
X3123Y1517D01*
X3074Y1516D02*
X3121Y1516D01*
X3076Y1515D02*
X3084Y1515D01*
X3097Y1515D02*
X3105Y1515D01*
X3075Y1514D02*
X3083Y1514D01*
X3098Y1514D02*
X3106Y1514D01*
X3074Y1513D02*
X3082Y1513D01*
X3099Y1513D02*
X3107Y1513D01*
X3074Y1512D02*
X3082Y1512D01*
X3100Y1512D02*
X3107Y1512D01*
X3073Y1511D02*
X3081Y1511D01*
X3101Y1511D02*
X3108Y1511D01*
X3073Y1510D02*
X3080Y1510D01*
X3101Y1510D02*
X3108Y1510D01*
X3072Y1509D02*
X3079Y1509D01*
X3102Y1509D02*
X3109Y1509D01*
X3072Y1508D02*
X3078Y1508D01*
X3103Y1508D02*
X3109Y1508D01*
X3072Y1507D02*
X3078Y1507D01*
X3103Y1507D02*
X3109Y1507D01*
X3072Y1506D02*
X3078Y1506D01*
X3103Y1506D02*
X3109Y1506D01*
X3072Y1505D02*
X3078Y1505D01*
X3103Y1505D02*
X3109Y1505D01*
X3072Y1504D02*
X3078Y1504D01*
X3103Y1504D02*
X3109Y1504D01*
X3072Y1503D02*
X3078Y1503D01*
X3103Y1503D02*
X3109Y1503D01*
X3072Y1502D02*
X3078Y1502D01*
X3103Y1502D02*
X3109Y1502D01*
X3072Y1501D02*
X3078Y1501D01*
X3103Y1501D02*
X3109Y1501D01*
X3072Y1500D02*
X3078Y1500D01*
X3103Y1500D02*
X3109Y1500D01*
X3072Y1499D02*
X3079Y1499D01*
X3102Y1499D02*
X3109Y1499D01*
X3073Y1498D02*
X3080Y1498D01*
X3102Y1498D02*
X3109Y1498D01*
X3073Y1497D02*
X3081Y1497D01*
X3101Y1497D02*
X3108Y1497D01*
X3074Y1496D02*
X3082Y1496D01*
X3099Y1496D02*
X3107Y1496D01*
X3074Y1495D02*
X3107Y1495D01*
X3075Y1494D02*
X3106Y1494D01*
X3076Y1493D02*
X3105Y1493D01*
X3077Y1492D02*
X3104Y1492D01*
X3078Y1491D02*
X3103Y1491D01*
X3080Y1490D02*
X3101Y1490D01*
X3073Y1473D02*
X3077Y1473D01*
X3087Y1473D02*
X3101Y1473D01*
X3073Y1472D02*
X3078Y1472D01*
X3087Y1472D02*
X3103Y1472D01*
X3072Y1471D02*
X3078Y1471D01*
X3086Y1471D02*
X3104Y1471D01*
X3072Y1470D02*
X3078Y1470D01*
X3086Y1470D02*
X3105Y1470D01*
X3072Y1469D02*
X3078Y1469D01*
X3086Y1469D02*
X3106Y1469D01*
X3072Y1468D02*
X3078Y1468D01*
X3086Y1468D02*
X3107Y1468D01*
X3072Y1467D02*
X3078Y1467D01*
X3086Y1467D02*
X3092Y1467D01*
X3099Y1467D02*
X3107Y1467D01*
X3072Y1466D02*
X3078Y1466D01*
X3086Y1466D02*
X3092Y1466D01*
X3101Y1466D02*
X3108Y1466D01*
X3072Y1465D02*
X3078Y1465D01*
X3086Y1465D02*
X3092Y1465D01*
X3102Y1465D02*
X3109Y1465D01*
X3072Y1464D02*
X3078Y1464D01*
X3086Y1464D02*
X3092Y1464D01*
X3102Y1464D02*
X3109Y1464D01*
X3072Y1463D02*
X3078Y1463D01*
X3086Y1463D02*
X3092Y1463D01*
X3103Y1463D02*
X3109Y1463D01*
X3072Y1462D02*
X3078Y1462D01*
X3086Y1462D02*
X3092Y1462D01*
X3103Y1462D02*
X3109Y1462D01*
X3072Y1461D02*
X3078Y1461D01*
X3086Y1461D02*
X3092Y1461D01*
X3103Y1461D02*
X3109Y1461D01*
X3072Y1460D02*
X3078Y1460D01*
X3086Y1460D02*
X3092Y1460D01*
X3103Y1460D02*
X3109Y1460D01*
X3072Y1459D02*
X3078Y1459D01*
X3086Y1459D02*
X3092Y1459D01*
X3103Y1459D02*
X3109Y1459D01*
X3072Y1458D02*
X3078Y1458D01*
X3086Y1458D02*
X3092Y1458D01*
X3103Y1458D02*
X3109Y1458D01*
X3072Y1457D02*
X3078Y1457D01*
X3086Y1457D02*
X3092Y1457D01*
X3103Y1457D02*
X3109Y1457D01*
X3072Y1456D02*
X3078Y1456D01*
X3086Y1456D02*
X3092Y1456D01*
X3103Y1456D02*
X3109Y1456D01*
X3072Y1455D02*
X3078Y1455D01*
X3086Y1455D02*
X3092Y1455D01*
X3103Y1455D02*
X3109Y1455D01*
X3072Y1454D02*
X3078Y1454D01*
X3086Y1454D02*
X3092Y1454D01*
X3103Y1454D02*
X3109Y1454D01*
X3072Y1453D02*
X3078Y1453D01*
X3086Y1453D02*
X3092Y1453D01*
X3103Y1453D02*
X3109Y1453D01*
X3072Y1452D02*
X3078Y1452D01*
X3086Y1452D02*
X3092Y1452D01*
X3103Y1452D02*
X3109Y1452D01*
X3072Y1451D02*
X3079Y1451D01*
X3086Y1451D02*
X3092Y1451D01*
X3103Y1451D02*
X3109Y1451D01*
X3073Y1450D02*
X3079Y1450D01*
X3086Y1450D02*
X3092Y1450D01*
X3102Y1450D02*
X3109Y1450D01*
X3073Y1449D02*
X3080Y1449D01*
X3086Y1449D02*
X3092Y1449D01*
X3101Y1449D02*
X3108Y1449D01*
X3074Y1448D02*
X3081Y1448D01*
X3086Y1448D02*
X3092Y1448D01*
X3100Y1448D02*
X3108Y1448D01*
X3074Y1447D02*
X3107Y1447D01*
X3075Y1446D02*
X3106Y1446D01*
X3076Y1445D02*
X3105Y1445D01*
X3077Y1444D02*
X3104Y1444D01*
X3078Y1443D02*
X3103Y1443D01*
X3079Y1442D02*
X3102Y1442D01*
X3082Y1441D02*
X3099Y1441D01*
X3082Y1415D02*
X3091Y1415D01*
X3081Y1414D02*
X3092Y1414D01*
X3081Y1413D02*
X3092Y1413D01*
X3081Y1412D02*
X3092Y1412D01*
X3081Y1411D02*
X3092Y1411D01*
X3081Y1410D02*
X3092Y1410D01*
X3081Y1409D02*
X3092Y1409D01*
X3081Y1408D02*
X3092Y1408D01*
X3081Y1407D02*
X3092Y1407D01*
X3081Y1406D02*
X3092Y1406D01*
X3081Y1405D02*
X3092Y1405D01*
X3081Y1404D02*
X3092Y1404D01*
X3082Y1403D02*
X3091Y1403D01*
X3082Y1377D02*
X3099Y1377D01*
X3080Y1376D02*
X3102Y1376D01*
X3078Y1375D02*
X3103Y1375D01*
X3077Y1374D02*
X3104Y1374D01*
X3076Y1373D02*
X3105Y1373D01*
X3075Y1372D02*
X3106Y1372D01*
X3074Y1371D02*
X3107Y1371D01*
X3074Y1370D02*
X3082Y1370D01*
X3100Y1370D02*
X3108Y1370D01*
X3073Y1369D02*
X3081Y1369D01*
X3101Y1369D02*
X3108Y1369D01*
X3073Y1368D02*
X3080Y1368D01*
X3102Y1368D02*
X3109Y1368D01*
X3072Y1367D02*
X3079Y1367D01*
X3103Y1367D02*
X3109Y1367D01*
X3072Y1366D02*
X3078Y1366D01*
X3103Y1366D02*
X3109Y1366D01*
X3072Y1365D02*
X3078Y1365D01*
X3103Y1365D02*
X3109Y1365D01*
X3072Y1364D02*
X3078Y1364D01*
X3103Y1364D02*
X3109Y1364D01*
X3072Y1363D02*
X3078Y1363D01*
X3103Y1363D02*
X3109Y1363D01*
X3072Y1362D02*
X3078Y1362D01*
X3103Y1362D02*
X3109Y1362D01*
X3072Y1361D02*
X3078Y1361D01*
X3103Y1361D02*
X3109Y1361D01*
X3072Y1360D02*
X3078Y1360D01*
X3103Y1360D02*
X3109Y1360D01*
X3072Y1359D02*
X3078Y1359D01*
X3103Y1359D02*
X3109Y1359D01*
X3072Y1358D02*
X3078Y1358D01*
X3103Y1358D02*
X3109Y1358D01*
X3072Y1357D02*
X3078Y1357D01*
X3103Y1357D02*
X3109Y1357D01*
X3072Y1356D02*
X3078Y1356D01*
X3103Y1356D02*
X3109Y1356D01*
X3072Y1355D02*
X3078Y1355D01*
X3103Y1355D02*
X3109Y1355D01*
X3072Y1354D02*
X3079Y1354D01*
X3102Y1354D02*
X3109Y1354D01*
X3073Y1353D02*
X3080Y1353D01*
X3102Y1353D02*
X3109Y1353D01*
X3073Y1352D02*
X3081Y1352D01*
X3101Y1352D02*
X3108Y1352D01*
X3074Y1351D02*
X3082Y1351D01*
X3099Y1351D02*
X3108Y1351D01*
X3074Y1350D02*
X3107Y1350D01*
X3075Y1349D02*
X3106Y1349D01*
X3076Y1348D02*
X3105Y1348D01*
X3077Y1347D02*
X3104Y1347D01*
X3078Y1346D02*
X3103Y1346D01*
X3080Y1345D02*
X3101Y1345D01*
X3083Y1344D02*
X3098Y1344D01*
X3073Y1328D02*
X3122Y1328D01*
X3073Y1327D02*
X3123Y1327D01*
X3072Y1326D02*
X3123Y1326D01*
X3072Y1325D02*
X3123Y1325D01*
X3073Y1324D02*
X3123Y1324D01*
X3073Y1323D02*
X3122Y1323D01*
X3076Y1322D02*
X3086Y1322D01*
X3096Y1322D02*
X3105Y1322D01*
X3076Y1321D02*
X3084Y1321D01*
X3097Y1321D02*
X3105Y1321D01*
X3075Y1320D02*
X3083Y1320D01*
X3098Y1320D02*
X3106Y1320D01*
X3074Y1319D02*
X3082Y1319D01*
X3099Y1319D02*
X3107Y1319D01*
X3074Y1318D02*
X3081Y1318D01*
X3100Y1318D02*
X3108Y1318D01*
X3073Y1317D02*
X3080Y1317D01*
X3101Y1317D02*
X3108Y1317D01*
X3073Y1316D02*
X3079Y1316D01*
X3102Y1316D02*
X3109Y1316D01*
X3072Y1315D02*
X3079Y1315D01*
X3103Y1315D02*
X3109Y1315D01*
X3072Y1314D02*
X3078Y1314D01*
X3103Y1314D02*
X3109Y1314D01*
X3072Y1313D02*
X3078Y1313D01*
X3103Y1313D02*
X3109Y1313D01*
X3072Y1312D02*
X3078Y1312D01*
X3103Y1312D02*
X3109Y1312D01*
X3072Y1311D02*
X3078Y1311D01*
X3103Y1311D02*
X3109Y1311D01*
X3072Y1310D02*
X3078Y1310D01*
X3103Y1310D02*
X3109Y1310D01*
X3072Y1309D02*
X3078Y1309D01*
X3103Y1309D02*
X3109Y1309D01*
X3072Y1308D02*
X3078Y1308D01*
X3103Y1308D02*
X3109Y1308D01*
X3072Y1307D02*
X3078Y1307D01*
X3103Y1307D02*
X3109Y1307D01*
X3072Y1306D02*
X3079Y1306D01*
X3103Y1306D02*
X3109Y1306D01*
X3073Y1305D02*
X3079Y1305D01*
X3102Y1305D02*
X3109Y1305D01*
X3073Y1304D02*
X3080Y1304D01*
X3101Y1304D02*
X3108Y1304D01*
X3073Y1303D02*
X3081Y1303D01*
X3100Y1303D02*
X3108Y1303D01*
X3074Y1302D02*
X3107Y1302D01*
X3075Y1301D02*
X3106Y1301D01*
X3076Y1300D02*
X3105Y1300D01*
X3077Y1299D02*
X3105Y1299D01*
X3078Y1298D02*
X3103Y1298D01*
X3079Y1297D02*
X3102Y1297D01*
X3081Y1296D02*
X3100Y1296D01*
X3074Y1280D02*
X3088Y1280D01*
X3073Y1279D02*
X3103Y1279D01*
X3072Y1278D02*
X3105Y1278D01*
X3072Y1277D02*
X3106Y1277D01*
X3072Y1276D02*
X3107Y1276D01*
X3073Y1275D02*
X3108Y1275D01*
X3074Y1274D02*
X3108Y1274D01*
X3075Y1273D02*
X3082Y1273D01*
X3087Y1273D02*
X3109Y1273D01*
X3074Y1272D02*
X3081Y1272D01*
X3088Y1272D02*
X3095Y1272D01*
X3102Y1272D02*
X3109Y1272D01*
X3074Y1271D02*
X3081Y1271D01*
X3089Y1271D02*
X3095Y1271D01*
X3103Y1271D02*
X3109Y1271D01*
X3073Y1270D02*
X3080Y1270D01*
X3089Y1270D02*
X3095Y1270D01*
X3103Y1270D02*
X3109Y1270D01*
X3073Y1269D02*
X3080Y1269D01*
X3089Y1269D02*
X3095Y1269D01*
X3103Y1269D02*
X3109Y1269D01*
X3072Y1268D02*
X3079Y1268D01*
X3089Y1268D02*
X3095Y1268D01*
X3103Y1268D02*
X3109Y1268D01*
X3072Y1267D02*
X3078Y1267D01*
X3089Y1267D02*
X3095Y1267D01*
X3103Y1267D02*
X3109Y1267D01*
X3072Y1266D02*
X3078Y1266D01*
X3089Y1266D02*
X3095Y1266D01*
X3103Y1266D02*
X3109Y1266D01*
X3072Y1265D02*
X3078Y1265D01*
X3089Y1265D02*
X3095Y1265D01*
X3103Y1265D02*
X3109Y1265D01*
X3072Y1264D02*
X3078Y1264D01*
X3089Y1264D02*
X3095Y1264D01*
X3103Y1264D02*
X3109Y1264D01*
X3072Y1263D02*
X3078Y1263D01*
X3089Y1263D02*
X3095Y1263D01*
X3103Y1263D02*
X3109Y1263D01*
X3072Y1262D02*
X3078Y1262D01*
X3089Y1262D02*
X3095Y1262D01*
X3103Y1262D02*
X3109Y1262D01*
X3072Y1261D02*
X3078Y1261D01*
X3089Y1261D02*
X3095Y1261D01*
X3103Y1261D02*
X3109Y1261D01*
X3072Y1260D02*
X3078Y1260D01*
X3089Y1260D02*
X3095Y1260D01*
X3103Y1260D02*
X3109Y1260D01*
X3072Y1259D02*
X3078Y1259D01*
X3089Y1259D02*
X3095Y1259D01*
X3103Y1259D02*
X3109Y1259D01*
X3072Y1258D02*
X3078Y1258D01*
X3089Y1258D02*
X3095Y1258D01*
X3103Y1258D02*
X3109Y1258D01*
X3072Y1257D02*
X3078Y1257D01*
X3089Y1257D02*
X3095Y1257D01*
X3103Y1257D02*
X3109Y1257D01*
X3072Y1256D02*
X3078Y1256D01*
X3089Y1256D02*
X3095Y1256D01*
X3104Y1256D02*
X3109Y1256D01*
X3072Y1255D02*
X3079Y1255D01*
X3088Y1255D02*
X3095Y1255D01*
X3104Y1255D02*
X3108Y1255D01*
X3073Y1254D02*
X3081Y1254D01*
X3086Y1254D02*
X3094Y1254D01*
X3106Y1254D02*
X3107Y1254D01*
X3073Y1253D02*
X3094Y1253D01*
X3074Y1252D02*
X3093Y1252D01*
X3074Y1251D02*
X3093Y1251D01*
X3075Y1250D02*
X3092Y1250D01*
X3076Y1249D02*
X3091Y1249D01*
X3078Y1248D02*
X3089Y1248D01*
X3098Y1232D02*
X3100Y1232D01*
X3096Y1231D02*
X3104Y1231D01*
X3095Y1230D02*
X3105Y1230D01*
X3095Y1229D02*
X3106Y1229D01*
X3095Y1228D02*
X3107Y1228D01*
X3095Y1227D02*
X3108Y1227D01*
X3096Y1226D02*
X3108Y1226D01*
X3101Y1225D02*
X3109Y1225D01*
X3103Y1224D02*
X3109Y1224D01*
X3103Y1223D02*
X3109Y1223D01*
X3103Y1222D02*
X3109Y1222D01*
X3103Y1221D02*
X3109Y1221D01*
X3103Y1220D02*
X3109Y1220D01*
X3103Y1219D02*
X3109Y1219D01*
X3103Y1218D02*
X3109Y1218D01*
X3103Y1217D02*
X3109Y1217D01*
X3103Y1216D02*
X3109Y1216D01*
X3102Y1215D02*
X3109Y1215D01*
X3101Y1214D02*
X3109Y1214D01*
X3100Y1213D02*
X3108Y1213D01*
X3099Y1212D02*
X3107Y1212D01*
X3099Y1211D02*
X3106Y1211D01*
X3098Y1210D02*
X3106Y1210D01*
X3097Y1209D02*
X3105Y1209D01*
X3096Y1208D02*
X3104Y1208D01*
X3095Y1207D02*
X3103Y1207D01*
X3094Y1206D02*
X3102Y1206D01*
X3074Y1205D02*
X3107Y1205D01*
X3073Y1204D02*
X3109Y1204D01*
X3072Y1203D02*
X3109Y1203D01*
X3072Y1202D02*
X3109Y1202D01*
X3072Y1201D02*
X3109Y1201D01*
X3073Y1200D02*
X3108Y1200D01*
X3075Y1199D02*
X3107Y1199D01*
X3081Y1183D02*
X3101Y1183D01*
X3079Y1182D02*
X3103Y1182D01*
X3078Y1181D02*
X3104Y1181D01*
X3077Y1180D02*
X3105Y1180D01*
X3076Y1179D02*
X3106Y1179D01*
X3075Y1178D02*
X3107Y1178D01*
X3074Y1177D02*
X3107Y1177D01*
X3073Y1176D02*
X3081Y1176D01*
X3100Y1176D02*
X3108Y1176D01*
X3073Y1175D02*
X3080Y1175D01*
X3102Y1175D02*
X3108Y1175D01*
X3073Y1174D02*
X3079Y1174D01*
X3102Y1174D02*
X3109Y1174D01*
X3072Y1173D02*
X3078Y1173D01*
X3103Y1173D02*
X3109Y1173D01*
X3072Y1172D02*
X3078Y1172D01*
X3103Y1172D02*
X3109Y1172D01*
X3072Y1171D02*
X3078Y1171D01*
X3103Y1171D02*
X3109Y1171D01*
X3072Y1170D02*
X3078Y1170D01*
X3103Y1170D02*
X3109Y1170D01*
X3072Y1169D02*
X3078Y1169D01*
X3103Y1169D02*
X3109Y1169D01*
X3072Y1168D02*
X3078Y1168D01*
X3103Y1168D02*
X3109Y1168D01*
X3072Y1167D02*
X3078Y1167D01*
X3103Y1167D02*
X3109Y1167D01*
X3072Y1166D02*
X3078Y1166D01*
X3103Y1166D02*
X3109Y1166D01*
X3072Y1165D02*
X3078Y1165D01*
X3103Y1165D02*
X3109Y1165D01*
X3072Y1164D02*
X3078Y1164D01*
X3103Y1164D02*
X3109Y1164D01*
X3072Y1163D02*
X3078Y1163D01*
X3103Y1163D02*
X3109Y1163D01*
X3072Y1162D02*
X3078Y1162D01*
X3103Y1162D02*
X3109Y1162D01*
X3072Y1161D02*
X3079Y1161D01*
X3103Y1161D02*
X3109Y1161D01*
X3073Y1160D02*
X3079Y1160D01*
X3102Y1160D02*
X3109Y1160D01*
X3073Y1159D02*
X3080Y1159D01*
X3101Y1159D02*
X3108Y1159D01*
X3073Y1158D02*
X3081Y1158D01*
X3100Y1158D02*
X3108Y1158D01*
X3074Y1157D02*
X3107Y1157D01*
X3075Y1156D02*
X3106Y1156D01*
X3076Y1155D02*
X3106Y1155D01*
X3077Y1154D02*
X3105Y1154D01*
X3078Y1153D02*
X3104Y1153D01*
X3079Y1152D02*
X3102Y1152D01*
X3081Y1151D02*
X3100Y1151D01*
X3073Y1131D02*
X3077Y1131D01*
X3072Y1130D02*
X3078Y1130D01*
X3072Y1129D02*
X3078Y1129D01*
X3072Y1128D02*
X3078Y1128D01*
X3072Y1127D02*
X3078Y1127D01*
X3072Y1126D02*
X3078Y1126D01*
X3072Y1125D02*
X3078Y1125D01*
X3072Y1124D02*
X3078Y1124D01*
X3072Y1123D02*
X3078Y1123D01*
X3072Y1122D02*
X3120Y1122D01*
X3072Y1121D02*
X3122Y1121D01*
X3072Y1120D02*
X3123Y1120D01*
X3072Y1119D02*
X3123Y1119D01*
X3072Y1118D02*
X3123Y1118D01*
X3072Y1117D02*
X3123Y1117D01*
X3072Y1116D02*
X3123Y1116D01*
X3072Y1115D02*
X3078Y1115D01*
X3117Y1115D02*
X3123Y1115D01*
X3072Y1114D02*
X3078Y1114D01*
X3118Y1114D02*
X3123Y1114D01*
X3072Y1113D02*
X3078Y1113D01*
X3118Y1113D02*
X3123Y1113D01*
X3072Y1112D02*
X3078Y1112D01*
X3118Y1112D02*
X3123Y1112D01*
X3072Y1111D02*
X3078Y1111D01*
X3118Y1111D02*
X3123Y1111D01*
X3072Y1110D02*
X3078Y1110D01*
X3118Y1110D02*
X3123Y1110D01*
X3072Y1109D02*
X3078Y1109D01*
X3118Y1109D02*
X3123Y1109D01*
X3072Y1108D02*
X3078Y1108D01*
X3118Y1108D02*
X3123Y1108D01*
X3073Y1107D02*
X3077Y1107D01*
X3118Y1107D02*
X3123Y1107D01*
X3074Y1106D02*
X3076Y1106D01*
X3119Y1106D02*
X3122Y1106D01*
X3085Y1087D02*
X3097Y1087D01*
X3080Y1086D02*
X3101Y1086D01*
X3078Y1085D02*
X3103Y1085D01*
X3077Y1084D02*
X3104Y1084D01*
X3076Y1083D02*
X3105Y1083D01*
X3075Y1082D02*
X3106Y1082D01*
X3075Y1081D02*
X3107Y1081D01*
X3074Y1080D02*
X3082Y1080D01*
X3099Y1080D02*
X3107Y1080D01*
X3073Y1079D02*
X3081Y1079D01*
X3101Y1079D02*
X3108Y1079D01*
X3073Y1078D02*
X3080Y1078D01*
X3102Y1078D02*
X3108Y1078D01*
X3072Y1077D02*
X3079Y1077D01*
X3102Y1077D02*
X3109Y1077D01*
X3072Y1076D02*
X3078Y1076D01*
X3103Y1076D02*
X3109Y1076D01*
X3072Y1075D02*
X3078Y1075D01*
X3103Y1075D02*
X3109Y1075D01*
X3072Y1074D02*
X3078Y1074D01*
X3103Y1074D02*
X3109Y1074D01*
X3072Y1073D02*
X3078Y1073D01*
X3103Y1073D02*
X3109Y1073D01*
X3072Y1072D02*
X3078Y1072D01*
X3103Y1072D02*
X3109Y1072D01*
X3072Y1071D02*
X3078Y1071D01*
X3103Y1071D02*
X3109Y1071D01*
X3072Y1070D02*
X3078Y1070D01*
X3103Y1070D02*
X3109Y1070D01*
X3072Y1069D02*
X3078Y1069D01*
X3103Y1069D02*
X3109Y1069D01*
X3072Y1068D02*
X3078Y1068D01*
X3103Y1068D02*
X3109Y1068D01*
X3072Y1067D02*
X3078Y1067D01*
X3103Y1067D02*
X3109Y1067D01*
X3072Y1066D02*
X3078Y1066D01*
X3103Y1066D02*
X3109Y1066D01*
X3072Y1065D02*
X3078Y1065D01*
X3103Y1065D02*
X3109Y1065D01*
X3072Y1064D02*
X3079Y1064D01*
X3103Y1064D02*
X3109Y1064D01*
X3073Y1063D02*
X3079Y1063D01*
X3102Y1063D02*
X3109Y1063D01*
X3073Y1062D02*
X3080Y1062D01*
X3101Y1062D02*
X3108Y1062D01*
X3074Y1061D02*
X3082Y1061D01*
X3100Y1061D02*
X3108Y1061D01*
X3074Y1060D02*
X3107Y1060D01*
X3075Y1059D02*
X3106Y1059D01*
X3076Y1058D02*
X3105Y1058D01*
X3077Y1057D02*
X3104Y1057D01*
X3078Y1056D02*
X3103Y1056D01*
X3079Y1055D02*
X3102Y1055D01*
X3082Y1054D02*
X3099Y1054D01*
X3074Y1038D02*
X3076Y1038D01*
X3105Y1038D02*
X3108Y1038D01*
X3073Y1037D02*
X3077Y1037D01*
X3104Y1037D02*
X3109Y1037D01*
X3072Y1036D02*
X3078Y1036D01*
X3104Y1036D02*
X3109Y1036D01*
X3072Y1035D02*
X3078Y1035D01*
X3103Y1035D02*
X3109Y1035D01*
X3072Y1034D02*
X3078Y1034D01*
X3103Y1034D02*
X3109Y1034D01*
X3072Y1033D02*
X3078Y1033D01*
X3103Y1033D02*
X3109Y1033D01*
X3072Y1032D02*
X3078Y1032D01*
X3103Y1032D02*
X3109Y1032D01*
X3072Y1031D02*
X3078Y1031D01*
X3103Y1031D02*
X3109Y1031D01*
X3072Y1030D02*
X3078Y1030D01*
X3103Y1030D02*
X3109Y1030D01*
X3072Y1029D02*
X3078Y1029D01*
X3103Y1029D02*
X3109Y1029D01*
X3072Y1028D02*
X3078Y1028D01*
X3103Y1028D02*
X3109Y1028D01*
X3072Y1027D02*
X3078Y1027D01*
X3103Y1027D02*
X3109Y1027D01*
X3072Y1026D02*
X3078Y1026D01*
X3103Y1026D02*
X3109Y1026D01*
X3072Y1025D02*
X3078Y1025D01*
X3103Y1025D02*
X3109Y1025D01*
X3072Y1024D02*
X3078Y1024D01*
X3103Y1024D02*
X3109Y1024D01*
X3072Y1023D02*
X3078Y1023D01*
X3103Y1023D02*
X3109Y1023D01*
X3072Y1022D02*
X3078Y1022D01*
X3103Y1022D02*
X3109Y1022D01*
X3072Y1021D02*
X3078Y1021D01*
X3103Y1021D02*
X3109Y1021D01*
X3072Y1020D02*
X3078Y1020D01*
X3103Y1020D02*
X3109Y1020D01*
X3072Y1019D02*
X3079Y1019D01*
X3103Y1019D02*
X3109Y1019D01*
X3073Y1018D02*
X3080Y1018D01*
X3102Y1018D02*
X3109Y1018D01*
X3073Y1017D02*
X3080Y1017D01*
X3101Y1017D02*
X3108Y1017D01*
X3074Y1016D02*
X3081Y1016D01*
X3100Y1016D02*
X3108Y1016D01*
X3074Y1015D02*
X3082Y1015D01*
X3099Y1015D02*
X3107Y1015D01*
X3075Y1014D02*
X3083Y1014D01*
X3098Y1014D02*
X3107Y1014D01*
X3076Y1013D02*
X3084Y1013D01*
X3097Y1013D02*
X3106Y1013D01*
X3077Y1012D02*
X3105Y1012D01*
X3078Y1011D02*
X3104Y1011D01*
X3078Y1010D02*
X3103Y1010D01*
X3079Y1009D02*
X3102Y1009D01*
X3080Y1008D02*
X3101Y1008D01*
X3082Y1007D02*
X3100Y1007D01*
X3083Y1006D02*
X3098Y1006D01*
X3080Y990D02*
X3114Y990D01*
X3077Y989D02*
X3117Y989D01*
X3076Y988D02*
X3118Y988D01*
X3075Y987D02*
X3119Y987D01*
X3074Y986D02*
X3120Y986D01*
X3073Y985D02*
X3121Y985D01*
X3073Y984D02*
X3122Y984D01*
X3073Y983D02*
X3080Y983D01*
X3115Y983D02*
X3122Y983D01*
X3072Y982D02*
X3079Y982D01*
X3116Y982D02*
X3123Y982D01*
X3072Y981D02*
X3078Y981D01*
X3117Y981D02*
X3123Y981D01*
X3072Y980D02*
X3078Y980D01*
X3117Y980D02*
X3123Y980D01*
X3072Y979D02*
X3078Y979D01*
X3117Y979D02*
X3123Y979D01*
X3072Y978D02*
X3079Y978D01*
X3118Y978D02*
X3123Y978D01*
X3073Y977D02*
X3081Y977D01*
X3118Y977D02*
X3123Y977D01*
X3073Y976D02*
X3102Y976D01*
X3118Y976D02*
X3123Y976D01*
X3074Y975D02*
X3103Y975D01*
X3118Y975D02*
X3123Y975D01*
X3074Y974D02*
X3103Y974D01*
X3118Y974D02*
X3123Y974D01*
X3074Y973D02*
X3103Y973D01*
X3118Y973D02*
X3123Y973D01*
X3074Y972D02*
X3103Y972D01*
X3118Y972D02*
X3123Y972D01*
X3073Y971D02*
X3103Y971D01*
X3118Y971D02*
X3123Y971D01*
X3073Y970D02*
X3080Y970D01*
X3097Y970D02*
X3103Y970D01*
X3118Y970D02*
X3123Y970D01*
X3072Y969D02*
X3079Y969D01*
X3098Y969D02*
X3103Y969D01*
X3118Y969D02*
X3123Y969D01*
X3072Y968D02*
X3078Y968D01*
X3098Y968D02*
X3103Y968D01*
X3117Y968D02*
X3123Y968D01*
X3072Y967D02*
X3078Y967D01*
X3098Y967D02*
X3103Y967D01*
X3117Y967D02*
X3123Y967D01*
X3072Y966D02*
X3078Y966D01*
X3098Y966D02*
X3103Y966D01*
X3117Y966D02*
X3123Y966D01*
X3072Y965D02*
X3079Y965D01*
X3097Y965D02*
X3103Y965D01*
X3116Y965D02*
X3123Y965D01*
X3073Y964D02*
X3080Y964D01*
X3096Y964D02*
X3103Y964D01*
X3115Y964D02*
X3122Y964D01*
X3073Y963D02*
X3103Y963D01*
X3113Y963D02*
X3122Y963D01*
X3073Y962D02*
X3102Y962D01*
X3112Y962D02*
X3121Y962D01*
X3074Y961D02*
X3101Y961D01*
X3112Y961D02*
X3120Y961D01*
X3075Y960D02*
X3101Y960D01*
X3112Y960D02*
X3119Y960D01*
X3076Y959D02*
X3099Y959D01*
X3112Y959D02*
X3118Y959D01*
X3078Y958D02*
X3098Y958D01*
X3113Y958D02*
X3117Y958D01*
X3082Y957D02*
X3094Y957D01*
X3115Y957D02*
X3115Y957D01*
X3120Y940D02*
X3121Y940D01*
X3118Y939D02*
X3122Y939D01*
X3118Y938D02*
X3123Y938D01*
X3118Y937D02*
X3123Y937D01*
X3118Y936D02*
X3123Y936D01*
X3118Y935D02*
X3123Y935D01*
X3118Y934D02*
X3123Y934D01*
X3105Y933D02*
X3107Y933D01*
X3118Y933D02*
X3123Y933D01*
X3104Y932D02*
X3109Y932D01*
X3118Y932D02*
X3123Y932D01*
X3104Y931D02*
X3109Y931D01*
X3118Y931D02*
X3123Y931D01*
X3103Y930D02*
X3109Y930D01*
X3118Y930D02*
X3123Y930D01*
X3103Y929D02*
X3109Y929D01*
X3118Y929D02*
X3123Y929D01*
X3103Y928D02*
X3109Y928D01*
X3117Y928D02*
X3123Y928D01*
X3103Y927D02*
X3109Y927D01*
X3117Y927D02*
X3123Y927D01*
X3103Y926D02*
X3109Y926D01*
X3117Y926D02*
X3123Y926D01*
X3103Y925D02*
X3109Y925D01*
X3116Y925D02*
X3123Y925D01*
X3103Y924D02*
X3109Y924D01*
X3114Y924D02*
X3122Y924D01*
X3074Y923D02*
X3122Y923D01*
X3073Y922D02*
X3121Y922D01*
X3072Y921D02*
X3120Y921D01*
X3072Y920D02*
X3120Y920D01*
X3072Y919D02*
X3118Y919D01*
X3073Y918D02*
X3117Y918D01*
X3075Y917D02*
X3114Y917D01*
X3103Y916D02*
X3109Y916D01*
X3103Y915D02*
X3109Y915D01*
X3103Y914D02*
X3109Y914D01*
X3103Y913D02*
X3109Y913D01*
X3104Y912D02*
X3109Y912D01*
X3105Y911D02*
X3108Y911D01*
X3083Y893D02*
X3099Y893D01*
X3081Y892D02*
X3101Y892D01*
X3079Y891D02*
X3102Y891D01*
X3078Y890D02*
X3103Y890D01*
X3077Y889D02*
X3104Y889D01*
X3076Y888D02*
X3105Y888D01*
X3076Y887D02*
X3106Y887D01*
X3075Y886D02*
X3083Y886D01*
X3099Y886D02*
X3107Y886D01*
X3074Y885D02*
X3082Y885D01*
X3100Y885D02*
X3108Y885D01*
X3073Y884D02*
X3081Y884D01*
X3100Y884D02*
X3108Y884D01*
X3072Y883D02*
X3080Y883D01*
X3101Y883D02*
X3109Y883D01*
X3072Y882D02*
X3079Y882D01*
X3102Y882D02*
X3109Y882D01*
X3071Y881D02*
X3078Y881D01*
X3103Y881D02*
X3110Y881D01*
X3071Y880D02*
X3077Y880D01*
X3104Y880D02*
X3110Y880D01*
X3071Y879D02*
X3077Y879D01*
X3104Y879D02*
X3110Y879D01*
X3071Y878D02*
X3077Y878D01*
X3105Y878D02*
X3111Y878D01*
X3071Y877D02*
X3077Y877D01*
X3105Y877D02*
X3111Y877D01*
X3071Y876D02*
X3077Y876D01*
X3105Y876D02*
X3111Y876D01*
X3071Y875D02*
X3077Y875D01*
X3105Y875D02*
X3110Y875D01*
X3071Y874D02*
X3077Y874D01*
X3104Y874D02*
X3110Y874D01*
X3071Y873D02*
X3078Y873D01*
X3103Y873D02*
X3110Y873D01*
X3072Y872D02*
X3079Y872D01*
X3102Y872D02*
X3110Y872D01*
X3072Y871D02*
X3080Y871D01*
X3101Y871D02*
X3109Y871D01*
X3073Y870D02*
X3081Y870D01*
X3100Y870D02*
X3108Y870D01*
X3074Y869D02*
X3082Y869D01*
X3099Y869D02*
X3107Y869D01*
X3075Y868D02*
X3083Y868D01*
X3098Y868D02*
X3106Y868D01*
X3075Y867D02*
X3086Y867D01*
X3096Y867D02*
X3106Y867D01*
X3059Y866D02*
X3109Y866D01*
X3058Y865D02*
X3110Y865D01*
X3058Y864D02*
X3110Y864D01*
X3058Y863D02*
X3110Y863D01*
X3058Y862D02*
X3110Y862D01*
X3059Y861D02*
X3109Y861D01*
X3082Y845D02*
X3098Y845D01*
X3080Y844D02*
X3102Y844D01*
X3078Y843D02*
X3103Y843D01*
X3077Y842D02*
X3104Y842D01*
X3076Y841D02*
X3105Y841D01*
X3075Y840D02*
X3106Y840D01*
X3074Y839D02*
X3107Y839D01*
X3074Y838D02*
X3082Y838D01*
X3100Y838D02*
X3108Y838D01*
X3073Y837D02*
X3081Y837D01*
X3101Y837D02*
X3108Y837D01*
X3073Y836D02*
X3080Y836D01*
X3102Y836D02*
X3109Y836D01*
X3072Y835D02*
X3079Y835D01*
X3103Y835D02*
X3109Y835D01*
X3072Y834D02*
X3078Y834D01*
X3103Y834D02*
X3109Y834D01*
X3072Y833D02*
X3078Y833D01*
X3103Y833D02*
X3109Y833D01*
X3072Y832D02*
X3078Y832D01*
X3103Y832D02*
X3109Y832D01*
X3072Y831D02*
X3078Y831D01*
X3103Y831D02*
X3109Y831D01*
X3072Y830D02*
X3078Y830D01*
X3103Y830D02*
X3109Y830D01*
X3072Y829D02*
X3078Y829D01*
X3103Y829D02*
X3109Y829D01*
X3072Y828D02*
X3078Y828D01*
X3103Y828D02*
X3109Y828D01*
X3072Y827D02*
X3078Y827D01*
X3103Y827D02*
X3109Y827D01*
X3072Y826D02*
X3078Y826D01*
X3103Y826D02*
X3109Y826D01*
X3072Y825D02*
X3078Y825D01*
X3103Y825D02*
X3109Y825D01*
X3072Y824D02*
X3078Y824D01*
X3103Y824D02*
X3109Y824D01*
X3072Y823D02*
X3078Y823D01*
X3103Y823D02*
X3109Y823D01*
X3072Y822D02*
X3079Y822D01*
X3103Y822D02*
X3109Y822D01*
X3073Y821D02*
X3080Y821D01*
X3102Y821D02*
X3109Y821D01*
X3073Y820D02*
X3080Y820D01*
X3101Y820D02*
X3108Y820D01*
X3074Y819D02*
X3082Y819D01*
X3100Y819D02*
X3108Y819D01*
X3074Y818D02*
X3107Y818D01*
X3075Y817D02*
X3106Y817D01*
X3076Y816D02*
X3105Y816D01*
X3077Y815D02*
X3104Y815D01*
X3078Y814D02*
X3103Y814D01*
X3079Y813D02*
X3101Y813D01*
X3082Y812D02*
X3098Y812D01*
X3073Y796D02*
X3077Y796D01*
X3073Y795D02*
X3078Y795D01*
X3072Y794D02*
X3078Y794D01*
X3072Y793D02*
X3079Y793D01*
X3105Y793D02*
X3107Y793D01*
X3072Y792D02*
X3080Y792D01*
X3104Y792D02*
X3108Y792D01*
X3073Y791D02*
X3081Y791D01*
X3103Y791D02*
X3109Y791D01*
X3074Y790D02*
X3082Y790D01*
X3102Y790D02*
X3109Y790D01*
X3075Y789D02*
X3083Y789D01*
X3101Y789D02*
X3109Y789D01*
X3076Y788D02*
X3084Y788D01*
X3101Y788D02*
X3108Y788D01*
X3077Y787D02*
X3084Y787D01*
X3100Y787D02*
X3108Y787D01*
X3077Y786D02*
X3085Y786D01*
X3099Y786D02*
X3107Y786D01*
X3078Y785D02*
X3086Y785D01*
X3098Y785D02*
X3106Y785D01*
X3079Y784D02*
X3087Y784D01*
X3097Y784D02*
X3105Y784D01*
X3080Y783D02*
X3088Y783D01*
X3096Y783D02*
X3104Y783D01*
X3081Y782D02*
X3089Y782D01*
X3095Y782D02*
X3103Y782D01*
X3082Y781D02*
X3090Y781D01*
X3095Y781D02*
X3102Y781D01*
X3083Y780D02*
X3090Y780D01*
X3094Y780D02*
X3102Y780D01*
X3083Y779D02*
X3091Y779D01*
X3093Y779D02*
X3101Y779D01*
X3084Y778D02*
X3100Y778D01*
X3085Y777D02*
X3099Y777D01*
X3086Y776D02*
X3098Y776D01*
X3087Y775D02*
X3097Y775D01*
X3088Y774D02*
X3097Y774D01*
X3088Y773D02*
X3096Y773D01*
X3087Y772D02*
X3095Y772D01*
X3086Y771D02*
X3094Y771D01*
X3074Y770D02*
X3121Y770D01*
X3073Y769D02*
X3122Y769D01*
X3072Y768D02*
X3123Y768D01*
X3072Y767D02*
X3123Y767D01*
X3072Y766D02*
X3123Y766D01*
X3073Y765D02*
X3123Y765D01*
X3074Y764D02*
X3122Y764D01*
X3082Y738D02*
X3090Y738D01*
X3081Y737D02*
X3091Y737D01*
X3081Y736D02*
X3092Y736D01*
X3081Y735D02*
X3092Y735D01*
X3081Y734D02*
X3092Y734D01*
X3081Y733D02*
X3092Y733D01*
X3081Y732D02*
X3092Y732D01*
X3081Y731D02*
X3092Y731D01*
X3081Y730D02*
X3092Y730D01*
X3081Y729D02*
X3092Y729D01*
X3081Y728D02*
X3092Y728D01*
X3081Y727D02*
X3092Y727D01*
X3082Y726D02*
X3091Y726D01*
X3084Y725D02*
X3089Y725D01*
X3073Y699D02*
X3101Y699D01*
X3072Y698D02*
X3104Y698D01*
X3072Y697D02*
X3105Y697D01*
X3072Y696D02*
X3106Y696D01*
X3073Y695D02*
X3107Y695D01*
X3074Y694D02*
X3108Y694D01*
X3083Y693D02*
X3108Y693D01*
X3101Y692D02*
X3109Y692D01*
X3103Y691D02*
X3109Y691D01*
X3103Y690D02*
X3109Y690D01*
X3103Y689D02*
X3109Y689D01*
X3103Y688D02*
X3109Y688D01*
X3103Y687D02*
X3109Y687D01*
X3103Y686D02*
X3109Y686D01*
X3103Y685D02*
X3109Y685D01*
X3103Y684D02*
X3109Y684D01*
X3103Y683D02*
X3109Y683D01*
X3102Y682D02*
X3109Y682D01*
X3101Y681D02*
X3108Y681D01*
X3101Y680D02*
X3108Y680D01*
X3100Y679D02*
X3107Y679D01*
X3099Y678D02*
X3106Y678D01*
X3099Y677D02*
X3106Y677D01*
X3098Y676D02*
X3105Y676D01*
X3097Y675D02*
X3104Y675D01*
X3097Y674D02*
X3104Y674D01*
X3074Y673D02*
X3107Y673D01*
X3073Y672D02*
X3108Y672D01*
X3072Y671D02*
X3109Y671D01*
X3072Y670D02*
X3109Y670D01*
X3072Y669D02*
X3109Y669D01*
X3073Y668D02*
X3108Y668D01*
X3074Y667D02*
X3107Y667D01*
X3074Y651D02*
X3094Y651D01*
X3073Y650D02*
X3103Y650D01*
X3072Y649D02*
X3105Y649D01*
X3072Y648D02*
X3106Y648D01*
X3072Y647D02*
X3107Y647D01*
X3073Y646D02*
X3108Y646D01*
X3075Y645D02*
X3108Y645D01*
X3075Y644D02*
X3082Y644D01*
X3088Y644D02*
X3095Y644D01*
X3099Y644D02*
X3109Y644D01*
X3074Y643D02*
X3081Y643D01*
X3089Y643D02*
X3095Y643D01*
X3102Y643D02*
X3109Y643D01*
X3074Y642D02*
X3081Y642D01*
X3089Y642D02*
X3095Y642D01*
X3103Y642D02*
X3109Y642D01*
X3073Y641D02*
X3080Y641D01*
X3089Y641D02*
X3095Y641D01*
X3103Y641D02*
X3109Y641D01*
X3073Y640D02*
X3079Y640D01*
X3089Y640D02*
X3095Y640D01*
X3103Y640D02*
X3109Y640D01*
X3072Y639D02*
X3079Y639D01*
X3089Y639D02*
X3095Y639D01*
X3103Y639D02*
X3109Y639D01*
X3072Y638D02*
X3078Y638D01*
X3089Y638D02*
X3095Y638D01*
X3103Y638D02*
X3109Y638D01*
X3072Y637D02*
X3078Y637D01*
X3089Y637D02*
X3095Y637D01*
X3103Y637D02*
X3109Y637D01*
X3072Y636D02*
X3078Y636D01*
X3089Y636D02*
X3095Y636D01*
X3103Y636D02*
X3109Y636D01*
X3072Y635D02*
X3078Y635D01*
X3089Y635D02*
X3095Y635D01*
X3103Y635D02*
X3109Y635D01*
X3072Y634D02*
X3078Y634D01*
X3089Y634D02*
X3095Y634D01*
X3103Y634D02*
X3109Y634D01*
X3072Y633D02*
X3078Y633D01*
X3089Y633D02*
X3095Y633D01*
X3103Y633D02*
X3109Y633D01*
X3072Y632D02*
X3078Y632D01*
X3089Y632D02*
X3095Y632D01*
X3103Y632D02*
X3109Y632D01*
X3072Y631D02*
X3078Y631D01*
X3089Y631D02*
X3095Y631D01*
X3103Y631D02*
X3109Y631D01*
X3072Y630D02*
X3078Y630D01*
X3089Y630D02*
X3095Y630D01*
X3103Y630D02*
X3109Y630D01*
X3072Y629D02*
X3078Y629D01*
X3089Y629D02*
X3095Y629D01*
X3103Y629D02*
X3109Y629D01*
X3072Y628D02*
X3078Y628D01*
X3089Y628D02*
X3095Y628D01*
X3103Y628D02*
X3109Y628D01*
X3072Y627D02*
X3078Y627D01*
X3089Y627D02*
X3095Y627D01*
X3104Y627D02*
X3109Y627D01*
X3072Y626D02*
X3079Y626D01*
X3088Y626D02*
X3095Y626D01*
X3104Y626D02*
X3108Y626D01*
X3073Y625D02*
X3094Y625D01*
X3073Y624D02*
X3094Y624D01*
X3074Y623D02*
X3093Y623D01*
X3074Y622D02*
X3093Y622D01*
X3075Y621D02*
X3092Y621D01*
X3077Y620D02*
X3090Y620D01*
X3079Y619D02*
X3088Y619D01*
X3073Y599D02*
X3077Y599D01*
X3073Y598D02*
X3078Y598D01*
X3072Y597D02*
X3078Y597D01*
X3072Y596D02*
X3078Y596D01*
X3072Y595D02*
X3078Y595D01*
X3072Y594D02*
X3078Y594D01*
X3072Y593D02*
X3078Y593D01*
X3072Y592D02*
X3078Y592D01*
X3072Y591D02*
X3078Y591D01*
X3072Y590D02*
X3078Y590D01*
X3072Y589D02*
X3108Y589D01*
X3119Y589D02*
X3125Y589D01*
X3072Y588D02*
X3109Y588D01*
X3118Y588D02*
X3126Y588D01*
X3072Y587D02*
X3109Y587D01*
X3118Y587D02*
X3126Y587D01*
X3072Y586D02*
X3109Y586D01*
X3118Y586D02*
X3126Y586D01*
X3072Y585D02*
X3109Y585D01*
X3118Y585D02*
X3126Y585D01*
X3072Y584D02*
X3109Y584D01*
X3118Y584D02*
X3126Y584D01*
X3072Y583D02*
X3078Y583D01*
X3103Y583D02*
X3109Y583D01*
X3118Y583D02*
X3126Y583D01*
X3072Y582D02*
X3078Y582D01*
X3103Y582D02*
X3109Y582D01*
X3118Y582D02*
X3126Y582D01*
X3072Y581D02*
X3078Y581D01*
X3103Y581D02*
X3109Y581D01*
X3119Y581D02*
X3125Y581D01*
X3072Y580D02*
X3078Y580D01*
X3103Y580D02*
X3109Y580D01*
X3120Y580D02*
X3123Y580D01*
X3072Y579D02*
X3078Y579D01*
X3103Y579D02*
X3109Y579D01*
X3072Y578D02*
X3078Y578D01*
X3103Y578D02*
X3109Y578D01*
X3072Y577D02*
X3078Y577D01*
X3103Y577D02*
X3109Y577D01*
X3072Y576D02*
X3078Y576D01*
X3104Y576D02*
X3109Y576D01*
X3073Y575D02*
X3077Y575D01*
X3104Y575D02*
X3109Y575D01*
X3074Y574D02*
X3077Y574D01*
X3105Y574D02*
X3108Y574D01*
X3078Y554D02*
X3082Y554D01*
X3076Y553D02*
X3083Y553D01*
X3075Y552D02*
X3083Y552D01*
X3074Y551D02*
X3083Y551D01*
X3105Y551D02*
X3107Y551D01*
X3074Y550D02*
X3083Y550D01*
X3104Y550D02*
X3109Y550D01*
X3073Y549D02*
X3082Y549D01*
X3104Y549D02*
X3109Y549D01*
X3073Y548D02*
X3080Y548D01*
X3103Y548D02*
X3109Y548D01*
X3072Y547D02*
X3079Y547D01*
X3103Y547D02*
X3109Y547D01*
X3072Y546D02*
X3078Y546D01*
X3103Y546D02*
X3109Y546D01*
X3072Y545D02*
X3078Y545D01*
X3103Y545D02*
X3109Y545D01*
X3072Y544D02*
X3078Y544D01*
X3103Y544D02*
X3109Y544D01*
X3072Y543D02*
X3078Y543D01*
X3103Y543D02*
X3109Y543D01*
X3072Y542D02*
X3078Y542D01*
X3103Y542D02*
X3109Y542D01*
X3072Y541D02*
X3078Y541D01*
X3103Y541D02*
X3109Y541D01*
X3072Y540D02*
X3078Y540D01*
X3103Y540D02*
X3109Y540D01*
X3072Y539D02*
X3078Y539D01*
X3103Y539D02*
X3109Y539D01*
X3072Y538D02*
X3078Y538D01*
X3103Y538D02*
X3109Y538D01*
X3072Y537D02*
X3078Y537D01*
X3103Y537D02*
X3109Y537D01*
X3072Y536D02*
X3079Y536D01*
X3103Y536D02*
X3109Y536D01*
X3073Y535D02*
X3081Y535D01*
X3103Y535D02*
X3110Y535D01*
X3073Y534D02*
X3119Y534D01*
X3074Y533D02*
X3120Y533D01*
X3074Y532D02*
X3120Y532D01*
X3075Y531D02*
X3120Y531D01*
X3077Y530D02*
X3120Y530D01*
X3078Y529D02*
X3119Y529D01*
X3103Y528D02*
X3109Y528D01*
X3103Y527D02*
X3109Y527D01*
X3103Y526D02*
X3109Y526D01*
X3103Y525D02*
X3109Y525D01*
X3104Y524D02*
X3109Y524D01*
X3104Y523D02*
X3108Y523D01*
X3105Y522D02*
X3107Y522D01*
X3079Y506D02*
X3084Y506D01*
X3077Y505D02*
X3087Y505D01*
X3102Y505D02*
X3105Y505D01*
X3076Y504D02*
X3088Y504D01*
X3101Y504D02*
X3106Y504D01*
X3075Y503D02*
X3089Y503D01*
X3101Y503D02*
X3107Y503D01*
X3074Y502D02*
X3090Y502D01*
X3101Y502D02*
X3108Y502D01*
X3073Y501D02*
X3090Y501D01*
X3101Y501D02*
X3108Y501D01*
X3073Y500D02*
X3091Y500D01*
X3102Y500D02*
X3109Y500D01*
X3073Y499D02*
X3080Y499D01*
X3085Y499D02*
X3091Y499D01*
X3102Y499D02*
X3109Y499D01*
X3072Y498D02*
X3078Y498D01*
X3085Y498D02*
X3092Y498D01*
X3103Y498D02*
X3109Y498D01*
X3072Y497D02*
X3078Y497D01*
X3086Y497D02*
X3092Y497D01*
X3103Y497D02*
X3109Y497D01*
X3072Y496D02*
X3078Y496D01*
X3086Y496D02*
X3093Y496D01*
X3103Y496D02*
X3109Y496D01*
X3072Y495D02*
X3078Y495D01*
X3087Y495D02*
X3093Y495D01*
X3103Y495D02*
X3109Y495D01*
X3072Y494D02*
X3078Y494D01*
X3087Y494D02*
X3094Y494D01*
X3103Y494D02*
X3109Y494D01*
X3072Y493D02*
X3078Y493D01*
X3088Y493D02*
X3094Y493D01*
X3103Y493D02*
X3109Y493D01*
X3072Y492D02*
X3078Y492D01*
X3088Y492D02*
X3094Y492D01*
X3103Y492D02*
X3109Y492D01*
X3072Y491D02*
X3078Y491D01*
X3089Y491D02*
X3095Y491D01*
X3103Y491D02*
X3109Y491D01*
X3072Y490D02*
X3078Y490D01*
X3089Y490D02*
X3095Y490D01*
X3103Y490D02*
X3109Y490D01*
X3072Y489D02*
X3078Y489D01*
X3089Y489D02*
X3096Y489D01*
X3103Y489D02*
X3109Y489D01*
X3072Y488D02*
X3078Y488D01*
X3090Y488D02*
X3096Y488D01*
X3103Y488D02*
X3109Y488D01*
X3072Y487D02*
X3078Y487D01*
X3090Y487D02*
X3097Y487D01*
X3103Y487D02*
X3109Y487D01*
X3072Y486D02*
X3078Y486D01*
X3091Y486D02*
X3097Y486D01*
X3103Y486D02*
X3109Y486D01*
X3072Y485D02*
X3078Y485D01*
X3091Y485D02*
X3097Y485D01*
X3103Y485D02*
X3109Y485D01*
X3072Y484D02*
X3078Y484D01*
X3092Y484D02*
X3098Y484D01*
X3103Y484D02*
X3109Y484D01*
X3072Y483D02*
X3078Y483D01*
X3092Y483D02*
X3098Y483D01*
X3103Y483D02*
X3109Y483D01*
X3072Y482D02*
X3078Y482D01*
X3092Y482D02*
X3099Y482D01*
X3103Y482D02*
X3109Y482D01*
X3072Y481D02*
X3079Y481D01*
X3093Y481D02*
X3100Y481D01*
X3102Y481D02*
X3109Y481D01*
X3073Y480D02*
X3079Y480D01*
X3093Y480D02*
X3109Y480D01*
X3073Y479D02*
X3080Y479D01*
X3094Y479D02*
X3108Y479D01*
X3073Y478D02*
X3080Y478D01*
X3094Y478D02*
X3108Y478D01*
X3074Y477D02*
X3081Y477D01*
X3095Y477D02*
X3107Y477D01*
X3075Y476D02*
X3081Y476D01*
X3096Y476D02*
X3106Y476D01*
X3075Y475D02*
X3080Y475D01*
X3098Y475D02*
X3105Y475D01*
X3076Y474D02*
X3079Y474D01*
X3075Y458D02*
X3080Y458D01*
X3073Y457D02*
X3102Y457D01*
X3072Y456D02*
X3104Y456D01*
X3072Y455D02*
X3105Y455D01*
X3072Y454D02*
X3107Y454D01*
X3073Y453D02*
X3107Y453D01*
X3074Y452D02*
X3108Y452D01*
X3075Y451D02*
X3082Y451D01*
X3086Y451D02*
X3108Y451D01*
X3075Y450D02*
X3082Y450D01*
X3088Y450D02*
X3095Y450D01*
X3102Y450D02*
X3109Y450D01*
X3074Y449D02*
X3081Y449D01*
X3089Y449D02*
X3095Y449D01*
X3103Y449D02*
X3109Y449D01*
X3073Y448D02*
X3080Y448D01*
X3089Y448D02*
X3095Y448D01*
X3103Y448D02*
X3109Y448D01*
X3073Y447D02*
X3080Y447D01*
X3089Y447D02*
X3095Y447D01*
X3103Y447D02*
X3109Y447D01*
X3072Y446D02*
X3079Y446D01*
X3089Y446D02*
X3095Y446D01*
X3103Y446D02*
X3109Y446D01*
X3072Y445D02*
X3079Y445D01*
X3089Y445D02*
X3095Y445D01*
X3103Y445D02*
X3109Y445D01*
X3072Y444D02*
X3078Y444D01*
X3089Y444D02*
X3095Y444D01*
X3103Y444D02*
X3109Y444D01*
X3072Y443D02*
X3078Y443D01*
X3089Y443D02*
X3095Y443D01*
X3103Y443D02*
X3109Y443D01*
X3072Y442D02*
X3078Y442D01*
X3089Y442D02*
X3095Y442D01*
X3103Y442D02*
X3109Y442D01*
X3072Y441D02*
X3078Y441D01*
X3089Y441D02*
X3095Y441D01*
X3103Y441D02*
X3109Y441D01*
X3072Y440D02*
X3078Y440D01*
X3089Y440D02*
X3095Y440D01*
X3103Y440D02*
X3109Y440D01*
X3072Y439D02*
X3078Y439D01*
X3089Y439D02*
X3095Y439D01*
X3103Y439D02*
X3109Y439D01*
X3072Y438D02*
X3078Y438D01*
X3089Y438D02*
X3095Y438D01*
X3103Y438D02*
X3109Y438D01*
X3072Y437D02*
X3078Y437D01*
X3089Y437D02*
X3095Y437D01*
X3103Y437D02*
X3109Y437D01*
X3072Y436D02*
X3078Y436D01*
X3089Y436D02*
X3095Y436D01*
X3103Y436D02*
X3109Y436D01*
X3072Y435D02*
X3078Y435D01*
X3089Y435D02*
X3095Y435D01*
X3103Y435D02*
X3109Y435D01*
X3072Y434D02*
X3078Y434D01*
X3089Y434D02*
X3095Y434D01*
X3104Y434D02*
X3109Y434D01*
X3072Y433D02*
X3079Y433D01*
X3089Y433D02*
X3095Y433D01*
X3104Y433D02*
X3109Y433D01*
X3073Y432D02*
X3080Y432D01*
X3087Y432D02*
X3095Y432D01*
X3105Y432D02*
X3107Y432D01*
X3073Y431D02*
X3094Y431D01*
X3073Y430D02*
X3094Y430D01*
X3074Y429D02*
X3093Y429D01*
X3075Y428D02*
X3092Y428D01*
X3076Y427D02*
X3091Y427D01*
X3078Y426D02*
X3090Y426D01*
X3081Y425D02*
X3086Y425D01*
X3080Y409D02*
X3101Y409D01*
X3079Y408D02*
X3103Y408D01*
X3077Y407D02*
X3104Y407D01*
X3076Y406D02*
X3105Y406D01*
X3076Y405D02*
X3106Y405D01*
X3075Y404D02*
X3107Y404D01*
X3074Y403D02*
X3083Y403D01*
X3098Y403D02*
X3107Y403D01*
X3073Y402D02*
X3081Y402D01*
X3100Y402D02*
X3108Y402D01*
X3073Y401D02*
X3080Y401D01*
X3101Y401D02*
X3108Y401D01*
X3073Y400D02*
X3079Y400D01*
X3102Y400D02*
X3109Y400D01*
X3072Y399D02*
X3078Y399D01*
X3103Y399D02*
X3109Y399D01*
X3072Y398D02*
X3078Y398D01*
X3103Y398D02*
X3109Y398D01*
X3072Y397D02*
X3078Y397D01*
X3103Y397D02*
X3109Y397D01*
X3072Y396D02*
X3078Y396D01*
X3103Y396D02*
X3109Y396D01*
X3072Y395D02*
X3078Y395D01*
X3103Y395D02*
X3109Y395D01*
X3072Y394D02*
X3078Y394D01*
X3103Y394D02*
X3109Y394D01*
X3072Y393D02*
X3078Y393D01*
X3103Y393D02*
X3109Y393D01*
X3072Y392D02*
X3078Y392D01*
X3103Y392D02*
X3109Y392D01*
X3072Y391D02*
X3078Y391D01*
X3103Y391D02*
X3109Y391D01*
X3072Y390D02*
X3079Y390D01*
X3102Y390D02*
X3109Y390D01*
X3073Y389D02*
X3080Y389D01*
X3102Y389D02*
X3109Y389D01*
X3073Y388D02*
X3081Y388D01*
X3101Y388D02*
X3108Y388D01*
X3074Y387D02*
X3081Y387D01*
X3100Y387D02*
X3108Y387D01*
X3074Y386D02*
X3082Y386D01*
X3099Y386D02*
X3107Y386D01*
X3075Y385D02*
X3083Y385D01*
X3098Y385D02*
X3106Y385D01*
X3076Y384D02*
X3084Y384D01*
X3097Y384D02*
X3105Y384D01*
X3074Y383D02*
X3121Y383D01*
X3073Y382D02*
X3122Y382D01*
X3072Y381D02*
X3123Y381D01*
X3072Y380D02*
X3123Y380D01*
X3072Y379D02*
X3123Y379D01*
X3073Y378D02*
X3123Y378D01*
X3074Y377D02*
X3122Y377D01*
X3074Y361D02*
X3076Y361D01*
X3088Y361D02*
X3100Y361D01*
X3073Y360D02*
X3077Y360D01*
X3087Y360D02*
X3102Y360D01*
X3072Y359D02*
X3078Y359D01*
X3087Y359D02*
X3104Y359D01*
X3072Y358D02*
X3078Y358D01*
X3086Y358D02*
X3105Y358D01*
X3072Y357D02*
X3078Y357D01*
X3086Y357D02*
X3105Y357D01*
X3072Y356D02*
X3078Y356D01*
X3086Y356D02*
X3106Y356D01*
X3072Y355D02*
X3078Y355D01*
X3086Y355D02*
X3107Y355D01*
X3072Y354D02*
X3078Y354D01*
X3086Y354D02*
X3092Y354D01*
X3100Y354D02*
X3108Y354D01*
X3072Y353D02*
X3078Y353D01*
X3086Y353D02*
X3092Y353D01*
X3101Y353D02*
X3108Y353D01*
X3072Y352D02*
X3078Y352D01*
X3086Y352D02*
X3092Y352D01*
X3102Y352D02*
X3109Y352D01*
X3072Y351D02*
X3078Y351D01*
X3086Y351D02*
X3092Y351D01*
X3103Y351D02*
X3109Y351D01*
X3072Y350D02*
X3078Y350D01*
X3086Y350D02*
X3092Y350D01*
X3103Y350D02*
X3109Y350D01*
X3072Y349D02*
X3078Y349D01*
X3086Y349D02*
X3092Y349D01*
X3103Y349D02*
X3109Y349D01*
X3072Y348D02*
X3078Y348D01*
X3086Y348D02*
X3092Y348D01*
X3103Y348D02*
X3109Y348D01*
X3072Y347D02*
X3078Y347D01*
X3086Y347D02*
X3092Y347D01*
X3103Y347D02*
X3109Y347D01*
X3072Y346D02*
X3078Y346D01*
X3086Y346D02*
X3092Y346D01*
X3103Y346D02*
X3109Y346D01*
X3072Y345D02*
X3078Y345D01*
X3086Y345D02*
X3092Y345D01*
X3103Y345D02*
X3109Y345D01*
X3072Y344D02*
X3078Y344D01*
X3086Y344D02*
X3092Y344D01*
X3103Y344D02*
X3109Y344D01*
X3072Y343D02*
X3078Y343D01*
X3086Y343D02*
X3092Y343D01*
X3103Y343D02*
X3109Y343D01*
X3072Y342D02*
X3078Y342D01*
X3086Y342D02*
X3092Y342D01*
X3103Y342D02*
X3109Y342D01*
X3072Y341D02*
X3078Y341D01*
X3086Y341D02*
X3092Y341D01*
X3103Y341D02*
X3109Y341D01*
X3072Y340D02*
X3078Y340D01*
X3086Y340D02*
X3092Y340D01*
X3103Y340D02*
X3109Y340D01*
X3072Y339D02*
X3078Y339D01*
X3086Y339D02*
X3092Y339D01*
X3103Y339D02*
X3109Y339D01*
X3072Y338D02*
X3079Y338D01*
X3086Y338D02*
X3092Y338D01*
X3102Y338D02*
X3109Y338D01*
X3073Y337D02*
X3080Y337D01*
X3086Y337D02*
X3092Y337D01*
X3101Y337D02*
X3108Y337D01*
X3073Y336D02*
X3081Y336D01*
X3086Y336D02*
X3092Y336D01*
X3100Y336D02*
X3108Y336D01*
X3074Y335D02*
X3083Y335D01*
X3086Y335D02*
X3092Y335D01*
X3099Y335D02*
X3107Y335D01*
X3075Y334D02*
X3107Y334D01*
X3075Y333D02*
X3106Y333D01*
X3076Y332D02*
X3105Y332D01*
X3077Y331D02*
X3104Y331D01*
X3078Y330D02*
X3103Y330D01*
X3080Y329D02*
X3101Y329D01*
X3078Y312D02*
X3086Y312D01*
X3103Y312D02*
X3104Y312D01*
X3076Y311D02*
X3087Y311D01*
X3101Y311D02*
X3106Y311D01*
X3075Y310D02*
X3089Y310D01*
X3101Y310D02*
X3107Y310D01*
X3074Y309D02*
X3089Y309D01*
X3101Y309D02*
X3107Y309D01*
X3074Y308D02*
X3090Y308D01*
X3101Y308D02*
X3108Y308D01*
X3073Y307D02*
X3091Y307D01*
X3101Y307D02*
X3108Y307D01*
X3073Y306D02*
X3081Y306D01*
X3083Y306D02*
X3091Y306D01*
X3102Y306D02*
X3109Y306D01*
X3072Y305D02*
X3079Y305D01*
X3085Y305D02*
X3092Y305D01*
X3103Y305D02*
X3109Y305D01*
X3072Y304D02*
X3078Y304D01*
X3086Y304D02*
X3092Y304D01*
X3103Y304D02*
X3109Y304D01*
X3072Y303D02*
X3078Y303D01*
X3086Y303D02*
X3092Y303D01*
X3103Y303D02*
X3109Y303D01*
X3072Y302D02*
X3078Y302D01*
X3087Y302D02*
X3093Y302D01*
X3103Y302D02*
X3109Y302D01*
X3072Y301D02*
X3078Y301D01*
X3087Y301D02*
X3093Y301D01*
X3103Y301D02*
X3109Y301D01*
X3072Y300D02*
X3078Y300D01*
X3087Y300D02*
X3094Y300D01*
X3103Y300D02*
X3109Y300D01*
X3072Y299D02*
X3078Y299D01*
X3088Y299D02*
X3094Y299D01*
X3103Y299D02*
X3109Y299D01*
X3072Y298D02*
X3078Y298D01*
X3088Y298D02*
X3095Y298D01*
X3103Y298D02*
X3109Y298D01*
X3072Y297D02*
X3078Y297D01*
X3089Y297D02*
X3095Y297D01*
X3103Y297D02*
X3109Y297D01*
X3072Y296D02*
X3078Y296D01*
X3089Y296D02*
X3096Y296D01*
X3103Y296D02*
X3109Y296D01*
X3072Y295D02*
X3078Y295D01*
X3090Y295D02*
X3096Y295D01*
X3103Y295D02*
X3109Y295D01*
X3072Y294D02*
X3078Y294D01*
X3090Y294D02*
X3096Y294D01*
X3103Y294D02*
X3109Y294D01*
X3072Y293D02*
X3078Y293D01*
X3090Y293D02*
X3097Y293D01*
X3103Y293D02*
X3109Y293D01*
X3072Y292D02*
X3078Y292D01*
X3091Y292D02*
X3097Y292D01*
X3103Y292D02*
X3109Y292D01*
X3072Y291D02*
X3078Y291D01*
X3091Y291D02*
X3098Y291D01*
X3103Y291D02*
X3109Y291D01*
X3072Y290D02*
X3078Y290D01*
X3092Y290D02*
X3098Y290D01*
X3103Y290D02*
X3109Y290D01*
X3072Y289D02*
X3078Y289D01*
X3092Y289D02*
X3099Y289D01*
X3103Y289D02*
X3109Y289D01*
X3072Y288D02*
X3078Y288D01*
X3093Y288D02*
X3099Y288D01*
X3103Y288D02*
X3109Y288D01*
X3073Y287D02*
X3079Y287D01*
X3093Y287D02*
X3109Y287D01*
X3073Y286D02*
X3079Y286D01*
X3094Y286D02*
X3109Y286D01*
X3073Y285D02*
X3080Y285D01*
X3094Y285D02*
X3108Y285D01*
X3074Y284D02*
X3081Y284D01*
X3095Y284D02*
X3107Y284D01*
X3074Y283D02*
X3081Y283D01*
X3096Y283D02*
X3107Y283D01*
X3075Y282D02*
X3081Y282D01*
X3097Y282D02*
X3105Y282D01*
X3076Y281D02*
X3080Y281D01*
X3099Y281D02*
X3103Y281D01*
X3077Y280D02*
X3079Y280D01*
D02*
G04 End of Silk0*
M02*