G04 MADE WITH FRITZING*
G04 WWW.FRITZING.ORG*
G04 DOUBLE SIDED*
G04 HOLES PLATED*
G04 CONTOUR ON CENTER OF CONTOUR VECTOR*
%ASAXBY*%
%FSLAX23Y23*%
%MOIN*%
%OFA0B0*%
%SFA1.0B1.0*%
%ADD10C,0.068000*%
%ADD11C,0.082000*%
%ADD12C,0.078000*%
%ADD13C,0.080000*%
%ADD14C,0.070000*%
%ADD15C,0.075000*%
%ADD16R,0.082000X0.082000*%
%ADD17R,0.080000X0.080000*%
%ADD18R,0.070000X0.070000*%
%ADD19R,0.075000X0.075000*%
%ADD20C,0.048000*%
%ADD21C,0.024000*%
%ADD22C,0.020000*%
%ADD23R,0.001000X0.001000*%
%LNCOPPER0*%
G90*
G70*
G54D10*
X1425Y752D03*
X1425Y852D03*
X1425Y652D03*
X1425Y552D03*
X1425Y952D03*
X1425Y1052D03*
X1425Y1152D03*
X1425Y1252D03*
X1425Y1352D03*
X1425Y1452D03*
X1425Y1552D03*
X1425Y1652D03*
X725Y852D03*
X725Y752D03*
X725Y652D03*
X725Y552D03*
X725Y952D03*
X725Y1052D03*
X725Y1152D03*
X725Y1252D03*
X725Y1452D03*
X725Y1352D03*
X725Y1552D03*
X725Y1652D03*
G54D11*
X2725Y552D03*
X2825Y552D03*
X2925Y552D03*
G54D12*
X1575Y1352D03*
X1575Y1452D03*
X1575Y1552D03*
X1575Y1652D03*
X125Y552D03*
X125Y452D03*
X125Y352D03*
X125Y552D03*
X125Y452D03*
X125Y352D03*
X225Y352D03*
X225Y452D03*
X225Y552D03*
G54D11*
X2525Y1402D03*
X2525Y1104D03*
G54D13*
X325Y802D03*
X325Y1002D03*
X325Y1202D03*
X325Y1402D03*
G54D14*
X1725Y1252D03*
X2225Y1252D03*
X1725Y1152D03*
X2225Y1152D03*
X1725Y1052D03*
X2225Y1052D03*
X1725Y952D03*
X2225Y952D03*
X1725Y852D03*
X2225Y852D03*
X1725Y752D03*
X2225Y752D03*
X1725Y652D03*
X2225Y652D03*
X1725Y552D03*
X2225Y552D03*
G54D12*
X2525Y202D03*
X2425Y202D03*
X2325Y202D03*
X2225Y202D03*
G54D13*
X2825Y1402D03*
X2825Y1202D03*
G54D15*
X2775Y882D03*
X2875Y882D03*
G54D12*
X1075Y70D03*
X975Y70D03*
X875Y70D03*
X775Y70D03*
X675Y70D03*
X575Y70D03*
X475Y70D03*
X375Y70D03*
X1575Y69D03*
X1475Y69D03*
X1375Y69D03*
X1275Y69D03*
G54D16*
X2725Y552D03*
X2525Y1403D03*
G54D17*
X325Y802D03*
G54D18*
X2225Y552D03*
X2225Y1152D03*
G54D17*
X2825Y1402D03*
G54D19*
X2775Y882D03*
G54D20*
X1826Y1052D02*
X2188Y1052D01*
D02*
X624Y1401D02*
X625Y452D01*
D02*
X1826Y452D02*
X1826Y1052D01*
D02*
X625Y452D02*
X1826Y452D01*
D02*
X367Y1402D02*
X624Y1401D01*
D02*
X1927Y950D02*
X2188Y952D01*
D02*
X524Y1200D02*
X523Y350D01*
D02*
X1927Y350D02*
X1927Y950D01*
D02*
X523Y350D02*
X1927Y350D01*
D02*
X367Y1201D02*
X524Y1200D01*
D02*
X2126Y752D02*
X2188Y752D01*
D02*
X2126Y151D02*
X2126Y752D01*
D02*
X325Y151D02*
X2126Y151D01*
D02*
X325Y760D02*
X325Y151D01*
D02*
X2024Y853D02*
X2188Y852D01*
D02*
X424Y1004D02*
X427Y253D01*
D02*
X2024Y253D02*
X2024Y853D01*
D02*
X427Y253D02*
X2024Y253D01*
D02*
X367Y1003D02*
X424Y1004D01*
G54D21*
D02*
X2758Y859D02*
X2524Y551D01*
D02*
X2524Y551D02*
X2251Y552D01*
G54D20*
D02*
X2818Y595D02*
X2781Y843D01*
D02*
X2745Y908D02*
X2557Y1075D01*
D02*
X2262Y1146D02*
X2482Y1111D01*
D02*
X2225Y1289D02*
X2227Y1550D01*
D02*
X2227Y1550D02*
X2975Y1550D01*
D02*
X2975Y1550D02*
X2975Y1352D01*
D02*
X2975Y1352D02*
X2855Y1232D01*
D02*
X2568Y1402D02*
X2783Y1402D01*
D02*
X2869Y921D02*
X2831Y1160D01*
D02*
X2918Y595D02*
X2881Y843D01*
G54D21*
D02*
X2126Y1750D02*
X2126Y1154D01*
D02*
X2126Y1154D02*
X2199Y1152D01*
D02*
X825Y1750D02*
X2126Y1750D01*
D02*
X824Y1553D02*
X825Y1750D01*
D02*
X754Y1552D02*
X824Y1553D01*
G54D22*
X295Y1172D02*
X295Y1232D01*
X355Y1232D01*
X355Y1172D01*
X295Y1172D01*
D02*
G54D23*
X719Y1686D02*
X730Y1686D01*
X1419Y1686D02*
X1430Y1686D01*
X715Y1685D02*
X734Y1685D01*
X1415Y1685D02*
X1434Y1685D01*
X712Y1684D02*
X737Y1684D01*
X1412Y1684D02*
X1436Y1684D01*
X710Y1683D02*
X739Y1683D01*
X1410Y1683D02*
X1439Y1683D01*
X708Y1682D02*
X741Y1682D01*
X1408Y1682D02*
X1441Y1682D01*
X707Y1681D02*
X742Y1681D01*
X1406Y1681D02*
X1442Y1681D01*
X705Y1680D02*
X744Y1680D01*
X1405Y1680D02*
X1444Y1680D01*
X704Y1679D02*
X745Y1679D01*
X1404Y1679D02*
X1445Y1679D01*
X702Y1678D02*
X746Y1678D01*
X1402Y1678D02*
X1446Y1678D01*
X701Y1677D02*
X748Y1677D01*
X1401Y1677D02*
X1447Y1677D01*
X700Y1676D02*
X749Y1676D01*
X1400Y1676D02*
X1448Y1676D01*
X699Y1675D02*
X749Y1675D01*
X1399Y1675D02*
X1449Y1675D01*
X699Y1674D02*
X750Y1674D01*
X1399Y1674D02*
X1450Y1674D01*
X698Y1673D02*
X751Y1673D01*
X1398Y1673D02*
X1451Y1673D01*
X697Y1672D02*
X752Y1672D01*
X1397Y1672D02*
X1452Y1672D01*
X697Y1671D02*
X752Y1671D01*
X1396Y1671D02*
X1452Y1671D01*
X696Y1670D02*
X719Y1670D01*
X730Y1670D02*
X753Y1670D01*
X1396Y1670D02*
X1419Y1670D01*
X1430Y1670D02*
X1453Y1670D01*
X695Y1669D02*
X716Y1669D01*
X733Y1669D02*
X753Y1669D01*
X1395Y1669D02*
X1416Y1669D01*
X1433Y1669D02*
X1453Y1669D01*
X695Y1668D02*
X715Y1668D01*
X734Y1668D02*
X754Y1668D01*
X1395Y1668D02*
X1414Y1668D01*
X1434Y1668D02*
X1454Y1668D01*
X694Y1667D02*
X713Y1667D01*
X736Y1667D02*
X754Y1667D01*
X1394Y1667D02*
X1413Y1667D01*
X1436Y1667D02*
X1454Y1667D01*
X694Y1666D02*
X712Y1666D01*
X737Y1666D02*
X755Y1666D01*
X1394Y1666D02*
X1412Y1666D01*
X1437Y1666D02*
X1455Y1666D01*
X693Y1665D02*
X711Y1665D01*
X738Y1665D02*
X755Y1665D01*
X1393Y1665D02*
X1411Y1665D01*
X1438Y1665D02*
X1455Y1665D01*
X693Y1664D02*
X710Y1664D01*
X739Y1664D02*
X756Y1664D01*
X1393Y1664D02*
X1410Y1664D01*
X1439Y1664D02*
X1456Y1664D01*
X693Y1663D02*
X709Y1663D01*
X740Y1663D02*
X756Y1663D01*
X1393Y1663D02*
X1409Y1663D01*
X1439Y1663D02*
X1456Y1663D01*
X692Y1662D02*
X709Y1662D01*
X740Y1662D02*
X756Y1662D01*
X1392Y1662D02*
X1408Y1662D01*
X1440Y1662D02*
X1456Y1662D01*
X692Y1661D02*
X708Y1661D01*
X741Y1661D02*
X757Y1661D01*
X1392Y1661D02*
X1408Y1661D01*
X1441Y1661D02*
X1456Y1661D01*
X692Y1660D02*
X707Y1660D01*
X741Y1660D02*
X757Y1660D01*
X1392Y1660D02*
X1407Y1660D01*
X1441Y1660D02*
X1457Y1660D01*
X692Y1659D02*
X707Y1659D01*
X742Y1659D02*
X757Y1659D01*
X1391Y1659D02*
X1407Y1659D01*
X1442Y1659D02*
X1457Y1659D01*
X691Y1658D02*
X707Y1658D01*
X742Y1658D02*
X757Y1658D01*
X1391Y1658D02*
X1406Y1658D01*
X1442Y1658D02*
X1457Y1658D01*
X691Y1657D02*
X706Y1657D01*
X742Y1657D02*
X757Y1657D01*
X1391Y1657D02*
X1406Y1657D01*
X1442Y1657D02*
X1457Y1657D01*
X691Y1656D02*
X706Y1656D01*
X743Y1656D02*
X758Y1656D01*
X1391Y1656D02*
X1406Y1656D01*
X1442Y1656D02*
X1457Y1656D01*
X691Y1655D02*
X706Y1655D01*
X743Y1655D02*
X758Y1655D01*
X1391Y1655D02*
X1406Y1655D01*
X1442Y1655D02*
X1458Y1655D01*
X691Y1654D02*
X706Y1654D01*
X743Y1654D02*
X758Y1654D01*
X1391Y1654D02*
X1406Y1654D01*
X1443Y1654D02*
X1458Y1654D01*
X691Y1653D02*
X706Y1653D01*
X743Y1653D02*
X758Y1653D01*
X1391Y1653D02*
X1406Y1653D01*
X1443Y1653D02*
X1458Y1653D01*
X691Y1652D02*
X706Y1652D01*
X743Y1652D02*
X758Y1652D01*
X1391Y1652D02*
X1406Y1652D01*
X1443Y1652D02*
X1458Y1652D01*
X691Y1651D02*
X706Y1651D01*
X743Y1651D02*
X758Y1651D01*
X1391Y1651D02*
X1406Y1651D01*
X1443Y1651D02*
X1458Y1651D01*
X691Y1650D02*
X706Y1650D01*
X743Y1650D02*
X758Y1650D01*
X1391Y1650D02*
X1406Y1650D01*
X1442Y1650D02*
X1458Y1650D01*
X691Y1649D02*
X706Y1649D01*
X743Y1649D02*
X758Y1649D01*
X1391Y1649D02*
X1406Y1649D01*
X1442Y1649D02*
X1457Y1649D01*
X691Y1648D02*
X706Y1648D01*
X742Y1648D02*
X757Y1648D01*
X1391Y1648D02*
X1406Y1648D01*
X1442Y1648D02*
X1457Y1648D01*
X691Y1647D02*
X707Y1647D01*
X742Y1647D02*
X757Y1647D01*
X1391Y1647D02*
X1406Y1647D01*
X1442Y1647D02*
X1457Y1647D01*
X692Y1646D02*
X707Y1646D01*
X742Y1646D02*
X757Y1646D01*
X1391Y1646D02*
X1407Y1646D01*
X1442Y1646D02*
X1457Y1646D01*
X692Y1645D02*
X707Y1645D01*
X741Y1645D02*
X757Y1645D01*
X1392Y1645D02*
X1407Y1645D01*
X1441Y1645D02*
X1457Y1645D01*
X692Y1644D02*
X708Y1644D01*
X741Y1644D02*
X757Y1644D01*
X1392Y1644D02*
X1408Y1644D01*
X1441Y1644D02*
X1456Y1644D01*
X692Y1643D02*
X708Y1643D01*
X740Y1643D02*
X756Y1643D01*
X1392Y1643D02*
X1408Y1643D01*
X1440Y1643D02*
X1456Y1643D01*
X693Y1642D02*
X709Y1642D01*
X740Y1642D02*
X756Y1642D01*
X1392Y1642D02*
X1409Y1642D01*
X1440Y1642D02*
X1456Y1642D01*
X693Y1641D02*
X710Y1641D01*
X739Y1641D02*
X756Y1641D01*
X1393Y1641D02*
X1410Y1641D01*
X1439Y1641D02*
X1456Y1641D01*
X693Y1640D02*
X711Y1640D01*
X738Y1640D02*
X755Y1640D01*
X1393Y1640D02*
X1411Y1640D01*
X1438Y1640D02*
X1455Y1640D01*
X694Y1639D02*
X712Y1639D01*
X737Y1639D02*
X755Y1639D01*
X1394Y1639D02*
X1412Y1639D01*
X1437Y1639D02*
X1455Y1639D01*
X694Y1638D02*
X713Y1638D01*
X736Y1638D02*
X755Y1638D01*
X1394Y1638D02*
X1413Y1638D01*
X1436Y1638D02*
X1454Y1638D01*
X695Y1637D02*
X715Y1637D01*
X734Y1637D02*
X754Y1637D01*
X1395Y1637D02*
X1415Y1637D01*
X1434Y1637D02*
X1454Y1637D01*
X695Y1636D02*
X717Y1636D01*
X732Y1636D02*
X754Y1636D01*
X1395Y1636D02*
X1416Y1636D01*
X1432Y1636D02*
X1453Y1636D01*
X696Y1635D02*
X720Y1635D01*
X729Y1635D02*
X753Y1635D01*
X1396Y1635D02*
X1420Y1635D01*
X1429Y1635D02*
X1453Y1635D01*
X696Y1634D02*
X752Y1634D01*
X1396Y1634D02*
X1452Y1634D01*
X697Y1633D02*
X752Y1633D01*
X1397Y1633D02*
X1452Y1633D01*
X698Y1632D02*
X751Y1632D01*
X1398Y1632D02*
X1451Y1632D01*
X699Y1631D02*
X750Y1631D01*
X1398Y1631D02*
X1450Y1631D01*
X699Y1630D02*
X749Y1630D01*
X1399Y1630D02*
X1449Y1630D01*
X700Y1629D02*
X749Y1629D01*
X1400Y1629D02*
X1448Y1629D01*
X701Y1628D02*
X748Y1628D01*
X1401Y1628D02*
X1448Y1628D01*
X702Y1627D02*
X747Y1627D01*
X1402Y1627D02*
X1446Y1627D01*
X704Y1626D02*
X745Y1626D01*
X1404Y1626D02*
X1445Y1626D01*
X705Y1625D02*
X744Y1625D01*
X1405Y1625D02*
X1444Y1625D01*
X707Y1624D02*
X742Y1624D01*
X1407Y1624D02*
X1442Y1624D01*
X708Y1623D02*
X741Y1623D01*
X1408Y1623D02*
X1440Y1623D01*
X710Y1622D02*
X739Y1622D01*
X1410Y1622D02*
X1438Y1622D01*
X713Y1621D02*
X736Y1621D01*
X1413Y1621D02*
X1436Y1621D01*
X716Y1620D02*
X733Y1620D01*
X1416Y1620D02*
X1433Y1620D01*
X721Y1619D02*
X728Y1619D01*
X1420Y1619D02*
X1428Y1619D01*
X719Y1586D02*
X730Y1586D01*
X1418Y1586D02*
X1430Y1586D01*
X715Y1585D02*
X734Y1585D01*
X1415Y1585D02*
X1434Y1585D01*
X712Y1584D02*
X737Y1584D01*
X1412Y1584D02*
X1437Y1584D01*
X710Y1583D02*
X739Y1583D01*
X1410Y1583D02*
X1439Y1583D01*
X708Y1582D02*
X741Y1582D01*
X1408Y1582D02*
X1441Y1582D01*
X706Y1581D02*
X743Y1581D01*
X1406Y1581D02*
X1442Y1581D01*
X705Y1580D02*
X744Y1580D01*
X1405Y1580D02*
X1444Y1580D01*
X704Y1579D02*
X745Y1579D01*
X1404Y1579D02*
X1445Y1579D01*
X702Y1578D02*
X747Y1578D01*
X1402Y1578D02*
X1446Y1578D01*
X701Y1577D02*
X748Y1577D01*
X1401Y1577D02*
X1447Y1577D01*
X700Y1576D02*
X749Y1576D01*
X1400Y1576D02*
X1448Y1576D01*
X699Y1575D02*
X749Y1575D01*
X1399Y1575D02*
X1449Y1575D01*
X699Y1574D02*
X750Y1574D01*
X1398Y1574D02*
X1450Y1574D01*
X698Y1573D02*
X751Y1573D01*
X1398Y1573D02*
X1451Y1573D01*
X697Y1572D02*
X752Y1572D01*
X1397Y1572D02*
X1452Y1572D01*
X696Y1571D02*
X752Y1571D01*
X1396Y1571D02*
X1452Y1571D01*
X696Y1570D02*
X719Y1570D01*
X730Y1570D02*
X753Y1570D01*
X1396Y1570D02*
X1419Y1570D01*
X1430Y1570D02*
X1453Y1570D01*
X695Y1569D02*
X716Y1569D01*
X733Y1569D02*
X754Y1569D01*
X1395Y1569D02*
X1416Y1569D01*
X1433Y1569D02*
X1453Y1569D01*
X695Y1568D02*
X715Y1568D01*
X735Y1568D02*
X754Y1568D01*
X1395Y1568D02*
X1414Y1568D01*
X1434Y1568D02*
X1454Y1568D01*
X694Y1567D02*
X713Y1567D01*
X736Y1567D02*
X754Y1567D01*
X1394Y1567D02*
X1413Y1567D01*
X1436Y1567D02*
X1454Y1567D01*
X694Y1566D02*
X712Y1566D01*
X737Y1566D02*
X755Y1566D01*
X1394Y1566D02*
X1412Y1566D01*
X1437Y1566D02*
X1455Y1566D01*
X693Y1565D02*
X711Y1565D01*
X738Y1565D02*
X755Y1565D01*
X1393Y1565D02*
X1411Y1565D01*
X1438Y1565D02*
X1455Y1565D01*
X693Y1564D02*
X710Y1564D01*
X739Y1564D02*
X756Y1564D01*
X1393Y1564D02*
X1410Y1564D01*
X1439Y1564D02*
X1456Y1564D01*
X693Y1563D02*
X709Y1563D01*
X740Y1563D02*
X756Y1563D01*
X1392Y1563D02*
X1409Y1563D01*
X1440Y1563D02*
X1456Y1563D01*
X692Y1562D02*
X709Y1562D01*
X740Y1562D02*
X756Y1562D01*
X1392Y1562D02*
X1408Y1562D01*
X1440Y1562D02*
X1456Y1562D01*
X692Y1561D02*
X708Y1561D01*
X741Y1561D02*
X757Y1561D01*
X1392Y1561D02*
X1408Y1561D01*
X1441Y1561D02*
X1456Y1561D01*
X692Y1560D02*
X707Y1560D01*
X741Y1560D02*
X757Y1560D01*
X1392Y1560D02*
X1407Y1560D01*
X1441Y1560D02*
X1457Y1560D01*
X692Y1559D02*
X707Y1559D01*
X742Y1559D02*
X757Y1559D01*
X1391Y1559D02*
X1407Y1559D01*
X1442Y1559D02*
X1457Y1559D01*
X691Y1558D02*
X707Y1558D01*
X742Y1558D02*
X757Y1558D01*
X1391Y1558D02*
X1406Y1558D01*
X1442Y1558D02*
X1457Y1558D01*
X691Y1557D02*
X706Y1557D01*
X742Y1557D02*
X757Y1557D01*
X1391Y1557D02*
X1406Y1557D01*
X1442Y1557D02*
X1457Y1557D01*
X691Y1556D02*
X706Y1556D01*
X743Y1556D02*
X758Y1556D01*
X1391Y1556D02*
X1406Y1556D01*
X1442Y1556D02*
X1457Y1556D01*
X691Y1555D02*
X706Y1555D01*
X743Y1555D02*
X758Y1555D01*
X1391Y1555D02*
X1406Y1555D01*
X1442Y1555D02*
X1458Y1555D01*
X691Y1554D02*
X706Y1554D01*
X743Y1554D02*
X758Y1554D01*
X1391Y1554D02*
X1406Y1554D01*
X1443Y1554D02*
X1458Y1554D01*
X691Y1553D02*
X706Y1553D01*
X743Y1553D02*
X758Y1553D01*
X1391Y1553D02*
X1406Y1553D01*
X1443Y1553D02*
X1458Y1553D01*
X691Y1552D02*
X706Y1552D01*
X743Y1552D02*
X758Y1552D01*
X1391Y1552D02*
X1406Y1552D01*
X1443Y1552D02*
X1458Y1552D01*
X691Y1551D02*
X706Y1551D01*
X743Y1551D02*
X758Y1551D01*
X1391Y1551D02*
X1406Y1551D01*
X1443Y1551D02*
X1458Y1551D01*
X691Y1550D02*
X706Y1550D01*
X743Y1550D02*
X758Y1550D01*
X1391Y1550D02*
X1406Y1550D01*
X1442Y1550D02*
X1458Y1550D01*
X691Y1549D02*
X706Y1549D01*
X743Y1549D02*
X758Y1549D01*
X1391Y1549D02*
X1406Y1549D01*
X1442Y1549D02*
X1457Y1549D01*
X691Y1548D02*
X706Y1548D01*
X742Y1548D02*
X757Y1548D01*
X1391Y1548D02*
X1406Y1548D01*
X1442Y1548D02*
X1457Y1548D01*
X691Y1547D02*
X707Y1547D01*
X742Y1547D02*
X757Y1547D01*
X1391Y1547D02*
X1406Y1547D01*
X1442Y1547D02*
X1457Y1547D01*
X692Y1546D02*
X707Y1546D01*
X742Y1546D02*
X757Y1546D01*
X1391Y1546D02*
X1407Y1546D01*
X1442Y1546D02*
X1457Y1546D01*
X692Y1545D02*
X707Y1545D01*
X741Y1545D02*
X757Y1545D01*
X1392Y1545D02*
X1407Y1545D01*
X1441Y1545D02*
X1457Y1545D01*
X692Y1544D02*
X708Y1544D01*
X741Y1544D02*
X757Y1544D01*
X1392Y1544D02*
X1408Y1544D01*
X1441Y1544D02*
X1456Y1544D01*
X692Y1543D02*
X708Y1543D01*
X740Y1543D02*
X756Y1543D01*
X1392Y1543D02*
X1408Y1543D01*
X1440Y1543D02*
X1456Y1543D01*
X693Y1542D02*
X709Y1542D01*
X740Y1542D02*
X756Y1542D01*
X1392Y1542D02*
X1409Y1542D01*
X1440Y1542D02*
X1456Y1542D01*
X693Y1541D02*
X710Y1541D01*
X739Y1541D02*
X756Y1541D01*
X1393Y1541D02*
X1410Y1541D01*
X1439Y1541D02*
X1456Y1541D01*
X693Y1540D02*
X711Y1540D01*
X738Y1540D02*
X755Y1540D01*
X1393Y1540D02*
X1411Y1540D01*
X1438Y1540D02*
X1455Y1540D01*
X694Y1539D02*
X712Y1539D01*
X737Y1539D02*
X755Y1539D01*
X1394Y1539D02*
X1412Y1539D01*
X1437Y1539D02*
X1455Y1539D01*
X694Y1538D02*
X713Y1538D01*
X736Y1538D02*
X754Y1538D01*
X1394Y1538D02*
X1413Y1538D01*
X1436Y1538D02*
X1454Y1538D01*
X695Y1537D02*
X715Y1537D01*
X734Y1537D02*
X754Y1537D01*
X1395Y1537D02*
X1415Y1537D01*
X1434Y1537D02*
X1454Y1537D01*
X695Y1536D02*
X717Y1536D01*
X732Y1536D02*
X754Y1536D01*
X1395Y1536D02*
X1417Y1536D01*
X1432Y1536D02*
X1453Y1536D01*
X696Y1535D02*
X720Y1535D01*
X729Y1535D02*
X753Y1535D01*
X1396Y1535D02*
X1420Y1535D01*
X1428Y1535D02*
X1453Y1535D01*
X696Y1534D02*
X752Y1534D01*
X1396Y1534D02*
X1452Y1534D01*
X697Y1533D02*
X752Y1533D01*
X1397Y1533D02*
X1452Y1533D01*
X698Y1532D02*
X751Y1532D01*
X1398Y1532D02*
X1451Y1532D01*
X699Y1531D02*
X750Y1531D01*
X1398Y1531D02*
X1450Y1531D01*
X699Y1530D02*
X749Y1530D01*
X1399Y1530D02*
X1449Y1530D01*
X700Y1529D02*
X749Y1529D01*
X1400Y1529D02*
X1448Y1529D01*
X701Y1528D02*
X748Y1528D01*
X1401Y1528D02*
X1447Y1528D01*
X703Y1527D02*
X746Y1527D01*
X1402Y1527D02*
X1446Y1527D01*
X704Y1526D02*
X745Y1526D01*
X1404Y1526D02*
X1445Y1526D01*
X705Y1525D02*
X744Y1525D01*
X1405Y1525D02*
X1444Y1525D01*
X707Y1524D02*
X742Y1524D01*
X1407Y1524D02*
X1442Y1524D01*
X708Y1523D02*
X741Y1523D01*
X1408Y1523D02*
X1440Y1523D01*
X711Y1522D02*
X738Y1522D01*
X1410Y1522D02*
X1438Y1522D01*
X713Y1521D02*
X736Y1521D01*
X1413Y1521D02*
X1436Y1521D01*
X716Y1520D02*
X733Y1520D01*
X1416Y1520D02*
X1433Y1520D01*
X721Y1519D02*
X728Y1519D01*
X1421Y1519D02*
X1428Y1519D01*
X718Y1486D02*
X730Y1486D01*
X1418Y1486D02*
X1430Y1486D01*
X715Y1485D02*
X734Y1485D01*
X1415Y1485D02*
X1434Y1485D01*
X712Y1484D02*
X737Y1484D01*
X1412Y1484D02*
X1437Y1484D01*
X710Y1483D02*
X739Y1483D01*
X1410Y1483D02*
X1439Y1483D01*
X708Y1482D02*
X741Y1482D01*
X1408Y1482D02*
X1441Y1482D01*
X706Y1481D02*
X743Y1481D01*
X1406Y1481D02*
X1442Y1481D01*
X705Y1480D02*
X744Y1480D01*
X1405Y1480D02*
X1444Y1480D01*
X704Y1479D02*
X745Y1479D01*
X1403Y1479D02*
X1445Y1479D01*
X702Y1478D02*
X747Y1478D01*
X1402Y1478D02*
X1446Y1478D01*
X701Y1477D02*
X748Y1477D01*
X1401Y1477D02*
X1448Y1477D01*
X700Y1476D02*
X749Y1476D01*
X1400Y1476D02*
X1449Y1476D01*
X699Y1475D02*
X750Y1475D01*
X1399Y1475D02*
X1449Y1475D01*
X699Y1474D02*
X750Y1474D01*
X1398Y1474D02*
X1450Y1474D01*
X698Y1473D02*
X751Y1473D01*
X1398Y1473D02*
X1451Y1473D01*
X697Y1472D02*
X752Y1472D01*
X1397Y1472D02*
X1452Y1472D01*
X696Y1471D02*
X752Y1471D01*
X1396Y1471D02*
X1452Y1471D01*
X696Y1470D02*
X719Y1470D01*
X730Y1470D02*
X753Y1470D01*
X1396Y1470D02*
X1419Y1470D01*
X1430Y1470D02*
X1453Y1470D01*
X695Y1469D02*
X716Y1469D01*
X733Y1469D02*
X754Y1469D01*
X1395Y1469D02*
X1416Y1469D01*
X1433Y1469D02*
X1453Y1469D01*
X695Y1468D02*
X714Y1468D01*
X735Y1468D02*
X754Y1468D01*
X1395Y1468D02*
X1414Y1468D01*
X1434Y1468D02*
X1454Y1468D01*
X694Y1467D02*
X713Y1467D01*
X736Y1467D02*
X754Y1467D01*
X1394Y1467D02*
X1413Y1467D01*
X1436Y1467D02*
X1454Y1467D01*
X694Y1466D02*
X712Y1466D01*
X737Y1466D02*
X755Y1466D01*
X1394Y1466D02*
X1412Y1466D01*
X1437Y1466D02*
X1455Y1466D01*
X693Y1465D02*
X711Y1465D01*
X738Y1465D02*
X755Y1465D01*
X1393Y1465D02*
X1411Y1465D01*
X1438Y1465D02*
X1455Y1465D01*
X693Y1464D02*
X710Y1464D01*
X739Y1464D02*
X756Y1464D01*
X1393Y1464D02*
X1410Y1464D01*
X1439Y1464D02*
X1456Y1464D01*
X693Y1463D02*
X709Y1463D01*
X740Y1463D02*
X756Y1463D01*
X1392Y1463D02*
X1409Y1463D01*
X1440Y1463D02*
X1456Y1463D01*
X692Y1462D02*
X708Y1462D01*
X740Y1462D02*
X756Y1462D01*
X1392Y1462D02*
X1408Y1462D01*
X1440Y1462D02*
X1456Y1462D01*
X692Y1461D02*
X708Y1461D01*
X741Y1461D02*
X757Y1461D01*
X1392Y1461D02*
X1408Y1461D01*
X1441Y1461D02*
X1456Y1461D01*
X692Y1460D02*
X707Y1460D01*
X741Y1460D02*
X757Y1460D01*
X1392Y1460D02*
X1407Y1460D01*
X1441Y1460D02*
X1457Y1460D01*
X691Y1459D02*
X707Y1459D01*
X742Y1459D02*
X757Y1459D01*
X1391Y1459D02*
X1407Y1459D01*
X1442Y1459D02*
X1457Y1459D01*
X691Y1458D02*
X707Y1458D01*
X742Y1458D02*
X757Y1458D01*
X1391Y1458D02*
X1406Y1458D01*
X1442Y1458D02*
X1457Y1458D01*
X691Y1457D02*
X706Y1457D01*
X742Y1457D02*
X757Y1457D01*
X1391Y1457D02*
X1406Y1457D01*
X1442Y1457D02*
X1457Y1457D01*
X691Y1456D02*
X706Y1456D01*
X743Y1456D02*
X758Y1456D01*
X1391Y1456D02*
X1406Y1456D01*
X1442Y1456D02*
X1457Y1456D01*
X691Y1455D02*
X706Y1455D01*
X743Y1455D02*
X758Y1455D01*
X1391Y1455D02*
X1406Y1455D01*
X1442Y1455D02*
X1458Y1455D01*
X691Y1454D02*
X706Y1454D01*
X743Y1454D02*
X758Y1454D01*
X1391Y1454D02*
X1406Y1454D01*
X1443Y1454D02*
X1458Y1454D01*
X691Y1453D02*
X706Y1453D01*
X743Y1453D02*
X758Y1453D01*
X1391Y1453D02*
X1406Y1453D01*
X1443Y1453D02*
X1458Y1453D01*
X691Y1452D02*
X706Y1452D01*
X743Y1452D02*
X758Y1452D01*
X1391Y1452D02*
X1406Y1452D01*
X1443Y1452D02*
X1458Y1452D01*
X691Y1451D02*
X706Y1451D01*
X743Y1451D02*
X758Y1451D01*
X1391Y1451D02*
X1406Y1451D01*
X1443Y1451D02*
X1458Y1451D01*
X691Y1450D02*
X706Y1450D01*
X743Y1450D02*
X758Y1450D01*
X1391Y1450D02*
X1406Y1450D01*
X1442Y1450D02*
X1458Y1450D01*
X691Y1449D02*
X706Y1449D01*
X743Y1449D02*
X758Y1449D01*
X1391Y1449D02*
X1406Y1449D01*
X1442Y1449D02*
X1457Y1449D01*
X691Y1448D02*
X706Y1448D01*
X742Y1448D02*
X757Y1448D01*
X1391Y1448D02*
X1406Y1448D01*
X1442Y1448D02*
X1457Y1448D01*
X691Y1447D02*
X707Y1447D01*
X742Y1447D02*
X757Y1447D01*
X1391Y1447D02*
X1406Y1447D01*
X1442Y1447D02*
X1457Y1447D01*
X692Y1446D02*
X707Y1446D01*
X742Y1446D02*
X757Y1446D01*
X1391Y1446D02*
X1407Y1446D01*
X1442Y1446D02*
X1457Y1446D01*
X692Y1445D02*
X707Y1445D01*
X741Y1445D02*
X757Y1445D01*
X1392Y1445D02*
X1407Y1445D01*
X1441Y1445D02*
X1457Y1445D01*
X692Y1444D02*
X708Y1444D01*
X741Y1444D02*
X757Y1444D01*
X1392Y1444D02*
X1408Y1444D01*
X1441Y1444D02*
X1456Y1444D01*
X692Y1443D02*
X708Y1443D01*
X740Y1443D02*
X756Y1443D01*
X1392Y1443D02*
X1408Y1443D01*
X1440Y1443D02*
X1456Y1443D01*
X693Y1442D02*
X709Y1442D01*
X740Y1442D02*
X756Y1442D01*
X1393Y1442D02*
X1409Y1442D01*
X1440Y1442D02*
X1456Y1442D01*
X693Y1441D02*
X710Y1441D01*
X739Y1441D02*
X756Y1441D01*
X1393Y1441D02*
X1410Y1441D01*
X1439Y1441D02*
X1456Y1441D01*
X693Y1440D02*
X711Y1440D01*
X738Y1440D02*
X755Y1440D01*
X1393Y1440D02*
X1411Y1440D01*
X1438Y1440D02*
X1455Y1440D01*
X694Y1439D02*
X712Y1439D01*
X737Y1439D02*
X755Y1439D01*
X1394Y1439D02*
X1412Y1439D01*
X1437Y1439D02*
X1455Y1439D01*
X694Y1438D02*
X713Y1438D01*
X736Y1438D02*
X754Y1438D01*
X1394Y1438D02*
X1413Y1438D01*
X1436Y1438D02*
X1454Y1438D01*
X695Y1437D02*
X715Y1437D01*
X734Y1437D02*
X754Y1437D01*
X1395Y1437D02*
X1415Y1437D01*
X1434Y1437D02*
X1454Y1437D01*
X695Y1436D02*
X717Y1436D01*
X732Y1436D02*
X754Y1436D01*
X1395Y1436D02*
X1417Y1436D01*
X1432Y1436D02*
X1453Y1436D01*
X696Y1435D02*
X721Y1435D01*
X728Y1435D02*
X753Y1435D01*
X1396Y1435D02*
X1420Y1435D01*
X1428Y1435D02*
X1453Y1435D01*
X696Y1434D02*
X752Y1434D01*
X1396Y1434D02*
X1452Y1434D01*
X697Y1433D02*
X752Y1433D01*
X1397Y1433D02*
X1452Y1433D01*
X698Y1432D02*
X751Y1432D01*
X1398Y1432D02*
X1451Y1432D01*
X699Y1431D02*
X750Y1431D01*
X1398Y1431D02*
X1450Y1431D01*
X699Y1430D02*
X749Y1430D01*
X1399Y1430D02*
X1449Y1430D01*
X700Y1429D02*
X749Y1429D01*
X1400Y1429D02*
X1448Y1429D01*
X701Y1428D02*
X748Y1428D01*
X1401Y1428D02*
X1447Y1428D01*
X703Y1427D02*
X746Y1427D01*
X1402Y1427D02*
X1446Y1427D01*
X704Y1426D02*
X745Y1426D01*
X1404Y1426D02*
X1445Y1426D01*
X705Y1425D02*
X744Y1425D01*
X1405Y1425D02*
X1444Y1425D01*
X707Y1424D02*
X742Y1424D01*
X1407Y1424D02*
X1442Y1424D01*
X709Y1423D02*
X740Y1423D01*
X1408Y1423D02*
X1440Y1423D01*
X711Y1422D02*
X738Y1422D01*
X1410Y1422D02*
X1438Y1422D01*
X713Y1421D02*
X736Y1421D01*
X1413Y1421D02*
X1436Y1421D01*
X716Y1420D02*
X733Y1420D01*
X1416Y1420D02*
X1433Y1420D01*
X721Y1419D02*
X728Y1419D01*
X1421Y1419D02*
X1427Y1419D01*
X718Y1386D02*
X731Y1386D01*
X1418Y1386D02*
X1430Y1386D01*
X715Y1385D02*
X734Y1385D01*
X1415Y1385D02*
X1434Y1385D01*
X712Y1384D02*
X737Y1384D01*
X1412Y1384D02*
X1437Y1384D01*
X710Y1383D02*
X739Y1383D01*
X1410Y1383D02*
X1439Y1383D01*
X708Y1382D02*
X741Y1382D01*
X1408Y1382D02*
X1441Y1382D01*
X706Y1381D02*
X743Y1381D01*
X1406Y1381D02*
X1443Y1381D01*
X705Y1380D02*
X744Y1380D01*
X1405Y1380D02*
X1444Y1380D01*
X704Y1379D02*
X745Y1379D01*
X1403Y1379D02*
X1445Y1379D01*
X702Y1378D02*
X747Y1378D01*
X1402Y1378D02*
X1446Y1378D01*
X701Y1377D02*
X748Y1377D01*
X1401Y1377D02*
X1448Y1377D01*
X700Y1376D02*
X749Y1376D01*
X1400Y1376D02*
X1449Y1376D01*
X699Y1375D02*
X750Y1375D01*
X1399Y1375D02*
X1449Y1375D01*
X699Y1374D02*
X750Y1374D01*
X1398Y1374D02*
X1450Y1374D01*
X698Y1373D02*
X751Y1373D01*
X1398Y1373D02*
X1451Y1373D01*
X697Y1372D02*
X752Y1372D01*
X1397Y1372D02*
X1452Y1372D01*
X696Y1371D02*
X752Y1371D01*
X1396Y1371D02*
X1452Y1371D01*
X696Y1370D02*
X719Y1370D01*
X730Y1370D02*
X753Y1370D01*
X1396Y1370D02*
X1419Y1370D01*
X1430Y1370D02*
X1453Y1370D01*
X695Y1369D02*
X716Y1369D01*
X733Y1369D02*
X754Y1369D01*
X1395Y1369D02*
X1416Y1369D01*
X1433Y1369D02*
X1453Y1369D01*
X695Y1368D02*
X714Y1368D01*
X735Y1368D02*
X754Y1368D01*
X1395Y1368D02*
X1414Y1368D01*
X1435Y1368D02*
X1454Y1368D01*
X694Y1367D02*
X713Y1367D01*
X736Y1367D02*
X755Y1367D01*
X1394Y1367D02*
X1413Y1367D01*
X1436Y1367D02*
X1454Y1367D01*
X694Y1366D02*
X712Y1366D01*
X737Y1366D02*
X755Y1366D01*
X1394Y1366D02*
X1412Y1366D01*
X1437Y1366D02*
X1455Y1366D01*
X693Y1365D02*
X711Y1365D01*
X738Y1365D02*
X755Y1365D01*
X1393Y1365D02*
X1411Y1365D01*
X1438Y1365D02*
X1455Y1365D01*
X693Y1364D02*
X710Y1364D01*
X739Y1364D02*
X756Y1364D01*
X1393Y1364D02*
X1410Y1364D01*
X1439Y1364D02*
X1456Y1364D01*
X693Y1363D02*
X709Y1363D01*
X740Y1363D02*
X756Y1363D01*
X1392Y1363D02*
X1409Y1363D01*
X1440Y1363D02*
X1456Y1363D01*
X692Y1362D02*
X708Y1362D01*
X740Y1362D02*
X756Y1362D01*
X1392Y1362D02*
X1408Y1362D01*
X1440Y1362D02*
X1456Y1362D01*
X692Y1361D02*
X708Y1361D01*
X741Y1361D02*
X757Y1361D01*
X1392Y1361D02*
X1408Y1361D01*
X1441Y1361D02*
X1457Y1361D01*
X692Y1360D02*
X707Y1360D01*
X741Y1360D02*
X757Y1360D01*
X1392Y1360D02*
X1407Y1360D01*
X1441Y1360D02*
X1457Y1360D01*
X691Y1359D02*
X707Y1359D01*
X742Y1359D02*
X757Y1359D01*
X1391Y1359D02*
X1407Y1359D01*
X1442Y1359D02*
X1457Y1359D01*
X691Y1358D02*
X707Y1358D01*
X742Y1358D02*
X757Y1358D01*
X1391Y1358D02*
X1406Y1358D01*
X1442Y1358D02*
X1457Y1358D01*
X691Y1357D02*
X706Y1357D01*
X742Y1357D02*
X757Y1357D01*
X1391Y1357D02*
X1406Y1357D01*
X1442Y1357D02*
X1457Y1357D01*
X691Y1356D02*
X706Y1356D01*
X743Y1356D02*
X758Y1356D01*
X1391Y1356D02*
X1406Y1356D01*
X1442Y1356D02*
X1457Y1356D01*
X691Y1355D02*
X706Y1355D01*
X743Y1355D02*
X758Y1355D01*
X1391Y1355D02*
X1406Y1355D01*
X1442Y1355D02*
X1458Y1355D01*
X691Y1354D02*
X706Y1354D01*
X743Y1354D02*
X758Y1354D01*
X1391Y1354D02*
X1406Y1354D01*
X1443Y1354D02*
X1458Y1354D01*
X691Y1353D02*
X706Y1353D01*
X743Y1353D02*
X758Y1353D01*
X1391Y1353D02*
X1406Y1353D01*
X1443Y1353D02*
X1458Y1353D01*
X691Y1352D02*
X706Y1352D01*
X743Y1352D02*
X758Y1352D01*
X1391Y1352D02*
X1406Y1352D01*
X1443Y1352D02*
X1458Y1352D01*
X691Y1351D02*
X706Y1351D01*
X743Y1351D02*
X758Y1351D01*
X1391Y1351D02*
X1406Y1351D01*
X1443Y1351D02*
X1458Y1351D01*
X691Y1350D02*
X706Y1350D01*
X743Y1350D02*
X758Y1350D01*
X1391Y1350D02*
X1406Y1350D01*
X1442Y1350D02*
X1458Y1350D01*
X691Y1349D02*
X706Y1349D01*
X743Y1349D02*
X758Y1349D01*
X1391Y1349D02*
X1406Y1349D01*
X1442Y1349D02*
X1457Y1349D01*
X691Y1348D02*
X706Y1348D01*
X742Y1348D02*
X757Y1348D01*
X1391Y1348D02*
X1406Y1348D01*
X1442Y1348D02*
X1457Y1348D01*
X691Y1347D02*
X707Y1347D01*
X742Y1347D02*
X757Y1347D01*
X1391Y1347D02*
X1407Y1347D01*
X1442Y1347D02*
X1457Y1347D01*
X692Y1346D02*
X707Y1346D01*
X742Y1346D02*
X757Y1346D01*
X1391Y1346D02*
X1407Y1346D01*
X1442Y1346D02*
X1457Y1346D01*
X692Y1345D02*
X707Y1345D01*
X741Y1345D02*
X757Y1345D01*
X1392Y1345D02*
X1407Y1345D01*
X1441Y1345D02*
X1457Y1345D01*
X692Y1344D02*
X708Y1344D01*
X741Y1344D02*
X757Y1344D01*
X1392Y1344D02*
X1408Y1344D01*
X1441Y1344D02*
X1456Y1344D01*
X692Y1343D02*
X709Y1343D01*
X740Y1343D02*
X756Y1343D01*
X1392Y1343D02*
X1408Y1343D01*
X1440Y1343D02*
X1456Y1343D01*
X693Y1342D02*
X709Y1342D01*
X740Y1342D02*
X756Y1342D01*
X1393Y1342D02*
X1409Y1342D01*
X1439Y1342D02*
X1456Y1342D01*
X693Y1341D02*
X710Y1341D01*
X739Y1341D02*
X756Y1341D01*
X1393Y1341D02*
X1410Y1341D01*
X1439Y1341D02*
X1456Y1341D01*
X693Y1340D02*
X711Y1340D01*
X738Y1340D02*
X755Y1340D01*
X1393Y1340D02*
X1411Y1340D01*
X1438Y1340D02*
X1455Y1340D01*
X694Y1339D02*
X712Y1339D01*
X737Y1339D02*
X755Y1339D01*
X1394Y1339D02*
X1412Y1339D01*
X1437Y1339D02*
X1455Y1339D01*
X694Y1338D02*
X713Y1338D01*
X736Y1338D02*
X754Y1338D01*
X1394Y1338D02*
X1413Y1338D01*
X1435Y1338D02*
X1454Y1338D01*
X695Y1337D02*
X715Y1337D01*
X734Y1337D02*
X754Y1337D01*
X1395Y1337D02*
X1415Y1337D01*
X1434Y1337D02*
X1454Y1337D01*
X695Y1336D02*
X717Y1336D01*
X732Y1336D02*
X753Y1336D01*
X1395Y1336D02*
X1417Y1336D01*
X1432Y1336D02*
X1453Y1336D01*
X696Y1335D02*
X721Y1335D01*
X728Y1335D02*
X753Y1335D01*
X1396Y1335D02*
X1421Y1335D01*
X1428Y1335D02*
X1453Y1335D01*
X697Y1334D02*
X752Y1334D01*
X1396Y1334D02*
X1452Y1334D01*
X697Y1333D02*
X752Y1333D01*
X1397Y1333D02*
X1452Y1333D01*
X698Y1332D02*
X751Y1332D01*
X1398Y1332D02*
X1451Y1332D01*
X699Y1331D02*
X750Y1331D01*
X1399Y1331D02*
X1450Y1331D01*
X700Y1330D02*
X749Y1330D01*
X1399Y1330D02*
X1449Y1330D01*
X700Y1329D02*
X749Y1329D01*
X1400Y1329D02*
X1448Y1329D01*
X701Y1328D02*
X748Y1328D01*
X1401Y1328D02*
X1447Y1328D01*
X703Y1327D02*
X746Y1327D01*
X1402Y1327D02*
X1446Y1327D01*
X704Y1326D02*
X745Y1326D01*
X1404Y1326D02*
X1445Y1326D01*
X705Y1325D02*
X744Y1325D01*
X1405Y1325D02*
X1444Y1325D01*
X707Y1324D02*
X742Y1324D01*
X1407Y1324D02*
X1442Y1324D01*
X709Y1323D02*
X740Y1323D01*
X1408Y1323D02*
X1440Y1323D01*
X711Y1322D02*
X738Y1322D01*
X1411Y1322D02*
X1438Y1322D01*
X713Y1321D02*
X736Y1321D01*
X1413Y1321D02*
X1436Y1321D01*
X716Y1320D02*
X733Y1320D01*
X1416Y1320D02*
X1432Y1320D01*
X721Y1319D02*
X727Y1319D01*
X1421Y1319D02*
X1427Y1319D01*
X718Y1286D02*
X731Y1286D01*
X1418Y1286D02*
X1431Y1286D01*
X715Y1285D02*
X734Y1285D01*
X1414Y1285D02*
X1434Y1285D01*
X712Y1284D02*
X737Y1284D01*
X1412Y1284D02*
X1437Y1284D01*
X710Y1283D02*
X739Y1283D01*
X1410Y1283D02*
X1439Y1283D01*
X708Y1282D02*
X741Y1282D01*
X1408Y1282D02*
X1441Y1282D01*
X706Y1281D02*
X743Y1281D01*
X1406Y1281D02*
X1443Y1281D01*
X705Y1280D02*
X744Y1280D01*
X1405Y1280D02*
X1444Y1280D01*
X703Y1279D02*
X746Y1279D01*
X1403Y1279D02*
X1445Y1279D01*
X702Y1278D02*
X747Y1278D01*
X1402Y1278D02*
X1447Y1278D01*
X701Y1277D02*
X748Y1277D01*
X1401Y1277D02*
X1448Y1277D01*
X700Y1276D02*
X749Y1276D01*
X1400Y1276D02*
X1449Y1276D01*
X699Y1275D02*
X750Y1275D01*
X1399Y1275D02*
X1449Y1275D01*
X699Y1274D02*
X750Y1274D01*
X1398Y1274D02*
X1450Y1274D01*
X698Y1273D02*
X751Y1273D01*
X1398Y1273D02*
X1451Y1273D01*
X697Y1272D02*
X752Y1272D01*
X1397Y1272D02*
X1452Y1272D01*
X696Y1271D02*
X752Y1271D01*
X1396Y1271D02*
X1452Y1271D01*
X696Y1270D02*
X719Y1270D01*
X730Y1270D02*
X753Y1270D01*
X1396Y1270D02*
X1418Y1270D01*
X1430Y1270D02*
X1453Y1270D01*
X695Y1269D02*
X716Y1269D01*
X733Y1269D02*
X754Y1269D01*
X1395Y1269D02*
X1416Y1269D01*
X1433Y1269D02*
X1453Y1269D01*
X695Y1268D02*
X714Y1268D01*
X735Y1268D02*
X754Y1268D01*
X1395Y1268D02*
X1414Y1268D01*
X1435Y1268D02*
X1454Y1268D01*
X694Y1267D02*
X713Y1267D01*
X736Y1267D02*
X755Y1267D01*
X1394Y1267D02*
X1413Y1267D01*
X1436Y1267D02*
X1454Y1267D01*
X694Y1266D02*
X712Y1266D01*
X737Y1266D02*
X755Y1266D01*
X1394Y1266D02*
X1412Y1266D01*
X1437Y1266D02*
X1455Y1266D01*
X693Y1265D02*
X711Y1265D01*
X738Y1265D02*
X755Y1265D01*
X1393Y1265D02*
X1411Y1265D01*
X1438Y1265D02*
X1455Y1265D01*
X693Y1264D02*
X710Y1264D01*
X739Y1264D02*
X756Y1264D01*
X1393Y1264D02*
X1410Y1264D01*
X1439Y1264D02*
X1456Y1264D01*
X693Y1263D02*
X709Y1263D01*
X740Y1263D02*
X756Y1263D01*
X1392Y1263D02*
X1409Y1263D01*
X1440Y1263D02*
X1456Y1263D01*
X692Y1262D02*
X708Y1262D01*
X740Y1262D02*
X756Y1262D01*
X1392Y1262D02*
X1408Y1262D01*
X1440Y1262D02*
X1456Y1262D01*
X692Y1261D02*
X708Y1261D01*
X741Y1261D02*
X757Y1261D01*
X1392Y1261D02*
X1408Y1261D01*
X1441Y1261D02*
X1457Y1261D01*
X692Y1260D02*
X707Y1260D01*
X741Y1260D02*
X757Y1260D01*
X1392Y1260D02*
X1407Y1260D01*
X1441Y1260D02*
X1457Y1260D01*
X691Y1259D02*
X707Y1259D01*
X742Y1259D02*
X757Y1259D01*
X1391Y1259D02*
X1407Y1259D01*
X1442Y1259D02*
X1457Y1259D01*
X691Y1258D02*
X707Y1258D01*
X742Y1258D02*
X757Y1258D01*
X1391Y1258D02*
X1406Y1258D01*
X1442Y1258D02*
X1457Y1258D01*
X691Y1257D02*
X706Y1257D01*
X742Y1257D02*
X757Y1257D01*
X1391Y1257D02*
X1406Y1257D01*
X1442Y1257D02*
X1457Y1257D01*
X691Y1256D02*
X706Y1256D01*
X743Y1256D02*
X758Y1256D01*
X1391Y1256D02*
X1406Y1256D01*
X1442Y1256D02*
X1457Y1256D01*
X691Y1255D02*
X706Y1255D01*
X743Y1255D02*
X758Y1255D01*
X1391Y1255D02*
X1406Y1255D01*
X1442Y1255D02*
X1458Y1255D01*
X691Y1254D02*
X706Y1254D01*
X743Y1254D02*
X758Y1254D01*
X1391Y1254D02*
X1406Y1254D01*
X1443Y1254D02*
X1458Y1254D01*
X691Y1253D02*
X706Y1253D01*
X743Y1253D02*
X758Y1253D01*
X1391Y1253D02*
X1406Y1253D01*
X1443Y1253D02*
X1458Y1253D01*
X691Y1252D02*
X706Y1252D01*
X743Y1252D02*
X758Y1252D01*
X1391Y1252D02*
X1406Y1252D01*
X1443Y1252D02*
X1458Y1252D01*
X691Y1251D02*
X706Y1251D01*
X743Y1251D02*
X758Y1251D01*
X1391Y1251D02*
X1406Y1251D01*
X1443Y1251D02*
X1458Y1251D01*
X691Y1250D02*
X706Y1250D01*
X743Y1250D02*
X758Y1250D01*
X1391Y1250D02*
X1406Y1250D01*
X1442Y1250D02*
X1458Y1250D01*
X691Y1249D02*
X706Y1249D01*
X743Y1249D02*
X758Y1249D01*
X1391Y1249D02*
X1406Y1249D01*
X1442Y1249D02*
X1457Y1249D01*
X691Y1248D02*
X706Y1248D01*
X742Y1248D02*
X757Y1248D01*
X1391Y1248D02*
X1406Y1248D01*
X1442Y1248D02*
X1457Y1248D01*
X691Y1247D02*
X707Y1247D01*
X742Y1247D02*
X757Y1247D01*
X1391Y1247D02*
X1407Y1247D01*
X1442Y1247D02*
X1457Y1247D01*
X692Y1246D02*
X707Y1246D01*
X742Y1246D02*
X757Y1246D01*
X1391Y1246D02*
X1407Y1246D01*
X1442Y1246D02*
X1457Y1246D01*
X692Y1245D02*
X707Y1245D01*
X741Y1245D02*
X757Y1245D01*
X1392Y1245D02*
X1407Y1245D01*
X1441Y1245D02*
X1457Y1245D01*
X692Y1244D02*
X708Y1244D01*
X741Y1244D02*
X757Y1244D01*
X1392Y1244D02*
X1408Y1244D01*
X1441Y1244D02*
X1456Y1244D01*
X692Y1243D02*
X709Y1243D01*
X740Y1243D02*
X756Y1243D01*
X1392Y1243D02*
X1408Y1243D01*
X1440Y1243D02*
X1456Y1243D01*
X693Y1242D02*
X709Y1242D01*
X740Y1242D02*
X756Y1242D01*
X1393Y1242D02*
X1409Y1242D01*
X1439Y1242D02*
X1456Y1242D01*
X693Y1241D02*
X710Y1241D01*
X739Y1241D02*
X756Y1241D01*
X1393Y1241D02*
X1410Y1241D01*
X1439Y1241D02*
X1456Y1241D01*
X693Y1240D02*
X711Y1240D01*
X738Y1240D02*
X755Y1240D01*
X1393Y1240D02*
X1411Y1240D01*
X1438Y1240D02*
X1455Y1240D01*
X694Y1239D02*
X712Y1239D01*
X737Y1239D02*
X755Y1239D01*
X1394Y1239D02*
X1412Y1239D01*
X1437Y1239D02*
X1455Y1239D01*
X694Y1238D02*
X713Y1238D01*
X736Y1238D02*
X754Y1238D01*
X1394Y1238D02*
X1413Y1238D01*
X1435Y1238D02*
X1454Y1238D01*
X695Y1237D02*
X715Y1237D01*
X734Y1237D02*
X754Y1237D01*
X1395Y1237D02*
X1415Y1237D01*
X1434Y1237D02*
X1454Y1237D01*
X695Y1236D02*
X717Y1236D01*
X732Y1236D02*
X753Y1236D01*
X1395Y1236D02*
X1417Y1236D01*
X1432Y1236D02*
X1453Y1236D01*
X696Y1235D02*
X722Y1235D01*
X727Y1235D02*
X753Y1235D01*
X1396Y1235D02*
X1422Y1235D01*
X1427Y1235D02*
X1453Y1235D01*
X697Y1234D02*
X752Y1234D01*
X1396Y1234D02*
X1452Y1234D01*
X697Y1233D02*
X752Y1233D01*
X1397Y1233D02*
X1452Y1233D01*
X698Y1232D02*
X751Y1232D01*
X1398Y1232D02*
X1451Y1232D01*
X699Y1231D02*
X750Y1231D01*
X1399Y1231D02*
X1450Y1231D01*
X700Y1230D02*
X749Y1230D01*
X1399Y1230D02*
X1449Y1230D01*
X700Y1229D02*
X748Y1229D01*
X1400Y1229D02*
X1448Y1229D01*
X702Y1228D02*
X747Y1228D01*
X1401Y1228D02*
X1447Y1228D01*
X703Y1227D02*
X746Y1227D01*
X1403Y1227D02*
X1446Y1227D01*
X704Y1226D02*
X745Y1226D01*
X1404Y1226D02*
X1445Y1226D01*
X705Y1225D02*
X744Y1225D01*
X1405Y1225D02*
X1444Y1225D01*
X707Y1224D02*
X742Y1224D01*
X1407Y1224D02*
X1442Y1224D01*
X709Y1223D02*
X740Y1223D01*
X1409Y1223D02*
X1440Y1223D01*
X711Y1222D02*
X738Y1222D01*
X1411Y1222D02*
X1438Y1222D01*
X713Y1221D02*
X736Y1221D01*
X1413Y1221D02*
X1436Y1221D01*
X716Y1220D02*
X732Y1220D01*
X1416Y1220D02*
X1432Y1220D01*
X722Y1219D02*
X727Y1219D01*
X1422Y1219D02*
X1427Y1219D01*
X718Y1186D02*
X731Y1186D01*
X1418Y1186D02*
X1431Y1186D01*
X714Y1185D02*
X735Y1185D01*
X1414Y1185D02*
X1434Y1185D01*
X712Y1184D02*
X737Y1184D01*
X1412Y1184D02*
X1437Y1184D01*
X710Y1183D02*
X739Y1183D01*
X1410Y1183D02*
X1439Y1183D01*
X708Y1182D02*
X741Y1182D01*
X1408Y1182D02*
X1441Y1182D01*
X706Y1181D02*
X743Y1181D01*
X1406Y1181D02*
X1443Y1181D01*
X705Y1180D02*
X744Y1180D01*
X1405Y1180D02*
X1444Y1180D01*
X703Y1179D02*
X746Y1179D01*
X1403Y1179D02*
X1445Y1179D01*
X702Y1178D02*
X747Y1178D01*
X1402Y1178D02*
X1447Y1178D01*
X701Y1177D02*
X748Y1177D01*
X1401Y1177D02*
X1448Y1177D01*
X700Y1176D02*
X749Y1176D01*
X1400Y1176D02*
X1449Y1176D01*
X699Y1175D02*
X750Y1175D01*
X1399Y1175D02*
X1449Y1175D01*
X698Y1174D02*
X750Y1174D01*
X1398Y1174D02*
X1450Y1174D01*
X698Y1173D02*
X751Y1173D01*
X1398Y1173D02*
X1451Y1173D01*
X697Y1172D02*
X752Y1172D01*
X1397Y1172D02*
X1452Y1172D01*
X696Y1171D02*
X752Y1171D01*
X1396Y1171D02*
X1452Y1171D01*
X696Y1170D02*
X718Y1170D01*
X731Y1170D02*
X753Y1170D01*
X1396Y1170D02*
X1418Y1170D01*
X1430Y1170D02*
X1453Y1170D01*
X695Y1169D02*
X716Y1169D01*
X733Y1169D02*
X754Y1169D01*
X1395Y1169D02*
X1416Y1169D01*
X1433Y1169D02*
X1453Y1169D01*
X695Y1168D02*
X714Y1168D01*
X735Y1168D02*
X754Y1168D01*
X1395Y1168D02*
X1414Y1168D01*
X1435Y1168D02*
X1454Y1168D01*
X694Y1167D02*
X713Y1167D01*
X736Y1167D02*
X755Y1167D01*
X1394Y1167D02*
X1413Y1167D01*
X1436Y1167D02*
X1454Y1167D01*
X694Y1166D02*
X712Y1166D01*
X737Y1166D02*
X755Y1166D01*
X1394Y1166D02*
X1412Y1166D01*
X1437Y1166D02*
X1455Y1166D01*
X693Y1165D02*
X711Y1165D01*
X738Y1165D02*
X755Y1165D01*
X1393Y1165D02*
X1411Y1165D01*
X1438Y1165D02*
X1455Y1165D01*
X693Y1164D02*
X710Y1164D01*
X739Y1164D02*
X756Y1164D01*
X1393Y1164D02*
X1410Y1164D01*
X1439Y1164D02*
X1456Y1164D01*
X693Y1163D02*
X709Y1163D01*
X740Y1163D02*
X756Y1163D01*
X1392Y1163D02*
X1409Y1163D01*
X1440Y1163D02*
X1456Y1163D01*
X692Y1162D02*
X708Y1162D01*
X740Y1162D02*
X756Y1162D01*
X1392Y1162D02*
X1408Y1162D01*
X1440Y1162D02*
X1456Y1162D01*
X692Y1161D02*
X708Y1161D01*
X741Y1161D02*
X757Y1161D01*
X1392Y1161D02*
X1408Y1161D01*
X1441Y1161D02*
X1457Y1161D01*
X692Y1160D02*
X707Y1160D01*
X741Y1160D02*
X757Y1160D01*
X1392Y1160D02*
X1407Y1160D01*
X1441Y1160D02*
X1457Y1160D01*
X691Y1159D02*
X707Y1159D01*
X742Y1159D02*
X757Y1159D01*
X1391Y1159D02*
X1407Y1159D01*
X1442Y1159D02*
X1457Y1159D01*
X691Y1158D02*
X707Y1158D01*
X742Y1158D02*
X757Y1158D01*
X1391Y1158D02*
X1406Y1158D01*
X1442Y1158D02*
X1457Y1158D01*
X691Y1157D02*
X706Y1157D01*
X742Y1157D02*
X757Y1157D01*
X1391Y1157D02*
X1406Y1157D01*
X1442Y1157D02*
X1457Y1157D01*
X691Y1156D02*
X706Y1156D01*
X743Y1156D02*
X758Y1156D01*
X1391Y1156D02*
X1406Y1156D01*
X1442Y1156D02*
X1457Y1156D01*
X691Y1155D02*
X706Y1155D01*
X743Y1155D02*
X758Y1155D01*
X1391Y1155D02*
X1406Y1155D01*
X1442Y1155D02*
X1458Y1155D01*
X691Y1154D02*
X706Y1154D01*
X743Y1154D02*
X758Y1154D01*
X1391Y1154D02*
X1406Y1154D01*
X1443Y1154D02*
X1458Y1154D01*
X691Y1153D02*
X706Y1153D01*
X743Y1153D02*
X758Y1153D01*
X1391Y1153D02*
X1406Y1153D01*
X1443Y1153D02*
X1458Y1153D01*
X691Y1152D02*
X706Y1152D01*
X743Y1152D02*
X758Y1152D01*
X1391Y1152D02*
X1406Y1152D01*
X1443Y1152D02*
X1458Y1152D01*
X691Y1151D02*
X706Y1151D01*
X743Y1151D02*
X758Y1151D01*
X1391Y1151D02*
X1406Y1151D01*
X1443Y1151D02*
X1458Y1151D01*
X691Y1150D02*
X706Y1150D01*
X743Y1150D02*
X758Y1150D01*
X1391Y1150D02*
X1406Y1150D01*
X1442Y1150D02*
X1457Y1150D01*
X691Y1149D02*
X706Y1149D01*
X742Y1149D02*
X758Y1149D01*
X1391Y1149D02*
X1406Y1149D01*
X1442Y1149D02*
X1457Y1149D01*
X691Y1148D02*
X706Y1148D01*
X742Y1148D02*
X757Y1148D01*
X1391Y1148D02*
X1406Y1148D01*
X1442Y1148D02*
X1457Y1148D01*
X691Y1147D02*
X707Y1147D01*
X742Y1147D02*
X757Y1147D01*
X1391Y1147D02*
X1407Y1147D01*
X1442Y1147D02*
X1457Y1147D01*
X692Y1146D02*
X707Y1146D01*
X742Y1146D02*
X757Y1146D01*
X1391Y1146D02*
X1407Y1146D01*
X1442Y1146D02*
X1457Y1146D01*
X692Y1145D02*
X707Y1145D01*
X741Y1145D02*
X757Y1145D01*
X1392Y1145D02*
X1407Y1145D01*
X1441Y1145D02*
X1457Y1145D01*
X692Y1144D02*
X708Y1144D01*
X741Y1144D02*
X757Y1144D01*
X1392Y1144D02*
X1408Y1144D01*
X1441Y1144D02*
X1456Y1144D01*
X692Y1143D02*
X709Y1143D01*
X740Y1143D02*
X756Y1143D01*
X1392Y1143D02*
X1408Y1143D01*
X1440Y1143D02*
X1456Y1143D01*
X693Y1142D02*
X709Y1142D01*
X740Y1142D02*
X756Y1142D01*
X1393Y1142D02*
X1409Y1142D01*
X1439Y1142D02*
X1456Y1142D01*
X693Y1141D02*
X710Y1141D01*
X739Y1141D02*
X756Y1141D01*
X1393Y1141D02*
X1410Y1141D01*
X1439Y1141D02*
X1455Y1141D01*
X693Y1140D02*
X711Y1140D01*
X738Y1140D02*
X755Y1140D01*
X1393Y1140D02*
X1411Y1140D01*
X1438Y1140D02*
X1455Y1140D01*
X694Y1139D02*
X712Y1139D01*
X737Y1139D02*
X755Y1139D01*
X1394Y1139D02*
X1412Y1139D01*
X1437Y1139D02*
X1455Y1139D01*
X694Y1138D02*
X713Y1138D01*
X736Y1138D02*
X754Y1138D01*
X1394Y1138D02*
X1413Y1138D01*
X1435Y1138D02*
X1454Y1138D01*
X695Y1137D02*
X715Y1137D01*
X734Y1137D02*
X754Y1137D01*
X1395Y1137D02*
X1415Y1137D01*
X1434Y1137D02*
X1454Y1137D01*
X695Y1136D02*
X717Y1136D01*
X732Y1136D02*
X753Y1136D01*
X1395Y1136D02*
X1417Y1136D01*
X1432Y1136D02*
X1453Y1136D01*
X696Y1135D02*
X722Y1135D01*
X727Y1135D02*
X753Y1135D01*
X1396Y1135D02*
X1422Y1135D01*
X1426Y1135D02*
X1453Y1135D01*
X697Y1134D02*
X752Y1134D01*
X1396Y1134D02*
X1452Y1134D01*
X697Y1133D02*
X752Y1133D01*
X1397Y1133D02*
X1452Y1133D01*
X698Y1132D02*
X751Y1132D01*
X1398Y1132D02*
X1451Y1132D01*
X699Y1131D02*
X750Y1131D01*
X1399Y1131D02*
X1450Y1131D01*
X700Y1130D02*
X749Y1130D01*
X1399Y1130D02*
X1449Y1130D01*
X701Y1129D02*
X748Y1129D01*
X1400Y1129D02*
X1448Y1129D01*
X702Y1128D02*
X747Y1128D01*
X1401Y1128D02*
X1447Y1128D01*
X703Y1127D02*
X746Y1127D01*
X1403Y1127D02*
X1446Y1127D01*
X704Y1126D02*
X745Y1126D01*
X1404Y1126D02*
X1445Y1126D01*
X705Y1125D02*
X744Y1125D01*
X1405Y1125D02*
X1443Y1125D01*
X707Y1124D02*
X742Y1124D01*
X1407Y1124D02*
X1442Y1124D01*
X709Y1123D02*
X740Y1123D01*
X1409Y1123D02*
X1440Y1123D01*
X711Y1122D02*
X738Y1122D01*
X1411Y1122D02*
X1438Y1122D01*
X713Y1121D02*
X736Y1121D01*
X1413Y1121D02*
X1435Y1121D01*
X717Y1120D02*
X732Y1120D01*
X1416Y1120D02*
X1432Y1120D01*
X722Y1119D02*
X726Y1119D01*
X1422Y1119D02*
X1426Y1119D01*
X718Y1086D02*
X731Y1086D01*
X1418Y1086D02*
X1431Y1086D01*
X714Y1085D02*
X735Y1085D01*
X1414Y1085D02*
X1434Y1085D01*
X712Y1084D02*
X737Y1084D01*
X1412Y1084D02*
X1437Y1084D01*
X710Y1083D02*
X739Y1083D01*
X1410Y1083D02*
X1439Y1083D01*
X708Y1082D02*
X741Y1082D01*
X1408Y1082D02*
X1441Y1082D01*
X706Y1081D02*
X743Y1081D01*
X1406Y1081D02*
X1443Y1081D01*
X705Y1080D02*
X744Y1080D01*
X1405Y1080D02*
X1444Y1080D01*
X703Y1079D02*
X746Y1079D01*
X1403Y1079D02*
X1445Y1079D01*
X702Y1078D02*
X747Y1078D01*
X1402Y1078D02*
X1447Y1078D01*
X701Y1077D02*
X748Y1077D01*
X1401Y1077D02*
X1448Y1077D01*
X700Y1076D02*
X749Y1076D01*
X1400Y1076D02*
X1449Y1076D01*
X699Y1075D02*
X750Y1075D01*
X1399Y1075D02*
X1450Y1075D01*
X698Y1074D02*
X750Y1074D01*
X1398Y1074D02*
X1450Y1074D01*
X698Y1073D02*
X751Y1073D01*
X1398Y1073D02*
X1451Y1073D01*
X697Y1072D02*
X752Y1072D01*
X1397Y1072D02*
X1452Y1072D01*
X696Y1071D02*
X752Y1071D01*
X1396Y1071D02*
X1452Y1071D01*
X696Y1070D02*
X718Y1070D01*
X731Y1070D02*
X753Y1070D01*
X1396Y1070D02*
X1418Y1070D01*
X1431Y1070D02*
X1453Y1070D01*
X695Y1069D02*
X716Y1069D01*
X733Y1069D02*
X754Y1069D01*
X1395Y1069D02*
X1416Y1069D01*
X1433Y1069D02*
X1453Y1069D01*
X695Y1068D02*
X714Y1068D01*
X735Y1068D02*
X754Y1068D01*
X1395Y1068D02*
X1414Y1068D01*
X1435Y1068D02*
X1454Y1068D01*
X694Y1067D02*
X713Y1067D01*
X736Y1067D02*
X755Y1067D01*
X1394Y1067D02*
X1413Y1067D01*
X1436Y1067D02*
X1454Y1067D01*
X694Y1066D02*
X712Y1066D01*
X737Y1066D02*
X755Y1066D01*
X1394Y1066D02*
X1412Y1066D01*
X1437Y1066D02*
X1455Y1066D01*
X693Y1065D02*
X711Y1065D01*
X738Y1065D02*
X755Y1065D01*
X1393Y1065D02*
X1411Y1065D01*
X1438Y1065D02*
X1455Y1065D01*
X693Y1064D02*
X710Y1064D01*
X739Y1064D02*
X756Y1064D01*
X1393Y1064D02*
X1410Y1064D01*
X1439Y1064D02*
X1456Y1064D01*
X693Y1063D02*
X709Y1063D01*
X740Y1063D02*
X756Y1063D01*
X1392Y1063D02*
X1409Y1063D01*
X1440Y1063D02*
X1456Y1063D01*
X692Y1062D02*
X708Y1062D01*
X740Y1062D02*
X756Y1062D01*
X1392Y1062D02*
X1408Y1062D01*
X1440Y1062D02*
X1456Y1062D01*
X692Y1061D02*
X708Y1061D01*
X741Y1061D02*
X757Y1061D01*
X1392Y1061D02*
X1408Y1061D01*
X1441Y1061D02*
X1457Y1061D01*
X692Y1060D02*
X707Y1060D01*
X741Y1060D02*
X757Y1060D01*
X1392Y1060D02*
X1407Y1060D01*
X1441Y1060D02*
X1457Y1060D01*
X691Y1059D02*
X707Y1059D01*
X742Y1059D02*
X757Y1059D01*
X1391Y1059D02*
X1407Y1059D01*
X1442Y1059D02*
X1457Y1059D01*
X691Y1058D02*
X707Y1058D01*
X742Y1058D02*
X757Y1058D01*
X1391Y1058D02*
X1406Y1058D01*
X1442Y1058D02*
X1457Y1058D01*
X691Y1057D02*
X706Y1057D01*
X742Y1057D02*
X757Y1057D01*
X1391Y1057D02*
X1406Y1057D01*
X1442Y1057D02*
X1457Y1057D01*
X691Y1056D02*
X706Y1056D01*
X743Y1056D02*
X758Y1056D01*
X1391Y1056D02*
X1406Y1056D01*
X1442Y1056D02*
X1457Y1056D01*
X691Y1055D02*
X706Y1055D01*
X743Y1055D02*
X758Y1055D01*
X1391Y1055D02*
X1406Y1055D01*
X1442Y1055D02*
X1458Y1055D01*
X691Y1054D02*
X706Y1054D01*
X743Y1054D02*
X758Y1054D01*
X1391Y1054D02*
X1406Y1054D01*
X1443Y1054D02*
X1458Y1054D01*
X691Y1053D02*
X706Y1053D01*
X743Y1053D02*
X758Y1053D01*
X1391Y1053D02*
X1406Y1053D01*
X1443Y1053D02*
X1458Y1053D01*
X691Y1052D02*
X706Y1052D01*
X743Y1052D02*
X758Y1052D01*
X1391Y1052D02*
X1406Y1052D01*
X1443Y1052D02*
X1458Y1052D01*
X691Y1051D02*
X706Y1051D01*
X743Y1051D02*
X758Y1051D01*
X1391Y1051D02*
X1406Y1051D01*
X1443Y1051D02*
X1458Y1051D01*
X691Y1050D02*
X706Y1050D01*
X743Y1050D02*
X758Y1050D01*
X1391Y1050D02*
X1406Y1050D01*
X1442Y1050D02*
X1457Y1050D01*
X691Y1049D02*
X706Y1049D01*
X742Y1049D02*
X758Y1049D01*
X1391Y1049D02*
X1406Y1049D01*
X1442Y1049D02*
X1457Y1049D01*
X691Y1048D02*
X706Y1048D01*
X742Y1048D02*
X757Y1048D01*
X1391Y1048D02*
X1406Y1048D01*
X1442Y1048D02*
X1457Y1048D01*
X691Y1047D02*
X707Y1047D01*
X742Y1047D02*
X757Y1047D01*
X1391Y1047D02*
X1407Y1047D01*
X1442Y1047D02*
X1457Y1047D01*
X692Y1046D02*
X707Y1046D01*
X742Y1046D02*
X757Y1046D01*
X1391Y1046D02*
X1407Y1046D01*
X1442Y1046D02*
X1457Y1046D01*
X692Y1045D02*
X707Y1045D01*
X741Y1045D02*
X757Y1045D01*
X1392Y1045D02*
X1407Y1045D01*
X1441Y1045D02*
X1457Y1045D01*
X692Y1044D02*
X708Y1044D01*
X741Y1044D02*
X757Y1044D01*
X1392Y1044D02*
X1408Y1044D01*
X1441Y1044D02*
X1456Y1044D01*
X692Y1043D02*
X709Y1043D01*
X740Y1043D02*
X756Y1043D01*
X1392Y1043D02*
X1408Y1043D01*
X1440Y1043D02*
X1456Y1043D01*
X693Y1042D02*
X709Y1042D01*
X740Y1042D02*
X756Y1042D01*
X1393Y1042D02*
X1409Y1042D01*
X1439Y1042D02*
X1456Y1042D01*
X693Y1041D02*
X710Y1041D01*
X739Y1041D02*
X756Y1041D01*
X1393Y1041D02*
X1410Y1041D01*
X1439Y1041D02*
X1455Y1041D01*
X693Y1040D02*
X711Y1040D01*
X738Y1040D02*
X755Y1040D01*
X1393Y1040D02*
X1411Y1040D01*
X1438Y1040D02*
X1455Y1040D01*
X694Y1039D02*
X712Y1039D01*
X737Y1039D02*
X755Y1039D01*
X1394Y1039D02*
X1412Y1039D01*
X1437Y1039D02*
X1455Y1039D01*
X694Y1038D02*
X714Y1038D01*
X735Y1038D02*
X754Y1038D01*
X1394Y1038D02*
X1413Y1038D01*
X1435Y1038D02*
X1454Y1038D01*
X695Y1037D02*
X715Y1037D01*
X734Y1037D02*
X754Y1037D01*
X1395Y1037D02*
X1415Y1037D01*
X1434Y1037D02*
X1454Y1037D01*
X695Y1036D02*
X717Y1036D01*
X732Y1036D02*
X753Y1036D01*
X1395Y1036D02*
X1417Y1036D01*
X1432Y1036D02*
X1453Y1036D01*
X696Y1035D02*
X723Y1035D01*
X726Y1035D02*
X753Y1035D01*
X1396Y1035D02*
X1423Y1035D01*
X1426Y1035D02*
X1453Y1035D01*
X697Y1034D02*
X752Y1034D01*
X1396Y1034D02*
X1452Y1034D01*
X697Y1033D02*
X752Y1033D01*
X1397Y1033D02*
X1451Y1033D01*
X698Y1032D02*
X751Y1032D01*
X1398Y1032D02*
X1451Y1032D01*
X699Y1031D02*
X750Y1031D01*
X1399Y1031D02*
X1450Y1031D01*
X700Y1030D02*
X749Y1030D01*
X1399Y1030D02*
X1449Y1030D01*
X701Y1029D02*
X748Y1029D01*
X1400Y1029D02*
X1448Y1029D01*
X702Y1028D02*
X747Y1028D01*
X1401Y1028D02*
X1447Y1028D01*
X703Y1027D02*
X746Y1027D01*
X1403Y1027D02*
X1446Y1027D01*
X704Y1026D02*
X745Y1026D01*
X1404Y1026D02*
X1445Y1026D01*
X705Y1025D02*
X744Y1025D01*
X1405Y1025D02*
X1443Y1025D01*
X707Y1024D02*
X742Y1024D01*
X1407Y1024D02*
X1442Y1024D01*
X709Y1023D02*
X740Y1023D01*
X1409Y1023D02*
X1440Y1023D01*
X711Y1022D02*
X738Y1022D01*
X1411Y1022D02*
X1438Y1022D01*
X714Y1021D02*
X735Y1021D01*
X1413Y1021D02*
X1435Y1021D01*
X717Y1020D02*
X732Y1020D01*
X1417Y1020D02*
X1432Y1020D01*
X723Y1019D02*
X726Y1019D01*
X1423Y1019D02*
X1425Y1019D01*
X718Y986D02*
X731Y986D01*
X1417Y986D02*
X1431Y986D01*
X714Y985D02*
X735Y985D01*
X1414Y985D02*
X1435Y985D01*
X712Y984D02*
X737Y984D01*
X1412Y984D02*
X1437Y984D01*
X710Y983D02*
X739Y983D01*
X1409Y983D02*
X1439Y983D01*
X708Y982D02*
X741Y982D01*
X1408Y982D02*
X1441Y982D01*
X706Y981D02*
X743Y981D01*
X1406Y981D02*
X1443Y981D01*
X705Y980D02*
X744Y980D01*
X1405Y980D02*
X1444Y980D01*
X703Y979D02*
X746Y979D01*
X1403Y979D02*
X1446Y979D01*
X702Y978D02*
X747Y978D01*
X1402Y978D02*
X1447Y978D01*
X701Y977D02*
X748Y977D01*
X1401Y977D02*
X1448Y977D01*
X700Y976D02*
X749Y976D01*
X1400Y976D02*
X1449Y976D01*
X699Y975D02*
X750Y975D01*
X1399Y975D02*
X1450Y975D01*
X698Y974D02*
X750Y974D01*
X1398Y974D02*
X1450Y974D01*
X698Y973D02*
X751Y973D01*
X1398Y973D02*
X1451Y973D01*
X697Y972D02*
X752Y972D01*
X1397Y972D02*
X1452Y972D01*
X696Y971D02*
X753Y971D01*
X1396Y971D02*
X1452Y971D01*
X696Y970D02*
X718Y970D01*
X731Y970D02*
X753Y970D01*
X1396Y970D02*
X1418Y970D01*
X1431Y970D02*
X1453Y970D01*
X695Y969D02*
X716Y969D01*
X733Y969D02*
X754Y969D01*
X1395Y969D02*
X1416Y969D01*
X1433Y969D02*
X1454Y969D01*
X695Y968D02*
X714Y968D01*
X735Y968D02*
X754Y968D01*
X1395Y968D02*
X1414Y968D01*
X1435Y968D02*
X1454Y968D01*
X694Y967D02*
X713Y967D01*
X736Y967D02*
X755Y967D01*
X1394Y967D02*
X1413Y967D01*
X1436Y967D02*
X1454Y967D01*
X694Y966D02*
X712Y966D01*
X737Y966D02*
X755Y966D01*
X1394Y966D02*
X1412Y966D01*
X1437Y966D02*
X1455Y966D01*
X693Y965D02*
X711Y965D01*
X738Y965D02*
X755Y965D01*
X1393Y965D02*
X1411Y965D01*
X1438Y965D02*
X1455Y965D01*
X693Y964D02*
X710Y964D01*
X739Y964D02*
X756Y964D01*
X1393Y964D02*
X1410Y964D01*
X1439Y964D02*
X1456Y964D01*
X693Y963D02*
X709Y963D01*
X740Y963D02*
X756Y963D01*
X1392Y963D02*
X1409Y963D01*
X1440Y963D02*
X1456Y963D01*
X692Y962D02*
X708Y962D01*
X740Y962D02*
X756Y962D01*
X1392Y962D02*
X1408Y962D01*
X1440Y962D02*
X1456Y962D01*
X692Y961D02*
X708Y961D01*
X741Y961D02*
X757Y961D01*
X1392Y961D02*
X1408Y961D01*
X1441Y961D02*
X1457Y961D01*
X692Y960D02*
X707Y960D01*
X742Y960D02*
X757Y960D01*
X1392Y960D02*
X1407Y960D01*
X1441Y960D02*
X1457Y960D01*
X691Y959D02*
X707Y959D01*
X742Y959D02*
X757Y959D01*
X1391Y959D02*
X1407Y959D01*
X1442Y959D02*
X1457Y959D01*
X691Y958D02*
X707Y958D01*
X742Y958D02*
X757Y958D01*
X1391Y958D02*
X1406Y958D01*
X1442Y958D02*
X1457Y958D01*
X691Y957D02*
X706Y957D01*
X742Y957D02*
X757Y957D01*
X1391Y957D02*
X1406Y957D01*
X1442Y957D02*
X1457Y957D01*
X691Y956D02*
X706Y956D01*
X743Y956D02*
X758Y956D01*
X1391Y956D02*
X1406Y956D01*
X1442Y956D02*
X1457Y956D01*
X691Y955D02*
X706Y955D01*
X743Y955D02*
X758Y955D01*
X1391Y955D02*
X1406Y955D01*
X1442Y955D02*
X1458Y955D01*
X691Y954D02*
X706Y954D01*
X743Y954D02*
X758Y954D01*
X1391Y954D02*
X1406Y954D01*
X1443Y954D02*
X1458Y954D01*
X691Y953D02*
X706Y953D01*
X743Y953D02*
X758Y953D01*
X1391Y953D02*
X1406Y953D01*
X1443Y953D02*
X1458Y953D01*
X691Y952D02*
X706Y952D01*
X743Y952D02*
X758Y952D01*
X1391Y952D02*
X1406Y952D01*
X1443Y952D02*
X1458Y952D01*
X691Y951D02*
X706Y951D01*
X743Y951D02*
X758Y951D01*
X1391Y951D02*
X1406Y951D01*
X1443Y951D02*
X1458Y951D01*
X691Y950D02*
X706Y950D01*
X743Y950D02*
X758Y950D01*
X1391Y950D02*
X1406Y950D01*
X1442Y950D02*
X1457Y950D01*
X691Y949D02*
X706Y949D01*
X742Y949D02*
X758Y949D01*
X1391Y949D02*
X1406Y949D01*
X1442Y949D02*
X1457Y949D01*
X691Y948D02*
X706Y948D01*
X742Y948D02*
X757Y948D01*
X1391Y948D02*
X1406Y948D01*
X1442Y948D02*
X1457Y948D01*
X691Y947D02*
X707Y947D01*
X742Y947D02*
X757Y947D01*
X1391Y947D02*
X1407Y947D01*
X1442Y947D02*
X1457Y947D01*
X692Y946D02*
X707Y946D01*
X742Y946D02*
X757Y946D01*
X1391Y946D02*
X1407Y946D01*
X1442Y946D02*
X1457Y946D01*
X692Y945D02*
X707Y945D01*
X741Y945D02*
X757Y945D01*
X1392Y945D02*
X1407Y945D01*
X1441Y945D02*
X1457Y945D01*
X692Y944D02*
X708Y944D01*
X741Y944D02*
X757Y944D01*
X1392Y944D02*
X1408Y944D01*
X1441Y944D02*
X1456Y944D01*
X692Y943D02*
X709Y943D01*
X740Y943D02*
X756Y943D01*
X1392Y943D02*
X1408Y943D01*
X1440Y943D02*
X1456Y943D01*
X693Y942D02*
X709Y942D01*
X739Y942D02*
X756Y942D01*
X1393Y942D02*
X1409Y942D01*
X1439Y942D02*
X1456Y942D01*
X693Y941D02*
X710Y941D01*
X739Y941D02*
X756Y941D01*
X1393Y941D02*
X1410Y941D01*
X1438Y941D02*
X1455Y941D01*
X693Y940D02*
X711Y940D01*
X738Y940D02*
X755Y940D01*
X1393Y940D02*
X1411Y940D01*
X1438Y940D02*
X1455Y940D01*
X694Y939D02*
X712Y939D01*
X737Y939D02*
X755Y939D01*
X1394Y939D02*
X1412Y939D01*
X1436Y939D02*
X1455Y939D01*
X694Y938D02*
X714Y938D01*
X735Y938D02*
X754Y938D01*
X1394Y938D02*
X1413Y938D01*
X1435Y938D02*
X1454Y938D01*
X695Y937D02*
X715Y937D01*
X734Y937D02*
X754Y937D01*
X1395Y937D02*
X1415Y937D01*
X1434Y937D02*
X1454Y937D01*
X695Y936D02*
X717Y936D01*
X732Y936D02*
X753Y936D01*
X1395Y936D02*
X1417Y936D01*
X1431Y936D02*
X1453Y936D01*
X696Y935D02*
X723Y935D01*
X726Y935D02*
X753Y935D01*
X1396Y935D02*
X1423Y935D01*
X1425Y935D02*
X1453Y935D01*
X697Y934D02*
X752Y934D01*
X1396Y934D02*
X1452Y934D01*
X697Y933D02*
X752Y933D01*
X1397Y933D02*
X1451Y933D01*
X698Y932D02*
X751Y932D01*
X1398Y932D02*
X1451Y932D01*
X699Y931D02*
X750Y931D01*
X1399Y931D02*
X1450Y931D01*
X700Y930D02*
X749Y930D01*
X1400Y930D02*
X1449Y930D01*
X701Y929D02*
X748Y929D01*
X1400Y929D02*
X1448Y929D01*
X702Y928D02*
X747Y928D01*
X1402Y928D02*
X1447Y928D01*
X703Y927D02*
X746Y927D01*
X1403Y927D02*
X1446Y927D01*
X704Y926D02*
X745Y926D01*
X1404Y926D02*
X1445Y926D01*
X705Y925D02*
X744Y925D01*
X1405Y925D02*
X1443Y925D01*
X707Y924D02*
X742Y924D01*
X1407Y924D02*
X1442Y924D01*
X709Y923D02*
X740Y923D01*
X1409Y923D02*
X1440Y923D01*
X711Y922D02*
X738Y922D01*
X1411Y922D02*
X1438Y922D01*
X714Y921D02*
X735Y921D01*
X1413Y921D02*
X1435Y921D01*
X717Y920D02*
X732Y920D01*
X1417Y920D02*
X1432Y920D01*
X724Y919D02*
X725Y919D01*
X1424Y919D02*
X1425Y919D01*
X717Y886D02*
X731Y886D01*
X1417Y886D02*
X1431Y886D01*
X714Y885D02*
X735Y885D01*
X1414Y885D02*
X1435Y885D01*
X712Y884D02*
X737Y884D01*
X1411Y884D02*
X1437Y884D01*
X709Y883D02*
X740Y883D01*
X1409Y883D02*
X1439Y883D01*
X708Y882D02*
X741Y882D01*
X1408Y882D02*
X1441Y882D01*
X706Y881D02*
X743Y881D01*
X1406Y881D02*
X1443Y881D01*
X705Y880D02*
X744Y880D01*
X1404Y880D02*
X1444Y880D01*
X703Y879D02*
X746Y879D01*
X1403Y879D02*
X1446Y879D01*
X702Y878D02*
X747Y878D01*
X1402Y878D02*
X1447Y878D01*
X701Y877D02*
X748Y877D01*
X1401Y877D02*
X1448Y877D01*
X700Y876D02*
X749Y876D01*
X1400Y876D02*
X1449Y876D01*
X699Y875D02*
X750Y875D01*
X1399Y875D02*
X1450Y875D01*
X698Y874D02*
X751Y874D01*
X1398Y874D02*
X1450Y874D01*
X698Y873D02*
X751Y873D01*
X1398Y873D02*
X1451Y873D01*
X697Y872D02*
X752Y872D01*
X1397Y872D02*
X1452Y872D01*
X696Y871D02*
X753Y871D01*
X1396Y871D02*
X1452Y871D01*
X696Y870D02*
X718Y870D01*
X731Y870D02*
X753Y870D01*
X1396Y870D02*
X1418Y870D01*
X1431Y870D02*
X1453Y870D01*
X695Y869D02*
X716Y869D01*
X733Y869D02*
X754Y869D01*
X1395Y869D02*
X1416Y869D01*
X1433Y869D02*
X1454Y869D01*
X695Y868D02*
X714Y868D01*
X735Y868D02*
X754Y868D01*
X1394Y868D02*
X1414Y868D01*
X1435Y868D02*
X1454Y868D01*
X694Y867D02*
X713Y867D01*
X736Y867D02*
X755Y867D01*
X1394Y867D02*
X1413Y867D01*
X1436Y867D02*
X1454Y867D01*
X694Y866D02*
X712Y866D01*
X737Y866D02*
X755Y866D01*
X1394Y866D02*
X1412Y866D01*
X1437Y866D02*
X1455Y866D01*
X693Y865D02*
X711Y865D01*
X738Y865D02*
X755Y865D01*
X1393Y865D02*
X1411Y865D01*
X1438Y865D02*
X1455Y865D01*
X693Y864D02*
X710Y864D01*
X739Y864D02*
X756Y864D01*
X1393Y864D02*
X1410Y864D01*
X1439Y864D02*
X1456Y864D01*
X693Y863D02*
X709Y863D01*
X740Y863D02*
X756Y863D01*
X1392Y863D02*
X1409Y863D01*
X1440Y863D02*
X1456Y863D01*
X692Y862D02*
X708Y862D01*
X740Y862D02*
X756Y862D01*
X1392Y862D02*
X1408Y862D01*
X1440Y862D02*
X1456Y862D01*
X692Y861D02*
X708Y861D01*
X741Y861D02*
X757Y861D01*
X1392Y861D02*
X1408Y861D01*
X1441Y861D02*
X1457Y861D01*
X692Y860D02*
X707Y860D01*
X742Y860D02*
X757Y860D01*
X1392Y860D02*
X1407Y860D01*
X1441Y860D02*
X1457Y860D01*
X691Y859D02*
X707Y859D01*
X742Y859D02*
X757Y859D01*
X1391Y859D02*
X1407Y859D01*
X1442Y859D02*
X1457Y859D01*
X691Y858D02*
X707Y858D01*
X742Y858D02*
X757Y858D01*
X1391Y858D02*
X1406Y858D01*
X1442Y858D02*
X1457Y858D01*
X691Y857D02*
X706Y857D01*
X742Y857D02*
X757Y857D01*
X1391Y857D02*
X1406Y857D01*
X1442Y857D02*
X1457Y857D01*
X691Y856D02*
X706Y856D01*
X743Y856D02*
X758Y856D01*
X1391Y856D02*
X1406Y856D01*
X1442Y856D02*
X1457Y856D01*
X691Y855D02*
X706Y855D01*
X743Y855D02*
X758Y855D01*
X1391Y855D02*
X1406Y855D01*
X1442Y855D02*
X1458Y855D01*
X691Y854D02*
X706Y854D01*
X743Y854D02*
X758Y854D01*
X1391Y854D02*
X1406Y854D01*
X1443Y854D02*
X1458Y854D01*
X691Y853D02*
X706Y853D01*
X743Y853D02*
X758Y853D01*
X1391Y853D02*
X1406Y853D01*
X1443Y853D02*
X1458Y853D01*
X691Y852D02*
X706Y852D01*
X743Y852D02*
X758Y852D01*
X1391Y852D02*
X1406Y852D01*
X1443Y852D02*
X1458Y852D01*
X691Y851D02*
X706Y851D01*
X743Y851D02*
X758Y851D01*
X1391Y851D02*
X1406Y851D01*
X1443Y851D02*
X1458Y851D01*
X691Y850D02*
X706Y850D01*
X743Y850D02*
X758Y850D01*
X1391Y850D02*
X1406Y850D01*
X1442Y850D02*
X1457Y850D01*
X691Y849D02*
X706Y849D01*
X742Y849D02*
X758Y849D01*
X1391Y849D02*
X1406Y849D01*
X1442Y849D02*
X1457Y849D01*
X691Y848D02*
X706Y848D01*
X742Y848D02*
X757Y848D01*
X1391Y848D02*
X1406Y848D01*
X1442Y848D02*
X1457Y848D01*
X691Y847D02*
X707Y847D01*
X742Y847D02*
X757Y847D01*
X1391Y847D02*
X1407Y847D01*
X1442Y847D02*
X1457Y847D01*
X692Y846D02*
X707Y846D01*
X742Y846D02*
X757Y846D01*
X1391Y846D02*
X1407Y846D01*
X1442Y846D02*
X1457Y846D01*
X692Y845D02*
X707Y845D01*
X741Y845D02*
X757Y845D01*
X1392Y845D02*
X1407Y845D01*
X1441Y845D02*
X1457Y845D01*
X692Y844D02*
X708Y844D01*
X741Y844D02*
X757Y844D01*
X1392Y844D02*
X1408Y844D01*
X1441Y844D02*
X1456Y844D01*
X692Y843D02*
X709Y843D01*
X740Y843D02*
X756Y843D01*
X1392Y843D02*
X1409Y843D01*
X1440Y843D02*
X1456Y843D01*
X693Y842D02*
X709Y842D01*
X739Y842D02*
X756Y842D01*
X1393Y842D02*
X1409Y842D01*
X1439Y842D02*
X1456Y842D01*
X693Y841D02*
X710Y841D01*
X739Y841D02*
X756Y841D01*
X1393Y841D02*
X1410Y841D01*
X1438Y841D02*
X1455Y841D01*
X693Y840D02*
X711Y840D01*
X738Y840D02*
X755Y840D01*
X1393Y840D02*
X1411Y840D01*
X1438Y840D02*
X1455Y840D01*
X694Y839D02*
X712Y839D01*
X737Y839D02*
X755Y839D01*
X1394Y839D02*
X1412Y839D01*
X1436Y839D02*
X1455Y839D01*
X694Y838D02*
X714Y838D01*
X735Y838D02*
X754Y838D01*
X1394Y838D02*
X1414Y838D01*
X1435Y838D02*
X1454Y838D01*
X695Y837D02*
X715Y837D01*
X734Y837D02*
X754Y837D01*
X1395Y837D02*
X1415Y837D01*
X1434Y837D02*
X1454Y837D01*
X695Y836D02*
X718Y836D01*
X731Y836D02*
X753Y836D01*
X1395Y836D02*
X1417Y836D01*
X1431Y836D02*
X1453Y836D01*
X696Y835D02*
X753Y835D01*
X1396Y835D02*
X1453Y835D01*
X697Y834D02*
X752Y834D01*
X1396Y834D02*
X1452Y834D01*
X697Y833D02*
X752Y833D01*
X1397Y833D02*
X1451Y833D01*
X698Y832D02*
X751Y832D01*
X1398Y832D02*
X1451Y832D01*
X699Y831D02*
X750Y831D01*
X1399Y831D02*
X1450Y831D01*
X700Y830D02*
X749Y830D01*
X1400Y830D02*
X1449Y830D01*
X701Y829D02*
X748Y829D01*
X1400Y829D02*
X1448Y829D01*
X702Y828D02*
X747Y828D01*
X1402Y828D02*
X1447Y828D01*
X703Y827D02*
X746Y827D01*
X1403Y827D02*
X1446Y827D01*
X704Y826D02*
X745Y826D01*
X1404Y826D02*
X1445Y826D01*
X706Y825D02*
X743Y825D01*
X1405Y825D02*
X1443Y825D01*
X707Y824D02*
X742Y824D01*
X1407Y824D02*
X1442Y824D01*
X709Y823D02*
X740Y823D01*
X1409Y823D02*
X1440Y823D01*
X711Y822D02*
X738Y822D01*
X1411Y822D02*
X1438Y822D01*
X714Y821D02*
X735Y821D01*
X1414Y821D02*
X1435Y821D01*
X717Y820D02*
X732Y820D01*
X1417Y820D02*
X1432Y820D01*
X1424Y819D02*
X1424Y819D01*
X717Y786D02*
X732Y786D01*
X1417Y786D02*
X1431Y786D01*
X714Y785D02*
X735Y785D01*
X1414Y785D02*
X1435Y785D01*
X711Y784D02*
X738Y784D01*
X1411Y784D02*
X1437Y784D01*
X709Y783D02*
X740Y783D01*
X1409Y783D02*
X1439Y783D01*
X708Y782D02*
X741Y782D01*
X1407Y782D02*
X1441Y782D01*
X706Y781D02*
X743Y781D01*
X1406Y781D02*
X1443Y781D01*
X705Y780D02*
X744Y780D01*
X1404Y780D02*
X1444Y780D01*
X703Y779D02*
X746Y779D01*
X1403Y779D02*
X1446Y779D01*
X702Y778D02*
X747Y778D01*
X1402Y778D02*
X1447Y778D01*
X701Y777D02*
X748Y777D01*
X1401Y777D02*
X1448Y777D01*
X700Y776D02*
X749Y776D01*
X1400Y776D02*
X1449Y776D01*
X699Y775D02*
X750Y775D01*
X1399Y775D02*
X1450Y775D01*
X698Y774D02*
X751Y774D01*
X1398Y774D02*
X1450Y774D01*
X698Y773D02*
X751Y773D01*
X1397Y773D02*
X1451Y773D01*
X697Y772D02*
X752Y772D01*
X1397Y772D02*
X1452Y772D01*
X696Y771D02*
X753Y771D01*
X1396Y771D02*
X1452Y771D01*
X696Y770D02*
X718Y770D01*
X731Y770D02*
X753Y770D01*
X1396Y770D02*
X1418Y770D01*
X1431Y770D02*
X1453Y770D01*
X695Y769D02*
X716Y769D01*
X733Y769D02*
X754Y769D01*
X1395Y769D02*
X1416Y769D01*
X1433Y769D02*
X1454Y769D01*
X695Y768D02*
X714Y768D01*
X735Y768D02*
X754Y768D01*
X1394Y768D02*
X1414Y768D01*
X1435Y768D02*
X1454Y768D01*
X694Y767D02*
X713Y767D01*
X736Y767D02*
X755Y767D01*
X1394Y767D02*
X1413Y767D01*
X1436Y767D02*
X1454Y767D01*
X694Y766D02*
X712Y766D01*
X737Y766D02*
X755Y766D01*
X1394Y766D02*
X1412Y766D01*
X1437Y766D02*
X1455Y766D01*
X693Y765D02*
X711Y765D01*
X738Y765D02*
X755Y765D01*
X1393Y765D02*
X1411Y765D01*
X1438Y765D02*
X1455Y765D01*
X693Y764D02*
X710Y764D01*
X739Y764D02*
X756Y764D01*
X1393Y764D02*
X1410Y764D01*
X1439Y764D02*
X1456Y764D01*
X693Y763D02*
X709Y763D01*
X740Y763D02*
X756Y763D01*
X1392Y763D02*
X1409Y763D01*
X1440Y763D02*
X1456Y763D01*
X692Y762D02*
X708Y762D01*
X740Y762D02*
X756Y762D01*
X1392Y762D02*
X1408Y762D01*
X1440Y762D02*
X1456Y762D01*
X692Y761D02*
X708Y761D01*
X741Y761D02*
X757Y761D01*
X1392Y761D02*
X1408Y761D01*
X1441Y761D02*
X1457Y761D01*
X692Y760D02*
X707Y760D01*
X742Y760D02*
X757Y760D01*
X1392Y760D02*
X1407Y760D01*
X1441Y760D02*
X1457Y760D01*
X691Y759D02*
X707Y759D01*
X742Y759D02*
X757Y759D01*
X1391Y759D02*
X1407Y759D01*
X1442Y759D02*
X1457Y759D01*
X691Y758D02*
X707Y758D01*
X742Y758D02*
X757Y758D01*
X1391Y758D02*
X1406Y758D01*
X1442Y758D02*
X1457Y758D01*
X691Y757D02*
X706Y757D01*
X742Y757D02*
X757Y757D01*
X1391Y757D02*
X1406Y757D01*
X1442Y757D02*
X1457Y757D01*
X691Y756D02*
X706Y756D01*
X743Y756D02*
X758Y756D01*
X1391Y756D02*
X1406Y756D01*
X1442Y756D02*
X1457Y756D01*
X691Y755D02*
X706Y755D01*
X743Y755D02*
X758Y755D01*
X1391Y755D02*
X1406Y755D01*
X1442Y755D02*
X1458Y755D01*
X691Y754D02*
X706Y754D01*
X743Y754D02*
X758Y754D01*
X1391Y754D02*
X1406Y754D01*
X1443Y754D02*
X1458Y754D01*
X691Y753D02*
X706Y753D01*
X743Y753D02*
X758Y753D01*
X1391Y753D02*
X1406Y753D01*
X1443Y753D02*
X1458Y753D01*
X691Y752D02*
X706Y752D01*
X743Y752D02*
X758Y752D01*
X1391Y752D02*
X1406Y752D01*
X1443Y752D02*
X1458Y752D01*
X691Y751D02*
X706Y751D01*
X743Y751D02*
X758Y751D01*
X1391Y751D02*
X1406Y751D01*
X1443Y751D02*
X1458Y751D01*
X691Y750D02*
X706Y750D01*
X743Y750D02*
X758Y750D01*
X1391Y750D02*
X1406Y750D01*
X1442Y750D02*
X1457Y750D01*
X691Y749D02*
X706Y749D01*
X742Y749D02*
X758Y749D01*
X1391Y749D02*
X1406Y749D01*
X1442Y749D02*
X1457Y749D01*
X691Y748D02*
X706Y748D01*
X742Y748D02*
X757Y748D01*
X1391Y748D02*
X1406Y748D01*
X1442Y748D02*
X1457Y748D01*
X691Y747D02*
X707Y747D01*
X742Y747D02*
X757Y747D01*
X1391Y747D02*
X1407Y747D01*
X1442Y747D02*
X1457Y747D01*
X692Y746D02*
X707Y746D01*
X742Y746D02*
X757Y746D01*
X1391Y746D02*
X1407Y746D01*
X1442Y746D02*
X1457Y746D01*
X692Y745D02*
X708Y745D01*
X741Y745D02*
X757Y745D01*
X1392Y745D02*
X1407Y745D01*
X1441Y745D02*
X1457Y745D01*
X692Y744D02*
X708Y744D01*
X741Y744D02*
X757Y744D01*
X1392Y744D02*
X1408Y744D01*
X1441Y744D02*
X1456Y744D01*
X692Y743D02*
X709Y743D01*
X740Y743D02*
X756Y743D01*
X1392Y743D02*
X1409Y743D01*
X1440Y743D02*
X1456Y743D01*
X693Y742D02*
X709Y742D01*
X739Y742D02*
X756Y742D01*
X1393Y742D02*
X1409Y742D01*
X1439Y742D02*
X1456Y742D01*
X693Y741D02*
X710Y741D01*
X739Y741D02*
X756Y741D01*
X1393Y741D02*
X1410Y741D01*
X1438Y741D02*
X1455Y741D01*
X694Y740D02*
X711Y740D01*
X738Y740D02*
X755Y740D01*
X1393Y740D02*
X1411Y740D01*
X1438Y740D02*
X1455Y740D01*
X694Y739D02*
X712Y739D01*
X737Y739D02*
X755Y739D01*
X1394Y739D02*
X1412Y739D01*
X1436Y739D02*
X1455Y739D01*
X694Y738D02*
X714Y738D01*
X735Y738D02*
X754Y738D01*
X1394Y738D02*
X1414Y738D01*
X1435Y738D02*
X1454Y738D01*
X695Y737D02*
X715Y737D01*
X734Y737D02*
X754Y737D01*
X1395Y737D02*
X1415Y737D01*
X1433Y737D02*
X1454Y737D01*
X695Y736D02*
X718Y736D01*
X731Y736D02*
X753Y736D01*
X1395Y736D02*
X1418Y736D01*
X1431Y736D02*
X1453Y736D01*
X696Y735D02*
X753Y735D01*
X1396Y735D02*
X1453Y735D01*
X697Y734D02*
X752Y734D01*
X1397Y734D02*
X1452Y734D01*
X697Y733D02*
X752Y733D01*
X1397Y733D02*
X1451Y733D01*
X698Y732D02*
X751Y732D01*
X1398Y732D02*
X1451Y732D01*
X699Y731D02*
X750Y731D01*
X1399Y731D02*
X1450Y731D01*
X700Y730D02*
X749Y730D01*
X1400Y730D02*
X1449Y730D01*
X701Y729D02*
X748Y729D01*
X1401Y729D02*
X1448Y729D01*
X702Y728D02*
X747Y728D01*
X1402Y728D02*
X1447Y728D01*
X703Y727D02*
X746Y727D01*
X1403Y727D02*
X1446Y727D01*
X704Y726D02*
X745Y726D01*
X1404Y726D02*
X1445Y726D01*
X706Y725D02*
X743Y725D01*
X1405Y725D02*
X1443Y725D01*
X707Y724D02*
X742Y724D01*
X1407Y724D02*
X1442Y724D01*
X709Y723D02*
X740Y723D01*
X1409Y723D02*
X1440Y723D01*
X711Y722D02*
X738Y722D01*
X1411Y722D02*
X1438Y722D01*
X714Y721D02*
X735Y721D01*
X1414Y721D02*
X1435Y721D01*
X717Y720D02*
X732Y720D01*
X1417Y720D02*
X1431Y720D01*
X724Y687D02*
X725Y687D01*
X1424Y687D02*
X1425Y687D01*
X717Y686D02*
X732Y686D01*
X1417Y686D02*
X1432Y686D01*
X714Y685D02*
X735Y685D01*
X1414Y685D02*
X1435Y685D01*
X711Y684D02*
X738Y684D01*
X1411Y684D02*
X1437Y684D01*
X709Y683D02*
X740Y683D01*
X1409Y683D02*
X1440Y683D01*
X708Y682D02*
X741Y682D01*
X1407Y682D02*
X1441Y682D01*
X706Y681D02*
X743Y681D01*
X1406Y681D02*
X1443Y681D01*
X705Y680D02*
X744Y680D01*
X1404Y680D02*
X1444Y680D01*
X703Y679D02*
X746Y679D01*
X1403Y679D02*
X1446Y679D01*
X702Y678D02*
X747Y678D01*
X1402Y678D02*
X1447Y678D01*
X701Y677D02*
X748Y677D01*
X1401Y677D02*
X1448Y677D01*
X700Y676D02*
X749Y676D01*
X1400Y676D02*
X1449Y676D01*
X699Y675D02*
X750Y675D01*
X1399Y675D02*
X1450Y675D01*
X698Y674D02*
X751Y674D01*
X1398Y674D02*
X1450Y674D01*
X698Y673D02*
X751Y673D01*
X1397Y673D02*
X1451Y673D01*
X697Y672D02*
X752Y672D01*
X1397Y672D02*
X1452Y672D01*
X696Y671D02*
X723Y671D01*
X725Y671D02*
X753Y671D01*
X1396Y671D02*
X1423Y671D01*
X1425Y671D02*
X1452Y671D01*
X696Y670D02*
X718Y670D01*
X731Y670D02*
X753Y670D01*
X1396Y670D02*
X1418Y670D01*
X1431Y670D02*
X1453Y670D01*
X695Y669D02*
X716Y669D01*
X733Y669D02*
X754Y669D01*
X1395Y669D02*
X1415Y669D01*
X1433Y669D02*
X1454Y669D01*
X695Y668D02*
X714Y668D01*
X735Y668D02*
X754Y668D01*
X1394Y668D02*
X1414Y668D01*
X1435Y668D02*
X1454Y668D01*
X694Y667D02*
X713Y667D01*
X736Y667D02*
X755Y667D01*
X1394Y667D02*
X1413Y667D01*
X1436Y667D02*
X1454Y667D01*
X694Y666D02*
X712Y666D01*
X737Y666D02*
X755Y666D01*
X1394Y666D02*
X1411Y666D01*
X1437Y666D02*
X1455Y666D01*
X693Y665D02*
X711Y665D01*
X738Y665D02*
X755Y665D01*
X1393Y665D02*
X1411Y665D01*
X1438Y665D02*
X1455Y665D01*
X693Y664D02*
X710Y664D01*
X739Y664D02*
X756Y664D01*
X1393Y664D02*
X1410Y664D01*
X1439Y664D02*
X1456Y664D01*
X692Y663D02*
X709Y663D01*
X740Y663D02*
X756Y663D01*
X1392Y663D02*
X1409Y663D01*
X1440Y663D02*
X1456Y663D01*
X692Y662D02*
X708Y662D01*
X740Y662D02*
X756Y662D01*
X1392Y662D02*
X1408Y662D01*
X1440Y662D02*
X1456Y662D01*
X692Y661D02*
X708Y661D01*
X741Y661D02*
X757Y661D01*
X1392Y661D02*
X1408Y661D01*
X1441Y661D02*
X1457Y661D01*
X692Y660D02*
X707Y660D01*
X742Y660D02*
X757Y660D01*
X1392Y660D02*
X1407Y660D01*
X1441Y660D02*
X1457Y660D01*
X691Y659D02*
X707Y659D01*
X742Y659D02*
X757Y659D01*
X1391Y659D02*
X1407Y659D01*
X1442Y659D02*
X1457Y659D01*
X691Y658D02*
X707Y658D01*
X742Y658D02*
X757Y658D01*
X1391Y658D02*
X1406Y658D01*
X1442Y658D02*
X1457Y658D01*
X691Y657D02*
X706Y657D01*
X742Y657D02*
X757Y657D01*
X1391Y657D02*
X1406Y657D01*
X1442Y657D02*
X1457Y657D01*
X691Y656D02*
X706Y656D01*
X743Y656D02*
X758Y656D01*
X1391Y656D02*
X1406Y656D01*
X1442Y656D02*
X1457Y656D01*
X691Y655D02*
X706Y655D01*
X743Y655D02*
X758Y655D01*
X1391Y655D02*
X1406Y655D01*
X1442Y655D02*
X1458Y655D01*
X691Y654D02*
X706Y654D01*
X743Y654D02*
X758Y654D01*
X1391Y654D02*
X1406Y654D01*
X1443Y654D02*
X1458Y654D01*
X691Y653D02*
X706Y653D01*
X743Y653D02*
X758Y653D01*
X1391Y653D02*
X1406Y653D01*
X1443Y653D02*
X1458Y653D01*
X691Y652D02*
X706Y652D01*
X743Y652D02*
X758Y652D01*
X1391Y652D02*
X1406Y652D01*
X1443Y652D02*
X1458Y652D01*
X691Y651D02*
X706Y651D01*
X743Y651D02*
X758Y651D01*
X1391Y651D02*
X1406Y651D01*
X1442Y651D02*
X1458Y651D01*
X691Y650D02*
X706Y650D01*
X743Y650D02*
X758Y650D01*
X1391Y650D02*
X1406Y650D01*
X1442Y650D02*
X1457Y650D01*
X691Y649D02*
X706Y649D01*
X742Y649D02*
X758Y649D01*
X1391Y649D02*
X1406Y649D01*
X1442Y649D02*
X1457Y649D01*
X691Y648D02*
X706Y648D01*
X742Y648D02*
X757Y648D01*
X1391Y648D02*
X1406Y648D01*
X1442Y648D02*
X1457Y648D01*
X691Y647D02*
X707Y647D01*
X742Y647D02*
X757Y647D01*
X1391Y647D02*
X1407Y647D01*
X1442Y647D02*
X1457Y647D01*
X692Y646D02*
X707Y646D01*
X742Y646D02*
X757Y646D01*
X1391Y646D02*
X1407Y646D01*
X1442Y646D02*
X1457Y646D01*
X692Y645D02*
X708Y645D01*
X741Y645D02*
X757Y645D01*
X1392Y645D02*
X1407Y645D01*
X1441Y645D02*
X1457Y645D01*
X692Y644D02*
X708Y644D01*
X741Y644D02*
X757Y644D01*
X1392Y644D02*
X1408Y644D01*
X1441Y644D02*
X1456Y644D01*
X692Y643D02*
X709Y643D01*
X740Y643D02*
X756Y643D01*
X1392Y643D02*
X1409Y643D01*
X1440Y643D02*
X1456Y643D01*
X693Y642D02*
X710Y642D01*
X739Y642D02*
X756Y642D01*
X1393Y642D02*
X1409Y642D01*
X1439Y642D02*
X1456Y642D01*
X693Y641D02*
X710Y641D01*
X739Y641D02*
X756Y641D01*
X1393Y641D02*
X1410Y641D01*
X1438Y641D02*
X1455Y641D01*
X694Y640D02*
X711Y640D01*
X738Y640D02*
X755Y640D01*
X1393Y640D02*
X1411Y640D01*
X1437Y640D02*
X1455Y640D01*
X694Y639D02*
X713Y639D01*
X736Y639D02*
X755Y639D01*
X1394Y639D02*
X1412Y639D01*
X1436Y639D02*
X1455Y639D01*
X694Y638D02*
X714Y638D01*
X735Y638D02*
X754Y638D01*
X1394Y638D02*
X1414Y638D01*
X1435Y638D02*
X1454Y638D01*
X695Y637D02*
X715Y637D01*
X734Y637D02*
X754Y637D01*
X1395Y637D02*
X1415Y637D01*
X1433Y637D02*
X1454Y637D01*
X695Y636D02*
X718Y636D01*
X731Y636D02*
X753Y636D01*
X1395Y636D02*
X1418Y636D01*
X1431Y636D02*
X1453Y636D01*
X696Y635D02*
X753Y635D01*
X1396Y635D02*
X1453Y635D01*
X697Y634D02*
X752Y634D01*
X1397Y634D02*
X1452Y634D01*
X697Y633D02*
X751Y633D01*
X1397Y633D02*
X1451Y633D01*
X698Y632D02*
X751Y632D01*
X1398Y632D02*
X1451Y632D01*
X699Y631D02*
X750Y631D01*
X1399Y631D02*
X1450Y631D01*
X700Y630D02*
X749Y630D01*
X1400Y630D02*
X1449Y630D01*
X701Y629D02*
X748Y629D01*
X1401Y629D02*
X1448Y629D01*
X702Y628D02*
X747Y628D01*
X1402Y628D02*
X1447Y628D01*
X703Y627D02*
X746Y627D01*
X1403Y627D02*
X1446Y627D01*
X704Y626D02*
X745Y626D01*
X1404Y626D02*
X1445Y626D01*
X706Y625D02*
X743Y625D01*
X1406Y625D02*
X1443Y625D01*
X707Y624D02*
X742Y624D01*
X1407Y624D02*
X1442Y624D01*
X709Y623D02*
X740Y623D01*
X1409Y623D02*
X1440Y623D01*
X711Y622D02*
X738Y622D01*
X1411Y622D02*
X1438Y622D01*
X714Y621D02*
X735Y621D01*
X1414Y621D02*
X1435Y621D01*
X717Y620D02*
X731Y620D01*
X1417Y620D02*
X1431Y620D01*
X723Y587D02*
X725Y587D01*
X1423Y587D02*
X1425Y587D01*
X717Y586D02*
X732Y586D01*
X1417Y586D02*
X1432Y586D01*
X714Y585D02*
X735Y585D01*
X1414Y585D02*
X1435Y585D01*
X711Y584D02*
X738Y584D01*
X1411Y584D02*
X1438Y584D01*
X709Y583D02*
X740Y583D01*
X1409Y583D02*
X1440Y583D01*
X707Y582D02*
X742Y582D01*
X1407Y582D02*
X1441Y582D01*
X706Y581D02*
X743Y581D01*
X1406Y581D02*
X1443Y581D01*
X704Y580D02*
X745Y580D01*
X1404Y580D02*
X1444Y580D01*
X703Y579D02*
X746Y579D01*
X1403Y579D02*
X1446Y579D01*
X702Y578D02*
X747Y578D01*
X1402Y578D02*
X1447Y578D01*
X701Y577D02*
X748Y577D01*
X1401Y577D02*
X1448Y577D01*
X700Y576D02*
X749Y576D01*
X1400Y576D02*
X1449Y576D01*
X699Y575D02*
X750Y575D01*
X1399Y575D02*
X1450Y575D01*
X698Y574D02*
X751Y574D01*
X1398Y574D02*
X1450Y574D01*
X698Y573D02*
X751Y573D01*
X1397Y573D02*
X1451Y573D01*
X697Y572D02*
X752Y572D01*
X1397Y572D02*
X1452Y572D01*
X696Y571D02*
X723Y571D01*
X726Y571D02*
X753Y571D01*
X1396Y571D02*
X1423Y571D01*
X1426Y571D02*
X1452Y571D01*
X696Y570D02*
X718Y570D01*
X731Y570D02*
X753Y570D01*
X1395Y570D02*
X1417Y570D01*
X1431Y570D02*
X1453Y570D01*
X695Y569D02*
X716Y569D01*
X733Y569D02*
X754Y569D01*
X1395Y569D02*
X1415Y569D01*
X1433Y569D02*
X1454Y569D01*
X695Y568D02*
X714Y568D01*
X735Y568D02*
X754Y568D01*
X1394Y568D02*
X1414Y568D01*
X1435Y568D02*
X1454Y568D01*
X694Y567D02*
X713Y567D01*
X736Y567D02*
X755Y567D01*
X1394Y567D02*
X1413Y567D01*
X1436Y567D02*
X1455Y567D01*
X694Y566D02*
X712Y566D01*
X737Y566D02*
X755Y566D01*
X1393Y566D02*
X1411Y566D01*
X1437Y566D02*
X1455Y566D01*
X693Y565D02*
X711Y565D01*
X738Y565D02*
X755Y565D01*
X1393Y565D02*
X1410Y565D01*
X1438Y565D02*
X1455Y565D01*
X693Y564D02*
X710Y564D01*
X739Y564D02*
X756Y564D01*
X1393Y564D02*
X1410Y564D01*
X1439Y564D02*
X1456Y564D01*
X692Y563D02*
X709Y563D01*
X740Y563D02*
X756Y563D01*
X1392Y563D02*
X1409Y563D01*
X1440Y563D02*
X1456Y563D01*
X692Y562D02*
X708Y562D01*
X741Y562D02*
X756Y562D01*
X1392Y562D02*
X1408Y562D01*
X1440Y562D02*
X1456Y562D01*
X692Y561D02*
X708Y561D01*
X741Y561D02*
X757Y561D01*
X1392Y561D02*
X1408Y561D01*
X1441Y561D02*
X1457Y561D01*
X692Y560D02*
X707Y560D01*
X742Y560D02*
X757Y560D01*
X1392Y560D02*
X1407Y560D01*
X1441Y560D02*
X1457Y560D01*
X691Y559D02*
X707Y559D01*
X742Y559D02*
X757Y559D01*
X1391Y559D02*
X1407Y559D01*
X1442Y559D02*
X1457Y559D01*
X691Y558D02*
X706Y558D01*
X742Y558D02*
X757Y558D01*
X1391Y558D02*
X1406Y558D01*
X1442Y558D02*
X1457Y558D01*
X691Y557D02*
X706Y557D01*
X742Y557D02*
X758Y557D01*
X1391Y557D02*
X1406Y557D01*
X1442Y557D02*
X1457Y557D01*
X691Y556D02*
X706Y556D01*
X743Y556D02*
X758Y556D01*
X1391Y556D02*
X1406Y556D01*
X1442Y556D02*
X1457Y556D01*
X691Y555D02*
X706Y555D01*
X743Y555D02*
X758Y555D01*
X1391Y555D02*
X1406Y555D01*
X1443Y555D02*
X1458Y555D01*
X691Y554D02*
X706Y554D01*
X743Y554D02*
X758Y554D01*
X1391Y554D02*
X1406Y554D01*
X1443Y554D02*
X1458Y554D01*
X691Y553D02*
X706Y553D01*
X743Y553D02*
X758Y553D01*
X1391Y553D02*
X1406Y553D01*
X1443Y553D02*
X1458Y553D01*
X691Y552D02*
X706Y552D01*
X743Y552D02*
X758Y552D01*
X1391Y552D02*
X1406Y552D01*
X1443Y552D02*
X1458Y552D01*
X691Y551D02*
X706Y551D01*
X743Y551D02*
X758Y551D01*
X1391Y551D02*
X1406Y551D01*
X1442Y551D02*
X1458Y551D01*
X691Y550D02*
X706Y550D01*
X743Y550D02*
X758Y550D01*
X1391Y550D02*
X1406Y550D01*
X1442Y550D02*
X1457Y550D01*
X691Y549D02*
X706Y549D01*
X742Y549D02*
X758Y549D01*
X1391Y549D02*
X1406Y549D01*
X1442Y549D02*
X1457Y549D01*
X691Y548D02*
X706Y548D01*
X742Y548D02*
X757Y548D01*
X1391Y548D02*
X1406Y548D01*
X1442Y548D02*
X1457Y548D01*
X691Y547D02*
X707Y547D01*
X742Y547D02*
X757Y547D01*
X1391Y547D02*
X1407Y547D01*
X1442Y547D02*
X1457Y547D01*
X692Y546D02*
X707Y546D01*
X742Y546D02*
X757Y546D01*
X1391Y546D02*
X1407Y546D01*
X1442Y546D02*
X1457Y546D01*
X692Y545D02*
X708Y545D01*
X741Y545D02*
X757Y545D01*
X1392Y545D02*
X1407Y545D01*
X1441Y545D02*
X1457Y545D01*
X692Y544D02*
X708Y544D01*
X741Y544D02*
X756Y544D01*
X1392Y544D02*
X1408Y544D01*
X1441Y544D02*
X1456Y544D01*
X692Y543D02*
X709Y543D01*
X740Y543D02*
X756Y543D01*
X1392Y543D02*
X1409Y543D01*
X1440Y543D02*
X1456Y543D01*
X693Y542D02*
X710Y542D01*
X739Y542D02*
X756Y542D01*
X1393Y542D02*
X1409Y542D01*
X1439Y542D02*
X1456Y542D01*
X693Y541D02*
X710Y541D01*
X738Y541D02*
X756Y541D01*
X1393Y541D02*
X1410Y541D01*
X1438Y541D02*
X1455Y541D01*
X694Y540D02*
X711Y540D01*
X738Y540D02*
X755Y540D01*
X1393Y540D02*
X1411Y540D01*
X1437Y540D02*
X1455Y540D01*
X694Y539D02*
X713Y539D01*
X736Y539D02*
X755Y539D01*
X1394Y539D02*
X1412Y539D01*
X1436Y539D02*
X1455Y539D01*
X694Y538D02*
X714Y538D01*
X735Y538D02*
X754Y538D01*
X1394Y538D02*
X1414Y538D01*
X1435Y538D02*
X1454Y538D01*
X695Y537D02*
X716Y537D01*
X733Y537D02*
X754Y537D01*
X1395Y537D02*
X1415Y537D01*
X1433Y537D02*
X1454Y537D01*
X695Y536D02*
X718Y536D01*
X731Y536D02*
X753Y536D01*
X1395Y536D02*
X1418Y536D01*
X1431Y536D02*
X1453Y536D01*
X696Y535D02*
X753Y535D01*
X1396Y535D02*
X1453Y535D01*
X697Y534D02*
X752Y534D01*
X1397Y534D02*
X1452Y534D01*
X697Y533D02*
X751Y533D01*
X1397Y533D02*
X1451Y533D01*
X698Y532D02*
X751Y532D01*
X1398Y532D02*
X1451Y532D01*
X699Y531D02*
X750Y531D01*
X1399Y531D02*
X1450Y531D01*
X700Y530D02*
X749Y530D01*
X1400Y530D02*
X1449Y530D01*
X701Y529D02*
X748Y529D01*
X1401Y529D02*
X1448Y529D01*
X702Y528D02*
X747Y528D01*
X1402Y528D02*
X1447Y528D01*
X703Y527D02*
X746Y527D01*
X1403Y527D02*
X1446Y527D01*
X704Y526D02*
X745Y526D01*
X1404Y526D02*
X1445Y526D01*
X706Y525D02*
X743Y525D01*
X1406Y525D02*
X1443Y525D01*
X707Y524D02*
X742Y524D01*
X1407Y524D02*
X1441Y524D01*
X709Y523D02*
X740Y523D01*
X1409Y523D02*
X1440Y523D01*
X711Y522D02*
X738Y522D01*
X1411Y522D02*
X1437Y522D01*
X714Y521D02*
X735Y521D01*
X1414Y521D02*
X1435Y521D01*
X718Y520D02*
X731Y520D01*
X1417Y520D02*
X1431Y520D01*
D02*
G04 End of Copper0*
M02*