G04 MADE WITH FRITZING*
G04 WWW.FRITZING.ORG*
G04 DOUBLE SIDED*
G04 HOLES PLATED*
G04 CONTOUR ON CENTER OF CONTOUR VECTOR*
%ASAXBY*%
%FSLAX23Y23*%
%MOIN*%
%OFA0B0*%
%SFA1.0B1.0*%
%ADD10C,0.092000*%
%ADD11C,0.088000*%
%ADD12C,0.090000*%
%ADD13C,0.080000*%
%ADD14C,0.135984*%
%ADD15C,0.085000*%
%ADD16R,0.092000X0.092000*%
%ADD17R,0.090000X0.090000*%
%ADD18R,0.080000X0.080000*%
%ADD19R,0.085000X0.085000*%
%ADD20C,0.030000*%
%ADD21R,0.001000X0.001000*%
%LNMASK0*%
G90*
G70*
G54D10*
X2725Y552D03*
X2825Y552D03*
X2925Y552D03*
G54D11*
X1575Y1352D03*
X1575Y1452D03*
X1575Y1552D03*
X1575Y1652D03*
X125Y552D03*
X125Y452D03*
X125Y352D03*
X125Y552D03*
X125Y452D03*
X125Y352D03*
X225Y352D03*
X225Y452D03*
X225Y552D03*
G54D10*
X2525Y1402D03*
X2525Y1104D03*
G54D12*
X325Y802D03*
X325Y1002D03*
X325Y1202D03*
X325Y1402D03*
G54D13*
X1725Y1252D03*
X2225Y1252D03*
X1725Y1152D03*
X2225Y1152D03*
X1725Y1052D03*
X2225Y1052D03*
X1725Y952D03*
X2225Y952D03*
X1725Y852D03*
X2225Y852D03*
X1725Y752D03*
X2225Y752D03*
X1725Y652D03*
X2225Y652D03*
X1725Y552D03*
X2225Y552D03*
G54D11*
X2525Y202D03*
X2425Y202D03*
X2325Y202D03*
X2225Y202D03*
G54D12*
X2825Y1402D03*
X2825Y1202D03*
G54D14*
X125Y122D03*
X3025Y122D03*
X125Y1752D03*
X3025Y1752D03*
G54D15*
X2775Y882D03*
X2875Y882D03*
G54D11*
X1075Y70D03*
X975Y70D03*
X875Y70D03*
X775Y70D03*
X675Y70D03*
X575Y70D03*
X475Y70D03*
X375Y70D03*
X1575Y69D03*
X1475Y69D03*
X1375Y69D03*
X1275Y69D03*
G54D16*
X2725Y552D03*
X2525Y1403D03*
G54D17*
X325Y802D03*
G54D18*
X2225Y552D03*
X2225Y1152D03*
G54D17*
X2825Y1402D03*
G54D19*
X2775Y882D03*
G54D20*
G36*
X295Y1172D02*
X295Y1232D01*
X355Y1232D01*
X355Y1172D01*
X295Y1172D01*
G37*
D02*
G54D21*
X719Y1691D02*
X730Y1691D01*
X1419Y1691D02*
X1430Y1691D01*
X715Y1690D02*
X735Y1690D01*
X1414Y1690D02*
X1435Y1690D01*
X712Y1689D02*
X738Y1689D01*
X1412Y1689D02*
X1438Y1689D01*
X709Y1688D02*
X740Y1688D01*
X1409Y1688D02*
X1440Y1688D01*
X707Y1687D02*
X742Y1687D01*
X1407Y1687D02*
X1442Y1687D01*
X705Y1686D02*
X744Y1686D01*
X1405Y1686D02*
X1444Y1686D01*
X704Y1685D02*
X746Y1685D01*
X1403Y1685D02*
X1445Y1685D01*
X702Y1684D02*
X747Y1684D01*
X1402Y1684D02*
X1447Y1684D01*
X701Y1683D02*
X748Y1683D01*
X1401Y1683D02*
X1448Y1683D01*
X699Y1682D02*
X750Y1682D01*
X1399Y1682D02*
X1449Y1682D01*
X698Y1681D02*
X751Y1681D01*
X1398Y1681D02*
X1450Y1681D01*
X697Y1680D02*
X752Y1680D01*
X1397Y1680D02*
X1452Y1680D01*
X696Y1679D02*
X753Y1679D01*
X1396Y1679D02*
X1452Y1679D01*
X695Y1678D02*
X753Y1678D01*
X1395Y1678D02*
X1453Y1678D01*
X695Y1677D02*
X754Y1677D01*
X1395Y1677D02*
X1454Y1677D01*
X694Y1676D02*
X755Y1676D01*
X1394Y1676D02*
X1455Y1676D01*
X693Y1675D02*
X756Y1675D01*
X1393Y1675D02*
X1456Y1675D01*
X693Y1674D02*
X756Y1674D01*
X1392Y1674D02*
X1456Y1674D01*
X692Y1673D02*
X757Y1673D01*
X1392Y1673D02*
X1457Y1673D01*
X691Y1672D02*
X757Y1672D01*
X1391Y1672D02*
X1457Y1672D01*
X691Y1671D02*
X758Y1671D01*
X1391Y1671D02*
X1458Y1671D01*
X690Y1670D02*
X758Y1670D01*
X1390Y1670D02*
X1458Y1670D01*
X690Y1669D02*
X759Y1669D01*
X1390Y1669D02*
X1459Y1669D01*
X689Y1668D02*
X759Y1668D01*
X1389Y1668D02*
X1459Y1668D01*
X689Y1667D02*
X760Y1667D01*
X1389Y1667D02*
X1460Y1667D01*
X689Y1666D02*
X760Y1666D01*
X1388Y1666D02*
X1460Y1666D01*
X688Y1665D02*
X761Y1665D01*
X1388Y1665D02*
X1460Y1665D01*
X688Y1664D02*
X761Y1664D01*
X1388Y1664D02*
X1461Y1664D01*
X687Y1663D02*
X761Y1663D01*
X1387Y1663D02*
X1461Y1663D01*
X687Y1662D02*
X761Y1662D01*
X1387Y1662D02*
X1461Y1662D01*
X687Y1661D02*
X762Y1661D01*
X1387Y1661D02*
X1462Y1661D01*
X687Y1660D02*
X762Y1660D01*
X1387Y1660D02*
X1462Y1660D01*
X686Y1659D02*
X762Y1659D01*
X1386Y1659D02*
X1462Y1659D01*
X686Y1658D02*
X762Y1658D01*
X1386Y1658D02*
X1462Y1658D01*
X686Y1657D02*
X762Y1657D01*
X1386Y1657D02*
X1462Y1657D01*
X686Y1656D02*
X763Y1656D01*
X1386Y1656D02*
X1462Y1656D01*
X686Y1655D02*
X763Y1655D01*
X1386Y1655D02*
X1463Y1655D01*
X686Y1654D02*
X763Y1654D01*
X1386Y1654D02*
X1463Y1654D01*
X686Y1653D02*
X763Y1653D01*
X1386Y1653D02*
X1463Y1653D01*
X686Y1652D02*
X763Y1652D01*
X1386Y1652D02*
X1463Y1652D01*
X686Y1651D02*
X763Y1651D01*
X1386Y1651D02*
X1463Y1651D01*
X686Y1650D02*
X763Y1650D01*
X1386Y1650D02*
X1463Y1650D01*
X686Y1649D02*
X763Y1649D01*
X1386Y1649D02*
X1462Y1649D01*
X686Y1648D02*
X762Y1648D01*
X1386Y1648D02*
X1462Y1648D01*
X686Y1647D02*
X762Y1647D01*
X1386Y1647D02*
X1462Y1647D01*
X686Y1646D02*
X762Y1646D01*
X1386Y1646D02*
X1462Y1646D01*
X687Y1645D02*
X762Y1645D01*
X1386Y1645D02*
X1462Y1645D01*
X687Y1644D02*
X762Y1644D01*
X1387Y1644D02*
X1462Y1644D01*
X687Y1643D02*
X761Y1643D01*
X1387Y1643D02*
X1461Y1643D01*
X687Y1642D02*
X761Y1642D01*
X1387Y1642D02*
X1461Y1642D01*
X688Y1641D02*
X761Y1641D01*
X1387Y1641D02*
X1461Y1641D01*
X688Y1640D02*
X761Y1640D01*
X1388Y1640D02*
X1460Y1640D01*
X688Y1639D02*
X760Y1639D01*
X1388Y1639D02*
X1460Y1639D01*
X689Y1638D02*
X760Y1638D01*
X1389Y1638D02*
X1460Y1638D01*
X689Y1637D02*
X759Y1637D01*
X1389Y1637D02*
X1459Y1637D01*
X690Y1636D02*
X759Y1636D01*
X1389Y1636D02*
X1459Y1636D01*
X690Y1635D02*
X759Y1635D01*
X1390Y1635D02*
X1458Y1635D01*
X691Y1634D02*
X758Y1634D01*
X1390Y1634D02*
X1458Y1634D01*
X691Y1633D02*
X758Y1633D01*
X1391Y1633D02*
X1457Y1633D01*
X692Y1632D02*
X757Y1632D01*
X1392Y1632D02*
X1457Y1632D01*
X692Y1631D02*
X756Y1631D01*
X1392Y1631D02*
X1456Y1631D01*
X693Y1630D02*
X756Y1630D01*
X1393Y1630D02*
X1456Y1630D01*
X694Y1629D02*
X755Y1629D01*
X1394Y1629D02*
X1455Y1629D01*
X695Y1628D02*
X754Y1628D01*
X1394Y1628D02*
X1454Y1628D01*
X695Y1627D02*
X754Y1627D01*
X1395Y1627D02*
X1453Y1627D01*
X696Y1626D02*
X753Y1626D01*
X1396Y1626D02*
X1452Y1626D01*
X697Y1625D02*
X752Y1625D01*
X1397Y1625D02*
X1452Y1625D01*
X698Y1624D02*
X751Y1624D01*
X1398Y1624D02*
X1451Y1624D01*
X699Y1623D02*
X750Y1623D01*
X1399Y1623D02*
X1449Y1623D01*
X701Y1622D02*
X748Y1622D01*
X1401Y1622D02*
X1448Y1622D01*
X702Y1621D02*
X747Y1621D01*
X1402Y1621D02*
X1447Y1621D01*
X704Y1620D02*
X745Y1620D01*
X1404Y1620D02*
X1445Y1620D01*
X705Y1619D02*
X744Y1619D01*
X1405Y1619D02*
X1443Y1619D01*
X707Y1618D02*
X742Y1618D01*
X1407Y1618D02*
X1441Y1618D01*
X710Y1617D02*
X739Y1617D01*
X1409Y1617D02*
X1439Y1617D01*
X712Y1616D02*
X737Y1616D01*
X1412Y1616D02*
X1437Y1616D01*
X716Y1615D02*
X733Y1615D01*
X1415Y1615D02*
X1433Y1615D01*
X720Y1614D02*
X728Y1614D01*
X1420Y1614D02*
X1428Y1614D01*
X719Y1591D02*
X731Y1591D01*
X1418Y1591D02*
X1430Y1591D01*
X715Y1590D02*
X735Y1590D01*
X1414Y1590D02*
X1435Y1590D01*
X712Y1589D02*
X738Y1589D01*
X1411Y1589D02*
X1438Y1589D01*
X709Y1588D02*
X740Y1588D01*
X1409Y1588D02*
X1440Y1588D01*
X707Y1587D02*
X742Y1587D01*
X1407Y1587D02*
X1442Y1587D01*
X705Y1586D02*
X744Y1586D01*
X1405Y1586D02*
X1444Y1586D01*
X704Y1585D02*
X746Y1585D01*
X1403Y1585D02*
X1445Y1585D01*
X702Y1584D02*
X747Y1584D01*
X1402Y1584D02*
X1447Y1584D01*
X701Y1583D02*
X748Y1583D01*
X1401Y1583D02*
X1448Y1583D01*
X699Y1582D02*
X750Y1582D01*
X1399Y1582D02*
X1449Y1582D01*
X698Y1581D02*
X751Y1581D01*
X1398Y1581D02*
X1451Y1581D01*
X697Y1580D02*
X752Y1580D01*
X1397Y1580D02*
X1452Y1580D01*
X696Y1579D02*
X753Y1579D01*
X1396Y1579D02*
X1452Y1579D01*
X695Y1578D02*
X753Y1578D01*
X1395Y1578D02*
X1453Y1578D01*
X695Y1577D02*
X754Y1577D01*
X1395Y1577D02*
X1454Y1577D01*
X694Y1576D02*
X755Y1576D01*
X1394Y1576D02*
X1455Y1576D01*
X693Y1575D02*
X756Y1575D01*
X1393Y1575D02*
X1456Y1575D01*
X693Y1574D02*
X756Y1574D01*
X1392Y1574D02*
X1456Y1574D01*
X692Y1573D02*
X757Y1573D01*
X1392Y1573D02*
X1457Y1573D01*
X691Y1572D02*
X757Y1572D01*
X1391Y1572D02*
X1457Y1572D01*
X691Y1571D02*
X758Y1571D01*
X1391Y1571D02*
X1458Y1571D01*
X690Y1570D02*
X758Y1570D01*
X1390Y1570D02*
X1458Y1570D01*
X690Y1569D02*
X759Y1569D01*
X1390Y1569D02*
X1459Y1569D01*
X689Y1568D02*
X759Y1568D01*
X1389Y1568D02*
X1459Y1568D01*
X689Y1567D02*
X760Y1567D01*
X1389Y1567D02*
X1460Y1567D01*
X689Y1566D02*
X760Y1566D01*
X1388Y1566D02*
X1460Y1566D01*
X688Y1565D02*
X761Y1565D01*
X1388Y1565D02*
X1460Y1565D01*
X688Y1564D02*
X761Y1564D01*
X1388Y1564D02*
X1461Y1564D01*
X687Y1563D02*
X761Y1563D01*
X1387Y1563D02*
X1461Y1563D01*
X687Y1562D02*
X761Y1562D01*
X1387Y1562D02*
X1461Y1562D01*
X687Y1561D02*
X762Y1561D01*
X1387Y1561D02*
X1462Y1561D01*
X687Y1560D02*
X762Y1560D01*
X1387Y1560D02*
X1462Y1560D01*
X686Y1559D02*
X762Y1559D01*
X1386Y1559D02*
X1462Y1559D01*
X686Y1558D02*
X762Y1558D01*
X1386Y1558D02*
X1462Y1558D01*
X686Y1557D02*
X762Y1557D01*
X1386Y1557D02*
X1462Y1557D01*
X686Y1556D02*
X763Y1556D01*
X1386Y1556D02*
X1462Y1556D01*
X686Y1555D02*
X763Y1555D01*
X1386Y1555D02*
X1463Y1555D01*
X686Y1554D02*
X763Y1554D01*
X1386Y1554D02*
X1463Y1554D01*
X686Y1553D02*
X763Y1553D01*
X1386Y1553D02*
X1463Y1553D01*
X686Y1552D02*
X763Y1552D01*
X1386Y1552D02*
X1463Y1552D01*
X686Y1551D02*
X763Y1551D01*
X1386Y1551D02*
X1463Y1551D01*
X686Y1550D02*
X763Y1550D01*
X1386Y1550D02*
X1463Y1550D01*
X686Y1549D02*
X763Y1549D01*
X1386Y1549D02*
X1462Y1549D01*
X686Y1548D02*
X762Y1548D01*
X1386Y1548D02*
X1462Y1548D01*
X686Y1547D02*
X762Y1547D01*
X1386Y1547D02*
X1462Y1547D01*
X686Y1546D02*
X762Y1546D01*
X1386Y1546D02*
X1462Y1546D01*
X687Y1545D02*
X762Y1545D01*
X1386Y1545D02*
X1462Y1545D01*
X687Y1544D02*
X762Y1544D01*
X1387Y1544D02*
X1462Y1544D01*
X687Y1543D02*
X761Y1543D01*
X1387Y1543D02*
X1461Y1543D01*
X687Y1542D02*
X761Y1542D01*
X1387Y1542D02*
X1461Y1542D01*
X688Y1541D02*
X761Y1541D01*
X1387Y1541D02*
X1461Y1541D01*
X688Y1540D02*
X761Y1540D01*
X1388Y1540D02*
X1460Y1540D01*
X688Y1539D02*
X760Y1539D01*
X1388Y1539D02*
X1460Y1539D01*
X689Y1538D02*
X760Y1538D01*
X1389Y1538D02*
X1460Y1538D01*
X689Y1537D02*
X759Y1537D01*
X1389Y1537D02*
X1459Y1537D01*
X690Y1536D02*
X759Y1536D01*
X1389Y1536D02*
X1459Y1536D01*
X690Y1535D02*
X759Y1535D01*
X1390Y1535D02*
X1458Y1535D01*
X691Y1534D02*
X758Y1534D01*
X1390Y1534D02*
X1458Y1534D01*
X691Y1533D02*
X757Y1533D01*
X1391Y1533D02*
X1457Y1533D01*
X692Y1532D02*
X757Y1532D01*
X1392Y1532D02*
X1457Y1532D01*
X692Y1531D02*
X756Y1531D01*
X1392Y1531D02*
X1456Y1531D01*
X693Y1530D02*
X756Y1530D01*
X1393Y1530D02*
X1456Y1530D01*
X694Y1529D02*
X755Y1529D01*
X1394Y1529D02*
X1455Y1529D01*
X695Y1528D02*
X754Y1528D01*
X1394Y1528D02*
X1454Y1528D01*
X695Y1527D02*
X753Y1527D01*
X1395Y1527D02*
X1453Y1527D01*
X696Y1526D02*
X753Y1526D01*
X1396Y1526D02*
X1452Y1526D01*
X697Y1525D02*
X752Y1525D01*
X1397Y1525D02*
X1452Y1525D01*
X698Y1524D02*
X751Y1524D01*
X1398Y1524D02*
X1450Y1524D01*
X700Y1523D02*
X749Y1523D01*
X1399Y1523D02*
X1449Y1523D01*
X701Y1522D02*
X748Y1522D01*
X1401Y1522D02*
X1448Y1522D01*
X702Y1521D02*
X747Y1521D01*
X1402Y1521D02*
X1447Y1521D01*
X704Y1520D02*
X745Y1520D01*
X1404Y1520D02*
X1445Y1520D01*
X706Y1519D02*
X743Y1519D01*
X1405Y1519D02*
X1443Y1519D01*
X707Y1518D02*
X742Y1518D01*
X1407Y1518D02*
X1441Y1518D01*
X710Y1517D02*
X739Y1517D01*
X1410Y1517D02*
X1439Y1517D01*
X712Y1516D02*
X737Y1516D01*
X1412Y1516D02*
X1436Y1516D01*
X716Y1515D02*
X733Y1515D01*
X1416Y1515D02*
X1433Y1515D01*
X721Y1514D02*
X728Y1514D01*
X1420Y1514D02*
X1428Y1514D01*
X718Y1491D02*
X731Y1491D01*
X1418Y1491D02*
X1431Y1491D01*
X714Y1490D02*
X735Y1490D01*
X1414Y1490D02*
X1435Y1490D01*
X711Y1489D02*
X738Y1489D01*
X1411Y1489D02*
X1438Y1489D01*
X709Y1488D02*
X740Y1488D01*
X1409Y1488D02*
X1440Y1488D01*
X707Y1487D02*
X742Y1487D01*
X1407Y1487D02*
X1442Y1487D01*
X705Y1486D02*
X744Y1486D01*
X1405Y1486D02*
X1444Y1486D01*
X703Y1485D02*
X746Y1485D01*
X1403Y1485D02*
X1446Y1485D01*
X702Y1484D02*
X747Y1484D01*
X1402Y1484D02*
X1447Y1484D01*
X701Y1483D02*
X748Y1483D01*
X1401Y1483D02*
X1448Y1483D01*
X699Y1482D02*
X750Y1482D01*
X1399Y1482D02*
X1449Y1482D01*
X698Y1481D02*
X751Y1481D01*
X1398Y1481D02*
X1451Y1481D01*
X697Y1480D02*
X752Y1480D01*
X1397Y1480D02*
X1452Y1480D01*
X696Y1479D02*
X753Y1479D01*
X1396Y1479D02*
X1453Y1479D01*
X695Y1478D02*
X754Y1478D01*
X1395Y1478D02*
X1453Y1478D01*
X695Y1477D02*
X754Y1477D01*
X1394Y1477D02*
X1454Y1477D01*
X694Y1476D02*
X755Y1476D01*
X1394Y1476D02*
X1455Y1476D01*
X693Y1475D02*
X756Y1475D01*
X1393Y1475D02*
X1456Y1475D01*
X693Y1474D02*
X756Y1474D01*
X1392Y1474D02*
X1456Y1474D01*
X692Y1473D02*
X757Y1473D01*
X1392Y1473D02*
X1457Y1473D01*
X691Y1472D02*
X757Y1472D01*
X1391Y1472D02*
X1457Y1472D01*
X691Y1471D02*
X758Y1471D01*
X1391Y1471D02*
X1458Y1471D01*
X690Y1470D02*
X759Y1470D01*
X1390Y1470D02*
X1458Y1470D01*
X690Y1469D02*
X759Y1469D01*
X1390Y1469D02*
X1459Y1469D01*
X689Y1468D02*
X759Y1468D01*
X1389Y1468D02*
X1459Y1468D01*
X689Y1467D02*
X760Y1467D01*
X1389Y1467D02*
X1460Y1467D01*
X689Y1466D02*
X760Y1466D01*
X1388Y1466D02*
X1460Y1466D01*
X688Y1465D02*
X761Y1465D01*
X1388Y1465D02*
X1460Y1465D01*
X688Y1464D02*
X761Y1464D01*
X1388Y1464D02*
X1461Y1464D01*
X687Y1463D02*
X761Y1463D01*
X1387Y1463D02*
X1461Y1463D01*
X687Y1462D02*
X761Y1462D01*
X1387Y1462D02*
X1461Y1462D01*
X687Y1461D02*
X762Y1461D01*
X1387Y1461D02*
X1462Y1461D01*
X687Y1460D02*
X762Y1460D01*
X1387Y1460D02*
X1462Y1460D01*
X686Y1459D02*
X762Y1459D01*
X1386Y1459D02*
X1462Y1459D01*
X686Y1458D02*
X762Y1458D01*
X1386Y1458D02*
X1462Y1458D01*
X686Y1457D02*
X762Y1457D01*
X1386Y1457D02*
X1462Y1457D01*
X686Y1456D02*
X763Y1456D01*
X1386Y1456D02*
X1462Y1456D01*
X686Y1455D02*
X763Y1455D01*
X1386Y1455D02*
X1463Y1455D01*
X686Y1454D02*
X763Y1454D01*
X1386Y1454D02*
X1463Y1454D01*
X686Y1453D02*
X763Y1453D01*
X1386Y1453D02*
X1463Y1453D01*
X686Y1452D02*
X763Y1452D01*
X1386Y1452D02*
X1463Y1452D01*
X686Y1451D02*
X763Y1451D01*
X1386Y1451D02*
X1463Y1451D01*
X686Y1450D02*
X763Y1450D01*
X1386Y1450D02*
X1463Y1450D01*
X686Y1449D02*
X763Y1449D01*
X1386Y1449D02*
X1462Y1449D01*
X686Y1448D02*
X762Y1448D01*
X1386Y1448D02*
X1462Y1448D01*
X686Y1447D02*
X762Y1447D01*
X1386Y1447D02*
X1462Y1447D01*
X686Y1446D02*
X762Y1446D01*
X1386Y1446D02*
X1462Y1446D01*
X687Y1445D02*
X762Y1445D01*
X1386Y1445D02*
X1462Y1445D01*
X687Y1444D02*
X762Y1444D01*
X1387Y1444D02*
X1462Y1444D01*
X687Y1443D02*
X761Y1443D01*
X1387Y1443D02*
X1461Y1443D01*
X687Y1442D02*
X761Y1442D01*
X1387Y1442D02*
X1461Y1442D01*
X688Y1441D02*
X761Y1441D01*
X1387Y1441D02*
X1461Y1441D01*
X688Y1440D02*
X761Y1440D01*
X1388Y1440D02*
X1460Y1440D01*
X688Y1439D02*
X760Y1439D01*
X1388Y1439D02*
X1460Y1439D01*
X689Y1438D02*
X760Y1438D01*
X1389Y1438D02*
X1460Y1438D01*
X689Y1437D02*
X759Y1437D01*
X1389Y1437D02*
X1459Y1437D01*
X690Y1436D02*
X759Y1436D01*
X1389Y1436D02*
X1459Y1436D01*
X690Y1435D02*
X758Y1435D01*
X1390Y1435D02*
X1458Y1435D01*
X691Y1434D02*
X758Y1434D01*
X1390Y1434D02*
X1458Y1434D01*
X691Y1433D02*
X757Y1433D01*
X1391Y1433D02*
X1457Y1433D01*
X692Y1432D02*
X757Y1432D01*
X1392Y1432D02*
X1457Y1432D01*
X692Y1431D02*
X756Y1431D01*
X1392Y1431D02*
X1456Y1431D01*
X693Y1430D02*
X756Y1430D01*
X1393Y1430D02*
X1456Y1430D01*
X694Y1429D02*
X755Y1429D01*
X1394Y1429D02*
X1455Y1429D01*
X695Y1428D02*
X754Y1428D01*
X1394Y1428D02*
X1454Y1428D01*
X695Y1427D02*
X753Y1427D01*
X1395Y1427D02*
X1453Y1427D01*
X696Y1426D02*
X753Y1426D01*
X1396Y1426D02*
X1452Y1426D01*
X697Y1425D02*
X752Y1425D01*
X1397Y1425D02*
X1452Y1425D01*
X698Y1424D02*
X751Y1424D01*
X1398Y1424D02*
X1450Y1424D01*
X700Y1423D02*
X749Y1423D01*
X1399Y1423D02*
X1449Y1423D01*
X701Y1422D02*
X748Y1422D01*
X1401Y1422D02*
X1448Y1422D01*
X702Y1421D02*
X747Y1421D01*
X1402Y1421D02*
X1447Y1421D01*
X704Y1420D02*
X745Y1420D01*
X1404Y1420D02*
X1445Y1420D01*
X706Y1419D02*
X743Y1419D01*
X1405Y1419D02*
X1443Y1419D01*
X708Y1418D02*
X741Y1418D01*
X1407Y1418D02*
X1441Y1418D01*
X710Y1417D02*
X739Y1417D01*
X1410Y1417D02*
X1439Y1417D01*
X712Y1416D02*
X736Y1416D01*
X1412Y1416D02*
X1436Y1416D01*
X716Y1415D02*
X733Y1415D01*
X1416Y1415D02*
X1433Y1415D01*
X721Y1414D02*
X728Y1414D01*
X1421Y1414D02*
X1428Y1414D01*
X718Y1391D02*
X731Y1391D01*
X1418Y1391D02*
X1431Y1391D01*
X714Y1390D02*
X735Y1390D01*
X1414Y1390D02*
X1435Y1390D01*
X711Y1389D02*
X738Y1389D01*
X1411Y1389D02*
X1438Y1389D01*
X709Y1388D02*
X741Y1388D01*
X1409Y1388D02*
X1440Y1388D01*
X707Y1387D02*
X743Y1387D01*
X1407Y1387D02*
X1442Y1387D01*
X705Y1386D02*
X744Y1386D01*
X1405Y1386D02*
X1444Y1386D01*
X703Y1385D02*
X746Y1385D01*
X1403Y1385D02*
X1446Y1385D01*
X702Y1384D02*
X747Y1384D01*
X1402Y1384D02*
X1447Y1384D01*
X701Y1383D02*
X748Y1383D01*
X1400Y1383D02*
X1448Y1383D01*
X699Y1382D02*
X750Y1382D01*
X1399Y1382D02*
X1450Y1382D01*
X698Y1381D02*
X751Y1381D01*
X1398Y1381D02*
X1451Y1381D01*
X697Y1380D02*
X752Y1380D01*
X1397Y1380D02*
X1452Y1380D01*
X696Y1379D02*
X753Y1379D01*
X1396Y1379D02*
X1453Y1379D01*
X695Y1378D02*
X754Y1378D01*
X1395Y1378D02*
X1453Y1378D01*
X695Y1377D02*
X754Y1377D01*
X1394Y1377D02*
X1454Y1377D01*
X694Y1376D02*
X755Y1376D01*
X1394Y1376D02*
X1455Y1376D01*
X693Y1375D02*
X756Y1375D01*
X1393Y1375D02*
X1456Y1375D01*
X692Y1374D02*
X756Y1374D01*
X1392Y1374D02*
X1456Y1374D01*
X692Y1373D02*
X757Y1373D01*
X1392Y1373D02*
X1457Y1373D01*
X691Y1372D02*
X758Y1372D01*
X1391Y1372D02*
X1457Y1372D01*
X691Y1371D02*
X758Y1371D01*
X1391Y1371D02*
X1458Y1371D01*
X690Y1370D02*
X759Y1370D01*
X1390Y1370D02*
X1458Y1370D01*
X690Y1369D02*
X759Y1369D01*
X1390Y1369D02*
X1459Y1369D01*
X689Y1368D02*
X759Y1368D01*
X1389Y1368D02*
X1459Y1368D01*
X689Y1367D02*
X760Y1367D01*
X1389Y1367D02*
X1460Y1367D01*
X688Y1366D02*
X760Y1366D01*
X1388Y1366D02*
X1460Y1366D01*
X688Y1365D02*
X761Y1365D01*
X1388Y1365D02*
X1460Y1365D01*
X688Y1364D02*
X761Y1364D01*
X1388Y1364D02*
X1461Y1364D01*
X687Y1363D02*
X761Y1363D01*
X1387Y1363D02*
X1461Y1363D01*
X687Y1362D02*
X761Y1362D01*
X1387Y1362D02*
X1461Y1362D01*
X687Y1361D02*
X762Y1361D01*
X1387Y1361D02*
X1462Y1361D01*
X687Y1360D02*
X762Y1360D01*
X1387Y1360D02*
X1462Y1360D01*
X686Y1359D02*
X762Y1359D01*
X1386Y1359D02*
X1462Y1359D01*
X686Y1358D02*
X762Y1358D01*
X1386Y1358D02*
X1462Y1358D01*
X686Y1357D02*
X762Y1357D01*
X1386Y1357D02*
X1462Y1357D01*
X686Y1356D02*
X763Y1356D01*
X1386Y1356D02*
X1462Y1356D01*
X686Y1355D02*
X763Y1355D01*
X1386Y1355D02*
X1463Y1355D01*
X686Y1354D02*
X763Y1354D01*
X1386Y1354D02*
X1463Y1354D01*
X686Y1353D02*
X763Y1353D01*
X1386Y1353D02*
X1463Y1353D01*
X686Y1352D02*
X763Y1352D01*
X1386Y1352D02*
X1463Y1352D01*
X686Y1351D02*
X763Y1351D01*
X1386Y1351D02*
X1463Y1351D01*
X686Y1350D02*
X763Y1350D01*
X1386Y1350D02*
X1462Y1350D01*
X686Y1349D02*
X763Y1349D01*
X1386Y1349D02*
X1462Y1349D01*
X686Y1348D02*
X762Y1348D01*
X1386Y1348D02*
X1462Y1348D01*
X686Y1347D02*
X762Y1347D01*
X1386Y1347D02*
X1462Y1347D01*
X686Y1346D02*
X762Y1346D01*
X1386Y1346D02*
X1462Y1346D01*
X687Y1345D02*
X762Y1345D01*
X1386Y1345D02*
X1462Y1345D01*
X687Y1344D02*
X762Y1344D01*
X1387Y1344D02*
X1462Y1344D01*
X687Y1343D02*
X761Y1343D01*
X1387Y1343D02*
X1461Y1343D01*
X687Y1342D02*
X761Y1342D01*
X1387Y1342D02*
X1461Y1342D01*
X688Y1341D02*
X761Y1341D01*
X1387Y1341D02*
X1461Y1341D01*
X688Y1340D02*
X760Y1340D01*
X1388Y1340D02*
X1460Y1340D01*
X688Y1339D02*
X760Y1339D01*
X1388Y1339D02*
X1460Y1339D01*
X689Y1338D02*
X760Y1338D01*
X1389Y1338D02*
X1460Y1338D01*
X689Y1337D02*
X759Y1337D01*
X1389Y1337D02*
X1459Y1337D01*
X690Y1336D02*
X759Y1336D01*
X1389Y1336D02*
X1459Y1336D01*
X690Y1335D02*
X758Y1335D01*
X1390Y1335D02*
X1458Y1335D01*
X691Y1334D02*
X758Y1334D01*
X1390Y1334D02*
X1458Y1334D01*
X691Y1333D02*
X757Y1333D01*
X1391Y1333D02*
X1457Y1333D01*
X692Y1332D02*
X757Y1332D01*
X1392Y1332D02*
X1457Y1332D01*
X692Y1331D02*
X756Y1331D01*
X1392Y1331D02*
X1456Y1331D01*
X693Y1330D02*
X756Y1330D01*
X1393Y1330D02*
X1456Y1330D01*
X694Y1329D02*
X755Y1329D01*
X1394Y1329D02*
X1455Y1329D01*
X695Y1328D02*
X754Y1328D01*
X1395Y1328D02*
X1454Y1328D01*
X695Y1327D02*
X753Y1327D01*
X1395Y1327D02*
X1453Y1327D01*
X696Y1326D02*
X753Y1326D01*
X1396Y1326D02*
X1452Y1326D01*
X697Y1325D02*
X752Y1325D01*
X1397Y1325D02*
X1451Y1325D01*
X698Y1324D02*
X751Y1324D01*
X1398Y1324D02*
X1450Y1324D01*
X700Y1323D02*
X749Y1323D01*
X1399Y1323D02*
X1449Y1323D01*
X701Y1322D02*
X748Y1322D01*
X1401Y1322D02*
X1448Y1322D01*
X702Y1321D02*
X747Y1321D01*
X1402Y1321D02*
X1447Y1321D01*
X704Y1320D02*
X745Y1320D01*
X1404Y1320D02*
X1445Y1320D01*
X706Y1319D02*
X743Y1319D01*
X1406Y1319D02*
X1443Y1319D01*
X708Y1318D02*
X741Y1318D01*
X1408Y1318D02*
X1441Y1318D01*
X710Y1317D02*
X739Y1317D01*
X1410Y1317D02*
X1439Y1317D01*
X713Y1316D02*
X736Y1316D01*
X1412Y1316D02*
X1436Y1316D01*
X716Y1315D02*
X733Y1315D01*
X1416Y1315D02*
X1433Y1315D01*
X721Y1314D02*
X727Y1314D01*
X1421Y1314D02*
X1427Y1314D01*
X718Y1291D02*
X731Y1291D01*
X1418Y1291D02*
X1431Y1291D01*
X714Y1290D02*
X735Y1290D01*
X1414Y1290D02*
X1435Y1290D01*
X711Y1289D02*
X738Y1289D01*
X1411Y1289D02*
X1438Y1289D01*
X709Y1288D02*
X741Y1288D01*
X1409Y1288D02*
X1440Y1288D01*
X707Y1287D02*
X743Y1287D01*
X1407Y1287D02*
X1442Y1287D01*
X705Y1286D02*
X744Y1286D01*
X1405Y1286D02*
X1444Y1286D01*
X703Y1285D02*
X746Y1285D01*
X1403Y1285D02*
X1446Y1285D01*
X702Y1284D02*
X747Y1284D01*
X1402Y1284D02*
X1447Y1284D01*
X701Y1283D02*
X749Y1283D01*
X1400Y1283D02*
X1448Y1283D01*
X699Y1282D02*
X750Y1282D01*
X1399Y1282D02*
X1450Y1282D01*
X698Y1281D02*
X751Y1281D01*
X1398Y1281D02*
X1451Y1281D01*
X697Y1280D02*
X752Y1280D01*
X1397Y1280D02*
X1452Y1280D01*
X696Y1279D02*
X753Y1279D01*
X1396Y1279D02*
X1453Y1279D01*
X695Y1278D02*
X754Y1278D01*
X1395Y1278D02*
X1453Y1278D01*
X695Y1277D02*
X754Y1277D01*
X1394Y1277D02*
X1454Y1277D01*
X694Y1276D02*
X755Y1276D01*
X1394Y1276D02*
X1455Y1276D01*
X693Y1275D02*
X756Y1275D01*
X1393Y1275D02*
X1456Y1275D01*
X692Y1274D02*
X756Y1274D01*
X1392Y1274D02*
X1456Y1274D01*
X692Y1273D02*
X757Y1273D01*
X1392Y1273D02*
X1457Y1273D01*
X691Y1272D02*
X758Y1272D01*
X1391Y1272D02*
X1457Y1272D01*
X691Y1271D02*
X758Y1271D01*
X1391Y1271D02*
X1458Y1271D01*
X690Y1270D02*
X759Y1270D01*
X1390Y1270D02*
X1458Y1270D01*
X690Y1269D02*
X759Y1269D01*
X1390Y1269D02*
X1459Y1269D01*
X689Y1268D02*
X759Y1268D01*
X1389Y1268D02*
X1459Y1268D01*
X689Y1267D02*
X760Y1267D01*
X1389Y1267D02*
X1460Y1267D01*
X688Y1266D02*
X760Y1266D01*
X1388Y1266D02*
X1460Y1266D01*
X688Y1265D02*
X761Y1265D01*
X1388Y1265D02*
X1460Y1265D01*
X688Y1264D02*
X761Y1264D01*
X1388Y1264D02*
X1461Y1264D01*
X687Y1263D02*
X761Y1263D01*
X1387Y1263D02*
X1461Y1263D01*
X687Y1262D02*
X761Y1262D01*
X1387Y1262D02*
X1461Y1262D01*
X687Y1261D02*
X762Y1261D01*
X1387Y1261D02*
X1462Y1261D01*
X687Y1260D02*
X762Y1260D01*
X1387Y1260D02*
X1462Y1260D01*
X686Y1259D02*
X762Y1259D01*
X1386Y1259D02*
X1462Y1259D01*
X686Y1258D02*
X762Y1258D01*
X1386Y1258D02*
X1462Y1258D01*
X686Y1257D02*
X762Y1257D01*
X1386Y1257D02*
X1462Y1257D01*
X686Y1256D02*
X763Y1256D01*
X1386Y1256D02*
X1462Y1256D01*
X686Y1255D02*
X763Y1255D01*
X1386Y1255D02*
X1463Y1255D01*
X686Y1254D02*
X763Y1254D01*
X1386Y1254D02*
X1463Y1254D01*
X686Y1253D02*
X763Y1253D01*
X1386Y1253D02*
X1463Y1253D01*
X686Y1252D02*
X763Y1252D01*
X1386Y1252D02*
X1463Y1252D01*
X686Y1251D02*
X763Y1251D01*
X1386Y1251D02*
X1463Y1251D01*
X686Y1250D02*
X763Y1250D01*
X1386Y1250D02*
X1462Y1250D01*
X686Y1249D02*
X763Y1249D01*
X1386Y1249D02*
X1462Y1249D01*
X686Y1248D02*
X762Y1248D01*
X1386Y1248D02*
X1462Y1248D01*
X686Y1247D02*
X762Y1247D01*
X1386Y1247D02*
X1462Y1247D01*
X686Y1246D02*
X762Y1246D01*
X1386Y1246D02*
X1462Y1246D01*
X687Y1245D02*
X762Y1245D01*
X1387Y1245D02*
X1462Y1245D01*
X687Y1244D02*
X762Y1244D01*
X1387Y1244D02*
X1462Y1244D01*
X687Y1243D02*
X761Y1243D01*
X1387Y1243D02*
X1461Y1243D01*
X687Y1242D02*
X761Y1242D01*
X1387Y1242D02*
X1461Y1242D01*
X688Y1241D02*
X761Y1241D01*
X1388Y1241D02*
X1461Y1241D01*
X688Y1240D02*
X760Y1240D01*
X1388Y1240D02*
X1460Y1240D01*
X688Y1239D02*
X760Y1239D01*
X1388Y1239D02*
X1460Y1239D01*
X689Y1238D02*
X760Y1238D01*
X1389Y1238D02*
X1460Y1238D01*
X689Y1237D02*
X759Y1237D01*
X1389Y1237D02*
X1459Y1237D01*
X690Y1236D02*
X759Y1236D01*
X1389Y1236D02*
X1459Y1236D01*
X690Y1235D02*
X758Y1235D01*
X1390Y1235D02*
X1458Y1235D01*
X691Y1234D02*
X758Y1234D01*
X1390Y1234D02*
X1458Y1234D01*
X691Y1233D02*
X757Y1233D01*
X1391Y1233D02*
X1457Y1233D01*
X692Y1232D02*
X757Y1232D01*
X1392Y1232D02*
X1457Y1232D01*
X692Y1231D02*
X756Y1231D01*
X1392Y1231D02*
X1456Y1231D01*
X693Y1230D02*
X756Y1230D01*
X1393Y1230D02*
X1455Y1230D01*
X694Y1229D02*
X755Y1229D01*
X1394Y1229D02*
X1455Y1229D01*
X695Y1228D02*
X754Y1228D01*
X1395Y1228D02*
X1454Y1228D01*
X696Y1227D02*
X753Y1227D01*
X1395Y1227D02*
X1453Y1227D01*
X696Y1226D02*
X752Y1226D01*
X1396Y1226D02*
X1452Y1226D01*
X697Y1225D02*
X752Y1225D01*
X1397Y1225D02*
X1451Y1225D01*
X699Y1224D02*
X750Y1224D01*
X1398Y1224D02*
X1450Y1224D01*
X700Y1223D02*
X749Y1223D01*
X1400Y1223D02*
X1449Y1223D01*
X701Y1222D02*
X748Y1222D01*
X1401Y1222D02*
X1448Y1222D01*
X702Y1221D02*
X747Y1221D01*
X1402Y1221D02*
X1446Y1221D01*
X704Y1220D02*
X745Y1220D01*
X1404Y1220D02*
X1445Y1220D01*
X706Y1219D02*
X743Y1219D01*
X1406Y1219D02*
X1443Y1219D01*
X708Y1218D02*
X741Y1218D01*
X1408Y1218D02*
X1441Y1218D01*
X710Y1217D02*
X739Y1217D01*
X1410Y1217D02*
X1439Y1217D01*
X713Y1216D02*
X736Y1216D01*
X1413Y1216D02*
X1436Y1216D01*
X716Y1215D02*
X733Y1215D01*
X1416Y1215D02*
X1433Y1215D01*
X722Y1214D02*
X727Y1214D01*
X1422Y1214D02*
X1427Y1214D01*
X718Y1191D02*
X732Y1191D01*
X1417Y1191D02*
X1431Y1191D01*
X714Y1190D02*
X736Y1190D01*
X1414Y1190D02*
X1436Y1190D01*
X711Y1189D02*
X738Y1189D01*
X1411Y1189D02*
X1438Y1189D01*
X709Y1188D02*
X741Y1188D01*
X1409Y1188D02*
X1441Y1188D01*
X707Y1187D02*
X743Y1187D01*
X1407Y1187D02*
X1443Y1187D01*
X705Y1186D02*
X744Y1186D01*
X1405Y1186D02*
X1444Y1186D01*
X703Y1185D02*
X746Y1185D01*
X1403Y1185D02*
X1446Y1185D01*
X702Y1184D02*
X747Y1184D01*
X1402Y1184D02*
X1447Y1184D01*
X700Y1183D02*
X749Y1183D01*
X1400Y1183D02*
X1448Y1183D01*
X699Y1182D02*
X750Y1182D01*
X1399Y1182D02*
X1450Y1182D01*
X698Y1181D02*
X751Y1181D01*
X1398Y1181D02*
X1451Y1181D01*
X697Y1180D02*
X752Y1180D01*
X1397Y1180D02*
X1452Y1180D01*
X696Y1179D02*
X753Y1179D01*
X1396Y1179D02*
X1453Y1179D01*
X695Y1178D02*
X754Y1178D01*
X1395Y1178D02*
X1453Y1178D01*
X695Y1177D02*
X754Y1177D01*
X1394Y1177D02*
X1454Y1177D01*
X694Y1176D02*
X755Y1176D01*
X1394Y1176D02*
X1455Y1176D01*
X693Y1175D02*
X756Y1175D01*
X1393Y1175D02*
X1456Y1175D01*
X692Y1174D02*
X756Y1174D01*
X1392Y1174D02*
X1456Y1174D01*
X692Y1173D02*
X757Y1173D01*
X1392Y1173D02*
X1457Y1173D01*
X691Y1172D02*
X758Y1172D01*
X1391Y1172D02*
X1457Y1172D01*
X691Y1171D02*
X758Y1171D01*
X1391Y1171D02*
X1458Y1171D01*
X690Y1170D02*
X759Y1170D01*
X1390Y1170D02*
X1458Y1170D01*
X690Y1169D02*
X759Y1169D01*
X1390Y1169D02*
X1459Y1169D01*
X689Y1168D02*
X759Y1168D01*
X1389Y1168D02*
X1459Y1168D01*
X689Y1167D02*
X760Y1167D01*
X1389Y1167D02*
X1460Y1167D01*
X688Y1166D02*
X760Y1166D01*
X1388Y1166D02*
X1460Y1166D01*
X688Y1165D02*
X761Y1165D01*
X1388Y1165D02*
X1460Y1165D01*
X688Y1164D02*
X761Y1164D01*
X1388Y1164D02*
X1461Y1164D01*
X687Y1163D02*
X761Y1163D01*
X1387Y1163D02*
X1461Y1163D01*
X687Y1162D02*
X761Y1162D01*
X1387Y1162D02*
X1461Y1162D01*
X687Y1161D02*
X762Y1161D01*
X1387Y1161D02*
X1462Y1161D01*
X687Y1160D02*
X762Y1160D01*
X1387Y1160D02*
X1462Y1160D01*
X686Y1159D02*
X762Y1159D01*
X1386Y1159D02*
X1462Y1159D01*
X686Y1158D02*
X762Y1158D01*
X1386Y1158D02*
X1462Y1158D01*
X686Y1157D02*
X762Y1157D01*
X1386Y1157D02*
X1462Y1157D01*
X686Y1156D02*
X763Y1156D01*
X1386Y1156D02*
X1462Y1156D01*
X686Y1155D02*
X763Y1155D01*
X1386Y1155D02*
X1463Y1155D01*
X686Y1154D02*
X763Y1154D01*
X1386Y1154D02*
X1463Y1154D01*
X686Y1153D02*
X763Y1153D01*
X1386Y1153D02*
X1463Y1153D01*
X686Y1152D02*
X763Y1152D01*
X1386Y1152D02*
X1463Y1152D01*
X686Y1151D02*
X763Y1151D01*
X1386Y1151D02*
X1463Y1151D01*
X686Y1150D02*
X763Y1150D01*
X1386Y1150D02*
X1462Y1150D01*
X686Y1149D02*
X763Y1149D01*
X1386Y1149D02*
X1462Y1149D01*
X686Y1148D02*
X762Y1148D01*
X1386Y1148D02*
X1462Y1148D01*
X686Y1147D02*
X762Y1147D01*
X1386Y1147D02*
X1462Y1147D01*
X686Y1146D02*
X762Y1146D01*
X1386Y1146D02*
X1462Y1146D01*
X687Y1145D02*
X762Y1145D01*
X1387Y1145D02*
X1462Y1145D01*
X687Y1144D02*
X762Y1144D01*
X1387Y1144D02*
X1462Y1144D01*
X687Y1143D02*
X761Y1143D01*
X1387Y1143D02*
X1461Y1143D01*
X687Y1142D02*
X761Y1142D01*
X1387Y1142D02*
X1461Y1142D01*
X688Y1141D02*
X761Y1141D01*
X1388Y1141D02*
X1461Y1141D01*
X688Y1140D02*
X760Y1140D01*
X1388Y1140D02*
X1460Y1140D01*
X688Y1139D02*
X760Y1139D01*
X1388Y1139D02*
X1460Y1139D01*
X689Y1138D02*
X760Y1138D01*
X1389Y1138D02*
X1460Y1138D01*
X689Y1137D02*
X759Y1137D01*
X1389Y1137D02*
X1459Y1137D01*
X690Y1136D02*
X759Y1136D01*
X1389Y1136D02*
X1459Y1136D01*
X690Y1135D02*
X758Y1135D01*
X1390Y1135D02*
X1458Y1135D01*
X691Y1134D02*
X758Y1134D01*
X1390Y1134D02*
X1458Y1134D01*
X691Y1133D02*
X757Y1133D01*
X1391Y1133D02*
X1457Y1133D01*
X692Y1132D02*
X757Y1132D01*
X1392Y1132D02*
X1457Y1132D01*
X692Y1131D02*
X756Y1131D01*
X1392Y1131D02*
X1456Y1131D01*
X693Y1130D02*
X756Y1130D01*
X1393Y1130D02*
X1455Y1130D01*
X694Y1129D02*
X755Y1129D01*
X1394Y1129D02*
X1455Y1129D01*
X695Y1128D02*
X754Y1128D01*
X1395Y1128D02*
X1454Y1128D01*
X696Y1127D02*
X753Y1127D01*
X1395Y1127D02*
X1453Y1127D01*
X696Y1126D02*
X752Y1126D01*
X1396Y1126D02*
X1452Y1126D01*
X697Y1125D02*
X752Y1125D01*
X1397Y1125D02*
X1451Y1125D01*
X699Y1124D02*
X750Y1124D01*
X1398Y1124D02*
X1450Y1124D01*
X700Y1123D02*
X749Y1123D01*
X1400Y1123D02*
X1449Y1123D01*
X701Y1122D02*
X748Y1122D01*
X1401Y1122D02*
X1448Y1122D01*
X702Y1121D02*
X747Y1121D01*
X1402Y1121D02*
X1446Y1121D01*
X704Y1120D02*
X745Y1120D01*
X1404Y1120D02*
X1445Y1120D01*
X706Y1119D02*
X743Y1119D01*
X1406Y1119D02*
X1443Y1119D01*
X708Y1118D02*
X741Y1118D01*
X1408Y1118D02*
X1441Y1118D01*
X710Y1117D02*
X739Y1117D01*
X1410Y1117D02*
X1439Y1117D01*
X713Y1116D02*
X736Y1116D01*
X1413Y1116D02*
X1436Y1116D01*
X716Y1115D02*
X733Y1115D01*
X1416Y1115D02*
X1432Y1115D01*
X723Y1114D02*
X726Y1114D01*
X1423Y1114D02*
X1426Y1114D01*
X717Y1091D02*
X732Y1091D01*
X1417Y1091D02*
X1432Y1091D01*
X714Y1090D02*
X736Y1090D01*
X1414Y1090D02*
X1436Y1090D01*
X711Y1089D02*
X739Y1089D01*
X1411Y1089D02*
X1438Y1089D01*
X709Y1088D02*
X741Y1088D01*
X1409Y1088D02*
X1441Y1088D01*
X707Y1087D02*
X743Y1087D01*
X1407Y1087D02*
X1443Y1087D01*
X705Y1086D02*
X744Y1086D01*
X1405Y1086D02*
X1444Y1086D01*
X703Y1085D02*
X746Y1085D01*
X1403Y1085D02*
X1446Y1085D01*
X702Y1084D02*
X747Y1084D01*
X1402Y1084D02*
X1447Y1084D01*
X700Y1083D02*
X749Y1083D01*
X1400Y1083D02*
X1448Y1083D01*
X699Y1082D02*
X750Y1082D01*
X1399Y1082D02*
X1450Y1082D01*
X698Y1081D02*
X751Y1081D01*
X1398Y1081D02*
X1451Y1081D01*
X697Y1080D02*
X752Y1080D01*
X1397Y1080D02*
X1452Y1080D01*
X696Y1079D02*
X753Y1079D01*
X1396Y1079D02*
X1453Y1079D01*
X695Y1078D02*
X754Y1078D01*
X1395Y1078D02*
X1454Y1078D01*
X695Y1077D02*
X754Y1077D01*
X1394Y1077D02*
X1454Y1077D01*
X694Y1076D02*
X755Y1076D01*
X1394Y1076D02*
X1455Y1076D01*
X693Y1075D02*
X756Y1075D01*
X1393Y1075D02*
X1456Y1075D01*
X692Y1074D02*
X756Y1074D01*
X1392Y1074D02*
X1456Y1074D01*
X692Y1073D02*
X757Y1073D01*
X1392Y1073D02*
X1457Y1073D01*
X691Y1072D02*
X758Y1072D01*
X1391Y1072D02*
X1457Y1072D01*
X691Y1071D02*
X758Y1071D01*
X1391Y1071D02*
X1458Y1071D01*
X690Y1070D02*
X759Y1070D01*
X1390Y1070D02*
X1458Y1070D01*
X690Y1069D02*
X759Y1069D01*
X1390Y1069D02*
X1459Y1069D01*
X689Y1068D02*
X759Y1068D01*
X1389Y1068D02*
X1459Y1068D01*
X689Y1067D02*
X760Y1067D01*
X1389Y1067D02*
X1460Y1067D01*
X688Y1066D02*
X760Y1066D01*
X1388Y1066D02*
X1460Y1066D01*
X688Y1065D02*
X761Y1065D01*
X1388Y1065D02*
X1460Y1065D01*
X688Y1064D02*
X761Y1064D01*
X1388Y1064D02*
X1461Y1064D01*
X687Y1063D02*
X761Y1063D01*
X1387Y1063D02*
X1461Y1063D01*
X687Y1062D02*
X762Y1062D01*
X1387Y1062D02*
X1461Y1062D01*
X687Y1061D02*
X762Y1061D01*
X1387Y1061D02*
X1462Y1061D01*
X687Y1060D02*
X762Y1060D01*
X1386Y1060D02*
X1462Y1060D01*
X686Y1059D02*
X762Y1059D01*
X1386Y1059D02*
X1462Y1059D01*
X686Y1058D02*
X762Y1058D01*
X1386Y1058D02*
X1462Y1058D01*
X686Y1057D02*
X762Y1057D01*
X1386Y1057D02*
X1462Y1057D01*
X686Y1056D02*
X763Y1056D01*
X1386Y1056D02*
X1462Y1056D01*
X686Y1055D02*
X763Y1055D01*
X1386Y1055D02*
X1463Y1055D01*
X686Y1054D02*
X763Y1054D01*
X1386Y1054D02*
X1463Y1054D01*
X686Y1053D02*
X763Y1053D01*
X1386Y1053D02*
X1463Y1053D01*
X686Y1052D02*
X763Y1052D01*
X1386Y1052D02*
X1463Y1052D01*
X686Y1051D02*
X763Y1051D01*
X1386Y1051D02*
X1463Y1051D01*
X686Y1050D02*
X763Y1050D01*
X1386Y1050D02*
X1462Y1050D01*
X686Y1049D02*
X763Y1049D01*
X1386Y1049D02*
X1462Y1049D01*
X686Y1048D02*
X762Y1048D01*
X1386Y1048D02*
X1462Y1048D01*
X686Y1047D02*
X762Y1047D01*
X1386Y1047D02*
X1462Y1047D01*
X686Y1046D02*
X762Y1046D01*
X1386Y1046D02*
X1462Y1046D01*
X687Y1045D02*
X762Y1045D01*
X1387Y1045D02*
X1462Y1045D01*
X687Y1044D02*
X762Y1044D01*
X1387Y1044D02*
X1462Y1044D01*
X687Y1043D02*
X761Y1043D01*
X1387Y1043D02*
X1461Y1043D01*
X687Y1042D02*
X761Y1042D01*
X1387Y1042D02*
X1461Y1042D01*
X688Y1041D02*
X761Y1041D01*
X1388Y1041D02*
X1461Y1041D01*
X688Y1040D02*
X760Y1040D01*
X1388Y1040D02*
X1460Y1040D01*
X688Y1039D02*
X760Y1039D01*
X1388Y1039D02*
X1460Y1039D01*
X689Y1038D02*
X760Y1038D01*
X1389Y1038D02*
X1460Y1038D01*
X689Y1037D02*
X759Y1037D01*
X1389Y1037D02*
X1459Y1037D01*
X690Y1036D02*
X759Y1036D01*
X1390Y1036D02*
X1459Y1036D01*
X690Y1035D02*
X758Y1035D01*
X1390Y1035D02*
X1458Y1035D01*
X691Y1034D02*
X758Y1034D01*
X1391Y1034D02*
X1458Y1034D01*
X691Y1033D02*
X757Y1033D01*
X1391Y1033D02*
X1457Y1033D01*
X692Y1032D02*
X757Y1032D01*
X1392Y1032D02*
X1457Y1032D01*
X693Y1031D02*
X756Y1031D01*
X1392Y1031D02*
X1456Y1031D01*
X693Y1030D02*
X756Y1030D01*
X1393Y1030D02*
X1455Y1030D01*
X694Y1029D02*
X755Y1029D01*
X1394Y1029D02*
X1455Y1029D01*
X695Y1028D02*
X754Y1028D01*
X1395Y1028D02*
X1454Y1028D01*
X696Y1027D02*
X753Y1027D01*
X1395Y1027D02*
X1453Y1027D01*
X697Y1026D02*
X752Y1026D01*
X1396Y1026D02*
X1452Y1026D01*
X697Y1025D02*
X751Y1025D01*
X1397Y1025D02*
X1451Y1025D01*
X699Y1024D02*
X750Y1024D01*
X1398Y1024D02*
X1450Y1024D01*
X700Y1023D02*
X749Y1023D01*
X1400Y1023D02*
X1449Y1023D01*
X701Y1022D02*
X748Y1022D01*
X1401Y1022D02*
X1448Y1022D01*
X703Y1021D02*
X746Y1021D01*
X1402Y1021D02*
X1446Y1021D01*
X704Y1020D02*
X745Y1020D01*
X1404Y1020D02*
X1445Y1020D01*
X706Y1019D02*
X743Y1019D01*
X1406Y1019D02*
X1443Y1019D01*
X708Y1018D02*
X741Y1018D01*
X1408Y1018D02*
X1441Y1018D01*
X710Y1017D02*
X739Y1017D01*
X1410Y1017D02*
X1439Y1017D01*
X713Y1016D02*
X736Y1016D01*
X1413Y1016D02*
X1436Y1016D01*
X716Y1015D02*
X732Y1015D01*
X1416Y1015D02*
X1432Y1015D01*
X723Y1014D02*
X725Y1014D01*
X1423Y1014D02*
X1425Y1014D01*
X717Y991D02*
X732Y991D01*
X1417Y991D02*
X1432Y991D01*
X714Y990D02*
X736Y990D01*
X1413Y990D02*
X1436Y990D01*
X711Y989D02*
X739Y989D01*
X1411Y989D02*
X1439Y989D01*
X709Y988D02*
X741Y988D01*
X1409Y988D02*
X1441Y988D01*
X707Y987D02*
X743Y987D01*
X1406Y987D02*
X1443Y987D01*
X705Y986D02*
X744Y986D01*
X1405Y986D02*
X1444Y986D01*
X703Y985D02*
X746Y985D01*
X1403Y985D02*
X1446Y985D01*
X702Y984D02*
X747Y984D01*
X1402Y984D02*
X1447Y984D01*
X700Y983D02*
X749Y983D01*
X1400Y983D02*
X1449Y983D01*
X699Y982D02*
X750Y982D01*
X1399Y982D02*
X1450Y982D01*
X698Y981D02*
X751Y981D01*
X1398Y981D02*
X1451Y981D01*
X697Y980D02*
X752Y980D01*
X1397Y980D02*
X1452Y980D01*
X696Y979D02*
X753Y979D01*
X1396Y979D02*
X1453Y979D01*
X695Y978D02*
X754Y978D01*
X1395Y978D02*
X1454Y978D01*
X694Y977D02*
X754Y977D01*
X1394Y977D02*
X1454Y977D01*
X694Y976D02*
X755Y976D01*
X1394Y976D02*
X1455Y976D01*
X693Y975D02*
X756Y975D01*
X1393Y975D02*
X1456Y975D01*
X692Y974D02*
X756Y974D01*
X1392Y974D02*
X1456Y974D01*
X692Y973D02*
X757Y973D01*
X1392Y973D02*
X1457Y973D01*
X691Y972D02*
X758Y972D01*
X1391Y972D02*
X1457Y972D01*
X691Y971D02*
X758Y971D01*
X1391Y971D02*
X1458Y971D01*
X690Y970D02*
X759Y970D01*
X1390Y970D02*
X1458Y970D01*
X690Y969D02*
X759Y969D01*
X1390Y969D02*
X1459Y969D01*
X689Y968D02*
X760Y968D01*
X1389Y968D02*
X1459Y968D01*
X689Y967D02*
X760Y967D01*
X1389Y967D02*
X1460Y967D01*
X688Y966D02*
X760Y966D01*
X1388Y966D02*
X1460Y966D01*
X688Y965D02*
X761Y965D01*
X1388Y965D02*
X1460Y965D01*
X688Y964D02*
X761Y964D01*
X1388Y964D02*
X1461Y964D01*
X687Y963D02*
X761Y963D01*
X1387Y963D02*
X1461Y963D01*
X687Y962D02*
X762Y962D01*
X1387Y962D02*
X1461Y962D01*
X687Y961D02*
X762Y961D01*
X1387Y961D02*
X1462Y961D01*
X687Y960D02*
X762Y960D01*
X1386Y960D02*
X1462Y960D01*
X686Y959D02*
X762Y959D01*
X1386Y959D02*
X1462Y959D01*
X686Y958D02*
X762Y958D01*
X1386Y958D02*
X1462Y958D01*
X686Y957D02*
X763Y957D01*
X1386Y957D02*
X1462Y957D01*
X686Y956D02*
X763Y956D01*
X1386Y956D02*
X1462Y956D01*
X686Y955D02*
X763Y955D01*
X1386Y955D02*
X1463Y955D01*
X686Y954D02*
X763Y954D01*
X1386Y954D02*
X1463Y954D01*
X686Y953D02*
X763Y953D01*
X1386Y953D02*
X1463Y953D01*
X686Y952D02*
X763Y952D01*
X1386Y952D02*
X1463Y952D01*
X686Y951D02*
X763Y951D01*
X1386Y951D02*
X1463Y951D01*
X686Y950D02*
X763Y950D01*
X1386Y950D02*
X1462Y950D01*
X686Y949D02*
X763Y949D01*
X1386Y949D02*
X1462Y949D01*
X686Y948D02*
X762Y948D01*
X1386Y948D02*
X1462Y948D01*
X686Y947D02*
X762Y947D01*
X1386Y947D02*
X1462Y947D01*
X687Y946D02*
X762Y946D01*
X1386Y946D02*
X1462Y946D01*
X687Y945D02*
X762Y945D01*
X1387Y945D02*
X1462Y945D01*
X687Y944D02*
X762Y944D01*
X1387Y944D02*
X1461Y944D01*
X687Y943D02*
X761Y943D01*
X1387Y943D02*
X1461Y943D01*
X687Y942D02*
X761Y942D01*
X1387Y942D02*
X1461Y942D01*
X688Y941D02*
X761Y941D01*
X1388Y941D02*
X1461Y941D01*
X688Y940D02*
X760Y940D01*
X1388Y940D02*
X1460Y940D01*
X688Y939D02*
X760Y939D01*
X1388Y939D02*
X1460Y939D01*
X689Y938D02*
X760Y938D01*
X1389Y938D02*
X1460Y938D01*
X689Y937D02*
X759Y937D01*
X1389Y937D02*
X1459Y937D01*
X690Y936D02*
X759Y936D01*
X1390Y936D02*
X1459Y936D01*
X690Y935D02*
X758Y935D01*
X1390Y935D02*
X1458Y935D01*
X691Y934D02*
X758Y934D01*
X1391Y934D02*
X1458Y934D01*
X691Y933D02*
X757Y933D01*
X1391Y933D02*
X1457Y933D01*
X692Y932D02*
X757Y932D01*
X1392Y932D02*
X1457Y932D01*
X693Y931D02*
X756Y931D01*
X1392Y931D02*
X1456Y931D01*
X693Y930D02*
X756Y930D01*
X1393Y930D02*
X1455Y930D01*
X694Y929D02*
X755Y929D01*
X1394Y929D02*
X1455Y929D01*
X695Y928D02*
X754Y928D01*
X1395Y928D02*
X1454Y928D01*
X696Y927D02*
X753Y927D01*
X1396Y927D02*
X1453Y927D01*
X697Y926D02*
X752Y926D01*
X1396Y926D02*
X1452Y926D01*
X698Y925D02*
X751Y925D01*
X1397Y925D02*
X1451Y925D01*
X699Y924D02*
X750Y924D01*
X1399Y924D02*
X1450Y924D01*
X700Y923D02*
X749Y923D01*
X1400Y923D02*
X1449Y923D01*
X701Y922D02*
X748Y922D01*
X1401Y922D02*
X1448Y922D01*
X703Y921D02*
X746Y921D01*
X1402Y921D02*
X1446Y921D01*
X704Y920D02*
X745Y920D01*
X1404Y920D02*
X1445Y920D01*
X706Y919D02*
X743Y919D01*
X1406Y919D02*
X1443Y919D01*
X708Y918D02*
X741Y918D01*
X1408Y918D02*
X1441Y918D01*
X710Y917D02*
X739Y917D01*
X1410Y917D02*
X1439Y917D01*
X713Y916D02*
X736Y916D01*
X1413Y916D02*
X1436Y916D01*
X717Y915D02*
X732Y915D01*
X1416Y915D02*
X1432Y915D01*
X724Y914D02*
X725Y914D01*
X1424Y914D02*
X1424Y914D01*
X717Y891D02*
X732Y891D01*
X1417Y891D02*
X1432Y891D01*
X714Y890D02*
X736Y890D01*
X1413Y890D02*
X1436Y890D01*
X711Y889D02*
X739Y889D01*
X1411Y889D02*
X1439Y889D01*
X709Y888D02*
X741Y888D01*
X1408Y888D02*
X1441Y888D01*
X707Y887D02*
X743Y887D01*
X1406Y887D02*
X1443Y887D01*
X705Y886D02*
X744Y886D01*
X1405Y886D02*
X1444Y886D01*
X703Y885D02*
X746Y885D01*
X1403Y885D02*
X1446Y885D01*
X702Y884D02*
X747Y884D01*
X1402Y884D02*
X1447Y884D01*
X700Y883D02*
X749Y883D01*
X1400Y883D02*
X1449Y883D01*
X699Y882D02*
X750Y882D01*
X1399Y882D02*
X1450Y882D01*
X698Y881D02*
X751Y881D01*
X1398Y881D02*
X1451Y881D01*
X697Y880D02*
X752Y880D01*
X1397Y880D02*
X1452Y880D01*
X696Y879D02*
X753Y879D01*
X1396Y879D02*
X1453Y879D01*
X695Y878D02*
X754Y878D01*
X1395Y878D02*
X1454Y878D01*
X694Y877D02*
X754Y877D01*
X1394Y877D02*
X1454Y877D01*
X694Y876D02*
X755Y876D01*
X1394Y876D02*
X1455Y876D01*
X693Y875D02*
X756Y875D01*
X1393Y875D02*
X1456Y875D01*
X692Y874D02*
X756Y874D01*
X1392Y874D02*
X1456Y874D01*
X692Y873D02*
X757Y873D01*
X1392Y873D02*
X1457Y873D01*
X691Y872D02*
X758Y872D01*
X1391Y872D02*
X1457Y872D01*
X691Y871D02*
X758Y871D01*
X1390Y871D02*
X1458Y871D01*
X690Y870D02*
X759Y870D01*
X1390Y870D02*
X1458Y870D01*
X690Y869D02*
X759Y869D01*
X1390Y869D02*
X1459Y869D01*
X689Y868D02*
X760Y868D01*
X1389Y868D02*
X1459Y868D01*
X689Y867D02*
X760Y867D01*
X1389Y867D02*
X1460Y867D01*
X688Y866D02*
X760Y866D01*
X1388Y866D02*
X1460Y866D01*
X688Y865D02*
X761Y865D01*
X1388Y865D02*
X1461Y865D01*
X688Y864D02*
X761Y864D01*
X1388Y864D02*
X1461Y864D01*
X687Y863D02*
X761Y863D01*
X1387Y863D02*
X1461Y863D01*
X687Y862D02*
X762Y862D01*
X1387Y862D02*
X1461Y862D01*
X687Y861D02*
X762Y861D01*
X1387Y861D02*
X1462Y861D01*
X687Y860D02*
X762Y860D01*
X1386Y860D02*
X1462Y860D01*
X686Y859D02*
X762Y859D01*
X1386Y859D02*
X1462Y859D01*
X686Y858D02*
X762Y858D01*
X1386Y858D02*
X1462Y858D01*
X686Y857D02*
X763Y857D01*
X1386Y857D02*
X1462Y857D01*
X686Y856D02*
X763Y856D01*
X1386Y856D02*
X1462Y856D01*
X686Y855D02*
X763Y855D01*
X1386Y855D02*
X1463Y855D01*
X686Y854D02*
X763Y854D01*
X1386Y854D02*
X1463Y854D01*
X686Y853D02*
X763Y853D01*
X1386Y853D02*
X1463Y853D01*
X686Y852D02*
X763Y852D01*
X1386Y852D02*
X1463Y852D01*
X686Y851D02*
X763Y851D01*
X1386Y851D02*
X1463Y851D01*
X686Y850D02*
X763Y850D01*
X1386Y850D02*
X1462Y850D01*
X686Y849D02*
X763Y849D01*
X1386Y849D02*
X1462Y849D01*
X686Y848D02*
X762Y848D01*
X1386Y848D02*
X1462Y848D01*
X686Y847D02*
X762Y847D01*
X1386Y847D02*
X1462Y847D01*
X687Y846D02*
X762Y846D01*
X1386Y846D02*
X1462Y846D01*
X687Y845D02*
X762Y845D01*
X1387Y845D02*
X1462Y845D01*
X687Y844D02*
X762Y844D01*
X1387Y844D02*
X1461Y844D01*
X687Y843D02*
X761Y843D01*
X1387Y843D02*
X1461Y843D01*
X687Y842D02*
X761Y842D01*
X1387Y842D02*
X1461Y842D01*
X688Y841D02*
X761Y841D01*
X1388Y841D02*
X1461Y841D01*
X688Y840D02*
X760Y840D01*
X1388Y840D02*
X1460Y840D01*
X688Y839D02*
X760Y839D01*
X1388Y839D02*
X1460Y839D01*
X689Y838D02*
X760Y838D01*
X1389Y838D02*
X1460Y838D01*
X689Y837D02*
X759Y837D01*
X1389Y837D02*
X1459Y837D01*
X690Y836D02*
X759Y836D01*
X1390Y836D02*
X1459Y836D01*
X690Y835D02*
X758Y835D01*
X1390Y835D02*
X1458Y835D01*
X691Y834D02*
X758Y834D01*
X1391Y834D02*
X1458Y834D01*
X691Y833D02*
X757Y833D01*
X1391Y833D02*
X1457Y833D01*
X692Y832D02*
X757Y832D01*
X1392Y832D02*
X1457Y832D01*
X693Y831D02*
X756Y831D01*
X1392Y831D02*
X1456Y831D01*
X693Y830D02*
X755Y830D01*
X1393Y830D02*
X1455Y830D01*
X694Y829D02*
X755Y829D01*
X1394Y829D02*
X1455Y829D01*
X695Y828D02*
X754Y828D01*
X1395Y828D02*
X1454Y828D01*
X696Y827D02*
X753Y827D01*
X1396Y827D02*
X1453Y827D01*
X697Y826D02*
X752Y826D01*
X1396Y826D02*
X1452Y826D01*
X698Y825D02*
X751Y825D01*
X1397Y825D02*
X1451Y825D01*
X699Y824D02*
X750Y824D01*
X1399Y824D02*
X1450Y824D01*
X700Y823D02*
X749Y823D01*
X1400Y823D02*
X1449Y823D01*
X701Y822D02*
X748Y822D01*
X1401Y822D02*
X1448Y822D01*
X703Y821D02*
X746Y821D01*
X1403Y821D02*
X1446Y821D01*
X704Y820D02*
X745Y820D01*
X1404Y820D02*
X1445Y820D01*
X706Y819D02*
X743Y819D01*
X1406Y819D02*
X1443Y819D01*
X708Y818D02*
X741Y818D01*
X1408Y818D02*
X1441Y818D01*
X710Y817D02*
X739Y817D01*
X1410Y817D02*
X1438Y817D01*
X713Y816D02*
X736Y816D01*
X1413Y816D02*
X1436Y816D01*
X717Y815D02*
X732Y815D01*
X1417Y815D02*
X1432Y815D01*
X717Y791D02*
X732Y791D01*
X1417Y791D02*
X1432Y791D01*
X713Y790D02*
X736Y790D01*
X1413Y790D02*
X1436Y790D01*
X711Y789D02*
X739Y789D01*
X1411Y789D02*
X1439Y789D01*
X708Y788D02*
X741Y788D01*
X1408Y788D02*
X1441Y788D01*
X706Y787D02*
X743Y787D01*
X1406Y787D02*
X1443Y787D01*
X705Y786D02*
X745Y786D01*
X1405Y786D02*
X1444Y786D01*
X703Y785D02*
X746Y785D01*
X1403Y785D02*
X1446Y785D01*
X702Y784D02*
X747Y784D01*
X1401Y784D02*
X1447Y784D01*
X700Y783D02*
X749Y783D01*
X1400Y783D02*
X1449Y783D01*
X699Y782D02*
X750Y782D01*
X1399Y782D02*
X1450Y782D01*
X698Y781D02*
X751Y781D01*
X1398Y781D02*
X1451Y781D01*
X697Y780D02*
X752Y780D01*
X1397Y780D02*
X1452Y780D01*
X696Y779D02*
X753Y779D01*
X1396Y779D02*
X1453Y779D01*
X695Y778D02*
X754Y778D01*
X1395Y778D02*
X1454Y778D01*
X694Y777D02*
X754Y777D01*
X1394Y777D02*
X1454Y777D01*
X694Y776D02*
X755Y776D01*
X1394Y776D02*
X1455Y776D01*
X693Y775D02*
X756Y775D01*
X1393Y775D02*
X1456Y775D01*
X692Y774D02*
X757Y774D01*
X1392Y774D02*
X1456Y774D01*
X692Y773D02*
X757Y773D01*
X1392Y773D02*
X1457Y773D01*
X691Y772D02*
X758Y772D01*
X1391Y772D02*
X1458Y772D01*
X691Y771D02*
X758Y771D01*
X1390Y771D02*
X1458Y771D01*
X690Y770D02*
X759Y770D01*
X1390Y770D02*
X1459Y770D01*
X690Y769D02*
X759Y769D01*
X1390Y769D02*
X1459Y769D01*
X689Y768D02*
X760Y768D01*
X1389Y768D02*
X1459Y768D01*
X689Y767D02*
X760Y767D01*
X1389Y767D02*
X1460Y767D01*
X688Y766D02*
X760Y766D01*
X1388Y766D02*
X1460Y766D01*
X688Y765D02*
X761Y765D01*
X1388Y765D02*
X1461Y765D01*
X688Y764D02*
X761Y764D01*
X1388Y764D02*
X1461Y764D01*
X687Y763D02*
X761Y763D01*
X1387Y763D02*
X1461Y763D01*
X687Y762D02*
X762Y762D01*
X1387Y762D02*
X1461Y762D01*
X687Y761D02*
X762Y761D01*
X1387Y761D02*
X1462Y761D01*
X687Y760D02*
X762Y760D01*
X1386Y760D02*
X1462Y760D01*
X686Y759D02*
X762Y759D01*
X1386Y759D02*
X1462Y759D01*
X686Y758D02*
X762Y758D01*
X1386Y758D02*
X1462Y758D01*
X686Y757D02*
X763Y757D01*
X1386Y757D02*
X1462Y757D01*
X686Y756D02*
X763Y756D01*
X1386Y756D02*
X1462Y756D01*
X686Y755D02*
X763Y755D01*
X1386Y755D02*
X1463Y755D01*
X686Y754D02*
X763Y754D01*
X1386Y754D02*
X1463Y754D01*
X686Y753D02*
X763Y753D01*
X1386Y753D02*
X1463Y753D01*
X686Y752D02*
X763Y752D01*
X1386Y752D02*
X1463Y752D01*
X686Y751D02*
X763Y751D01*
X1386Y751D02*
X1463Y751D01*
X686Y750D02*
X763Y750D01*
X1386Y750D02*
X1462Y750D01*
X686Y749D02*
X763Y749D01*
X1386Y749D02*
X1462Y749D01*
X686Y748D02*
X762Y748D01*
X1386Y748D02*
X1462Y748D01*
X686Y747D02*
X762Y747D01*
X1386Y747D02*
X1462Y747D01*
X687Y746D02*
X762Y746D01*
X1386Y746D02*
X1462Y746D01*
X687Y745D02*
X762Y745D01*
X1387Y745D02*
X1462Y745D01*
X687Y744D02*
X762Y744D01*
X1387Y744D02*
X1461Y744D01*
X687Y743D02*
X761Y743D01*
X1387Y743D02*
X1461Y743D01*
X687Y742D02*
X761Y742D01*
X1387Y742D02*
X1461Y742D01*
X688Y741D02*
X761Y741D01*
X1388Y741D02*
X1461Y741D01*
X688Y740D02*
X760Y740D01*
X1388Y740D02*
X1460Y740D01*
X688Y739D02*
X760Y739D01*
X1388Y739D02*
X1460Y739D01*
X689Y738D02*
X760Y738D01*
X1389Y738D02*
X1460Y738D01*
X689Y737D02*
X759Y737D01*
X1389Y737D02*
X1459Y737D01*
X690Y736D02*
X759Y736D01*
X1390Y736D02*
X1459Y736D01*
X690Y735D02*
X758Y735D01*
X1390Y735D02*
X1458Y735D01*
X691Y734D02*
X758Y734D01*
X1391Y734D02*
X1458Y734D01*
X691Y733D02*
X757Y733D01*
X1391Y733D02*
X1457Y733D01*
X692Y732D02*
X757Y732D01*
X1392Y732D02*
X1457Y732D01*
X693Y731D02*
X756Y731D01*
X1392Y731D02*
X1456Y731D01*
X693Y730D02*
X755Y730D01*
X1393Y730D02*
X1455Y730D01*
X694Y729D02*
X755Y729D01*
X1394Y729D02*
X1455Y729D01*
X695Y728D02*
X754Y728D01*
X1395Y728D02*
X1454Y728D01*
X696Y727D02*
X753Y727D01*
X1396Y727D02*
X1453Y727D01*
X697Y726D02*
X752Y726D01*
X1397Y726D02*
X1452Y726D01*
X698Y725D02*
X751Y725D01*
X1397Y725D02*
X1451Y725D01*
X699Y724D02*
X750Y724D01*
X1399Y724D02*
X1450Y724D01*
X700Y723D02*
X749Y723D01*
X1400Y723D02*
X1449Y723D01*
X701Y722D02*
X748Y722D01*
X1401Y722D02*
X1448Y722D01*
X703Y721D02*
X746Y721D01*
X1403Y721D02*
X1446Y721D01*
X704Y720D02*
X745Y720D01*
X1404Y720D02*
X1445Y720D01*
X706Y719D02*
X743Y719D01*
X1406Y719D02*
X1443Y719D01*
X708Y718D02*
X741Y718D01*
X1408Y718D02*
X1441Y718D01*
X710Y717D02*
X738Y717D01*
X1410Y717D02*
X1438Y717D01*
X713Y716D02*
X736Y716D01*
X1413Y716D02*
X1436Y716D01*
X717Y715D02*
X732Y715D01*
X1417Y715D02*
X1432Y715D01*
X724Y692D02*
X725Y692D01*
X1424Y692D02*
X1425Y692D01*
X717Y691D02*
X732Y691D01*
X1417Y691D02*
X1432Y691D01*
X713Y690D02*
X736Y690D01*
X1413Y690D02*
X1436Y690D01*
X711Y689D02*
X739Y689D01*
X1411Y689D02*
X1439Y689D01*
X708Y688D02*
X741Y688D01*
X1408Y688D02*
X1441Y688D01*
X706Y687D02*
X743Y687D01*
X1406Y687D02*
X1443Y687D01*
X705Y686D02*
X745Y686D01*
X1405Y686D02*
X1444Y686D01*
X703Y685D02*
X746Y685D01*
X1403Y685D02*
X1446Y685D01*
X702Y684D02*
X747Y684D01*
X1401Y684D02*
X1447Y684D01*
X700Y683D02*
X749Y683D01*
X1400Y683D02*
X1449Y683D01*
X699Y682D02*
X750Y682D01*
X1399Y682D02*
X1450Y682D01*
X698Y681D02*
X751Y681D01*
X1398Y681D02*
X1451Y681D01*
X697Y680D02*
X752Y680D01*
X1397Y680D02*
X1452Y680D01*
X696Y679D02*
X753Y679D01*
X1396Y679D02*
X1453Y679D01*
X695Y678D02*
X754Y678D01*
X1395Y678D02*
X1454Y678D01*
X694Y677D02*
X755Y677D01*
X1394Y677D02*
X1454Y677D01*
X694Y676D02*
X755Y676D01*
X1394Y676D02*
X1455Y676D01*
X693Y675D02*
X756Y675D01*
X1393Y675D02*
X1456Y675D01*
X692Y674D02*
X757Y674D01*
X1392Y674D02*
X1456Y674D01*
X692Y673D02*
X757Y673D01*
X1392Y673D02*
X1457Y673D01*
X691Y672D02*
X758Y672D01*
X1391Y672D02*
X1458Y672D01*
X691Y671D02*
X758Y671D01*
X1390Y671D02*
X1458Y671D01*
X690Y670D02*
X759Y670D01*
X1390Y670D02*
X1459Y670D01*
X690Y669D02*
X759Y669D01*
X1389Y669D02*
X1459Y669D01*
X689Y668D02*
X760Y668D01*
X1389Y668D02*
X1459Y668D01*
X689Y667D02*
X760Y667D01*
X1389Y667D02*
X1460Y667D01*
X688Y666D02*
X760Y666D01*
X1388Y666D02*
X1460Y666D01*
X688Y665D02*
X761Y665D01*
X1388Y665D02*
X1461Y665D01*
X688Y664D02*
X761Y664D01*
X1388Y664D02*
X1461Y664D01*
X687Y663D02*
X761Y663D01*
X1387Y663D02*
X1461Y663D01*
X687Y662D02*
X762Y662D01*
X1387Y662D02*
X1461Y662D01*
X687Y661D02*
X762Y661D01*
X1387Y661D02*
X1462Y661D01*
X687Y660D02*
X762Y660D01*
X1386Y660D02*
X1462Y660D01*
X686Y659D02*
X762Y659D01*
X1386Y659D02*
X1462Y659D01*
X686Y658D02*
X762Y658D01*
X1386Y658D02*
X1462Y658D01*
X686Y657D02*
X763Y657D01*
X1386Y657D02*
X1462Y657D01*
X686Y656D02*
X763Y656D01*
X1386Y656D02*
X1462Y656D01*
X686Y655D02*
X763Y655D01*
X1386Y655D02*
X1463Y655D01*
X686Y654D02*
X763Y654D01*
X1386Y654D02*
X1463Y654D01*
X686Y653D02*
X763Y653D01*
X1386Y653D02*
X1463Y653D01*
X686Y652D02*
X763Y652D01*
X1386Y652D02*
X1463Y652D01*
X686Y651D02*
X763Y651D01*
X1386Y651D02*
X1463Y651D01*
X686Y650D02*
X763Y650D01*
X1386Y650D02*
X1462Y650D01*
X686Y649D02*
X763Y649D01*
X1386Y649D02*
X1462Y649D01*
X686Y648D02*
X762Y648D01*
X1386Y648D02*
X1462Y648D01*
X686Y647D02*
X762Y647D01*
X1386Y647D02*
X1462Y647D01*
X687Y646D02*
X762Y646D01*
X1386Y646D02*
X1462Y646D01*
X687Y645D02*
X762Y645D01*
X1387Y645D02*
X1462Y645D01*
X687Y644D02*
X762Y644D01*
X1387Y644D02*
X1461Y644D01*
X687Y643D02*
X761Y643D01*
X1387Y643D02*
X1461Y643D01*
X687Y642D02*
X761Y642D01*
X1387Y642D02*
X1461Y642D01*
X688Y641D02*
X761Y641D01*
X1388Y641D02*
X1461Y641D01*
X688Y640D02*
X760Y640D01*
X1388Y640D02*
X1460Y640D01*
X688Y639D02*
X760Y639D01*
X1388Y639D02*
X1460Y639D01*
X689Y638D02*
X760Y638D01*
X1389Y638D02*
X1460Y638D01*
X689Y637D02*
X759Y637D01*
X1389Y637D02*
X1459Y637D01*
X690Y636D02*
X759Y636D01*
X1390Y636D02*
X1459Y636D01*
X690Y635D02*
X758Y635D01*
X1390Y635D02*
X1458Y635D01*
X691Y634D02*
X758Y634D01*
X1391Y634D02*
X1458Y634D01*
X691Y633D02*
X757Y633D01*
X1391Y633D02*
X1457Y633D01*
X692Y632D02*
X757Y632D01*
X1392Y632D02*
X1457Y632D01*
X693Y631D02*
X756Y631D01*
X1392Y631D02*
X1456Y631D01*
X693Y630D02*
X755Y630D01*
X1393Y630D02*
X1455Y630D01*
X694Y629D02*
X755Y629D01*
X1394Y629D02*
X1455Y629D01*
X695Y628D02*
X754Y628D01*
X1395Y628D02*
X1454Y628D01*
X696Y627D02*
X753Y627D01*
X1396Y627D02*
X1453Y627D01*
X697Y626D02*
X752Y626D01*
X1397Y626D02*
X1452Y626D01*
X698Y625D02*
X751Y625D01*
X1397Y625D02*
X1451Y625D01*
X699Y624D02*
X750Y624D01*
X1399Y624D02*
X1450Y624D01*
X700Y623D02*
X749Y623D01*
X1400Y623D02*
X1449Y623D01*
X701Y622D02*
X748Y622D01*
X1401Y622D02*
X1448Y622D01*
X703Y621D02*
X746Y621D01*
X1403Y621D02*
X1446Y621D01*
X704Y620D02*
X745Y620D01*
X1404Y620D02*
X1444Y620D01*
X706Y619D02*
X743Y619D01*
X1406Y619D02*
X1443Y619D01*
X708Y618D02*
X741Y618D01*
X1408Y618D02*
X1441Y618D01*
X711Y617D02*
X738Y617D01*
X1410Y617D02*
X1438Y617D01*
X713Y616D02*
X736Y616D01*
X1413Y616D02*
X1435Y616D01*
X717Y615D02*
X732Y615D01*
X1417Y615D02*
X1432Y615D01*
X723Y592D02*
X725Y592D01*
X1423Y592D02*
X1425Y592D01*
X717Y591D02*
X733Y591D01*
X1416Y591D02*
X1433Y591D01*
X713Y590D02*
X736Y590D01*
X1413Y590D02*
X1436Y590D01*
X711Y589D02*
X739Y589D01*
X1410Y589D02*
X1439Y589D01*
X708Y588D02*
X741Y588D01*
X1408Y588D02*
X1441Y588D01*
X706Y587D02*
X743Y587D01*
X1406Y587D02*
X1443Y587D01*
X705Y586D02*
X745Y586D01*
X1404Y586D02*
X1445Y586D01*
X703Y585D02*
X746Y585D01*
X1403Y585D02*
X1446Y585D01*
X702Y584D02*
X748Y584D01*
X1401Y584D02*
X1447Y584D01*
X700Y583D02*
X749Y583D01*
X1400Y583D02*
X1449Y583D01*
X699Y582D02*
X750Y582D01*
X1399Y582D02*
X1450Y582D01*
X698Y581D02*
X751Y581D01*
X1398Y581D02*
X1451Y581D01*
X697Y580D02*
X752Y580D01*
X1397Y580D02*
X1452Y580D01*
X696Y579D02*
X753Y579D01*
X1396Y579D02*
X1453Y579D01*
X695Y578D02*
X754Y578D01*
X1395Y578D02*
X1454Y578D01*
X694Y577D02*
X755Y577D01*
X1394Y577D02*
X1454Y577D01*
X694Y576D02*
X755Y576D01*
X1393Y576D02*
X1455Y576D01*
X693Y575D02*
X756Y575D01*
X1393Y575D02*
X1456Y575D01*
X692Y574D02*
X757Y574D01*
X1392Y574D02*
X1456Y574D01*
X692Y573D02*
X757Y573D01*
X1392Y573D02*
X1457Y573D01*
X691Y572D02*
X758Y572D01*
X1391Y572D02*
X1458Y572D01*
X691Y571D02*
X758Y571D01*
X1390Y571D02*
X1458Y571D01*
X690Y570D02*
X759Y570D01*
X1390Y570D02*
X1459Y570D01*
X690Y569D02*
X759Y569D01*
X1389Y569D02*
X1459Y569D01*
X689Y568D02*
X760Y568D01*
X1389Y568D02*
X1459Y568D01*
X689Y567D02*
X760Y567D01*
X1389Y567D02*
X1460Y567D01*
X688Y566D02*
X760Y566D01*
X1388Y566D02*
X1460Y566D01*
X688Y565D02*
X761Y565D01*
X1388Y565D02*
X1461Y565D01*
X688Y564D02*
X761Y564D01*
X1388Y564D02*
X1461Y564D01*
X687Y563D02*
X761Y563D01*
X1387Y563D02*
X1461Y563D01*
X687Y562D02*
X762Y562D01*
X1387Y562D02*
X1461Y562D01*
X687Y561D02*
X762Y561D01*
X1387Y561D02*
X1462Y561D01*
X687Y560D02*
X762Y560D01*
X1386Y560D02*
X1462Y560D01*
X686Y559D02*
X762Y559D01*
X1386Y559D02*
X1462Y559D01*
X686Y558D02*
X762Y558D01*
X1386Y558D02*
X1462Y558D01*
X686Y557D02*
X763Y557D01*
X1386Y557D02*
X1462Y557D01*
X686Y556D02*
X763Y556D01*
X1386Y556D02*
X1462Y556D01*
X686Y555D02*
X763Y555D01*
X1386Y555D02*
X1463Y555D01*
X686Y554D02*
X763Y554D01*
X1386Y554D02*
X1463Y554D01*
X686Y553D02*
X763Y553D01*
X1386Y553D02*
X1463Y553D01*
X686Y552D02*
X763Y552D01*
X1386Y552D02*
X1463Y552D01*
X686Y551D02*
X763Y551D01*
X1386Y551D02*
X1463Y551D01*
X686Y550D02*
X763Y550D01*
X1386Y550D02*
X1462Y550D01*
X686Y549D02*
X763Y549D01*
X1386Y549D02*
X1462Y549D01*
X686Y548D02*
X762Y548D01*
X1386Y548D02*
X1462Y548D01*
X686Y547D02*
X762Y547D01*
X1386Y547D02*
X1462Y547D01*
X687Y546D02*
X762Y546D01*
X1386Y546D02*
X1462Y546D01*
X687Y545D02*
X762Y545D01*
X1387Y545D02*
X1462Y545D01*
X687Y544D02*
X762Y544D01*
X1387Y544D02*
X1461Y544D01*
X687Y543D02*
X761Y543D01*
X1387Y543D02*
X1461Y543D01*
X687Y542D02*
X761Y542D01*
X1387Y542D02*
X1461Y542D01*
X688Y541D02*
X761Y541D01*
X1388Y541D02*
X1461Y541D01*
X688Y540D02*
X760Y540D01*
X1388Y540D02*
X1460Y540D01*
X688Y539D02*
X760Y539D01*
X1388Y539D02*
X1460Y539D01*
X689Y538D02*
X760Y538D01*
X1389Y538D02*
X1460Y538D01*
X689Y537D02*
X759Y537D01*
X1389Y537D02*
X1459Y537D01*
X690Y536D02*
X759Y536D01*
X1390Y536D02*
X1459Y536D01*
X690Y535D02*
X758Y535D01*
X1390Y535D02*
X1458Y535D01*
X691Y534D02*
X758Y534D01*
X1391Y534D02*
X1458Y534D01*
X691Y533D02*
X757Y533D01*
X1391Y533D02*
X1457Y533D01*
X692Y532D02*
X757Y532D01*
X1392Y532D02*
X1457Y532D01*
X693Y531D02*
X756Y531D01*
X1393Y531D02*
X1456Y531D01*
X693Y530D02*
X755Y530D01*
X1393Y530D02*
X1455Y530D01*
X694Y529D02*
X755Y529D01*
X1394Y529D02*
X1455Y529D01*
X695Y528D02*
X754Y528D01*
X1395Y528D02*
X1454Y528D01*
X696Y527D02*
X753Y527D01*
X1396Y527D02*
X1453Y527D01*
X697Y526D02*
X752Y526D01*
X1397Y526D02*
X1452Y526D01*
X698Y525D02*
X751Y525D01*
X1398Y525D02*
X1451Y525D01*
X699Y524D02*
X750Y524D01*
X1399Y524D02*
X1450Y524D01*
X700Y523D02*
X749Y523D01*
X1400Y523D02*
X1449Y523D01*
X701Y522D02*
X748Y522D01*
X1401Y522D02*
X1447Y522D01*
X703Y521D02*
X746Y521D01*
X1403Y521D02*
X1446Y521D01*
X704Y520D02*
X745Y520D01*
X1404Y520D02*
X1444Y520D01*
X706Y519D02*
X743Y519D01*
X1406Y519D02*
X1443Y519D01*
X708Y518D02*
X741Y518D01*
X1408Y518D02*
X1440Y518D01*
X711Y517D02*
X738Y517D01*
X1411Y517D02*
X1438Y517D01*
X713Y516D02*
X735Y516D01*
X1413Y516D02*
X1435Y516D01*
X717Y515D02*
X732Y515D01*
X1417Y515D02*
X1432Y515D01*
D02*
G04 End of Mask0*
M02*